G04 ================== begin FILE IDENTIFICATION RECORD ==================*
G04 Layout Name:  D:/EDA/PCB/ALLEGRO/PROJECT/IMX233-SOM/PCB/IMX233_SOM_06.brd*
G04 Film Name:    BOTTOM*
G04 File Format:  Gerber RS274X*
G04 File Origin:  Cadence Allegro 16.3-p003*
G04 Origin Date:  Wed Apr 04 13:57:36 2012*
G04 *
G04 Layer:  ETCH/BOTTOM*
G04 Layer:  PIN/BOTTOM*
G04 Layer:  VIA CLASS/BOTTOM*
G04 *
G04 Offset:    (0.000 0.000)*
G04 Mirror:    No*
G04 Mode:      Positive*
G04 Rotation:  0*
G04 FullContactRelief:  No*
G04 UndefLineWidth:     0.000*
G04 ================== end FILE IDENTIFICATION RECORD ====================*
%FSLAX34Y34*MOMM*%
%IR0*IPPOS*OFA0.00000B0.00000*MIA0B0*SFA1.00000B1.00000*%
%ADD10C,1.7*%
%ADD13C,1.524*%
%ADD12R,1.7X1.7*%
%ADD11C,.8*%
%ADD14C,.1*%
%ADD15C,.2*%
%ADD16C,.4*%
%ADD17C,.5*%
%ADD18C,.203*%
%ADD19C,.45*%
%ADD20C,2.304*%
%ADD21C,1.958*%
%ADD23R,5.X4.*%
%ADD22R,2.804X4.704*%
G75*
%LPD*%
G75*
G36*
G01X358000Y348000D02*
Y-248000D01*
X-298000D01*
Y348000D01*
X358000D01*
G37*
%LPC*%
G75*
G36*
G01X76710Y-172090D02*
X76610Y-172360D01*
G02X63010Y-170630I-6610J2362D01*
G01X62990Y-170440D01*
X-1270Y-106180D01*
Y-85180D01*
X-21460Y-65000D01*
X-21640Y-64980D01*
G02X-21000Y-50990I640J6980D01*
G01X-6000D01*
G02X940Y-58970I0J-7008D01*
G01X910Y-59220D01*
X12350Y-70670D01*
X12980Y-70400D01*
Y-63750D01*
G02X21020I4020J5750D01*
G01Y-96330D01*
X86670Y-161980D01*
X158790D01*
X159570Y-160840D01*
X159470Y-160580D01*
G02X164300Y-151190I6529J2579D01*
G01X164490Y-151140D01*
X165090Y-150240D01*
X165060Y-150050D01*
G02X171970Y-141980I6941J1050D01*
G01X172180D01*
X172980Y-141180D01*
Y-140970D01*
G02X180980Y-134050I7020J-31D01*
G01X181230Y-134080D01*
X184330Y-130980D01*
X197250D01*
G02Y-139020I5750J-4020D01*
G01X187670D01*
X186920Y-139770D01*
X186950Y-140020D01*
G02X186110Y-144460I-6951J-984D01*
G01X185970Y-144710D01*
X186700Y-145980D01*
X230560D01*
X240090Y-136450D01*
X240060Y-136200D01*
G02X247000Y-128220I6940J972D01*
G01X252980D01*
Y-109750D01*
G02X263880Y-105390I4021J5752D01*
G01X263820Y-105690D01*
X264990Y-106650D01*
X265280Y-106530D01*
G02X272020Y-118750I2712J-6473D01*
G01Y-129490D01*
G02X268000Y-142240I-4020J-5741D01*
G01X247000D01*
G02X246030Y-142170I0J6756D01*
G01X245780Y-142140D01*
X242560Y-145350D01*
X242830Y-145980D01*
X288330D01*
X315980Y-118330D01*
Y-63600D01*
X315350Y-63330D01*
X285670Y-93020D01*
X221600D01*
X221330Y-93650D01*
X228820Y-101130D01*
Y-129450D01*
G02X220780I-4020J-5750D01*
G01Y-104470D01*
X209330Y-93020D01*
X133330D01*
X121330Y-81020D01*
X120760D01*
X120610Y-81220D01*
G02X107980Y-77030I-5610J4220D01*
G01Y-76820D01*
X107180Y-76020D01*
X106970D01*
G02X112750Y-64980I28J7019D01*
G01X123670D01*
X138670Y-79980D01*
X280330D01*
X305980Y-54330D01*
Y131670D01*
X315980Y141670D01*
Y247570D01*
X329520Y261100D01*
X329390Y261420D01*
G02X335520Y255290I10610J4480D01*
G01X335200Y255420D01*
X324020Y244230D01*
Y231100D01*
X324650Y230830D01*
X329520Y235700D01*
X329390Y236020D01*
G02X335520Y229890I10610J4480D01*
G01X335200Y230020D01*
X328020Y222830D01*
Y220800D01*
X329740Y220350D01*
X329930Y220700D01*
G02Y209500I10070J-5600D01*
G01X329740Y209850D01*
X328020Y209400D01*
Y195400D01*
X329740Y194950D01*
X329930Y195300D01*
G02X335520Y179090I10069J-5597D01*
G01X335200Y179220D01*
X332020Y176030D01*
Y174430D01*
X333350Y173710D01*
X333610Y173880D01*
G02Y154720I6390J-9580D01*
G01X333350Y154890D01*
X332020Y154170D01*
Y149030D01*
X333350Y148310D01*
X333610Y148480D01*
G02X335520Y128290I6393J-9581D01*
G01X335200Y128420D01*
X328020Y121230D01*
Y119200D01*
X329740Y118750D01*
X329930Y119100D01*
G02X335520Y102890I10069J-5597D01*
G01X335200Y103020D01*
X332020Y99830D01*
Y98230D01*
X333350Y97510D01*
X333610Y97680D01*
G02Y78520I6390J-9580D01*
G01X333350Y78690D01*
X332020Y77970D01*
Y72830D01*
X333350Y72110D01*
X333610Y72280D01*
G02Y53120I6390J-9580D01*
G01X333350Y53290D01*
X332020Y52570D01*
Y47430D01*
X333350Y46710D01*
X333610Y46880D01*
G02Y27720I6390J-9580D01*
G01X333350Y27890D01*
X332020Y27170D01*
Y22030D01*
X333350Y21310D01*
X333610Y21480D01*
G02Y2320I6390J-9580D01*
G01X333350Y2490D01*
X332020Y1770D01*
Y-3370D01*
X333350Y-4090D01*
X333610Y-3920D01*
G02Y-23080I6390J-9580D01*
G01X333350Y-22910D01*
X332020Y-23630D01*
Y-28770D01*
X333350Y-29490D01*
X333610Y-29320D01*
G02Y-48480I6390J-9580D01*
G01X333350Y-48310D01*
X332020Y-49030D01*
Y-54170D01*
X333350Y-54890D01*
X333610Y-54720D01*
G02Y-73880I6390J-9580D01*
G01X333350Y-73710D01*
X332020Y-74430D01*
Y-79570D01*
X333350Y-80290D01*
X333610Y-80120D01*
G02Y-99280I6390J-9580D01*
G01X333350Y-99110D01*
X332020Y-99830D01*
Y-104970D01*
X333350Y-105690D01*
X333610Y-105520D01*
G02X337620Y-126370I6393J-9581D01*
G01X337380Y-126320D01*
X336390Y-127130D01*
Y-128470D01*
X337380Y-129280D01*
X337620Y-129230D01*
G02X328510Y-139710I2381J-11270D01*
G01X328530Y-139350D01*
X327020Y-138670D01*
X291670Y-174020D01*
X80330D01*
X78100Y-171780D01*
X76710Y-172090D01*
G37*
G36*
G01X158040Y-54420D02*
X158110Y-54540D01*
G02X144980Y-58170I-6111J-3458D01*
G01Y-57970D01*
X144190Y-57180D01*
X143990D01*
G02X139960Y-44540I172J7017D01*
G01Y-42330D01*
X144250Y-38040D01*
X154270D01*
X188440Y-3870D01*
Y95840D01*
X187810Y96100D01*
X186920Y95210D01*
X186950Y94960D01*
G02X177430Y87470I-6952J-959D01*
G01X177180Y87560D01*
X176040Y86790D01*
Y17000D01*
G02X172570Y8610I-11878J0D01*
G01X172190Y8230D01*
X172590Y7830D01*
X172650Y7800D01*
G02X173860Y-1860I-3148J-5300D01*
G01X132920Y-42790D01*
X132950Y-43040D01*
G02X126960Y-37050I-6950J-960D01*
G01X127210Y-37080D01*
X128810Y-35480D01*
X128700Y-34230D01*
X128510Y-34090D01*
G02X127700Y-33420I3449J4994D01*
G02X127710Y-24820I4289J4295D01*
G01X166850Y14330D01*
G03X167960Y17000I-2656J2670D01*
G01Y28260D01*
X167330Y28520D01*
X117290Y-21520D01*
X61340D01*
G02Y-10480I-4340J5520D01*
G01X112710D01*
X160980Y37790D01*
Y55660D01*
G02Y68340I3020J6340D01*
G01Y99920D01*
X159920Y100980D01*
X159720Y100990D01*
G02X166060Y111540I279J7012D01*
G01X166260Y111210D01*
X167960Y111670D01*
Y123830D01*
X167210Y124580D01*
X166960Y124550D01*
G02X162600Y137640I-956J6953D01*
G01X162820Y137760D01*
X163020Y139040D01*
X162850Y139230D01*
G02X165230Y150450I5150J4770D01*
G01X165430Y150540D01*
X165840Y151650D01*
X165740Y151850D01*
G02X164990Y155000I6240J3150D01*
G01Y165000D01*
G02X166470Y169310I7016J0D01*
G01X166670Y169560D01*
X165990Y170960D01*
X153000D01*
X110000Y127960D01*
X74670D01*
X59040Y112330D01*
Y108180D01*
X62100D01*
G02X66660Y98420I0J-5945D01*
G02Y90800I-4561J-3810D01*
G02X62100Y81050I-4560J-3809D01*
G01X59040D01*
Y55740D01*
G02X47980Y49970I-4040J-5740D01*
G01Y50180D01*
X47180Y50980D01*
X46970D01*
G02X40900Y54530I32J7019D01*
G01X40790Y54720D01*
X39680Y55020D01*
X39500Y54910D01*
G02X31000Y65930I-3505J6085D01*
G01X31150Y66080D01*
Y66800D01*
X29900D01*
G02X25340Y76560I0J5945D01*
G02X29900Y86310I4560J3809D01*
G01X31960D01*
Y109020D01*
X66910Y143970D01*
X102590D01*
X140950Y182330D01*
X140690Y182960D01*
X110330D01*
X98330Y194960D01*
X86640D01*
X86380Y194330D01*
X98790Y181920D01*
X99040Y181950D01*
G02X93050Y175960I960J-6950D01*
G01X93080Y176210D01*
X92470Y176820D01*
X91010Y176350D01*
X90960Y176040D01*
G02X84970Y170960I-5990J992D01*
G01X45670D01*
X6670Y131960D01*
X4740D01*
G02X-4440Y142120I-5741J4040D01*
G01X-4240Y142800D01*
G02X-5010Y146000I6264J3200D01*
G01Y157000D01*
G02X-4580Y159430I7081J0D01*
G01X-4510Y159610D01*
X-4910Y160610D01*
X-5090Y160690D01*
G02X-1980Y174020I3085J6308D01*
G01X-1750D01*
X-940Y174930D01*
X-970Y175160D01*
G02X2910Y182300I6969J837D01*
G01X3080Y182390D01*
X3480Y183390D01*
X3410Y183570D01*
G02X6910Y192300I6588J2425D01*
G01X7080Y192390D01*
X7480Y193390D01*
X7410Y193570D01*
G02X10910Y202300I6588J2425D01*
G01X11080Y202390D01*
X11480Y203390D01*
X11410Y203570D01*
G02X18960Y212950I6587J2426D01*
G01X19210Y212920D01*
X33780Y227490D01*
X156280D01*
X163080Y234290D01*
X163050Y234540D01*
G02X169040Y228550I6950J960D01*
G01X168790Y228580D01*
X163850Y223640D01*
X164110Y223010D01*
X175000D01*
G02X180700Y220090I0J-7023D01*
G01X180820Y219920D01*
X181920Y219720D01*
X182090Y219830D01*
G02X193010Y214280I3907J-5830D01*
G01X193030Y213970D01*
X194420Y213330D01*
X194660Y213520D01*
G02X200700Y201190I4339J-5519D01*
G01X200510Y201140D01*
X199910Y200240D01*
X199940Y200050D01*
G02X200020Y199050I-6939J-1058D01*
G01Y198840D01*
X200830Y198040D01*
X204260D01*
G02X216990Y194690I5743J-4039D01*
G01X217010Y194450D01*
X218030Y193740D01*
X218250Y193800D01*
G02X226800Y185250I1750J-6800D01*
G01X226740Y185030D01*
X227450Y184010D01*
X227690Y183990D01*
G02X228520Y170150I-690J-6986D01*
G01X228310Y170100D01*
X227710Y169090D01*
X227760Y168880D01*
G02X215260Y162960I-6763J-1877D01*
G01X194330D01*
X186330Y170960D01*
X178010D01*
X177330Y169560D01*
X177530Y169310D01*
G02X178850Y166500I-5528J-4312D01*
G01X178940Y166100D01*
X187360D01*
X200590Y152870D01*
Y148510D01*
X202200Y147970D01*
X202420Y148260D01*
G02X212040Y138260I5580J-4259D01*
G01Y-29670D01*
X208920Y-32790D01*
X208950Y-33040D01*
G02X202960Y-27050I-6950J-960D01*
G01X203210Y-27080D01*
X203960Y-26330D01*
Y138260D01*
G02X202420Y139740I4038J5742D01*
G01X202200Y140030D01*
X200590Y139490D01*
Y131850D01*
X200580Y131840D01*
Y-8900D01*
X158040Y-51450D01*
Y-54420D01*
G37*
G36*
G01X-183330Y-113020D02*
X-190190Y-119870D01*
X-190070Y-120180D01*
G02X-196180Y-114070I-9930J-3820D01*
G01X-195870Y-114190D01*
X-186670Y-104980D01*
X-142670D01*
X-69010Y-31320D01*
Y-30000D01*
G02X-54990I7010J0D01*
G01Y-42000D01*
G02X-66760Y-47140I-7007J0D01*
G01X-67120Y-46810D01*
X-103000Y-82690D01*
X-102600Y-84110D01*
X-102310Y-84190D01*
G02X-99090Y-85980I-1681J-6815D01*
G01X-86910D01*
G02X-77960Y-85260I4908J-5020D01*
G01X-77610Y-85510D01*
X-50020Y-57920D01*
X-50010Y-57720D01*
G02X-42720Y-65010I7010J-280D01*
G01X-42920Y-65020D01*
X-73920Y-96020D01*
X-77090D01*
G02X-86910I-4910J5020D01*
G01X-99090D01*
G02X-110810Y-92690I-4907J5020D01*
G01X-110890Y-92400D01*
X-112310Y-92000D01*
X-139640Y-119330D01*
G02X-154730Y-114910I-9560J-4670D01*
G01X-154400Y-114710D01*
X-154880Y-113020D01*
X-183330D01*
G37*
G36*
G01X-6980Y66080D02*
Y-8090D01*
G02X-17020I-5020J-4910D01*
G01Y54300D01*
X-18290Y55030D01*
X-18540Y54890D01*
G02X-18910Y54700I-3390J6146D01*
G01X-19080Y54610D01*
X-19480Y53610D01*
X-19410Y53430D01*
G02X-32970Y50160I-6590J-2424D01*
G01X-33000Y50430D01*
X-34250Y51060D01*
X-34490Y50920D01*
G02X-41020Y63340I-3499J6087D01*
G01Y65330D01*
X-69020Y93330D01*
Y137330D01*
X-159190Y227510D01*
X-160540Y227270D01*
X-160650Y227030D01*
G02X-167000Y222990I-6350J2970D01*
G01X-178000D01*
G02X-184940Y230970I0J7008D01*
G01X-184910Y231220D01*
X-225770Y272080D01*
X-226020Y272050D01*
G02X-220050Y278020I-980J6950D01*
G01X-220080Y277770D01*
X-212810Y270500D01*
X-211470Y270740D01*
X-211360Y270980D01*
G02X-198050Y267020I6358J-2977D01*
G01X-198080Y266770D01*
X-169650Y238330D01*
X-169020Y238600D01*
Y307430D01*
X-181100Y319520D01*
X-181420Y319390D01*
G02X-175290Y325520I-4480J10610D01*
G01X-175420Y325200D01*
X-165150Y314930D01*
X-164520Y315200D01*
Y319200D01*
G02X-156480I4020J10800D01*
G01Y242170D01*
X-143650Y229330D01*
X-143020Y229600D01*
Y321630D01*
G02X-134980Y318480I7917J8371D01*
G01Y252700D01*
X-133710Y251970D01*
X-133460Y252110D01*
G02X-125980Y240250I3451J-6112D01*
G01Y223670D01*
X-100650Y198330D01*
X-100020Y198600D01*
Y207250D01*
G02Y218750I4020J5750D01*
G01Y251670D01*
X-62920Y288770D01*
Y319200D01*
G02X-54880I4020J10800D01*
G01Y290700D01*
X-54250Y290430D01*
X-37520Y307170D01*
Y319200D01*
G02X-29480I4020J10800D01*
G01Y304100D01*
X-28850Y303830D01*
X-13860Y318820D01*
X-14010Y320110D01*
X-14210Y320240D01*
G02X2780Y326200I6116J9762D01*
G01X2640Y325820D01*
X4170Y324860D01*
X6200Y326890D01*
X6130Y327170D01*
G02X11360Y320130I11167J2833D01*
G01X11020Y320330D01*
X-70080Y239230D01*
X-70050Y238980D01*
G02X-83080Y234490I-6951J-980D01*
G01X-83270Y234820D01*
X-84980Y234370D01*
Y217620D01*
X-84950Y217590D01*
Y213640D01*
X-80230Y208920D01*
X-79980Y208950D01*
G02X-76420Y208530I985J-6951D01*
G01X-76160Y208430D01*
X-75020Y209210D01*
Y222250D01*
X-49250Y248020D01*
X-33980D01*
Y227750D01*
X-46980Y214750D01*
Y179980D01*
X-75400D01*
X-75670Y179350D01*
X-33980Y137670D01*
Y113670D01*
X-25980Y105670D01*
Y100750D01*
G02X-27380Y88490I-4022J-5751D01*
G01X-27630Y88380D01*
X-27910Y87010D01*
X-6980Y66080D01*
G37*
G36*
G01X-66920Y980D02*
X-78920Y-11020D01*
X-179080D01*
X-222380Y32280D01*
X-269630D01*
G02Y42320I-10370J5020D01*
G01X-218220D01*
X-174920Y-980D01*
X-83080D01*
X-71080Y11020D01*
X-60910D01*
G02Y980I4910J-5020D01*
G01X-66920D01*
G37*
G36*
G01X-108790Y20980D02*
X-109570Y19840D01*
X-109470Y19580D01*
G02X-120910Y11980I-6529J-2582D01*
G01X-165080D01*
X-210780Y57680D01*
X-269630D01*
G02Y67720I-10370J5020D01*
G01X-206620D01*
X-160920Y22020D01*
X-152170D01*
X-151820Y22900D01*
G02X-151960Y23040I4890J5030D01*
G01X-235410Y106480D01*
X-270870D01*
G02Y120520I-9130J7020D01*
G01X-229590D01*
X-144090Y35020D01*
X-113700D01*
X-112970Y36290D01*
X-113110Y36540D01*
G02X-114020Y40000I6123J3460D01*
G01Y43980D01*
X-148910D01*
X-236810Y131880D01*
X-268480D01*
Y127380D01*
X-291520D01*
Y150420D01*
X-268480D01*
Y145920D01*
X-230990D01*
X-143090Y58020D01*
X-60000D01*
G02X-52990Y50640I0J-7019D01*
G01Y46020D01*
X-50000D01*
G02Y31980I0J-7020D01*
G01X-67090D01*
X-78090Y20980D01*
X-108790D01*
G37*
G36*
G01X244040Y56260D02*
Y51740D01*
G02X235960I-4040J-5740D01*
G01Y56260D01*
G02X244040I4040J5740D01*
G37*
G36*
G01X31250Y287980D02*
X10870D01*
X-13980Y263130D01*
Y130110D01*
X14140Y101990D01*
Y68670D01*
X17020Y65790D01*
Y63750D01*
G02X13480Y51000I-4024J-5749D01*
G01X13010Y50450D01*
G02X1950Y55730I-7006J-452D01*
G01Y62590D01*
X1980Y62620D01*
Y78790D01*
X2100Y78910D01*
Y96650D01*
X-26020Y124770D01*
Y268470D01*
X9530Y304020D01*
X38250D01*
G02X44480Y293000I5753J-4019D01*
G01X44010Y292450D01*
G02X31250Y287980I-7006J-449D01*
G37*
G36*
G01X243040Y148260D02*
Y139330D01*
X238670Y134960D01*
X230360D01*
X228670Y136650D01*
X228040Y136390D01*
Y67740D01*
G02X219960I-4040J-5740D01*
G01Y145000D01*
G02X221140Y147860I4056J0D01*
G01X222710Y149430D01*
G02X225570Y150610I2860J-2876D01*
G01X230100D01*
X234330Y146380D01*
X234960Y146640D01*
Y148250D01*
X234760Y148410D01*
G02X243040Y148260I4243J5591D01*
G37*
G36*
G01X-80280Y286730D02*
X-82430Y284580D01*
X-82400Y284330D01*
G02X-89340Y290370I-6951J-980D01*
G01X-89130D01*
X-88320Y291180D01*
Y319200D01*
G02X-80280I4020J10800D01*
G01Y286730D01*
G37*
G36*
G01X-199980Y-34020D02*
X-228020D01*
Y17020D01*
X-211980D01*
Y20D01*
X-199980D01*
Y-34020D01*
G37*
G54D20*
X340000Y291300D03*
Y-165900D03*
X271300Y-230000D03*
X245900Y330000D03*
Y-230000D03*
X220500Y330000D03*
Y-230000D03*
X195100Y330000D03*
Y-230000D03*
X169700Y330000D03*
Y-230000D03*
X144300Y330000D03*
Y-230000D03*
X118900Y330000D03*
Y-230000D03*
X93500Y330000D03*
Y-230000D03*
X68100Y330000D03*
Y-230000D03*
X42700Y330000D03*
Y-230000D03*
X17300D03*
X-8100D03*
X-33500D03*
X-58900D03*
X-84300D03*
X-109700Y330000D03*
Y-230000D03*
X-135100D03*
X-160500D03*
X-185900D03*
X-211300Y330000D03*
X-280000Y88100D03*
Y11900D03*
Y-13500D03*
Y-38900D03*
Y-64300D03*
Y-89700D03*
Y-115100D03*
Y-140500D03*
Y-165900D03*
Y-191300D03*
G54D21*
X340000D03*
X271300Y330000D03*
X-211400Y-230000D03*
G54D23*
X91000Y276000D03*
G54D22*
X18000Y16500D03*
%LPD*%
G75*
G36*
G01X-203000Y-31000D02*
X-225000D01*
Y14000D01*
X-215000D01*
Y-3000D01*
X-203000D01*
Y-31000D01*
G37*
G36*
G01X-72000Y195000D02*
Y201490D01*
G03Y202510I-7000J510D01*
G01Y221000D01*
X-48000Y245000D01*
X-37000D01*
Y229000D01*
X-50000Y216000D01*
Y183000D01*
X-79000D01*
Y194980D01*
G03X-78490Y195000I0J6513D01*
G01X-72000D01*
G37*
G36*
G01X7000Y37000D02*
X29000D01*
Y-4000D01*
X7000D01*
Y37000D01*
G37*
G36*
G01X107500Y288250D02*
X102500D01*
Y282000D01*
X92500D01*
Y288250D01*
X87500D01*
Y282000D01*
X75000D01*
Y277000D01*
X87500D01*
X75000Y264500D01*
X82500D01*
X91250Y273250D01*
X100000Y264500D01*
X107500D01*
Y288250D01*
G37*
%LPC*%
G75*
G36*
G01X102500Y269500D02*
Y277000D01*
X95000D01*
X102500Y269500D01*
G37*
%LPD*%
G75*
G54D10*
X-280000Y-191300D03*
Y-165900D03*
Y-140500D03*
Y-115100D03*
Y-89700D03*
Y-38900D03*
Y-64300D03*
Y11900D03*
Y-13500D03*
Y62700D03*
Y37300D03*
Y88100D03*
Y113500D03*
X-185900Y-230000D03*
X-160500D03*
X-211400D03*
X-211300Y330000D03*
X-160500D03*
X-185900D03*
X-135100Y-230000D03*
X-109700D03*
Y330000D03*
X-135100D03*
X-33500Y-230000D03*
X-84300D03*
X-58900D03*
Y330000D03*
X-84300D03*
X-33500D03*
X17300Y-230000D03*
X-8100D03*
Y330000D03*
X17300D03*
X68100Y-230000D03*
X93500D03*
X42700D03*
Y330000D03*
X93500D03*
X68100D03*
X118900Y-230000D03*
X144300D03*
Y330000D03*
X118900D03*
X169700Y-230000D03*
X195100D03*
Y330000D03*
X169700D03*
X271300Y-230000D03*
X220500D03*
X245900D03*
Y330000D03*
X220500D03*
X271300D03*
X340000Y-165900D03*
Y-191300D03*
Y-115100D03*
Y-140500D03*
Y-64300D03*
Y-38900D03*
Y-89700D03*
Y-13500D03*
Y11900D03*
Y88100D03*
Y37300D03*
Y62700D03*
Y138900D03*
Y113500D03*
Y189700D03*
Y215100D03*
Y164300D03*
Y240500D03*
Y265900D03*
Y291300D03*
G54D11*
G01X-280000Y138900D02*
X-233900D01*
X-190000Y95000D01*
G01X-280000Y113500D02*
X-232500D01*
X-147000Y28000D01*
G01X-190000Y95000D02*
X-146000Y51000D01*
X-108000D01*
G01X-107000Y40000D02*
Y50000D01*
X-108000Y51000D01*
G01D02*
X-60000D01*
G01X-147000Y28000D02*
X-81000D01*
X-70000Y39000D01*
X-60000D01*
G01D02*
X-50000D01*
X-248770Y-26000D03*
X-273000Y165500D03*
Y303000D03*
X-193000Y-148000D03*
X-177000D03*
X-198000Y-59000D03*
Y-77000D03*
X-214000Y-26000D03*
X-220000Y7000D03*
X-214000Y76000D03*
Y49000D03*
X-190000Y95000D03*
X-171000Y165000D03*
X-190000D03*
X-178000Y230000D03*
X-227200Y257200D03*
X-205000Y268000D03*
X-167000Y230000D03*
X-227000Y279000D03*
X-190000Y303000D03*
X-144000Y-200000D03*
X-122000D03*
X-133000D03*
X-162000Y-148000D03*
X-104000Y-91000D03*
X-161000Y-59000D03*
Y-77000D03*
X-116000Y17000D03*
X-161000Y-26000D03*
X-150000Y8000D03*
X-107000Y40000D03*
X-147000Y28000D03*
X-138000Y165000D03*
X-155000D03*
X-130000Y246000D03*
X-118950Y257950D03*
X-149000Y275360D03*
X-92000Y-169000D03*
X-67000Y-123000D03*
X-62000Y-42000D03*
X-43000Y-58000D03*
X-82000Y-91000D03*
X-62000Y-30000D03*
X-56000Y6000D03*
X-62000Y-18000D03*
Y-4000D03*
X-60000Y51000D03*
X-50000Y39000D03*
X-60000D03*
X-46000Y27000D03*
X-62000Y61030D03*
X-49000Y103000D03*
X-82000Y121000D03*
Y136000D03*
X-79000Y202000D03*
X-75000Y189000D03*
X-64000D03*
X-57000Y270650D03*
X-77000Y238000D03*
X-96000Y213000D03*
X-44000Y230000D03*
Y240000D03*
X-89350Y283350D03*
X6000Y-123000D03*
X-6000Y-58000D03*
X17000D03*
X-21000D03*
X-12000Y-13000D03*
X12000Y1000D03*
X-22000Y61000D03*
X-38000Y57000D03*
X-26000Y51000D03*
X6000Y50000D03*
X12000Y32000D03*
X13000Y58000D03*
X-38000Y102000D03*
X-30000Y95000D03*
X-1000Y136000D03*
X2000Y146000D03*
X6000Y176000D03*
X2000Y157000D03*
X10000Y186000D03*
X-2000Y167000D03*
X-38000Y181000D03*
Y166000D03*
Y151000D03*
X14000Y196000D03*
X18000Y206000D03*
X-9000Y255000D03*
X70000Y-170000D03*
X58000Y-103000D03*
X52000Y-47000D03*
X84000Y-101000D03*
X24000Y1000D03*
X57000Y-16000D03*
X36000Y61000D03*
X47000Y58000D03*
X55000Y50000D03*
X24000Y32000D03*
X44000Y300000D03*
X37000Y292000D03*
X92980Y-110000D03*
X131020D03*
X126000Y-44000D03*
X144160Y-50160D03*
X115000Y-77000D03*
X107000Y-69000D03*
X122000Y203000D03*
X100000Y175000D03*
X109000Y168000D03*
X168000Y-180000D03*
X166000Y-158000D03*
X203000Y-135000D03*
X180000Y-141000D03*
X172000Y-149000D03*
X152000Y-58000D03*
X168000Y-97000D03*
X202000Y-34000D03*
X156000Y86000D03*
Y47000D03*
X164000Y62000D03*
X166000Y131500D03*
X180000Y94000D03*
X168000Y144000D03*
X156000Y125000D03*
Y142000D03*
X208000Y144000D03*
X160000Y108000D03*
X210000Y194000D03*
X172000Y155000D03*
Y165000D03*
X199000Y208000D03*
X193000Y199000D03*
X204000Y185000D03*
X186000Y214000D03*
X175000Y216000D03*
X193000Y264000D03*
X153000Y242000D03*
X163000Y216000D03*
X170000Y235500D03*
X213800Y-135000D03*
X247000Y-135230D03*
X268000D03*
Y-113000D03*
X257000Y-135230D03*
Y-104000D03*
X224800Y-135200D03*
X240000Y62000D03*
Y46000D03*
X224000Y62000D03*
X267090Y66500D03*
Y105500D03*
X220000Y187000D03*
X227000Y177000D03*
X221000Y167000D03*
X239000Y154000D03*
X252000Y264000D03*
X222000D03*
X305500Y-180000D03*
Y-97000D03*
X300000Y41000D03*
Y75000D03*
Y109000D03*
Y144000D03*
X310000Y187000D03*
Y160000D03*
Y215000D03*
Y243000D03*
X287000Y264000D03*
G54D12*
X-280000Y138900D03*
G54D13*
X-200000Y-124000D03*
X-149200D03*
G54D14*
G01X112000Y260000D02*
Y292000D01*
X70000D01*
Y260000D01*
X112000D01*
G01X75840Y286070D02*
X77090Y287320D01*
X78340D01*
G01Y286070D02*
Y288570D01*
G01X81700Y288400D02*
X80450D01*
G01X82950D02*
X81700D01*
Y285900D01*
G01X78340Y287320D02*
X77090D01*
X75840Y288570D01*
G54D15*
G01X-211400Y-240300D02*
Y-230000D01*
G01D02*
Y-219700D01*
G01X-221700Y-230000D02*
X-211400D01*
G01D02*
X-201100D01*
G01X-62000Y-30000D02*
X-141000Y-109000D01*
X-185000D01*
X-200000Y-124000D01*
G01X-227000Y279000D02*
X-178000Y230000D01*
G01X-167000D02*
X-205000Y268000D01*
G01X-38000Y57000D02*
X-37000Y58000D01*
Y67000D01*
X-65000Y95000D01*
Y139000D01*
X-165000Y239000D01*
Y309100D01*
X-185900Y330000D01*
G01X-149200Y-124000D02*
Y-123200D01*
X-68000Y-42000D01*
X-62000D01*
G01X-130000Y246000D02*
Y222000D01*
X-42000Y134000D01*
Y110000D01*
X-38000Y106000D01*
Y102000D01*
G01X-22000Y61000D02*
Y64000D01*
X-57000Y99000D01*
Y143000D01*
X-139000Y225000D01*
Y326100D01*
X-135100Y330000D01*
G01X-160500D02*
Y240500D01*
X-61000Y141000D01*
Y97000D01*
X-30000Y66000D01*
Y55000D01*
X-26000Y51000D01*
G01X-96000Y213000D02*
Y194000D01*
X-38000Y136000D01*
Y112000D01*
X-30000Y104000D01*
Y95000D01*
G01X-79000Y202000D02*
X-88970Y211970D01*
Y215920D01*
X-89000Y215950D01*
Y250000D01*
X-33500Y305500D01*
Y330000D01*
G01X-57000Y270650D02*
X-56350D01*
X-8100Y318900D01*
Y330000D01*
G01X-77000Y238000D02*
X15000Y330000D01*
X17300D01*
G01X-96000Y213000D02*
Y250000D01*
X-58900Y287100D01*
Y330000D01*
G01X-84300D02*
Y288400D01*
X-89350Y283350D01*
G01X-6000Y-58000D02*
X13000Y-77000D01*
Y-101000D01*
X82000Y-170000D01*
X290000D01*
X332370Y-127630D01*
Y-122730D01*
X340000Y-115100D01*
G01X17000Y-58000D02*
Y-98000D01*
X85000Y-166000D01*
X287000D01*
X328000Y-125000D01*
Y101500D01*
X340000Y113500D01*
G01X44000Y300000D02*
X11200D01*
X-22000Y266800D01*
Y126440D01*
X6120Y98320D01*
Y77240D01*
X6000Y77120D01*
Y60950D01*
X5970Y60920D01*
Y55080D01*
X6000Y55050D01*
Y50000D01*
G01X13000Y58000D02*
Y64120D01*
X10120Y67000D01*
Y100320D01*
X-18000Y128440D01*
Y264800D01*
X9200Y292000D01*
X37000D01*
G01X211000Y-89000D02*
X135000D01*
X123000Y-77000D01*
X115000D01*
G01X107000Y-69000D02*
X122000D01*
X137000Y-84000D01*
X282000D01*
X310000Y-56000D01*
Y130000D01*
X320000Y140000D01*
Y245900D01*
X340000Y265900D01*
G01X166000Y-158000D02*
X176000D01*
X180000Y-154000D01*
X292000D01*
X324000Y-122000D01*
Y122900D01*
X340000Y138900D01*
G01X180000Y-141000D02*
X186000Y-135000D01*
X203000D01*
G01X232230Y-150000D02*
X173000D01*
X172000Y-149000D01*
G01X340000Y189700D02*
X328000Y177700D01*
Y134000D01*
X320000Y126000D01*
Y-120000D01*
X290000Y-150000D01*
X232230D01*
G01D02*
X247000Y-135230D01*
G01X268000Y-113000D02*
Y-135230D01*
G01X257000Y-104000D02*
Y-135230D01*
G01X211000Y-89000D02*
X224800Y-102800D01*
Y-135200D01*
G01X340000Y240500D02*
X324000Y224500D01*
Y137000D01*
X315000Y128000D01*
Y-58000D01*
X284000Y-89000D01*
X211000D01*
G01X271300Y319700D02*
Y330000D01*
G01D02*
Y340300D01*
G01X261000Y330000D02*
X271300D01*
G01D02*
X281600D01*
G01X329700Y-191300D02*
X340000D01*
G01Y-201600D02*
Y-191300D01*
G01D02*
Y-181000D01*
G01Y-191300D02*
X350300D01*
G54D16*
G01X-280000Y62700D02*
X-208700D01*
X-163000Y17000D01*
X-116000D01*
G01X-280000Y37300D02*
X-220300D01*
X-177000Y-6000D01*
X-81000D01*
X-69000Y6000D01*
X-56000D01*
G01X-82000Y-91000D02*
X-104000D01*
G01X-43000Y-58000D02*
X-76000Y-91000D01*
X-82000D01*
G01X-12000Y-13000D02*
Y64000D01*
X-49000Y101000D01*
Y103000D01*
G01X166000Y35000D02*
Y60000D01*
X164000Y62000D01*
G01D02*
X166000Y64000D01*
Y102000D01*
X160000Y108000D01*
G54D17*
G01X57000Y-16000D02*
X115000D01*
X166000Y35000D01*
G54D18*
G01X100000Y175000D02*
X83760Y191240D01*
X57030D01*
G03Y187180I0J-2030D01*
G01X79000D01*
G02Y183120I0J-2030D01*
G01X54030D01*
G03Y179060I0J-2030D01*
G01X84970D01*
G02Y175000I0J-2030D01*
G01X44000D01*
X5000Y136000D01*
X-1000D01*
G01X204000Y185000D02*
X197710D01*
X195710Y187000D01*
X112000D01*
X100000Y199000D01*
X58000D01*
X9450Y150450D01*
X6450D01*
X2000Y146000D01*
G01X186000Y214000D02*
X176000Y204000D01*
X151000D01*
X144000Y211000D01*
X50500D01*
X15500Y176000D01*
X6000D01*
G01X2000Y157000D02*
X10000D01*
X56000Y203000D01*
X103000D01*
X115000Y191000D01*
X199000D01*
X202000Y194000D01*
X210000D01*
G01X175000Y216000D02*
X167000Y208000D01*
X154000D01*
X147000Y215000D01*
X47000D01*
X18000Y186000D01*
X10000D01*
G01X-2000Y167000D02*
X13000D01*
X53000Y207000D01*
X107000D01*
X119000Y195000D01*
X189000D01*
X193000Y199000D01*
G01X14000Y196000D02*
X20290D01*
X43290Y219000D01*
X150480D01*
X153480Y216000D01*
X163000D01*
G01X170000Y235500D02*
X157950Y223450D01*
X35450D01*
X18000Y206000D01*
G01X36000Y61000D02*
Y68940D01*
G03X34100Y70840I-1900J0D01*
G01X29900D01*
G02Y74650I0J1905D01*
G01X34100D01*
G03Y78460I0J1905D01*
G01X29900D01*
G02Y82270I0J1905D01*
G01X34100D01*
G03X36000Y84170I0J1900D01*
G01Y107350D01*
X68580Y139930D01*
X104260D01*
X147110Y182780D01*
X193220D01*
X200050Y175950D01*
X208950D01*
X220000Y187000D01*
G01X47000Y58000D02*
Y77820D01*
G03X45100Y79720I-1900J0D01*
G01X41900D01*
G02Y83530I0J1905D01*
G01X45100D01*
G03Y87340I0J1905D01*
G01X41900D01*
G02Y91150I0J1905D01*
G01X45100D01*
G03Y94960I0J1905D01*
G01X41900D01*
G02Y98770I0J1905D01*
G01X45100D01*
G03Y102580I0J1905D01*
G01X41900D01*
G02Y106390I0J1905D01*
G01X45100D01*
G03X47000Y108290I0J1900D01*
G01Y113000D01*
X69930Y135930D01*
X106260D01*
X149330Y179000D01*
X190000D01*
X198000Y171000D01*
X212000D01*
X218000Y177000D01*
X227000D01*
G01X55000Y50000D02*
Y83190D01*
G02X56900Y85090I1900J0D01*
G01X62100D01*
G03Y88900I0J1905D01*
G01X56900D01*
G02Y92710I0J1905D01*
G01X62100D01*
G03Y96520I0J1905D01*
G01X56900D01*
G02Y100330I0J1905D01*
G01X62100D01*
G03Y104140I0J1905D01*
G01X56900D01*
G02X55000Y106040I0J1900D01*
G01Y114000D01*
X73000Y132000D01*
X108330D01*
X151330Y175000D01*
X188000D01*
X196000Y167000D01*
X221000D01*
G01X166000Y131500D02*
X172000Y125500D01*
Y17000D01*
G02X169710Y11470I-7822J0D01*
G01X130560Y-27680D01*
G03Y-30560I1430J-1440D01*
G03X133440I1440J1430D01*
G01X168000Y4000D01*
G02X171000Y1000I1500J-1500D01*
G01X126000Y-44000D01*
G01X144160Y-50160D02*
X144000Y-50000D01*
Y-44000D01*
X145920Y-42080D01*
X155940D01*
X192480Y-5540D01*
Y135200D01*
X192490Y135210D01*
Y149510D01*
X184000Y158000D01*
X175000D01*
X172000Y155000D01*
G01X199000Y208000D02*
X190000D01*
X182000Y200000D01*
X147000D01*
X144000Y203000D01*
X122000D01*
G01X172000Y165000D02*
X174940Y162060D01*
X185690D01*
X196550Y151200D01*
Y133520D01*
X196540Y133510D01*
Y-7230D01*
X154000Y-49780D01*
Y-56000D01*
X152000Y-58000D01*
G01X208000Y144000D02*
Y-28000D01*
X202000Y-34000D01*
G01X168000Y144000D02*
X171600D01*
X177000Y138600D01*
Y104030D01*
G03X181060I2030J0D01*
G01Y142970D01*
G02X185120I2030J0D01*
G01Y99120D01*
X180000Y94000D01*
G01X240000Y46000D02*
Y62000D01*
G01X224000D02*
Y145000D01*
X225570Y146570D01*
X228430D01*
X230000Y145000D01*
Y141030D01*
X232030Y139000D01*
X237000D01*
X239000Y141000D01*
Y154000D01*
G54D19*
G01X-21000Y-58000D02*
X4000Y-83000D01*
Y-104000D01*
X70000Y-170000D01*
M02*
