M48
METRIC,TZ
T01C.4
T02C.9
T03C.914
;LEADER: 12 
;HEADER: 
;CODE  : ASCII 
;FILE  : IMX233_SOM_06-1-2.drl for board IMX233_SOM_06.brd ... layers TOP and BOTTOM
;T01 Holesize 1. = 0.400000 Tolerance = +0.000000/-0.000000 PLATED MM Quantity = 169
;T02 Holesize 2. = 0.900000 Tolerance = +0.000000/-0.000000 PLATED MM Quantity = 74
;T03 Holesize 3. = 0.914000 Tolerance = +0.000000/-0.000000 PLATED MM Quantity = 2
%
G90
T01
X107000Y-69000
X13000Y58000
X37000Y292000
X164000Y62000
X160000Y108000
X57000Y-16000
X18000Y206000
X170000Y235500
X224800Y-135200
X115000Y-77000
X-167000Y230000
X-205000Y268000
X-89350Y283350
X14000Y196000
X163000Y216000
X257000Y-104000
X257000Y-135230
X2000Y146000
X204000Y185000
X268000Y-113000
X268000Y-135230
X172000Y-149000
X247000Y-135230
X208000Y144000
X202000Y-34000
X-149000Y275360
X-133000Y-200000
X-122000Y-200000
X-144000Y-200000
X-92000Y-169000
X-162000Y-148000
X-177000Y-148000
X-193000Y-148000
X-67000Y-123000
X6000Y-123000
X168000Y-180000
X213800Y-135000
X305500Y-180000
X-198000Y-77000
X-198000Y-59000
X-161000Y-77000
X-161000Y-59000
X58000Y-103000
X84000Y-101000
X131020Y-110000
X92980Y-110000
X168000Y-97000
X305500Y-97000
X-248770Y-26000
X-150000Y8000
X-161000Y-26000
X-62000Y-4000
X-62000Y-18000
X52000Y-47000
X-214000Y49000
X-214000Y76000
X-62000Y61030
X-46000Y27000
X156000Y47000
X267090Y66500
X-190000Y165000
X-82000Y136000
X-82000Y121000
X-171000Y165000
X-155000Y165000
X-138000Y165000
X156000Y142000
X156000Y125000
X156000Y86000
X267090Y105500
X-273000Y165500
X-38000Y151000
R02Y15000
X109000Y168000
X-227200Y257200
X-118950Y257950
X-9000Y255000
X153000Y242000
X-190000Y303000
X-273000Y303000
X193000Y264000
X222000Y264000
X252000Y264000
X287000Y264000
X310000Y243000
X310000Y215000
X310000Y160000
X300000Y144000
X300000Y109000
X300000Y75000
X300000Y41000
X310000Y187000
X70000Y-170000
X-82000Y-91000
X-104000Y-91000
X-43000Y-58000
X-21000Y-58000
X-64000Y189000
X-44000Y240000
X-44000Y230000
X12000Y32000
X24000Y32000
X12000Y1000
X24000Y1000
X-75000Y189000
X-1000Y136000
X100000Y175000
X-96000Y213000
X-30000Y95000
X17000Y-58000
X224000Y62000
X239000Y154000
X-49000Y103000
X-12000Y-13000
X-220000Y7000
X-214000Y-26000
X-147000Y28000
X-60000Y39000
X-50000Y39000
X-2000Y167000
X193000Y199000
X-56000Y6000
X180000Y-141000
X203000Y-135000
X55000Y50000
X221000Y167000
X47000Y58000
X227000Y177000
X-6000Y-58000
X220000Y187000
X36000Y61000
X6000Y50000
X44000Y300000
X122000Y203000
X199000Y208000
X152000Y-58000
X172000Y165000
X-178000Y230000
X-227000Y279000
X-26000Y51000
X-62000Y-30000
X10000Y186000
X175000Y216000
X-38000Y57000
X-62000Y-42000
X-22000Y61000
X172000Y155000
X144160Y-50160
X-77000Y238000
X-38000Y102000
X-130000Y246000
X-57000Y270650
X240000Y46000
X240000Y62000
X210000Y194000
X2000Y157000
X-79000Y202000
X168000Y144000
X180000Y94000
X-116000Y17000
X126000Y-44000
X166000Y131500
X6000Y176000
X186000Y214000
X166000Y-158000
X-107000Y40000
X-190000Y95000
X-60000Y51000
T02
X-280000Y138900
R13Y-25400
X-211400Y-230000
X-185900Y-230000
X-160500Y-230000
R17X25400
X340000Y-191300
R19Y25400
X271300Y330000
R19X-25400
T03
X-200000Y-124000
X-149200Y-124000
M30
