G04 ================== begin FILE IDENTIFICATION RECORD ==================*
G04 Layout Name:  D:/EDA/PCB/ALLEGRO/PROJECT/IMX233-SOM/PCB/IMX233_SOM_06.brd*
G04 Film Name:    SMBOT*
G04 File Format:  Gerber RS274X*
G04 File Origin:  Cadence Allegro 16.3-p003*
G04 Origin Date:  Wed Apr 04 13:57:37 2012*
G04 *
G04 Layer:  PIN/SOLDERMASK_BOTTOM*
G04 *
G04 Offset:    (0.000 0.000)*
G04 Mirror:    No*
G04 Mode:      Positive*
G04 Rotation:  0*
G04 FullContactRelief:  No*
G04 UndefLineWidth:     0.000*
G04 ================== end FILE IDENTIFICATION RECORD ====================*
%FSLAX34Y34*MOMM*%
%IR0*IPPOS*OFA0.00000B0.00000*MIA0B0*SFA1.00000B1.00000*%
%ADD10C,1.8*%
%ADD12C,1.905*%
%ADD11R,1.8X1.8*%
%LPD*%
G75*
G54D10*
X-280000Y-191300D03*
Y-165900D03*
Y-140500D03*
Y-115100D03*
Y-89700D03*
Y-38900D03*
Y-64300D03*
Y11900D03*
Y-13500D03*
Y62700D03*
Y37300D03*
Y88100D03*
Y113500D03*
X-185900Y-230000D03*
X-160500D03*
X-211400D03*
X-211300Y330000D03*
X-160500D03*
X-185900D03*
X-135100Y-230000D03*
X-109700D03*
Y330000D03*
X-135100D03*
X-33500Y-230000D03*
X-84300D03*
X-58900D03*
Y330000D03*
X-84300D03*
X-33500D03*
X17300Y-230000D03*
X-8100D03*
Y330000D03*
X17300D03*
X68100Y-230000D03*
X93500D03*
X42700D03*
Y330000D03*
X93500D03*
X68100D03*
X118900Y-230000D03*
X144300D03*
Y330000D03*
X118900D03*
X169700Y-230000D03*
X195100D03*
Y330000D03*
X169700D03*
X271300Y-230000D03*
X220500D03*
X245900D03*
Y330000D03*
X220500D03*
X271300D03*
X340000Y-165900D03*
Y-191300D03*
Y-115100D03*
Y-140500D03*
Y-64300D03*
Y-38900D03*
Y-89700D03*
Y-13500D03*
Y11900D03*
Y88100D03*
Y37300D03*
Y62700D03*
Y138900D03*
Y113500D03*
Y189700D03*
Y215100D03*
Y164300D03*
Y240500D03*
Y265900D03*
Y291300D03*
G54D11*
X-280000Y138900D03*
G54D12*
X-200000Y-124000D03*
X-149200D03*
M02*
