G04 ================== begin FILE IDENTIFICATION RECORD ==================*
G04 Layout Name:  D:/EDA/PCB/ALLEGRO/PROJECT/IMX233-SOM/PCB/IMX233_SOM_06.brd*
G04 Film Name:    SSTOP*
G04 File Format:  Gerber RS274X*
G04 File Origin:  Cadence Allegro 16.3-p003*
G04 Origin Date:  Wed Apr 04 13:57:37 2012*
G04 *
G04 Layer:  REF DES/SILKSCREEN_TOP*
G04 Layer:  PACKAGE GEOMETRY/SILKSCREEN_TOP*
G04 *
G04 Offset:    (0.000 0.000)*
G04 Mirror:    No*
G04 Mode:      Positive*
G04 Rotation:  0*
G04 FullContactRelief:  No*
G04 UndefLineWidth:     0.200*
G04 ================== end FILE IDENTIFICATION RECORD ====================*
%FSLAX34Y34*MOMM*%
%IR0*IPPOS*OFA0.00000B0.00000*MIA0B0*SFA1.00000B1.00000*%
%ADD10C,.1*%
%ADD11C,.2*%
%ADD12C,.12*%
%ADD13C,.4*%
%ADD14C,.203*%
%ADD15C,.15*%
%ADD16C,.25*%
%ADD17C,.152*%
G75*
%LPD*%
G75*
G54D10*
G01X-232000Y-150000D02*
Y-122000D01*
X-262000D01*
Y-150000D01*
X-177000D01*
Y-152000D01*
G01X-270000Y46000D02*
X-242000D01*
Y16000D01*
X-250000D01*
Y-41000D01*
X-270000D01*
Y46000D01*
G01X-196000Y94000D02*
X-182000D01*
Y-1000D01*
X-250000D01*
G01X-193000Y-150000D02*
Y-152000D01*
G01X-154000D02*
Y-150000D01*
X-128000D01*
X-110000Y-132000D01*
G01X-148000Y222000D02*
X-90000D01*
Y201000D01*
X-131000D01*
Y192000D01*
X-148000D01*
Y222000D01*
G01X-90000Y161000D02*
X-150000D01*
G01X-139000Y192000D02*
Y161000D01*
G01X13500Y-176000D02*
Y-171000D01*
X12900Y-172000D01*
G01Y-176000D02*
X14100D01*
G01X3500D02*
Y-171000D01*
X2900Y-172000D01*
G01Y-176000D02*
X4100D01*
G01X-6500Y-171000D02*
X-6900Y-171170D01*
X-7200Y-171580D01*
X-7400Y-172080D01*
X-7550Y-172750D01*
X-7600Y-173500D01*
X-7550Y-174250D01*
X-7400Y-174920D01*
X-7200Y-175420D01*
X-6900Y-175830D01*
X-6500Y-176000D01*
X-6100Y-175830D01*
X-5800Y-175420D01*
X-5600Y-174920D01*
X-5450Y-174250D01*
X-5400Y-173500D01*
X-5450Y-172750D01*
X-5600Y-172080D01*
X-5800Y-171580D01*
X-6100Y-171170D01*
X-6500Y-171000D01*
G01X-16500D02*
X-16900Y-171170D01*
X-17200Y-171580D01*
X-17400Y-172080D01*
X-17550Y-172750D01*
X-17600Y-173500D01*
X-17550Y-174250D01*
X-17400Y-174920D01*
X-17200Y-175420D01*
X-16900Y-175830D01*
X-16500Y-176000D01*
X-16100Y-175830D01*
X-15800Y-175420D01*
X-15600Y-174920D01*
X-15450Y-174250D01*
X-15400Y-173500D01*
X-15450Y-172750D01*
X-15600Y-172080D01*
X-15800Y-171580D01*
X-16100Y-171170D01*
X-16500Y-171000D01*
G01X13500Y-181000D02*
X13100Y-181170D01*
X12800Y-181580D01*
X12600Y-182080D01*
X12450Y-182750D01*
X12400Y-183500D01*
X12450Y-184250D01*
X12600Y-184920D01*
X12800Y-185420D01*
X13100Y-185830D01*
X13500Y-186000D01*
X13900Y-185830D01*
X14200Y-185420D01*
X14400Y-184920D01*
X14550Y-184250D01*
X14600Y-183500D01*
X14550Y-182750D01*
X14400Y-182080D01*
X14200Y-181580D01*
X13900Y-181170D01*
X13500Y-181000D01*
G01X3500D02*
X3100Y-181170D01*
X2800Y-181580D01*
X2600Y-182080D01*
X2450Y-182750D01*
X2400Y-183500D01*
X2450Y-184250D01*
X2600Y-184920D01*
X2800Y-185420D01*
X3100Y-185830D01*
X3500Y-186000D01*
X3900Y-185830D01*
X4200Y-185420D01*
X4400Y-184920D01*
X4550Y-184250D01*
X4600Y-183500D01*
X4550Y-182750D01*
X4400Y-182080D01*
X4200Y-181580D01*
X3900Y-181170D01*
X3500Y-181000D01*
G01X-6500Y-186000D02*
Y-181000D01*
X-7100Y-182000D01*
G01Y-186000D02*
X-5900D01*
G01X-16500Y-181000D02*
X-16900Y-181170D01*
X-17200Y-181580D01*
X-17400Y-182080D01*
X-17550Y-182750D01*
X-17600Y-183500D01*
X-17550Y-184250D01*
X-17400Y-184920D01*
X-17200Y-185420D01*
X-16900Y-185830D01*
X-16500Y-186000D01*
X-16100Y-185830D01*
X-15800Y-185420D01*
X-15600Y-184920D01*
X-15450Y-184250D01*
X-15400Y-183500D01*
X-15450Y-182750D01*
X-15600Y-182080D01*
X-15800Y-181580D01*
X-16100Y-181170D01*
X-16500Y-181000D01*
G01X13500Y-191000D02*
X13100Y-191170D01*
X12800Y-191580D01*
X12600Y-192080D01*
X12450Y-192750D01*
X12400Y-193500D01*
X12450Y-194250D01*
X12600Y-194920D01*
X12800Y-195420D01*
X13100Y-195830D01*
X13500Y-196000D01*
X13900Y-195830D01*
X14200Y-195420D01*
X14400Y-194920D01*
X14550Y-194250D01*
X14600Y-193500D01*
X14550Y-192750D01*
X14400Y-192080D01*
X14200Y-191580D01*
X13900Y-191170D01*
X13500Y-191000D01*
G01X3500Y-196000D02*
Y-191000D01*
X2900Y-192000D01*
G01Y-196000D02*
X4100D01*
G01X-6500D02*
Y-191000D01*
X-7100Y-192000D01*
G01Y-196000D02*
X-5900D01*
G01X-16500Y-191000D02*
X-16900Y-191170D01*
X-17200Y-191580D01*
X-17400Y-192080D01*
X-17550Y-192750D01*
X-17600Y-193500D01*
X-17550Y-194250D01*
X-17400Y-194920D01*
X-17200Y-195420D01*
X-16900Y-195830D01*
X-16500Y-196000D01*
X-16100Y-195830D01*
X-15800Y-195420D01*
X-15600Y-194920D01*
X-15450Y-194250D01*
X-15400Y-193500D01*
X-15450Y-192750D01*
X-15600Y-192080D01*
X-15800Y-191580D01*
X-16100Y-191170D01*
X-16500Y-191000D01*
G01X13500Y-206000D02*
Y-201000D01*
X12900Y-202000D01*
G01Y-206000D02*
X14100D01*
G01X3500Y-201000D02*
X3100Y-201170D01*
X2800Y-201580D01*
X2600Y-202080D01*
X2450Y-202750D01*
X2400Y-203500D01*
X2450Y-204250D01*
X2600Y-204920D01*
X2800Y-205420D01*
X3100Y-205830D01*
X3500Y-206000D01*
X3900Y-205830D01*
X4200Y-205420D01*
X4400Y-204920D01*
X4550Y-204250D01*
X4600Y-203500D01*
X4550Y-202750D01*
X4400Y-202080D01*
X4200Y-201580D01*
X3900Y-201170D01*
X3500Y-201000D01*
G01X-6500D02*
X-6900Y-201170D01*
X-7200Y-201580D01*
X-7400Y-202080D01*
X-7550Y-202750D01*
X-7600Y-203500D01*
X-7550Y-204250D01*
X-7400Y-204920D01*
X-7200Y-205420D01*
X-6900Y-205830D01*
X-6500Y-206000D01*
X-6100Y-205830D01*
X-5800Y-205420D01*
X-5600Y-204920D01*
X-5450Y-204250D01*
X-5400Y-203500D01*
X-5450Y-202750D01*
X-5600Y-202080D01*
X-5800Y-201580D01*
X-6100Y-201170D01*
X-6500Y-201000D01*
G01X-16500Y-206000D02*
Y-201000D01*
X-17100Y-202000D01*
G01Y-206000D02*
X-15900D01*
G01X13500Y-211000D02*
X13100Y-211170D01*
X12800Y-211580D01*
X12600Y-212080D01*
X12450Y-212750D01*
X12400Y-213500D01*
X12450Y-214250D01*
X12600Y-214920D01*
X12800Y-215420D01*
X13100Y-215830D01*
X13500Y-216000D01*
X13900Y-215830D01*
X14200Y-215420D01*
X14400Y-214920D01*
X14550Y-214250D01*
X14600Y-213500D01*
X14550Y-212750D01*
X14400Y-212080D01*
X14200Y-211580D01*
X13900Y-211170D01*
X13500Y-211000D01*
G01X3500Y-216000D02*
Y-211000D01*
X2900Y-212000D01*
G01Y-216000D02*
X4100D01*
G01X-6500Y-211000D02*
X-6900Y-211170D01*
X-7200Y-211580D01*
X-7400Y-212080D01*
X-7550Y-212750D01*
X-7600Y-213500D01*
X-7550Y-214250D01*
X-7400Y-214920D01*
X-7200Y-215420D01*
X-6900Y-215830D01*
X-6500Y-216000D01*
X-6100Y-215830D01*
X-5800Y-215420D01*
X-5600Y-214920D01*
X-5450Y-214250D01*
X-5400Y-213500D01*
X-5450Y-212750D01*
X-5600Y-212080D01*
X-5800Y-211580D01*
X-6100Y-211170D01*
X-6500Y-211000D01*
G01X-16500Y-216000D02*
Y-211000D01*
X-17100Y-212000D01*
G01Y-216000D02*
X-15900D01*
G01X-22000Y-148000D02*
Y-218000D01*
G01Y-178000D02*
X96000D01*
G01X-22000Y-188000D02*
X96000D01*
G01X-22000Y-198000D02*
X96000D01*
G01X-22000Y-208000D02*
X96000D01*
G01X-12000Y-218000D02*
Y-128000D01*
G01X-2000Y-218000D02*
Y-128000D01*
G01X8000Y-218000D02*
Y-128000D01*
G01X18000Y-218000D02*
Y-128000D01*
G01X-22000Y-138000D02*
Y-128000D01*
X96000D01*
Y-218000D01*
X-22000D01*
G01X11500Y-131000D02*
X11100Y-131170D01*
X10800Y-131580D01*
X10600Y-132080D01*
X10450Y-132750D01*
X10400Y-133500D01*
X10450Y-134250D01*
X10600Y-134920D01*
X10800Y-135420D01*
X11100Y-135830D01*
X11500Y-136000D01*
X11900Y-135830D01*
X12200Y-135420D01*
X12400Y-134920D01*
X12550Y-134250D01*
X12600Y-133500D01*
X12550Y-132750D01*
X12400Y-132080D01*
X12200Y-131580D01*
X11900Y-131170D01*
X11500Y-131000D01*
G01X15500D02*
X15100Y-131170D01*
X14800Y-131580D01*
X14600Y-132080D01*
X14450Y-132750D01*
X14400Y-133500D01*
X14450Y-134250D01*
X14600Y-134920D01*
X14800Y-135420D01*
X15100Y-135830D01*
X15500Y-136000D01*
X15900Y-135830D01*
X16200Y-135420D01*
X16400Y-134920D01*
X16550Y-134250D01*
X16600Y-133500D01*
X16550Y-132750D01*
X16400Y-132080D01*
X16200Y-131580D01*
X15900Y-131170D01*
X15500Y-131000D01*
G01X1500D02*
X1100Y-131170D01*
X800Y-131580D01*
X600Y-132080D01*
X450Y-132750D01*
X400Y-133500D01*
X450Y-134250D01*
X600Y-134920D01*
X800Y-135420D01*
X1100Y-135830D01*
X1500Y-136000D01*
X1900Y-135830D01*
X2200Y-135420D01*
X2400Y-134920D01*
X2550Y-134250D01*
X2600Y-133500D01*
X2550Y-132750D01*
X2400Y-132080D01*
X2200Y-131580D01*
X1900Y-131170D01*
X1500Y-131000D01*
G01X5500Y-136000D02*
Y-131000D01*
X4900Y-132000D01*
G01Y-136000D02*
X6100D01*
G01X-8500Y-131000D02*
X-8900Y-131170D01*
X-9200Y-131580D01*
X-9400Y-132080D01*
X-9550Y-132750D01*
X-9600Y-133500D01*
X-9550Y-134250D01*
X-9400Y-134920D01*
X-9200Y-135420D01*
X-8900Y-135830D01*
X-8500Y-136000D01*
X-8100Y-135830D01*
X-7800Y-135420D01*
X-7600Y-134920D01*
X-7450Y-134250D01*
X-7400Y-133500D01*
X-7450Y-132750D01*
X-7600Y-132080D01*
X-7800Y-131580D01*
X-8100Y-131170D01*
X-8500Y-131000D01*
G01X-5450Y-131830D02*
X-5150Y-131330D01*
X-4800Y-131080D01*
X-4400Y-131000D01*
X-3900Y-131170D01*
X-3550Y-131580D01*
X-3450Y-132080D01*
X-3500Y-132580D01*
X-3700Y-133000D01*
X-4700Y-133830D01*
X-5150Y-134420D01*
X-5450Y-135250D01*
X-5550Y-136000D01*
X-3450D01*
G01X-18500Y-131000D02*
X-18900Y-131170D01*
X-19200Y-131580D01*
X-19400Y-132080D01*
X-19550Y-132750D01*
X-19600Y-133500D01*
X-19550Y-134250D01*
X-19400Y-134920D01*
X-19200Y-135420D01*
X-18900Y-135830D01*
X-18500Y-136000D01*
X-18100Y-135830D01*
X-17800Y-135420D01*
X-17600Y-134920D01*
X-17450Y-134250D01*
X-17400Y-133500D01*
X-17450Y-132750D01*
X-17600Y-132080D01*
X-17800Y-131580D01*
X-18100Y-131170D01*
X-18500Y-131000D01*
G01X-15600Y-135000D02*
X-15300Y-135580D01*
X-14900Y-135920D01*
X-14450Y-136000D01*
X-14050Y-135920D01*
X-13650Y-135500D01*
X-13400Y-135000D01*
X-13350Y-134500D01*
X-13450Y-133920D01*
X-13800Y-133500D01*
X-14150Y-133330D01*
X-14600D01*
G01X-14150D02*
X-13850Y-133080D01*
X-13600Y-132670D01*
X-13500Y-132170D01*
X-13600Y-131670D01*
X-13850Y-131250D01*
X-14300Y-131000D01*
X-14750Y-131080D01*
X-15200Y-131420D01*
G01X-21500Y-121000D02*
Y-126000D01*
X-19500D01*
G01X-15400Y-121420D02*
X-15700Y-121170D01*
X-16050Y-121000D01*
X-16450D01*
X-16900Y-121250D01*
X-17250Y-121670D01*
X-17500Y-122170D01*
X-17700Y-123000D01*
X-17750Y-123750D01*
X-17650Y-124500D01*
X-17500Y-125000D01*
X-17200Y-125500D01*
X-16850Y-125830D01*
X-16500Y-126000D01*
X-16150D01*
X-15800Y-125830D01*
X-15500Y-125580D01*
X-15250Y-125250D01*
G01X-13600Y-126000D02*
Y-121000D01*
X-12600D01*
X-12200Y-121250D01*
X-11900Y-121580D01*
X-11650Y-122080D01*
X-11450Y-122670D01*
X-11400Y-123500D01*
X-11450Y-124330D01*
X-11650Y-124920D01*
X-11900Y-125420D01*
X-12200Y-125750D01*
X-12600Y-126000D01*
X-13600D01*
G01X-5600D02*
Y-121000D01*
X-4600D01*
X-4200Y-121250D01*
X-3900Y-121580D01*
X-3650Y-122080D01*
X-3450Y-122670D01*
X-3400Y-123500D01*
X-3450Y-124330D01*
X-3650Y-124920D01*
X-3900Y-125420D01*
X-4200Y-125750D01*
X-4600Y-126000D01*
X-5600D01*
G01X-1750D02*
X-500Y-121000D01*
X750Y-126000D01*
G01X300Y-124250D02*
X-1300D01*
G01X3500Y-121000D02*
Y-126000D01*
G01X2350Y-121000D02*
X4650D01*
G01X6250Y-126000D02*
X7500Y-121000D01*
X8750Y-126000D01*
G01X8300Y-124250D02*
X6700D01*
G01X13500Y-141000D02*
X13100Y-141170D01*
X12800Y-141580D01*
X12600Y-142080D01*
X12450Y-142750D01*
X12400Y-143500D01*
X12450Y-144250D01*
X12600Y-144920D01*
X12800Y-145420D01*
X13100Y-145830D01*
X13500Y-146000D01*
X13900Y-145830D01*
X14200Y-145420D01*
X14400Y-144920D01*
X14550Y-144250D01*
X14600Y-143500D01*
X14550Y-142750D01*
X14400Y-142080D01*
X14200Y-141580D01*
X13900Y-141170D01*
X13500Y-141000D01*
G01X3500D02*
X3100Y-141170D01*
X2800Y-141580D01*
X2600Y-142080D01*
X2450Y-142750D01*
X2400Y-143500D01*
X2450Y-144250D01*
X2600Y-144920D01*
X2800Y-145420D01*
X3100Y-145830D01*
X3500Y-146000D01*
X3900Y-145830D01*
X4200Y-145420D01*
X4400Y-144920D01*
X4550Y-144250D01*
X4600Y-143500D01*
X4550Y-142750D01*
X4400Y-142080D01*
X4200Y-141580D01*
X3900Y-141170D01*
X3500Y-141000D01*
G01X-6500D02*
X-6900Y-141170D01*
X-7200Y-141580D01*
X-7400Y-142080D01*
X-7550Y-142750D01*
X-7600Y-143500D01*
X-7550Y-144250D01*
X-7400Y-144920D01*
X-7200Y-145420D01*
X-6900Y-145830D01*
X-6500Y-146000D01*
X-6100Y-145830D01*
X-5800Y-145420D01*
X-5600Y-144920D01*
X-5450Y-144250D01*
X-5400Y-143500D01*
X-5450Y-142750D01*
X-5600Y-142080D01*
X-5800Y-141580D01*
X-6100Y-141170D01*
X-6500Y-141000D01*
G01X-16500D02*
X-16900Y-141170D01*
X-17200Y-141580D01*
X-17400Y-142080D01*
X-17550Y-142750D01*
X-17600Y-143500D01*
X-17550Y-144250D01*
X-17400Y-144920D01*
X-17200Y-145420D01*
X-16900Y-145830D01*
X-16500Y-146000D01*
X-16100Y-145830D01*
X-15800Y-145420D01*
X-15600Y-144920D01*
X-15450Y-144250D01*
X-15400Y-143500D01*
X-15450Y-142750D01*
X-15600Y-142080D01*
X-15800Y-141580D01*
X-16100Y-141170D01*
X-16500Y-141000D01*
G01X13500Y-156000D02*
Y-151000D01*
X12900Y-152000D01*
G01Y-156000D02*
X14100D01*
G01X3500Y-151000D02*
X3100Y-151170D01*
X2800Y-151580D01*
X2600Y-152080D01*
X2450Y-152750D01*
X2400Y-153500D01*
X2450Y-154250D01*
X2600Y-154920D01*
X2800Y-155420D01*
X3100Y-155830D01*
X3500Y-156000D01*
X3900Y-155830D01*
X4200Y-155420D01*
X4400Y-154920D01*
X4550Y-154250D01*
X4600Y-153500D01*
X4550Y-152750D01*
X4400Y-152080D01*
X4200Y-151580D01*
X3900Y-151170D01*
X3500Y-151000D01*
G01X-6500D02*
X-6900Y-151170D01*
X-7200Y-151580D01*
X-7400Y-152080D01*
X-7550Y-152750D01*
X-7600Y-153500D01*
X-7550Y-154250D01*
X-7400Y-154920D01*
X-7200Y-155420D01*
X-6900Y-155830D01*
X-6500Y-156000D01*
X-6100Y-155830D01*
X-5800Y-155420D01*
X-5600Y-154920D01*
X-5450Y-154250D01*
X-5400Y-153500D01*
X-5450Y-152750D01*
X-5600Y-152080D01*
X-5800Y-151580D01*
X-6100Y-151170D01*
X-6500Y-151000D01*
G01X-16500D02*
X-16900Y-151170D01*
X-17200Y-151580D01*
X-17400Y-152080D01*
X-17550Y-152750D01*
X-17600Y-153500D01*
X-17550Y-154250D01*
X-17400Y-154920D01*
X-17200Y-155420D01*
X-16900Y-155830D01*
X-16500Y-156000D01*
X-16100Y-155830D01*
X-15800Y-155420D01*
X-15600Y-154920D01*
X-15450Y-154250D01*
X-15400Y-153500D01*
X-15450Y-152750D01*
X-15600Y-152080D01*
X-15800Y-151580D01*
X-16100Y-151170D01*
X-16500Y-151000D01*
G01X13500Y-161000D02*
X13100Y-161170D01*
X12800Y-161580D01*
X12600Y-162080D01*
X12450Y-162750D01*
X12400Y-163500D01*
X12450Y-164250D01*
X12600Y-164920D01*
X12800Y-165420D01*
X13100Y-165830D01*
X13500Y-166000D01*
X13900Y-165830D01*
X14200Y-165420D01*
X14400Y-164920D01*
X14550Y-164250D01*
X14600Y-163500D01*
X14550Y-162750D01*
X14400Y-162080D01*
X14200Y-161580D01*
X13900Y-161170D01*
X13500Y-161000D01*
G01X3500Y-166000D02*
Y-161000D01*
X2900Y-162000D01*
G01Y-166000D02*
X4100D01*
G01X-6500Y-161000D02*
X-6900Y-161170D01*
X-7200Y-161580D01*
X-7400Y-162080D01*
X-7550Y-162750D01*
X-7600Y-163500D01*
X-7550Y-164250D01*
X-7400Y-164920D01*
X-7200Y-165420D01*
X-6900Y-165830D01*
X-6500Y-166000D01*
X-6100Y-165830D01*
X-5800Y-165420D01*
X-5600Y-164920D01*
X-5450Y-164250D01*
X-5400Y-163500D01*
X-5450Y-162750D01*
X-5600Y-162080D01*
X-5800Y-161580D01*
X-6100Y-161170D01*
X-6500Y-161000D01*
G01X-16500D02*
X-16900Y-161170D01*
X-17200Y-161580D01*
X-17400Y-162080D01*
X-17550Y-162750D01*
X-17600Y-163500D01*
X-17550Y-164250D01*
X-17400Y-164920D01*
X-17200Y-165420D01*
X-16900Y-165830D01*
X-16500Y-166000D01*
X-16100Y-165830D01*
X-15800Y-165420D01*
X-15600Y-164920D01*
X-15450Y-164250D01*
X-15400Y-163500D01*
X-15450Y-162750D01*
X-15600Y-162080D01*
X-15800Y-161580D01*
X-16100Y-161170D01*
X-16500Y-161000D01*
G01X96000Y-138000D02*
X-22000D01*
Y-148000D01*
X18000D01*
G01D02*
X96000D01*
G01X-22000Y-158000D02*
X96000D01*
G01X-22000Y-168000D02*
X96000D01*
G01X22450Y-175330D02*
X22850Y-175750D01*
X23300Y-176000D01*
X23700D01*
X24100Y-175750D01*
X24400Y-175330D01*
X24550Y-174750D01*
X24450Y-174170D01*
X24200Y-173670D01*
X23750Y-173330D01*
X23150Y-173170D01*
X22800Y-172830D01*
X22650Y-172250D01*
X22750Y-171670D01*
X23000Y-171250D01*
X23350Y-171000D01*
X23700D01*
X24050Y-171170D01*
X24350Y-171580D01*
G01X26500Y-176000D02*
Y-171000D01*
X27700D01*
X28100Y-171250D01*
X28400Y-171830D01*
X28500Y-172500D01*
X28400Y-173170D01*
X28150Y-173670D01*
X27700Y-173920D01*
X26500D01*
G01X30900Y-171000D02*
X32100D01*
G01X31500D02*
Y-176000D01*
G01X30900D02*
X32100D01*
G01X38550D02*
Y-171000D01*
X40450D01*
G01X39750Y-173420D02*
X38550D01*
G01X42500Y-171000D02*
Y-176000D01*
X44500D01*
G01X46250D02*
X47500Y-171000D01*
X48750Y-176000D01*
G01X48300Y-174250D02*
X46700D01*
G01X50450Y-175330D02*
X50850Y-175750D01*
X51300Y-176000D01*
X51700D01*
X52100Y-175750D01*
X52400Y-175330D01*
X52550Y-174750D01*
X52450Y-174170D01*
X52200Y-173670D01*
X51750Y-173330D01*
X51150Y-173170D01*
X50800Y-172830D01*
X50650Y-172250D01*
X50750Y-171670D01*
X51000Y-171250D01*
X51350Y-171000D01*
X51700D01*
X52050Y-171170D01*
X52350Y-171580D01*
G01X54450Y-176000D02*
Y-171000D01*
G01X56550D02*
Y-176000D01*
G01Y-173500D02*
X54450D01*
G01X62550Y-171830D02*
X62850Y-171330D01*
X63200Y-171080D01*
X63600Y-171000D01*
X64100Y-171170D01*
X64450Y-171580D01*
X64550Y-172080D01*
X64500Y-172580D01*
X64300Y-173000D01*
X63300Y-173830D01*
X62850Y-174420D01*
X62550Y-175250D01*
X62450Y-176000D01*
X64550D01*
G01X70200D02*
Y-171000D01*
X71500Y-175170D01*
X72800Y-171000D01*
Y-176000D01*
G01X74250D02*
X75500Y-171000D01*
X76750Y-176000D01*
G01X76300Y-174250D02*
X74700D01*
G01X78450Y-175330D02*
X78850Y-175750D01*
X79300Y-176000D01*
X79700D01*
X80100Y-175750D01*
X80400Y-175330D01*
X80550Y-174750D01*
X80450Y-174170D01*
X80200Y-173670D01*
X79750Y-173330D01*
X79150Y-173170D01*
X78800Y-172830D01*
X78650Y-172250D01*
X78750Y-171670D01*
X79000Y-171250D01*
X79350Y-171000D01*
X79700D01*
X80050Y-171170D01*
X80350Y-171580D01*
G01X83500Y-171000D02*
Y-176000D01*
G01X82350Y-171000D02*
X84650D01*
G01X88500Y-176000D02*
X86500D01*
Y-171000D01*
X88500D01*
G01X87700Y-173420D02*
X86500D01*
G01X90500Y-176000D02*
Y-171000D01*
X91750D01*
X92150Y-171250D01*
X92400Y-171580D01*
X92500Y-172250D01*
X92400Y-172920D01*
X92100Y-173330D01*
X91750Y-173580D01*
X90500D01*
G01X91750D02*
X92500Y-176000D01*
G01X22350Y-186000D02*
Y-181000D01*
X24650Y-186000D01*
Y-181000D01*
G01X26250Y-186000D02*
X27500Y-181000D01*
X28750Y-186000D01*
G01X28300Y-184250D02*
X26700D01*
G01X30350Y-186000D02*
Y-181000D01*
X32650Y-186000D01*
Y-181000D01*
G01X34400Y-186000D02*
Y-181000D01*
X35400D01*
X35800Y-181250D01*
X36100Y-181580D01*
X36350Y-182080D01*
X36550Y-182670D01*
X36600Y-183500D01*
X36550Y-184330D01*
X36350Y-184920D01*
X36100Y-185420D01*
X35800Y-185750D01*
X35400Y-186000D01*
X34400D01*
G01X22400Y-196000D02*
Y-191000D01*
X23400D01*
X23800Y-191250D01*
X24100Y-191580D01*
X24350Y-192080D01*
X24550Y-192670D01*
X24600Y-193500D01*
X24550Y-194330D01*
X24350Y-194920D01*
X24100Y-195420D01*
X23800Y-195750D01*
X23400Y-196000D01*
X22400D01*
G01X28500D02*
X26500D01*
Y-191000D01*
X28500D01*
G01X27700Y-193420D02*
X26500D01*
G01X31900Y-193330D02*
X32100Y-193080D01*
X32250Y-192670D01*
X32350Y-192080D01*
X32250Y-191580D01*
X32050Y-191250D01*
X31700Y-191000D01*
X30350D01*
Y-196000D01*
X32000D01*
X32350Y-195670D01*
X32550Y-195170D01*
X32650Y-194580D01*
X32550Y-194000D01*
X32250Y-193500D01*
X31900Y-193330D01*
X30350D01*
G01X34400Y-191000D02*
Y-194580D01*
X34600Y-195330D01*
X35000Y-195830D01*
X35500Y-196000D01*
X36000Y-195830D01*
X36400Y-195330D01*
X36600Y-194580D01*
Y-191000D01*
G01X39800Y-193500D02*
X40800D01*
Y-195000D01*
X40500Y-195500D01*
X40150Y-195830D01*
X39650Y-196000D01*
X39150Y-195830D01*
X38800Y-195500D01*
X38500Y-195000D01*
X38300Y-194420D01*
X38200Y-193750D01*
Y-193170D01*
X38300Y-192670D01*
X38500Y-192080D01*
X38800Y-191580D01*
X39100Y-191250D01*
X39500Y-191000D01*
X39850D01*
X40250Y-191170D01*
X40550Y-191500D01*
G01X22450Y-205330D02*
X22850Y-205750D01*
X23300Y-206000D01*
X23700D01*
X24100Y-205750D01*
X24400Y-205330D01*
X24550Y-204750D01*
X24450Y-204170D01*
X24200Y-203670D01*
X23750Y-203330D01*
X23150Y-203170D01*
X22800Y-202830D01*
X22650Y-202250D01*
X22750Y-201670D01*
X23000Y-201250D01*
X23350Y-201000D01*
X23700D01*
X24050Y-201170D01*
X24350Y-201580D01*
G01X26400Y-206000D02*
Y-201000D01*
X27400D01*
X27800Y-201250D01*
X28100Y-201580D01*
X28350Y-202080D01*
X28550Y-202670D01*
X28600Y-203500D01*
X28550Y-204330D01*
X28350Y-204920D01*
X28100Y-205420D01*
X27800Y-205750D01*
X27400Y-206000D01*
X26400D01*
G01X30600Y-206170D02*
X32400Y-201000D01*
G01X34200Y-206000D02*
Y-201000D01*
X35500Y-205170D01*
X36800Y-201000D01*
Y-206000D01*
G01X38200D02*
Y-201000D01*
X39500Y-205170D01*
X40800Y-201000D01*
Y-206000D01*
G01X44600Y-201420D02*
X44300Y-201170D01*
X43950Y-201000D01*
X43550D01*
X43100Y-201250D01*
X42750Y-201670D01*
X42500Y-202170D01*
X42300Y-203000D01*
X42250Y-203750D01*
X42350Y-204500D01*
X42500Y-205000D01*
X42800Y-205500D01*
X43150Y-205830D01*
X43500Y-206000D01*
X43850D01*
X44200Y-205830D01*
X44500Y-205580D01*
X44750Y-205250D01*
G01X51500Y-206000D02*
Y-201000D01*
X50900Y-202000D01*
G01Y-206000D02*
X52100D01*
G01X22450Y-215330D02*
X22850Y-215750D01*
X23300Y-216000D01*
X23700D01*
X24100Y-215750D01*
X24400Y-215330D01*
X24550Y-214750D01*
X24450Y-214170D01*
X24200Y-213670D01*
X23750Y-213330D01*
X23150Y-213170D01*
X22800Y-212830D01*
X22650Y-212250D01*
X22750Y-211670D01*
X23000Y-211250D01*
X23350Y-211000D01*
X23700D01*
X24050Y-211170D01*
X24350Y-211580D01*
G01X26400Y-216000D02*
Y-211000D01*
X27400D01*
X27800Y-211250D01*
X28100Y-211580D01*
X28350Y-212080D01*
X28550Y-212670D01*
X28600Y-213500D01*
X28550Y-214330D01*
X28350Y-214920D01*
X28100Y-215420D01*
X27800Y-215750D01*
X27400Y-216000D01*
X26400D01*
G01X30600Y-216170D02*
X32400Y-211000D01*
G01X34200Y-216000D02*
Y-211000D01*
X35500Y-215170D01*
X36800Y-211000D01*
Y-216000D01*
G01X38200D02*
Y-211000D01*
X39500Y-215170D01*
X40800Y-211000D01*
Y-216000D01*
G01X44600Y-211420D02*
X44300Y-211170D01*
X43950Y-211000D01*
X43550D01*
X43100Y-211250D01*
X42750Y-211670D01*
X42500Y-212170D01*
X42300Y-213000D01*
X42250Y-213750D01*
X42350Y-214500D01*
X42500Y-215000D01*
X42800Y-215500D01*
X43150Y-215830D01*
X43500Y-216000D01*
X43850D01*
X44200Y-215830D01*
X44500Y-215580D01*
X44750Y-215250D01*
G01X50550Y-211830D02*
X50850Y-211330D01*
X51200Y-211080D01*
X51600Y-211000D01*
X52100Y-211170D01*
X52450Y-211580D01*
X52550Y-212080D01*
X52500Y-212580D01*
X52300Y-213000D01*
X51300Y-213830D01*
X50850Y-214420D01*
X50550Y-215250D01*
X50450Y-216000D01*
X52550D01*
G01X22400Y-141000D02*
Y-144580D01*
X22600Y-145330D01*
X23000Y-145830D01*
X23500Y-146000D01*
X24000Y-145830D01*
X24400Y-145330D01*
X24600Y-144580D01*
Y-141000D01*
G01X26450Y-145330D02*
X26850Y-145750D01*
X27300Y-146000D01*
X27700D01*
X28100Y-145750D01*
X28400Y-145330D01*
X28550Y-144750D01*
X28450Y-144170D01*
X28200Y-143670D01*
X27750Y-143330D01*
X27150Y-143170D01*
X26800Y-142830D01*
X26650Y-142250D01*
X26750Y-141670D01*
X27000Y-141250D01*
X27350Y-141000D01*
X27700D01*
X28050Y-141170D01*
X28350Y-141580D01*
G01X31900Y-143330D02*
X32100Y-143080D01*
X32250Y-142670D01*
X32350Y-142080D01*
X32250Y-141580D01*
X32050Y-141250D01*
X31700Y-141000D01*
X30350D01*
Y-146000D01*
X32000D01*
X32350Y-145670D01*
X32550Y-145170D01*
X32650Y-144580D01*
X32550Y-144000D01*
X32250Y-143500D01*
X31900Y-143330D01*
X30350D01*
G01X22900Y-151000D02*
X24100D01*
G01X23500D02*
Y-156000D01*
G01X22900D02*
X24100D01*
G01X26550Y-151830D02*
X26850Y-151330D01*
X27200Y-151080D01*
X27600Y-151000D01*
X28100Y-151170D01*
X28450Y-151580D01*
X28550Y-152080D01*
X28500Y-152580D01*
X28300Y-153000D01*
X27300Y-153830D01*
X26850Y-154420D01*
X26550Y-155250D01*
X26450Y-156000D01*
X28550D01*
G01X32600Y-151420D02*
X32300Y-151170D01*
X31950Y-151000D01*
X31550D01*
X31100Y-151250D01*
X30750Y-151670D01*
X30500Y-152170D01*
X30300Y-153000D01*
X30250Y-153750D01*
X30350Y-154500D01*
X30500Y-155000D01*
X30800Y-155500D01*
X31150Y-155830D01*
X31500Y-156000D01*
X31850D01*
X32200Y-155830D01*
X32500Y-155580D01*
X32750Y-155250D01*
G01X38200Y-156000D02*
Y-151000D01*
X39500Y-155170D01*
X40800Y-151000D01*
Y-156000D01*
G01X42250D02*
X43500Y-151000D01*
X44750Y-156000D01*
G01X44300Y-154250D02*
X42700D01*
G01X46450Y-155330D02*
X46850Y-155750D01*
X47300Y-156000D01*
X47700D01*
X48100Y-155750D01*
X48400Y-155330D01*
X48550Y-154750D01*
X48450Y-154170D01*
X48200Y-153670D01*
X47750Y-153330D01*
X47150Y-153170D01*
X46800Y-152830D01*
X46650Y-152250D01*
X46750Y-151670D01*
X47000Y-151250D01*
X47350Y-151000D01*
X47700D01*
X48050Y-151170D01*
X48350Y-151580D01*
G01X51500Y-151000D02*
Y-156000D01*
G01X50350Y-151000D02*
X52650D01*
G01X56500Y-156000D02*
X54500D01*
Y-151000D01*
X56500D01*
G01X55700Y-153420D02*
X54500D01*
G01X58500Y-156000D02*
Y-151000D01*
X59750D01*
X60150Y-151250D01*
X60400Y-151580D01*
X60500Y-152250D01*
X60400Y-152920D01*
X60100Y-153330D01*
X59750Y-153580D01*
X58500D01*
G01X59750D02*
X60500Y-156000D01*
G01X22450Y-165330D02*
X22850Y-165750D01*
X23300Y-166000D01*
X23700D01*
X24100Y-165750D01*
X24400Y-165330D01*
X24550Y-164750D01*
X24450Y-164170D01*
X24200Y-163670D01*
X23750Y-163330D01*
X23150Y-163170D01*
X22800Y-162830D01*
X22650Y-162250D01*
X22750Y-161670D01*
X23000Y-161250D01*
X23350Y-161000D01*
X23700D01*
X24050Y-161170D01*
X24350Y-161580D01*
G01X26500Y-166000D02*
Y-161000D01*
X27700D01*
X28100Y-161250D01*
X28400Y-161830D01*
X28500Y-162500D01*
X28400Y-163170D01*
X28150Y-163670D01*
X27700Y-163920D01*
X26500D01*
G01X30900Y-161000D02*
X32100D01*
G01X31500D02*
Y-166000D01*
G01X30900D02*
X32100D01*
G01X38550D02*
Y-161000D01*
X40450D01*
G01X39750Y-163420D02*
X38550D01*
G01X42500Y-161000D02*
Y-166000D01*
X44500D01*
G01X46250D02*
X47500Y-161000D01*
X48750Y-166000D01*
G01X48300Y-164250D02*
X46700D01*
G01X50450Y-165330D02*
X50850Y-165750D01*
X51300Y-166000D01*
X51700D01*
X52100Y-165750D01*
X52400Y-165330D01*
X52550Y-164750D01*
X52450Y-164170D01*
X52200Y-163670D01*
X51750Y-163330D01*
X51150Y-163170D01*
X50800Y-162830D01*
X50650Y-162250D01*
X50750Y-161670D01*
X51000Y-161250D01*
X51350Y-161000D01*
X51700D01*
X52050Y-161170D01*
X52350Y-161580D01*
G01X54450Y-166000D02*
Y-161000D01*
G01X56550D02*
Y-166000D01*
G01Y-163500D02*
X54450D01*
G01X63500Y-166000D02*
Y-161000D01*
X62900Y-162000D01*
G01Y-166000D02*
X64100D01*
G01X70200D02*
Y-161000D01*
X71500Y-165170D01*
X72800Y-161000D01*
Y-166000D01*
G01X74250D02*
X75500Y-161000D01*
X76750Y-166000D01*
G01X76300Y-164250D02*
X74700D01*
G01X78450Y-165330D02*
X78850Y-165750D01*
X79300Y-166000D01*
X79700D01*
X80100Y-165750D01*
X80400Y-165330D01*
X80550Y-164750D01*
X80450Y-164170D01*
X80200Y-163670D01*
X79750Y-163330D01*
X79150Y-163170D01*
X78800Y-162830D01*
X78650Y-162250D01*
X78750Y-161670D01*
X79000Y-161250D01*
X79350Y-161000D01*
X79700D01*
X80050Y-161170D01*
X80350Y-161580D01*
G01X83500Y-161000D02*
Y-166000D01*
G01X82350Y-161000D02*
X84650D01*
G01X88500Y-166000D02*
X86500D01*
Y-161000D01*
X88500D01*
G01X87700Y-163420D02*
X86500D01*
G01X90500Y-166000D02*
Y-161000D01*
X91750D01*
X92150Y-161250D01*
X92400Y-161580D01*
X92500Y-162250D01*
X92400Y-162920D01*
X92100Y-163330D01*
X91750Y-163580D01*
X90500D01*
G01X91750D02*
X92500Y-166000D01*
G01X39900Y-133330D02*
X40100Y-133080D01*
X40250Y-132670D01*
X40350Y-132080D01*
X40250Y-131580D01*
X40050Y-131250D01*
X39700Y-131000D01*
X38350D01*
Y-136000D01*
X40000D01*
X40350Y-135670D01*
X40550Y-135170D01*
X40650Y-134580D01*
X40550Y-134000D01*
X40250Y-133500D01*
X39900Y-133330D01*
X38350D01*
G01X43500Y-136000D02*
X43100Y-135920D01*
X42750Y-135580D01*
X42450Y-135080D01*
X42250Y-134500D01*
X42150Y-133830D01*
Y-133170D01*
X42250Y-132500D01*
X42450Y-131920D01*
X42750Y-131420D01*
X43100Y-131080D01*
X43500Y-131000D01*
X43900Y-131080D01*
X44250Y-131420D01*
X44550Y-131920D01*
X44750Y-132500D01*
X44850Y-133170D01*
Y-133830D01*
X44750Y-134500D01*
X44550Y-135080D01*
X44250Y-135580D01*
X43900Y-135920D01*
X43500Y-136000D01*
G01X47500D02*
X47100Y-135920D01*
X46750Y-135580D01*
X46450Y-135080D01*
X46250Y-134500D01*
X46150Y-133830D01*
Y-133170D01*
X46250Y-132500D01*
X46450Y-131920D01*
X46750Y-131420D01*
X47100Y-131080D01*
X47500Y-131000D01*
X47900Y-131080D01*
X48250Y-131420D01*
X48550Y-131920D01*
X48750Y-132500D01*
X48850Y-133170D01*
Y-133830D01*
X48750Y-134500D01*
X48550Y-135080D01*
X48250Y-135580D01*
X47900Y-135920D01*
X47500Y-136000D01*
G01X51500Y-131000D02*
Y-136000D01*
G01X50350Y-131000D02*
X52650D01*
G01X58200Y-136000D02*
Y-131000D01*
X59500Y-135170D01*
X60800Y-131000D01*
Y-136000D01*
G01X63500D02*
X63100Y-135920D01*
X62750Y-135580D01*
X62450Y-135080D01*
X62250Y-134500D01*
X62150Y-133830D01*
Y-133170D01*
X62250Y-132500D01*
X62450Y-131920D01*
X62750Y-131420D01*
X63100Y-131080D01*
X63500Y-131000D01*
X63900Y-131080D01*
X64250Y-131420D01*
X64550Y-131920D01*
X64750Y-132500D01*
X64850Y-133170D01*
Y-133830D01*
X64750Y-134500D01*
X64550Y-135080D01*
X64250Y-135580D01*
X63900Y-135920D01*
X63500Y-136000D01*
G01X66400D02*
Y-131000D01*
X67400D01*
X67800Y-131250D01*
X68100Y-131580D01*
X68350Y-132080D01*
X68550Y-132670D01*
X68600Y-133500D01*
X68550Y-134330D01*
X68350Y-134920D01*
X68100Y-135420D01*
X67800Y-135750D01*
X67400Y-136000D01*
X66400D01*
G01X72500D02*
X70500D01*
Y-131000D01*
X72500D01*
G01X71700Y-133420D02*
X70500D01*
G54D11*
G01X-178000Y314000D02*
X-299000D01*
Y155000D01*
X-152000D01*
Y314000D01*
X-178000D01*
G01X-292000Y342000D02*
X352000D01*
Y-242000D01*
X-292000D01*
Y342000D01*
G01X-246000Y115000D02*
X-247000D01*
Y55000D01*
X-246000D01*
G01X-268000Y138900D02*
X-258000Y142230D01*
Y135570D01*
X-268000Y138900D01*
G01X-247000Y93000D02*
X-215000D01*
G01X-247000Y94000D02*
X-215000D01*
G01X-247000Y95000D02*
X-215000D01*
G01X-247000Y96000D02*
X-215000D01*
G01X-247000Y97000D02*
X-215000D01*
G01X-275000Y342000D02*
X-292000Y325000D01*
Y327000D01*
X-277000Y342000D01*
X-279000D01*
X-292000Y329000D01*
Y331000D01*
X-281000Y342000D01*
X-283000D01*
X-292000Y333000D01*
Y335000D01*
X-285000Y342000D01*
X-287000D01*
X-292000Y337000D01*
Y339000D01*
X-289000Y342000D01*
G01X-99000Y128000D02*
Y66000D01*
X-178000D01*
Y128000D01*
X-99000D01*
G01X-172950Y50250D02*
Y52020D01*
X-117050D01*
Y50250D01*
G01X-172950Y27750D02*
Y25980D01*
X-117050D01*
Y27750D01*
G01X-216000Y115000D02*
X-215000D01*
Y55000D01*
X-216000D01*
G01X-111000Y-177800D02*
X-61000D01*
Y-160200D01*
X-111000D01*
Y-177800D01*
G01Y179750D02*
Y166250D01*
G01X-61000Y-91000D02*
G02I-1000J0D01*
G01X65000Y-65000D02*
Y65000D01*
X-65000D01*
Y-65000D01*
X65000D01*
G01X-90000Y-30000D02*
G02I-1000J0D01*
G01Y10000D02*
G02I-1000J0D01*
G01Y50000D02*
G02I-1000J0D01*
G01X-91900Y303750D02*
Y250250D01*
X-46100D01*
Y303750D01*
X-91900D01*
G01X15000Y-91000D02*
G02I-1000J0D01*
G01X-25000D02*
G02I-1000J0D01*
G01X-37000Y91000D02*
G02I-1000J0D01*
G01X3000D02*
G02I-1000J0D01*
G01X55000Y-91000D02*
G02I-1000J0D01*
G01X43000Y91000D02*
G02I-1000J0D01*
G01X128330Y-14000D02*
X129000Y-13250D01*
X129500Y-12000D01*
X129830Y-10250D01*
X129500Y-8750D01*
X128830Y-7750D01*
X127670Y-7000D01*
X123170D01*
Y-22000D01*
X128670D01*
X129830Y-21000D01*
X130500Y-19500D01*
X130830Y-17750D01*
X130500Y-16000D01*
X129500Y-14500D01*
X128330Y-14000D01*
X123170D01*
G01X142000Y-22000D02*
Y-12000D01*
G01Y-13750D02*
X141330Y-12750D01*
X140330Y-12250D01*
X139170Y-12000D01*
X138000Y-12500D01*
X137000Y-13500D01*
X136330Y-15000D01*
X136000Y-17000D01*
X136330Y-19000D01*
X137000Y-20500D01*
X138000Y-21500D01*
X139170Y-22000D01*
X140330Y-21750D01*
X141330Y-21000D01*
X142000Y-20000D01*
G01X148500Y-20250D02*
X149330Y-21250D01*
X150500Y-22000D01*
X151500D01*
X152500Y-21500D01*
X153170Y-20750D01*
X153500Y-19750D01*
X153330Y-18250D01*
X152670Y-17500D01*
X149670Y-16000D01*
X149000Y-14250D01*
X149330Y-13000D01*
X150000Y-12250D01*
X151000Y-12000D01*
X152000Y-12250D01*
X153000Y-13000D01*
G01X160500Y-15250D02*
X165830D01*
X165330Y-13500D01*
X164500Y-12500D01*
X163330Y-12000D01*
X162170Y-12250D01*
X161170Y-13000D01*
X160500Y-14750D01*
X160170Y-16250D01*
Y-17750D01*
X160500Y-19250D01*
X161330Y-20750D01*
X162330Y-21750D01*
X163500Y-22000D01*
X164670Y-21500D01*
X165830Y-20000D01*
G01X170830Y-22000D02*
X175000Y-7000D01*
X179170Y-22000D01*
G01X177670Y-16750D02*
X172330D01*
G01X184000Y-27000D02*
Y-12000D01*
G01Y-14250D02*
X184830Y-13000D01*
X185670Y-12250D01*
X187000Y-12000D01*
X188170Y-12250D01*
X189330Y-13500D01*
X189830Y-15250D01*
X190000Y-17000D01*
X189830Y-18750D01*
X189330Y-20500D01*
X188330Y-21500D01*
X187000Y-22000D01*
X185830Y-21750D01*
X184670Y-21000D01*
X184000Y-20000D01*
G01X196000Y-27000D02*
Y-12000D01*
G01Y-14250D02*
X196830Y-13000D01*
X197670Y-12250D01*
X199000Y-12000D01*
X200170Y-12250D01*
X201330Y-13500D01*
X201830Y-15250D01*
X202000Y-17000D01*
X201830Y-18750D01*
X201330Y-20500D01*
X200330Y-21500D01*
X199000Y-22000D01*
X197830Y-21750D01*
X196670Y-21000D01*
X196000Y-20000D01*
G01X219500D02*
X220830Y-21250D01*
X222330Y-22000D01*
X223670D01*
X225000Y-21250D01*
X226000Y-20000D01*
X226500Y-18250D01*
X226170Y-16500D01*
X225330Y-15000D01*
X223830Y-14000D01*
X221830Y-13500D01*
X220670Y-12500D01*
X220170Y-10750D01*
X220500Y-9000D01*
X221330Y-7750D01*
X222500Y-7000D01*
X223670D01*
X224830Y-7500D01*
X225830Y-8750D01*
G01X231500Y-26500D02*
X232500Y-27000D01*
X233830Y-26500D01*
X234670Y-25500D01*
X235330Y-24250D01*
X236330Y-20250D01*
X238500Y-12000D01*
G01X233170D02*
X236330Y-20250D01*
G01X244500D02*
X245330Y-21250D01*
X246500Y-22000D01*
X247500D01*
X248500Y-21500D01*
X249170Y-20750D01*
X249500Y-19750D01*
X249330Y-18250D01*
X248670Y-17500D01*
X245670Y-16000D01*
X245000Y-14250D01*
X245330Y-13000D01*
X246000Y-12250D01*
X247000Y-12000D01*
X248000Y-12250D01*
X249000Y-13000D01*
G01X259000Y-7000D02*
Y-22000D01*
G01X256670Y-12000D02*
X261330D01*
G01X268500Y-15250D02*
X273830D01*
X273330Y-13500D01*
X272500Y-12500D01*
X271330Y-12000D01*
X270170Y-12250D01*
X269170Y-13000D01*
X268500Y-14750D01*
X268170Y-16250D01*
Y-17750D01*
X268500Y-19250D01*
X269330Y-20750D01*
X270330Y-21750D01*
X271500Y-22000D01*
X272670Y-21500D01*
X273830Y-20000D01*
G01X278000Y-22000D02*
Y-12000D01*
G01Y-14750D02*
X278500Y-13500D01*
X279330Y-12500D01*
X280500Y-12000D01*
X281670Y-12500D01*
X282500Y-13500D01*
X283000Y-14750D01*
Y-22000D01*
G01Y-14750D02*
X283500Y-13500D01*
X284330Y-12500D01*
X285500Y-12000D01*
X286670Y-12500D01*
X287500Y-13500D01*
X288000Y-15000D01*
Y-22000D01*
G01X292500Y-20250D02*
X293330Y-21250D01*
X294500Y-22000D01*
X295500D01*
X296500Y-21500D01*
X297170Y-20750D01*
X297500Y-19750D01*
X297330Y-18250D01*
X296670Y-17500D01*
X293670Y-16000D01*
X293000Y-14250D01*
X293330Y-13000D01*
X294000Y-12250D01*
X295000Y-12000D01*
X296000Y-12250D01*
X297000Y-13000D01*
G01X92000Y6000D02*
G02I-1000J0D01*
G01Y-34000D02*
G02I-1000J0D01*
G01Y46000D02*
G02I-1000J0D01*
G01X125670Y299000D02*
Y284000D01*
X132330D01*
G01X141000D02*
X139670Y284250D01*
X138500Y285250D01*
X137500Y286750D01*
X136830Y288500D01*
X136500Y290500D01*
Y292500D01*
X136830Y294500D01*
X137500Y296250D01*
X138500Y297750D01*
X139670Y298750D01*
X141000Y299000D01*
X142330Y298750D01*
X143500Y297750D01*
X144500Y296250D01*
X145170Y294500D01*
X145500Y292500D01*
Y290500D01*
X145170Y288500D01*
X144500Y286750D01*
X143500Y285250D01*
X142330Y284250D01*
X141000Y284000D01*
G01X156670Y297750D02*
X155670Y298500D01*
X154500Y299000D01*
X153170D01*
X151670Y298250D01*
X150500Y297000D01*
X149670Y295500D01*
X149000Y293000D01*
X148830Y290750D01*
X149170Y288500D01*
X149670Y287000D01*
X150670Y285500D01*
X151830Y284500D01*
X153000Y284000D01*
X154170D01*
X155330Y284500D01*
X156330Y285250D01*
X157170Y286250D01*
G01X161330Y299000D02*
Y288250D01*
X162000Y286000D01*
X163330Y284500D01*
X165000Y284000D01*
X166670Y284500D01*
X168000Y286000D01*
X168670Y288250D01*
Y299000D01*
G01X173500Y284000D02*
X180500Y299000D01*
G01X173500D02*
X180500Y284000D01*
G01X197670D02*
Y299000D01*
X201830D01*
X203170Y298250D01*
X204000Y297250D01*
X204330Y295250D01*
X204000Y293250D01*
X203000Y292000D01*
X201830Y291250D01*
X197670D01*
G01X201830D02*
X204330Y284000D01*
G01X216330D02*
X209670D01*
Y299000D01*
X216330D01*
G01X213670Y291750D02*
X209670D01*
G01X220830Y299000D02*
X225000Y284000D01*
X229170Y299000D01*
G01X249000Y284000D02*
Y299000D01*
X247000Y296000D01*
G01Y284000D02*
X251000D01*
G01X261000Y283500D02*
X260670Y283750D01*
Y284250D01*
X261000Y284500D01*
X261330Y284250D01*
Y283750D01*
X261000Y283500D01*
G01X273000Y299000D02*
X271670Y298500D01*
X270670Y297250D01*
X270000Y295750D01*
X269500Y293750D01*
X269330Y291500D01*
X269500Y289250D01*
X270000Y287250D01*
X270670Y285750D01*
X271670Y284500D01*
X273000Y284000D01*
X274330Y284500D01*
X275330Y285750D01*
X276000Y287250D01*
X276500Y289250D01*
X276670Y291500D01*
X276500Y293750D01*
X276000Y295750D01*
X275330Y297250D01*
X274330Y298500D01*
X273000Y299000D01*
G01X157000Y-85000D02*
Y-206000D01*
X316000D01*
Y-59000D01*
X157000D01*
Y-85000D01*
G01X242820Y26900D02*
Y249100D01*
X153180D01*
Y26900D01*
X242820D01*
G54D12*
G01X-219000Y-32000D02*
X-245000D01*
Y-20000D01*
X-219000D01*
Y-32000D01*
G01X-262000Y329000D02*
X-236000D01*
Y317000D01*
X-262000D01*
Y329000D01*
G01X-199000Y-178500D02*
Y-153500D01*
X-187000D01*
Y-178500D01*
X-199000D01*
G01X-172500Y-199000D02*
X-197500D01*
Y-187000D01*
X-172500D01*
Y-199000D01*
G01X-183000Y-179000D02*
Y-153000D01*
X-171000D01*
Y-179000D01*
X-183000D01*
G01X-229000Y-153000D02*
X-203000D01*
Y-165000D01*
X-229000D01*
Y-153000D01*
G01X-168500Y-83000D02*
X-193500D01*
Y-71000D01*
X-168500D01*
Y-83000D01*
G01X-168000Y-65000D02*
X-194000D01*
Y-53000D01*
X-168000D01*
Y-65000D01*
G01X-185500Y3000D02*
X-210500D01*
Y15000D01*
X-185500D01*
Y3000D01*
G01X-185370Y17880D02*
X-210370D01*
Y29880D01*
X-185370D01*
Y17880D01*
G01X-179500Y7000D02*
X-153500D01*
Y-5000D01*
X-179500D01*
Y7000D01*
G01X-226000Y19000D02*
Y45000D01*
X-214000D01*
Y19000D01*
X-226000D01*
G01X-179450Y22000D02*
X-153450D01*
Y10000D01*
X-179450D01*
Y22000D01*
G01X-184870Y32860D02*
X-210870D01*
Y44860D01*
X-184870D01*
Y32860D01*
G01Y63340D02*
X-210870D01*
Y75340D01*
X-184870D01*
Y63340D01*
G01Y47850D02*
X-210870D01*
Y59850D01*
X-184870D01*
Y47850D01*
G01Y78580D02*
X-210870D01*
Y90580D01*
X-184870D01*
Y78580D01*
G01X-195910Y99500D02*
Y124500D01*
X-183910D01*
Y99500D01*
X-195910D01*
G01X-117000Y-153000D02*
Y-179000D01*
X-129000D01*
Y-153000D01*
X-117000D01*
G01X-98000Y-93500D02*
Y-118500D01*
X-110000D01*
Y-93500D01*
X-98000D01*
G01X-141000Y-165000D02*
X-167000D01*
Y-153000D01*
X-141000D01*
Y-165000D01*
G01X-131000Y-65000D02*
X-157000D01*
Y-53000D01*
X-131000D01*
Y-65000D01*
G01Y-83000D02*
X-157000D01*
Y-71000D01*
X-131000D01*
Y-83000D01*
G01Y-32000D02*
X-157000D01*
Y-20000D01*
X-131000D01*
Y-32000D01*
G01X-121500Y-5000D02*
X-147500D01*
Y7000D01*
X-121500D01*
Y-5000D01*
G01X-121450Y10000D02*
X-147450D01*
Y22000D01*
X-121450D01*
Y10000D01*
G01X-149260Y131530D02*
Y157530D01*
X-137260D01*
Y131530D01*
X-149260D01*
G01X-118270D02*
Y157530D01*
X-106270D01*
Y131530D01*
X-118270D01*
G01X-133760D02*
Y157530D01*
X-121760D01*
Y131530D01*
X-133760D01*
G01X-120000Y304500D02*
Y279500D01*
X-132000D01*
Y304500D01*
X-120000D01*
G01X-137000D02*
Y279500D01*
X-149000D01*
Y304500D01*
X-137000D01*
G01X-76000Y-93500D02*
Y-118500D01*
X-88000D01*
Y-93500D01*
X-76000D01*
G01X-61000Y-93000D02*
Y-119000D01*
X-73000D01*
Y-93000D01*
X-61000D01*
G01X-102770Y131530D02*
Y157530D01*
X-90770D01*
Y131530D01*
X-102770D01*
G01X-59000Y149280D02*
X-33000D01*
Y137280D01*
X-59000D01*
Y149280D01*
G01X-61420Y137260D02*
X-87420D01*
Y149260D01*
X-61420D01*
Y137260D01*
G01Y122270D02*
X-87420D01*
Y134270D01*
X-61420D01*
Y122270D01*
G01X-59010Y134270D02*
X-33010D01*
Y122270D01*
X-59010D01*
Y134270D01*
G01X-61420Y107280D02*
X-87420D01*
Y119280D01*
X-61420D01*
Y107280D01*
G01X-59010Y119260D02*
X-33010D01*
Y107260D01*
X-59010D01*
Y119260D01*
G01X-62000Y167290D02*
X-87000D01*
Y179290D01*
X-62000D01*
Y167290D01*
G01X-59000Y164240D02*
X-33000D01*
Y152240D01*
X-59000D01*
Y164240D01*
G01X-61420Y152240D02*
X-87420D01*
Y164240D01*
X-61420D01*
Y152240D01*
G01X-59000Y194000D02*
X-33000D01*
Y182000D01*
X-59000D01*
Y194000D01*
G01Y179290D02*
X-33000D01*
Y167290D01*
X-59000D01*
Y179290D01*
G01X12000Y-93000D02*
Y-119000D01*
X0D01*
Y-93000D01*
X12000D01*
G01Y260000D02*
X-14000D01*
Y272000D01*
X12000D01*
Y260000D01*
G01X1000Y275500D02*
Y300500D01*
X13000D01*
Y275500D01*
X1000D01*
G01X-2000Y300500D02*
Y275500D01*
X-14000D01*
Y300500D01*
X-2000D01*
G01X16000Y275500D02*
Y300500D01*
X28000D01*
Y275500D01*
X16000D01*
G01X86000Y-71000D02*
Y-97000D01*
X74000D01*
Y-71000D01*
X86000D01*
G01X73000Y139500D02*
Y164500D01*
X85000D01*
Y139500D01*
X73000D01*
G01X128000Y-175000D02*
X154000D01*
Y-187000D01*
X128000D01*
Y-175000D01*
G01X109000Y-89000D02*
Y-115000D01*
X97000D01*
Y-89000D01*
X109000D01*
G01X127000D02*
Y-115000D01*
X115000D01*
Y-89000D01*
X127000D01*
G01X118000Y57000D02*
Y83000D01*
X130000D01*
Y57000D01*
X118000D01*
G01X88000Y139500D02*
Y164500D01*
X100000D01*
Y139500D01*
X88000D01*
G01X103000Y139000D02*
Y165000D01*
X115000D01*
Y139000D01*
X103000D01*
G01X118000Y123000D02*
Y149000D01*
X130000D01*
Y123000D01*
X118000D01*
G01X130000Y111000D02*
Y85000D01*
X118000D01*
Y111000D01*
X130000D01*
G01X118000Y151500D02*
Y176500D01*
X130000D01*
Y151500D01*
X118000D01*
G01X173500Y254000D02*
X148500D01*
Y266000D01*
X173500D01*
Y254000D01*
G01X268000Y92000D02*
X294000D01*
Y80000D01*
X268000D01*
Y92000D01*
G01Y46000D02*
X294000D01*
Y34000D01*
X268000D01*
Y46000D01*
G01Y61000D02*
X294000D01*
Y49000D01*
X268000D01*
Y61000D01*
G01Y151000D02*
X294000D01*
Y139000D01*
X268000D01*
Y151000D01*
G01Y131000D02*
X294000D01*
Y119000D01*
X268000D01*
Y131000D01*
G01X292500Y177000D02*
X267500D01*
Y189000D01*
X292500D01*
Y177000D01*
G01X268000Y249000D02*
X294000D01*
Y237000D01*
X268000D01*
Y249000D01*
G54D13*
G01X-55000Y-57000D02*
G02I-2000J0D01*
G54D14*
G01X-225400Y-115110D02*
Y-134160D01*
G03X-212700Y-146860I12700J0D01*
G01X-136500D01*
G03X-123800Y-134160I0J12700D01*
G01Y-115110D01*
G03X-136500Y-102410I-12700J0D01*
G01X-212700D01*
G03X-225400Y-115110I0J-12700D01*
G01Y-118920D01*
G54D15*
G01X-259000Y-126330D02*
X-249000D01*
Y-129670D01*
X-249500Y-130730D01*
X-250170Y-131400D01*
X-251500Y-131670D01*
X-252830Y-131400D01*
X-253670Y-130600D01*
X-254170Y-129670D01*
Y-126330D01*
G01Y-129670D02*
X-259000Y-131670D01*
G01Y-137000D02*
X-249000D01*
X-251000Y-135400D01*
G01X-259000D02*
Y-138600D01*
G01Y-145000D02*
X-249000D01*
X-251000Y-143400D01*
G01X-259000D02*
Y-146600D01*
G01X-249070Y-154830D02*
X-249870Y-154330D01*
X-250800Y-154000D01*
X-251870D01*
X-253070Y-154500D01*
X-254000Y-155330D01*
X-254670Y-156330D01*
X-255200Y-158000D01*
X-255330Y-159500D01*
X-255070Y-161000D01*
X-254670Y-162000D01*
X-253870Y-163000D01*
X-252930Y-163670D01*
X-252000Y-164000D01*
X-251070D01*
X-250130Y-163670D01*
X-249330Y-163170D01*
X-248670Y-162500D01*
G01X-246930Y-162000D02*
X-246130Y-163170D01*
X-245070Y-163830D01*
X-243870Y-164000D01*
X-242800Y-163830D01*
X-241730Y-163000D01*
X-241070Y-162000D01*
X-240930Y-161000D01*
X-241200Y-159830D01*
X-242130Y-159000D01*
X-243070Y-158670D01*
X-244270D01*
G01X-243070D02*
X-242270Y-158170D01*
X-241600Y-157330D01*
X-241330Y-156330D01*
X-241600Y-155330D01*
X-242270Y-154500D01*
X-243470Y-154000D01*
X-244670Y-154170D01*
X-245870Y-154830D01*
G01X-238930Y-162500D02*
X-238130Y-163330D01*
X-237200Y-163830D01*
X-236000Y-164000D01*
X-234800Y-163670D01*
X-233870Y-163000D01*
X-233200Y-161830D01*
X-233070Y-160500D01*
X-233330Y-159170D01*
X-234000Y-158330D01*
X-234930Y-157670D01*
X-235870Y-157500D01*
X-236800Y-157670D01*
X-238000Y-158330D01*
X-237600Y-154000D01*
X-234000D01*
G01X-235830Y-131930D02*
X-235330Y-131130D01*
X-235000Y-130200D01*
Y-129130D01*
X-235500Y-127930D01*
X-236330Y-127000D01*
X-237330Y-126330D01*
X-239000Y-125800D01*
X-240500Y-125670D01*
X-242000Y-125930D01*
X-243000Y-126330D01*
X-244000Y-127130D01*
X-244670Y-128070D01*
X-245000Y-129000D01*
Y-129930D01*
X-244670Y-130870D01*
X-244170Y-131670D01*
X-243500Y-132330D01*
G01X-245000Y-138600D02*
X-235000D01*
X-242170Y-133670D01*
Y-140330D01*
G01X-240830Y-142470D02*
X-239670Y-143400D01*
X-239000Y-144200D01*
X-238670Y-145270D01*
X-239000Y-146200D01*
X-239670Y-146870D01*
X-240670Y-147400D01*
X-241830Y-147530D01*
X-242830Y-147400D01*
X-243830Y-146870D01*
X-244670Y-146070D01*
X-245000Y-145130D01*
X-244670Y-144070D01*
X-243670Y-143130D01*
X-242170Y-142600D01*
X-240500Y-142470D01*
X-238330Y-142730D01*
X-237170Y-143130D01*
X-236000Y-143800D01*
X-235170Y-144730D01*
X-235000Y-145670D01*
X-235330Y-146600D01*
X-236170Y-147270D01*
G01X-241000Y-112000D02*
Y-107500D01*
X-243670Y-102000D01*
G01X-238330D02*
X-241000Y-107500D01*
G01X-233000Y-112000D02*
Y-102000D01*
X-234600Y-104000D01*
G01Y-112000D02*
X-231400D01*
G01X-236070Y-35830D02*
X-236870Y-35330D01*
X-237800Y-35000D01*
X-238870D01*
X-240070Y-35500D01*
X-241000Y-36330D01*
X-241670Y-37330D01*
X-242200Y-39000D01*
X-242330Y-40500D01*
X-242070Y-42000D01*
X-241670Y-43000D01*
X-240870Y-44000D01*
X-239930Y-44670D01*
X-239000Y-45000D01*
X-238070D01*
X-237130Y-44670D01*
X-236330Y-44170D01*
X-235670Y-43500D01*
G01X-233930Y-43000D02*
X-233130Y-44170D01*
X-232070Y-44830D01*
X-230870Y-45000D01*
X-229800Y-44830D01*
X-228730Y-44000D01*
X-228070Y-43000D01*
X-227930Y-42000D01*
X-228200Y-40830D01*
X-229130Y-40000D01*
X-230070Y-39670D01*
X-231270D01*
G01X-230070D02*
X-229270Y-39170D01*
X-228600Y-38330D01*
X-228330Y-37330D01*
X-228600Y-36330D01*
X-229270Y-35500D01*
X-230470Y-35000D01*
X-231670Y-35170D01*
X-232870Y-35830D01*
G01X-223000Y-45000D02*
Y-35000D01*
X-224600Y-37000D01*
G01Y-45000D02*
X-221400D01*
G01X-266670Y-37000D02*
Y-27000D01*
X-263330D01*
X-262270Y-27500D01*
X-261600Y-28170D01*
X-261330Y-29500D01*
X-261600Y-30830D01*
X-262400Y-31670D01*
X-263330Y-32170D01*
X-266670D01*
G01X-263330D02*
X-261330Y-37000D01*
G01X-258930Y-35000D02*
X-258130Y-36170D01*
X-257070Y-36830D01*
X-255870Y-37000D01*
X-254800Y-36830D01*
X-253730Y-36000D01*
X-253070Y-35000D01*
X-252930Y-34000D01*
X-253200Y-32830D01*
X-254130Y-32000D01*
X-255070Y-31670D01*
X-256270D01*
G01X-255070D02*
X-254270Y-31170D01*
X-253600Y-30330D01*
X-253330Y-29330D01*
X-253600Y-28330D01*
X-254270Y-27500D01*
X-255470Y-27000D01*
X-256670Y-27170D01*
X-257870Y-27830D01*
G01X-266670Y-23000D02*
Y-13000D01*
X-263330D01*
X-262270Y-13500D01*
X-261600Y-14170D01*
X-261330Y-15500D01*
X-261600Y-16830D01*
X-262400Y-17670D01*
X-263330Y-18170D01*
X-266670D01*
G01X-263330D02*
X-261330Y-23000D01*
G01X-256000D02*
Y-13000D01*
X-257600Y-15000D01*
G01Y-23000D02*
X-254400D01*
G01X-261070Y170D02*
X-261870Y670D01*
X-262800Y1000D01*
X-263870D01*
X-265070Y500D01*
X-266000Y-330D01*
X-266670Y-1330D01*
X-267200Y-3000D01*
X-267330Y-4500D01*
X-267070Y-6000D01*
X-266670Y-7000D01*
X-265870Y-8000D01*
X-264930Y-8670D01*
X-264000Y-9000D01*
X-263070D01*
X-262130Y-8670D01*
X-261330Y-8170D01*
X-260670Y-7500D01*
G01X-258930D02*
X-258130Y-8330D01*
X-257200Y-8830D01*
X-256000Y-9000D01*
X-254800Y-8670D01*
X-253870Y-8000D01*
X-253200Y-6830D01*
X-253070Y-5500D01*
X-253330Y-4170D01*
X-254000Y-3330D01*
X-254930Y-2670D01*
X-255870Y-2500D01*
X-256800Y-2670D01*
X-258000Y-3330D01*
X-257600Y1000D01*
X-254000D01*
G01X-261070Y28170D02*
X-261870Y28670D01*
X-262800Y29000D01*
X-263870D01*
X-265070Y28500D01*
X-266000Y27670D01*
X-266670Y26670D01*
X-267200Y25000D01*
X-267330Y23500D01*
X-267070Y22000D01*
X-266670Y21000D01*
X-265870Y20000D01*
X-264930Y19330D01*
X-264000Y19000D01*
X-263070D01*
X-262130Y19330D01*
X-261330Y19830D01*
X-260670Y20500D01*
G01X-258530Y27330D02*
X-257730Y28330D01*
X-256800Y28830D01*
X-255730Y29000D01*
X-254400Y28670D01*
X-253470Y27830D01*
X-253200Y26830D01*
X-253330Y25830D01*
X-253870Y25000D01*
X-256530Y23330D01*
X-257730Y22170D01*
X-258530Y20500D01*
X-258800Y19000D01*
X-253200D01*
G01X-246400D02*
Y29000D01*
X-251330Y21830D01*
X-244670D01*
G01X-261070Y14170D02*
X-261870Y14670D01*
X-262800Y15000D01*
X-263870D01*
X-265070Y14500D01*
X-266000Y13670D01*
X-266670Y12670D01*
X-267200Y11000D01*
X-267330Y9500D01*
X-267070Y8000D01*
X-266670Y7000D01*
X-265870Y6000D01*
X-264930Y5330D01*
X-264000Y5000D01*
X-263070D01*
X-262130Y5330D01*
X-261330Y5830D01*
X-260670Y6500D01*
G01X-258530Y9170D02*
X-257600Y10330D01*
X-256800Y11000D01*
X-255730Y11330D01*
X-254800Y11000D01*
X-254130Y10330D01*
X-253600Y9330D01*
X-253470Y8170D01*
X-253600Y7170D01*
X-254130Y6170D01*
X-254930Y5330D01*
X-255870Y5000D01*
X-256930Y5330D01*
X-257870Y6330D01*
X-258400Y7830D01*
X-258530Y9500D01*
X-258270Y11670D01*
X-257870Y12830D01*
X-257200Y14000D01*
X-256270Y14830D01*
X-255330Y15000D01*
X-254400Y14670D01*
X-253730Y13830D01*
G01X-229830Y37070D02*
X-229330Y37870D01*
X-229000Y38800D01*
Y39870D01*
X-229500Y41070D01*
X-230330Y42000D01*
X-231330Y42670D01*
X-233000Y43200D01*
X-234500Y43330D01*
X-236000Y43070D01*
X-237000Y42670D01*
X-238000Y41870D01*
X-238670Y40930D01*
X-239000Y40000D01*
Y39070D01*
X-238670Y38130D01*
X-238170Y37330D01*
X-237500Y36670D01*
G01X-239000Y32000D02*
X-229000D01*
X-231000Y33600D01*
G01X-239000D02*
Y30400D01*
G01X-234830Y26530D02*
X-233670Y25600D01*
X-233000Y24800D01*
X-232670Y23730D01*
X-233000Y22800D01*
X-233670Y22130D01*
X-234670Y21600D01*
X-235830Y21470D01*
X-236830Y21600D01*
X-237830Y22130D01*
X-238670Y22930D01*
X-239000Y23870D01*
X-238670Y24930D01*
X-237670Y25870D01*
X-236170Y26400D01*
X-234500Y26530D01*
X-232330Y26270D01*
X-231170Y25870D01*
X-230000Y25200D01*
X-229170Y24270D01*
X-229000Y23330D01*
X-229330Y22400D01*
X-230170Y21730D01*
G01X-261070Y42170D02*
X-261870Y42670D01*
X-262800Y43000D01*
X-263870D01*
X-265070Y42500D01*
X-266000Y41670D01*
X-266670Y40670D01*
X-267200Y39000D01*
X-267330Y37500D01*
X-267070Y36000D01*
X-266670Y35000D01*
X-265870Y34000D01*
X-264930Y33330D01*
X-264000Y33000D01*
X-263070D01*
X-262130Y33330D01*
X-261330Y33830D01*
X-260670Y34500D01*
G01X-258530Y41330D02*
X-257730Y42330D01*
X-256800Y42830D01*
X-255730Y43000D01*
X-254400Y42670D01*
X-253470Y41830D01*
X-253200Y40830D01*
X-253330Y39830D01*
X-253870Y39000D01*
X-256530Y37330D01*
X-257730Y36170D01*
X-258530Y34500D01*
X-258800Y33000D01*
X-253200D01*
G01X-250930Y34500D02*
X-250130Y33670D01*
X-249200Y33170D01*
X-248000Y33000D01*
X-246800Y33330D01*
X-245870Y34000D01*
X-245200Y35170D01*
X-245070Y36500D01*
X-245330Y37830D01*
X-246000Y38670D01*
X-246930Y39330D01*
X-247870Y39500D01*
X-248800Y39330D01*
X-250000Y38670D01*
X-249600Y43000D01*
X-246000D01*
G01X-254830Y89070D02*
X-254330Y89870D01*
X-254000Y90800D01*
Y91870D01*
X-254500Y93070D01*
X-255330Y94000D01*
X-256330Y94670D01*
X-258000Y95200D01*
X-259500Y95330D01*
X-261000Y95070D01*
X-262000Y94670D01*
X-263000Y93870D01*
X-263670Y92930D01*
X-264000Y92000D01*
Y91070D01*
X-263670Y90130D01*
X-263170Y89330D01*
X-262500Y88670D01*
G01X-255670Y86530D02*
X-254670Y85730D01*
X-254170Y84800D01*
X-254000Y83730D01*
X-254330Y82400D01*
X-255170Y81470D01*
X-256170Y81200D01*
X-257170Y81330D01*
X-258000Y81870D01*
X-259670Y84530D01*
X-260830Y85730D01*
X-262500Y86530D01*
X-264000Y86800D01*
Y81200D01*
G01Y76270D02*
X-261830Y76000D01*
X-260000Y75600D01*
X-258330Y75070D01*
X-256500Y74400D01*
X-254000Y73330D01*
Y78670D01*
G01X-235930Y151000D02*
Y143830D01*
X-235400Y142330D01*
X-234330Y141330D01*
X-233000Y141000D01*
X-231670Y141330D01*
X-230600Y142330D01*
X-230070Y143830D01*
Y151000D01*
G01X-225000Y141000D02*
X-224070Y141170D01*
X-223000Y141670D01*
X-222330Y142500D01*
X-222070Y143670D01*
X-222330Y144830D01*
X-223130Y145830D01*
X-224330Y146330D01*
X-225670D01*
X-226470Y146670D01*
X-227130Y147500D01*
X-227400Y148670D01*
X-227000Y149830D01*
X-226070Y150670D01*
X-225000Y151000D01*
X-223930Y150670D01*
X-223000Y149830D01*
X-222600Y148670D01*
X-222870Y147500D01*
X-223530Y146670D01*
X-224330Y146330D01*
X-225670D01*
X-226870Y145830D01*
X-227670Y144830D01*
X-227930Y143670D01*
X-227670Y142500D01*
X-227000Y141670D01*
X-225930Y141170D01*
X-225000Y141000D01*
G01X-280000Y267000D02*
X-270000D01*
X-272000Y268600D01*
G01X-280000D02*
Y265400D01*
G01Y261670D02*
X-270000D01*
Y258330D01*
X-270500Y257270D01*
X-271170Y256600D01*
X-272500Y256330D01*
X-273830Y256600D01*
X-274670Y257400D01*
X-275170Y258330D01*
Y261670D01*
G01Y258330D02*
X-280000Y256330D01*
G01X-278670Y253800D02*
X-279500Y252730D01*
X-280000Y251530D01*
Y250470D01*
X-279500Y249400D01*
X-278670Y248600D01*
X-277500Y248200D01*
X-276330Y248470D01*
X-275330Y249130D01*
X-274670Y250330D01*
X-274330Y251930D01*
X-273670Y252870D01*
X-272500Y253270D01*
X-271330Y253000D01*
X-270500Y252330D01*
X-270000Y251400D01*
Y250470D01*
X-270330Y249530D01*
X-271170Y248730D01*
G01X-270000Y243000D02*
X-280000D01*
G01X-270000Y246070D02*
Y239930D01*
G01X-283330Y239000D02*
Y231000D01*
G01X-270000Y229930D02*
X-277170D01*
X-278670Y229400D01*
X-279670Y228330D01*
X-280000Y227000D01*
X-279670Y225670D01*
X-278670Y224600D01*
X-277170Y224070D01*
X-270000D01*
G01X-278670Y221800D02*
X-279500Y220730D01*
X-280000Y219530D01*
Y218470D01*
X-279500Y217400D01*
X-278670Y216600D01*
X-277500Y216200D01*
X-276330Y216470D01*
X-275330Y217130D01*
X-274670Y218330D01*
X-274330Y219930D01*
X-273670Y220870D01*
X-272500Y221270D01*
X-271330Y221000D01*
X-270500Y220330D01*
X-270000Y219400D01*
Y218470D01*
X-270330Y217530D01*
X-271170Y216730D01*
G01X-280000Y213930D02*
X-270000D01*
Y211270D01*
X-270500Y210200D01*
X-271170Y209400D01*
X-272170Y208730D01*
X-273330Y208200D01*
X-275000Y208070D01*
X-276670Y208200D01*
X-277830Y208730D01*
X-278830Y209400D01*
X-279500Y210200D01*
X-280000Y211270D01*
Y213930D01*
G01X-281070Y327170D02*
X-281870Y327670D01*
X-282800Y328000D01*
X-283870D01*
X-285070Y327500D01*
X-286000Y326670D01*
X-286670Y325670D01*
X-287200Y324000D01*
X-287330Y322500D01*
X-287070Y321000D01*
X-286670Y320000D01*
X-285870Y319000D01*
X-284930Y318330D01*
X-284000Y318000D01*
X-283070D01*
X-282130Y318330D01*
X-281330Y318830D01*
X-280670Y319500D01*
G01X-278530Y322170D02*
X-277600Y323330D01*
X-276800Y324000D01*
X-275730Y324330D01*
X-274800Y324000D01*
X-274130Y323330D01*
X-273600Y322330D01*
X-273470Y321170D01*
X-273600Y320170D01*
X-274130Y319170D01*
X-274930Y318330D01*
X-275870Y318000D01*
X-276930Y318330D01*
X-277870Y319330D01*
X-278400Y320830D01*
X-278530Y322500D01*
X-278270Y324670D01*
X-277870Y325830D01*
X-277200Y327000D01*
X-276270Y327830D01*
X-275330Y328000D01*
X-274400Y327670D01*
X-273730Y326830D01*
G01X-268000Y318000D02*
X-267070Y318170D01*
X-266000Y318670D01*
X-265330Y319500D01*
X-265070Y320670D01*
X-265330Y321830D01*
X-266130Y322830D01*
X-267330Y323330D01*
X-268670D01*
X-269470Y323670D01*
X-270130Y324500D01*
X-270400Y325670D01*
X-270000Y326830D01*
X-269070Y327670D01*
X-268000Y328000D01*
X-266930Y327670D01*
X-266000Y326830D01*
X-265600Y325670D01*
X-265870Y324500D01*
X-266530Y323670D01*
X-267330Y323330D01*
X-268670D01*
X-269870Y322830D01*
X-270670Y321830D01*
X-270930Y320670D01*
X-270670Y319500D01*
X-270000Y318670D01*
X-268930Y318170D01*
X-268000Y318000D01*
G01X-195670Y-215000D02*
Y-205000D01*
X-192330D01*
X-191270Y-205500D01*
X-190600Y-206170D01*
X-190330Y-207500D01*
X-190600Y-208830D01*
X-191400Y-209670D01*
X-192330Y-210170D01*
X-195670D01*
G01X-192330D02*
X-190330Y-215000D01*
G01X-185000D02*
Y-205000D01*
X-186600Y-207000D01*
G01Y-215000D02*
X-183400D01*
G01X-177000Y-205000D02*
X-178070Y-205330D01*
X-178870Y-206170D01*
X-179400Y-207170D01*
X-179800Y-208500D01*
X-179930Y-210000D01*
X-179800Y-211500D01*
X-179400Y-212830D01*
X-178870Y-213830D01*
X-178070Y-214670D01*
X-177000Y-215000D01*
X-175930Y-214670D01*
X-175130Y-213830D01*
X-174600Y-212830D01*
X-174200Y-211500D01*
X-174070Y-210000D01*
X-174200Y-208500D01*
X-174600Y-207170D01*
X-175130Y-206170D01*
X-175930Y-205330D01*
X-177000Y-205000D01*
G01X-221000Y-215000D02*
X-222070Y-214830D01*
X-223000Y-214170D01*
X-223800Y-213170D01*
X-224330Y-212000D01*
X-224600Y-210670D01*
Y-209330D01*
X-224330Y-208000D01*
X-223800Y-206830D01*
X-223000Y-205830D01*
X-222070Y-205170D01*
X-221000Y-205000D01*
X-219930Y-205170D01*
X-219000Y-205830D01*
X-218200Y-206830D01*
X-217670Y-208000D01*
X-217400Y-209330D01*
Y-210670D01*
X-217670Y-212000D01*
X-218200Y-213170D01*
X-219000Y-214170D01*
X-219930Y-214830D01*
X-221000Y-215000D01*
G01X-219930Y-212330D02*
X-218330Y-215000D01*
G01X-215530Y-206670D02*
X-214730Y-205670D01*
X-213800Y-205170D01*
X-212730Y-205000D01*
X-211400Y-205330D01*
X-210470Y-206170D01*
X-210200Y-207170D01*
X-210330Y-208170D01*
X-210870Y-209000D01*
X-213530Y-210670D01*
X-214730Y-211830D01*
X-215530Y-213500D01*
X-215800Y-215000D01*
X-210200D01*
G01X-190530Y-89670D02*
X-189730Y-88670D01*
X-188800Y-88170D01*
X-187730Y-88000D01*
X-186400Y-88330D01*
X-185470Y-89170D01*
X-185200Y-90170D01*
X-185330Y-91170D01*
X-185870Y-92000D01*
X-188530Y-93670D01*
X-189730Y-94830D01*
X-190530Y-96500D01*
X-190800Y-98000D01*
X-185200D01*
G01X-178400D02*
Y-88000D01*
X-183330Y-95170D01*
X-176670D01*
G01X-175470Y-98000D02*
Y-88000D01*
X-172000Y-96330D01*
X-168530Y-88000D01*
Y-98000D01*
G01X-166800D02*
Y-88000D01*
G01X-161200D02*
Y-98000D01*
G01Y-93000D02*
X-166800D01*
G01X-158530Y-88000D02*
X-153470D01*
X-158530Y-98000D01*
X-153470D01*
G01X-219670Y-81000D02*
Y-71000D01*
X-216330D01*
X-215270Y-71500D01*
X-214600Y-72170D01*
X-214330Y-73500D01*
X-214600Y-74830D01*
X-215400Y-75670D01*
X-216330Y-76170D01*
X-219670D01*
G01X-216330D02*
X-214330Y-81000D01*
G01X-211930Y-79000D02*
X-211130Y-80170D01*
X-210070Y-80830D01*
X-208870Y-81000D01*
X-207800Y-80830D01*
X-206730Y-80000D01*
X-206070Y-79000D01*
X-205930Y-78000D01*
X-206200Y-76830D01*
X-207130Y-76000D01*
X-208070Y-75670D01*
X-209270D01*
G01X-208070D02*
X-207270Y-75170D01*
X-206600Y-74330D01*
X-206330Y-73330D01*
X-206600Y-72330D01*
X-207270Y-71500D01*
X-208470Y-71000D01*
X-209670Y-71170D01*
X-210870Y-71830D01*
G01X-203270Y-79830D02*
X-202330Y-80670D01*
X-201270Y-81000D01*
X-200200Y-80670D01*
X-199270Y-79670D01*
X-198600Y-78170D01*
X-198330Y-76670D01*
Y-74830D01*
X-198600Y-73330D01*
X-199270Y-72000D01*
X-200070Y-71330D01*
X-201000Y-71000D01*
X-202070Y-71330D01*
X-202870Y-72000D01*
X-203400Y-73000D01*
X-203670Y-74330D01*
X-203400Y-75500D01*
X-202730Y-76670D01*
X-201930Y-77330D01*
X-201000Y-77500D01*
X-199930Y-77170D01*
X-199130Y-76330D01*
X-198330Y-74830D01*
G01X-214070Y-54830D02*
X-214870Y-54330D01*
X-215800Y-54000D01*
X-216870D01*
X-218070Y-54500D01*
X-219000Y-55330D01*
X-219670Y-56330D01*
X-220200Y-58000D01*
X-220330Y-59500D01*
X-220070Y-61000D01*
X-219670Y-62000D01*
X-218870Y-63000D01*
X-217930Y-63670D01*
X-217000Y-64000D01*
X-216070D01*
X-215130Y-63670D01*
X-214330Y-63170D01*
X-213670Y-62500D01*
G01X-211930D02*
X-211130Y-63330D01*
X-210200Y-63830D01*
X-209000Y-64000D01*
X-207800Y-63670D01*
X-206870Y-63000D01*
X-206200Y-61830D01*
X-206070Y-60500D01*
X-206330Y-59170D01*
X-207000Y-58330D01*
X-207930Y-57670D01*
X-208870Y-57500D01*
X-209800Y-57670D01*
X-211000Y-58330D01*
X-210600Y-54000D01*
X-207000D01*
G01X-201270Y-64000D02*
X-201000Y-61830D01*
X-200600Y-60000D01*
X-200070Y-58330D01*
X-199400Y-56500D01*
X-198330Y-54000D01*
X-203670D01*
G01X-177070Y-23830D02*
X-177870Y-23330D01*
X-178800Y-23000D01*
X-179870D01*
X-181070Y-23500D01*
X-182000Y-24330D01*
X-182670Y-25330D01*
X-183200Y-27000D01*
X-183330Y-28500D01*
X-183070Y-30000D01*
X-182670Y-31000D01*
X-181870Y-32000D01*
X-180930Y-32670D01*
X-180000Y-33000D01*
X-179070D01*
X-178130Y-32670D01*
X-177330Y-32170D01*
X-176670Y-31500D01*
G01X-174530Y-24670D02*
X-173730Y-23670D01*
X-172800Y-23170D01*
X-171730Y-23000D01*
X-170400Y-23330D01*
X-169470Y-24170D01*
X-169200Y-25170D01*
X-169330Y-26170D01*
X-169870Y-27000D01*
X-172530Y-28670D01*
X-173730Y-29830D01*
X-174530Y-31500D01*
X-174800Y-33000D01*
X-169200D01*
G01X-164000D02*
X-163070Y-32830D01*
X-162000Y-32330D01*
X-161330Y-31500D01*
X-161070Y-30330D01*
X-161330Y-29170D01*
X-162130Y-28170D01*
X-163330Y-27670D01*
X-164670D01*
X-165470Y-27330D01*
X-166130Y-26500D01*
X-166400Y-25330D01*
X-166000Y-24170D01*
X-165070Y-23330D01*
X-164000Y-23000D01*
X-162930Y-23330D01*
X-162000Y-24170D01*
X-161600Y-25330D01*
X-161870Y-26500D01*
X-162530Y-27330D01*
X-163330Y-27670D01*
X-164670D01*
X-165870Y-28170D01*
X-166670Y-29170D01*
X-166930Y-30330D01*
X-166670Y-31500D01*
X-166000Y-32330D01*
X-164930Y-32830D01*
X-164000Y-33000D01*
G01X-177070Y-9830D02*
X-177870Y-9330D01*
X-178800Y-9000D01*
X-179870D01*
X-181070Y-9500D01*
X-182000Y-10330D01*
X-182670Y-11330D01*
X-183200Y-13000D01*
X-183330Y-14500D01*
X-183070Y-16000D01*
X-182670Y-17000D01*
X-181870Y-18000D01*
X-180930Y-18670D01*
X-180000Y-19000D01*
X-179070D01*
X-178130Y-18670D01*
X-177330Y-18170D01*
X-176670Y-17500D01*
G01X-174530Y-10670D02*
X-173730Y-9670D01*
X-172800Y-9170D01*
X-171730Y-9000D01*
X-170400Y-9330D01*
X-169470Y-10170D01*
X-169200Y-11170D01*
X-169330Y-12170D01*
X-169870Y-13000D01*
X-172530Y-14670D01*
X-173730Y-15830D01*
X-174530Y-17500D01*
X-174800Y-19000D01*
X-169200D01*
G01X-166270Y-17830D02*
X-165330Y-18670D01*
X-164270Y-19000D01*
X-163200Y-18670D01*
X-162270Y-17670D01*
X-161600Y-16170D01*
X-161330Y-14670D01*
Y-12830D01*
X-161600Y-11330D01*
X-162270Y-10000D01*
X-163070Y-9330D01*
X-164000Y-9000D01*
X-165070Y-9330D01*
X-165870Y-10000D01*
X-166400Y-11000D01*
X-166670Y-12330D01*
X-166400Y-13500D01*
X-165730Y-14670D01*
X-164930Y-15330D01*
X-164000Y-15500D01*
X-162930Y-15170D01*
X-162130Y-14330D01*
X-161330Y-12830D01*
G01X-196670Y128000D02*
Y138000D01*
X-193330D01*
X-192270Y137500D01*
X-191600Y136830D01*
X-191330Y135500D01*
X-191600Y134170D01*
X-192400Y133330D01*
X-193330Y132830D01*
X-196670D01*
G01X-193330D02*
X-191330Y128000D01*
G01X-188530Y136330D02*
X-187730Y137330D01*
X-186800Y137830D01*
X-185730Y138000D01*
X-184400Y137670D01*
X-183470Y136830D01*
X-183200Y135830D01*
X-183330Y134830D01*
X-183870Y134000D01*
X-186530Y132330D01*
X-187730Y131170D01*
X-188530Y129500D01*
X-188800Y128000D01*
X-183200D01*
G01X-118830Y-188930D02*
X-118330Y-188130D01*
X-118000Y-187200D01*
Y-186130D01*
X-118500Y-184930D01*
X-119330Y-184000D01*
X-120330Y-183330D01*
X-122000Y-182800D01*
X-123500Y-182670D01*
X-125000Y-182930D01*
X-126000Y-183330D01*
X-127000Y-184130D01*
X-127670Y-185070D01*
X-128000Y-186000D01*
Y-186930D01*
X-127670Y-187870D01*
X-127170Y-188670D01*
X-126500Y-189330D01*
G01X-128000Y-195600D02*
X-118000D01*
X-125170Y-190670D01*
Y-197330D01*
G01X-128000Y-201730D02*
X-125830Y-202000D01*
X-124000Y-202400D01*
X-122330Y-202930D01*
X-120500Y-203600D01*
X-118000Y-204670D01*
Y-199330D01*
G01X-157000Y-214000D02*
X-158070Y-213830D01*
X-159000Y-213170D01*
X-159800Y-212170D01*
X-160330Y-211000D01*
X-160600Y-209670D01*
Y-208330D01*
X-160330Y-207000D01*
X-159800Y-205830D01*
X-159000Y-204830D01*
X-158070Y-204170D01*
X-157000Y-204000D01*
X-155930Y-204170D01*
X-155000Y-204830D01*
X-154200Y-205830D01*
X-153670Y-207000D01*
X-153400Y-208330D01*
Y-209670D01*
X-153670Y-211000D01*
X-154200Y-212170D01*
X-155000Y-213170D01*
X-155930Y-213830D01*
X-157000Y-214000D01*
G01X-155930Y-211330D02*
X-154330Y-214000D01*
G01X-149000D02*
Y-204000D01*
X-150600Y-206000D01*
G01Y-214000D02*
X-147400D01*
G01X-111930Y-207000D02*
Y-214170D01*
X-111400Y-215670D01*
X-110330Y-216670D01*
X-109000Y-217000D01*
X-107670Y-216670D01*
X-106600Y-215670D01*
X-106070Y-214170D01*
Y-207000D01*
G01X-103930Y-215000D02*
X-103130Y-216170D01*
X-102070Y-216830D01*
X-100870Y-217000D01*
X-99800Y-216830D01*
X-98730Y-216000D01*
X-98070Y-215000D01*
X-97930Y-214000D01*
X-98200Y-212830D01*
X-99130Y-212000D01*
X-100070Y-211670D01*
X-101270D01*
G01X-100070D02*
X-99270Y-211170D01*
X-98600Y-210330D01*
X-98330Y-209330D01*
X-98600Y-208330D01*
X-99270Y-207500D01*
X-100470Y-207000D01*
X-101670Y-207170D01*
X-102870Y-207830D01*
G01X-103070Y-122830D02*
X-103870Y-122330D01*
X-104800Y-122000D01*
X-105870D01*
X-107070Y-122500D01*
X-108000Y-123330D01*
X-108670Y-124330D01*
X-109200Y-126000D01*
X-109330Y-127500D01*
X-109070Y-129000D01*
X-108670Y-130000D01*
X-107870Y-131000D01*
X-106930Y-131670D01*
X-106000Y-132000D01*
X-105070D01*
X-104130Y-131670D01*
X-103330Y-131170D01*
X-102670Y-130500D01*
G01X-100930Y-130000D02*
X-100130Y-131170D01*
X-99070Y-131830D01*
X-97870Y-132000D01*
X-96800Y-131830D01*
X-95730Y-131000D01*
X-95070Y-130000D01*
X-94930Y-129000D01*
X-95200Y-127830D01*
X-96130Y-127000D01*
X-97070Y-126670D01*
X-98270D01*
G01X-97070D02*
X-96270Y-126170D01*
X-95600Y-125330D01*
X-95330Y-124330D01*
X-95600Y-123330D01*
X-96270Y-122500D01*
X-97470Y-122000D01*
X-98670Y-122170D01*
X-99870Y-122830D01*
G01X-88400Y-132000D02*
Y-122000D01*
X-93330Y-129170D01*
X-86670D01*
G01X-133670Y-99000D02*
Y-89000D01*
X-130330D01*
X-129270Y-89500D01*
X-128600Y-90170D01*
X-128330Y-91500D01*
X-128600Y-92830D01*
X-129400Y-93670D01*
X-130330Y-94170D01*
X-133670D01*
G01X-130330D02*
X-128330Y-99000D01*
G01X-123000D02*
Y-89000D01*
X-124600Y-91000D01*
G01Y-99000D02*
X-121400D01*
G01X-117530Y-90670D02*
X-116730Y-89670D01*
X-115800Y-89170D01*
X-114730Y-89000D01*
X-113400Y-89330D01*
X-112470Y-90170D01*
X-112200Y-91170D01*
X-112330Y-92170D01*
X-112870Y-93000D01*
X-115530Y-94670D01*
X-116730Y-95830D01*
X-117530Y-97500D01*
X-117800Y-99000D01*
X-112200D01*
G01X-122070Y-54830D02*
X-122870Y-54330D01*
X-123800Y-54000D01*
X-124870D01*
X-126070Y-54500D01*
X-127000Y-55330D01*
X-127670Y-56330D01*
X-128200Y-58000D01*
X-128330Y-59500D01*
X-128070Y-61000D01*
X-127670Y-62000D01*
X-126870Y-63000D01*
X-125930Y-63670D01*
X-125000Y-64000D01*
X-124070D01*
X-123130Y-63670D01*
X-122330Y-63170D01*
X-121670Y-62500D01*
G01X-119930Y-62000D02*
X-119130Y-63170D01*
X-118070Y-63830D01*
X-116870Y-64000D01*
X-115800Y-63830D01*
X-114730Y-63000D01*
X-114070Y-62000D01*
X-113930Y-61000D01*
X-114200Y-59830D01*
X-115130Y-59000D01*
X-116070Y-58670D01*
X-117270D01*
G01X-116070D02*
X-115270Y-58170D01*
X-114600Y-57330D01*
X-114330Y-56330D01*
X-114600Y-55330D01*
X-115270Y-54500D01*
X-116470Y-54000D01*
X-117670Y-54170D01*
X-118870Y-54830D01*
G01X-111930Y-62000D02*
X-111130Y-63170D01*
X-110070Y-63830D01*
X-108870Y-64000D01*
X-107800Y-63830D01*
X-106730Y-63000D01*
X-106070Y-62000D01*
X-105930Y-61000D01*
X-106200Y-59830D01*
X-107130Y-59000D01*
X-108070Y-58670D01*
X-109270D01*
G01X-108070D02*
X-107270Y-58170D01*
X-106600Y-57330D01*
X-106330Y-56330D01*
X-106600Y-55330D01*
X-107270Y-54500D01*
X-108470Y-54000D01*
X-109670Y-54170D01*
X-110870Y-54830D01*
G01X-122070Y-72830D02*
X-122870Y-72330D01*
X-123800Y-72000D01*
X-124870D01*
X-126070Y-72500D01*
X-127000Y-73330D01*
X-127670Y-74330D01*
X-128200Y-76000D01*
X-128330Y-77500D01*
X-128070Y-79000D01*
X-127670Y-80000D01*
X-126870Y-81000D01*
X-125930Y-81670D01*
X-125000Y-82000D01*
X-124070D01*
X-123130Y-81670D01*
X-122330Y-81170D01*
X-121670Y-80500D01*
G01X-119930Y-80000D02*
X-119130Y-81170D01*
X-118070Y-81830D01*
X-116870Y-82000D01*
X-115800Y-81830D01*
X-114730Y-81000D01*
X-114070Y-80000D01*
X-113930Y-79000D01*
X-114200Y-77830D01*
X-115130Y-77000D01*
X-116070Y-76670D01*
X-117270D01*
G01X-116070D02*
X-115270Y-76170D01*
X-114600Y-75330D01*
X-114330Y-74330D01*
X-114600Y-73330D01*
X-115270Y-72500D01*
X-116470Y-72000D01*
X-117670Y-72170D01*
X-118870Y-72830D01*
G01X-111530Y-73670D02*
X-110730Y-72670D01*
X-109800Y-72170D01*
X-108730Y-72000D01*
X-107400Y-72330D01*
X-106470Y-73170D01*
X-106200Y-74170D01*
X-106330Y-75170D01*
X-106870Y-76000D01*
X-109530Y-77670D01*
X-110730Y-78830D01*
X-111530Y-80500D01*
X-111800Y-82000D01*
X-106200D01*
G01X-122070Y-21830D02*
X-122870Y-21330D01*
X-123800Y-21000D01*
X-124870D01*
X-126070Y-21500D01*
X-127000Y-22330D01*
X-127670Y-23330D01*
X-128200Y-25000D01*
X-128330Y-26500D01*
X-128070Y-28000D01*
X-127670Y-29000D01*
X-126870Y-30000D01*
X-125930Y-30670D01*
X-125000Y-31000D01*
X-124070D01*
X-123130Y-30670D01*
X-122330Y-30170D01*
X-121670Y-29500D01*
G01X-119930Y-29000D02*
X-119130Y-30170D01*
X-118070Y-30830D01*
X-116870Y-31000D01*
X-115800Y-30830D01*
X-114730Y-30000D01*
X-114070Y-29000D01*
X-113930Y-28000D01*
X-114200Y-26830D01*
X-115130Y-26000D01*
X-116070Y-25670D01*
X-117270D01*
G01X-116070D02*
X-115270Y-25170D01*
X-114600Y-24330D01*
X-114330Y-23330D01*
X-114600Y-22330D01*
X-115270Y-21500D01*
X-116470Y-21000D01*
X-117670Y-21170D01*
X-118870Y-21830D01*
G01X-109000Y-21000D02*
X-110070Y-21330D01*
X-110870Y-22170D01*
X-111400Y-23170D01*
X-111800Y-24500D01*
X-111930Y-26000D01*
X-111800Y-27500D01*
X-111400Y-28830D01*
X-110870Y-29830D01*
X-110070Y-30670D01*
X-109000Y-31000D01*
X-107930Y-30670D01*
X-107130Y-29830D01*
X-106600Y-28830D01*
X-106200Y-27500D01*
X-106070Y-26000D01*
X-106200Y-24500D01*
X-106600Y-23170D01*
X-107130Y-22170D01*
X-107930Y-21330D01*
X-109000Y-21000D01*
G01X-112070Y5170D02*
X-112870Y5670D01*
X-113800Y6000D01*
X-114870D01*
X-116070Y5500D01*
X-117000Y4670D01*
X-117670Y3670D01*
X-118200Y2000D01*
X-118330Y500D01*
X-118070Y-1000D01*
X-117670Y-2000D01*
X-116870Y-3000D01*
X-115930Y-3670D01*
X-115000Y-4000D01*
X-114070D01*
X-113130Y-3670D01*
X-112330Y-3170D01*
X-111670Y-2500D01*
G01X-109530Y4330D02*
X-108730Y5330D01*
X-107800Y5830D01*
X-106730Y6000D01*
X-105400Y5670D01*
X-104470Y4830D01*
X-104200Y3830D01*
X-104330Y2830D01*
X-104870Y2000D01*
X-107530Y330D01*
X-108730Y-830D01*
X-109530Y-2500D01*
X-109800Y-4000D01*
X-104200D01*
G01X-101930Y-2000D02*
X-101130Y-3170D01*
X-100070Y-3830D01*
X-98870Y-4000D01*
X-97800Y-3830D01*
X-96730Y-3000D01*
X-96070Y-2000D01*
X-95930Y-1000D01*
X-96200Y170D01*
X-97130Y1000D01*
X-98070Y1330D01*
X-99270D01*
G01X-98070D02*
X-97270Y1830D01*
X-96600Y2670D01*
X-96330Y3670D01*
X-96600Y4670D01*
X-97270Y5500D01*
X-98470Y6000D01*
X-99670Y5830D01*
X-100870Y5170D01*
G01X-112070Y20170D02*
X-112870Y20670D01*
X-113800Y21000D01*
X-114870D01*
X-116070Y20500D01*
X-117000Y19670D01*
X-117670Y18670D01*
X-118200Y17000D01*
X-118330Y15500D01*
X-118070Y14000D01*
X-117670Y13000D01*
X-116870Y12000D01*
X-115930Y11330D01*
X-115000Y11000D01*
X-114070D01*
X-113130Y11330D01*
X-112330Y11830D01*
X-111670Y12500D01*
G01X-109530Y19330D02*
X-108730Y20330D01*
X-107800Y20830D01*
X-106730Y21000D01*
X-105400Y20670D01*
X-104470Y19830D01*
X-104200Y18830D01*
X-104330Y17830D01*
X-104870Y17000D01*
X-107530Y15330D01*
X-108730Y14170D01*
X-109530Y12500D01*
X-109800Y11000D01*
X-104200D01*
G01X-101530Y15170D02*
X-100600Y16330D01*
X-99800Y17000D01*
X-98730Y17330D01*
X-97800Y17000D01*
X-97130Y16330D01*
X-96600Y15330D01*
X-96470Y14170D01*
X-96600Y13170D01*
X-97130Y12170D01*
X-97930Y11330D01*
X-98870Y11000D01*
X-99930Y11330D01*
X-100870Y12330D01*
X-101400Y13830D01*
X-101530Y15500D01*
X-101270Y17670D01*
X-100870Y18830D01*
X-100200Y20000D01*
X-99270Y20830D01*
X-98330Y21000D01*
X-97400Y20670D01*
X-96730Y19830D01*
G01X-107670Y35000D02*
Y45000D01*
X-104330D01*
X-103000Y44500D01*
X-102000Y43830D01*
X-101170Y42830D01*
X-100500Y41670D01*
X-100330Y40000D01*
X-100500Y38330D01*
X-101170Y37170D01*
X-102000Y36170D01*
X-103000Y35500D01*
X-104330Y35000D01*
X-107670D01*
G01X-94000D02*
Y45000D01*
X-96000Y43000D01*
G01Y35000D02*
X-92000D01*
G01X-119670Y184000D02*
Y194000D01*
X-116330D01*
X-115000Y193500D01*
X-114000Y192830D01*
X-113170Y191830D01*
X-112500Y190670D01*
X-112330Y189000D01*
X-112500Y187330D01*
X-113170Y186170D01*
X-114000Y185170D01*
X-115000Y184500D01*
X-116330Y184000D01*
X-119670D01*
G01X-104000D02*
Y194000D01*
X-110170Y186830D01*
X-101830D01*
G01X-93830Y212070D02*
X-93330Y212870D01*
X-93000Y213800D01*
Y214870D01*
X-93500Y216070D01*
X-94330Y217000D01*
X-95330Y217670D01*
X-97000Y218200D01*
X-98500Y218330D01*
X-100000Y218070D01*
X-101000Y217670D01*
X-102000Y216870D01*
X-102670Y215930D01*
X-103000Y215000D01*
Y214070D01*
X-102670Y213130D01*
X-102170Y212330D01*
X-101500Y211670D01*
G01X-101830Y209270D02*
X-102670Y208330D01*
X-103000Y207270D01*
X-102670Y206200D01*
X-101670Y205270D01*
X-100170Y204600D01*
X-98670Y204330D01*
X-96830D01*
X-95330Y204600D01*
X-94000Y205270D01*
X-93330Y206070D01*
X-93000Y207000D01*
X-93330Y208070D01*
X-94000Y208870D01*
X-95000Y209400D01*
X-96330Y209670D01*
X-97500Y209400D01*
X-98670Y208730D01*
X-99330Y207930D01*
X-99500Y207000D01*
X-99170Y205930D01*
X-98330Y205130D01*
X-96830Y204330D01*
G01X-135830Y212070D02*
X-135330Y212870D01*
X-135000Y213800D01*
Y214870D01*
X-135500Y216070D01*
X-136330Y217000D01*
X-137330Y217670D01*
X-139000Y218200D01*
X-140500Y218330D01*
X-142000Y218070D01*
X-143000Y217670D01*
X-144000Y216870D01*
X-144670Y215930D01*
X-145000Y215000D01*
Y214070D01*
X-144670Y213130D01*
X-144170Y212330D01*
X-143500Y211670D01*
G01X-145000Y207000D02*
X-135000D01*
X-137000Y208600D01*
G01X-145000D02*
Y205400D01*
G01X-143500Y201930D02*
X-144330Y201130D01*
X-144830Y200200D01*
X-145000Y199000D01*
X-144670Y197800D01*
X-144000Y196870D01*
X-142830Y196200D01*
X-141500Y196070D01*
X-140170Y196330D01*
X-139330Y197000D01*
X-138670Y197930D01*
X-138500Y198870D01*
X-138670Y199800D01*
X-139330Y201000D01*
X-135000Y200600D01*
Y197000D01*
G01X-107830Y212070D02*
X-107330Y212870D01*
X-107000Y213800D01*
Y214870D01*
X-107500Y216070D01*
X-108330Y217000D01*
X-109330Y217670D01*
X-111000Y218200D01*
X-112500Y218330D01*
X-114000Y218070D01*
X-115000Y217670D01*
X-116000Y216870D01*
X-116670Y215930D01*
X-117000Y215000D01*
Y214070D01*
X-116670Y213130D01*
X-116170Y212330D01*
X-115500Y211670D01*
G01X-117000Y207000D02*
X-116830Y206070D01*
X-116330Y205000D01*
X-115500Y204330D01*
X-114330Y204070D01*
X-113170Y204330D01*
X-112170Y205130D01*
X-111670Y206330D01*
Y207670D01*
X-111330Y208470D01*
X-110500Y209130D01*
X-109330Y209400D01*
X-108170Y209000D01*
X-107330Y208070D01*
X-107000Y207000D01*
X-107330Y205930D01*
X-108170Y205000D01*
X-109330Y204600D01*
X-110500Y204870D01*
X-111330Y205530D01*
X-111670Y206330D01*
Y207670D01*
X-112170Y208870D01*
X-113170Y209670D01*
X-114330Y209930D01*
X-115500Y209670D01*
X-116330Y209000D01*
X-116830Y207930D01*
X-117000Y207000D01*
G01X-121830Y212070D02*
X-121330Y212870D01*
X-121000Y213800D01*
Y214870D01*
X-121500Y216070D01*
X-122330Y217000D01*
X-123330Y217670D01*
X-125000Y218200D01*
X-126500Y218330D01*
X-128000Y218070D01*
X-129000Y217670D01*
X-130000Y216870D01*
X-130670Y215930D01*
X-131000Y215000D01*
Y214070D01*
X-130670Y213130D01*
X-130170Y212330D01*
X-129500Y211670D01*
G01X-131000Y207270D02*
X-128830Y207000D01*
X-127000Y206600D01*
X-125330Y206070D01*
X-123500Y205400D01*
X-121000Y204330D01*
Y209670D01*
G01X-131000Y275670D02*
X-121000D01*
Y272330D01*
X-121500Y271270D01*
X-122170Y270600D01*
X-123500Y270330D01*
X-124830Y270600D01*
X-125670Y271400D01*
X-126170Y272330D01*
Y275670D01*
G01Y272330D02*
X-131000Y270330D01*
G01Y265000D02*
X-121000D01*
X-123000Y266600D01*
G01X-131000D02*
Y263400D01*
G01Y255400D02*
X-121000D01*
X-128170Y260330D01*
Y253670D01*
G01X-148000Y275670D02*
X-138000D01*
Y272330D01*
X-138500Y271270D01*
X-139170Y270600D01*
X-140500Y270330D01*
X-141830Y270600D01*
X-142670Y271400D01*
X-143170Y272330D01*
Y275670D01*
G01Y272330D02*
X-148000Y270330D01*
G01Y263400D02*
X-138000D01*
X-145170Y268330D01*
Y261670D01*
G01X-57000Y-95330D02*
X-47000D01*
Y-98670D01*
X-47500Y-99730D01*
X-48170Y-100400D01*
X-49500Y-100670D01*
X-50830Y-100400D01*
X-51670Y-99600D01*
X-52170Y-98670D01*
Y-95330D01*
G01Y-98670D02*
X-57000Y-100670D01*
G01Y-106000D02*
X-47000D01*
X-49000Y-104400D01*
G01X-57000D02*
Y-107600D01*
G01X-55000Y-111070D02*
X-56170Y-111870D01*
X-56830Y-112930D01*
X-57000Y-114130D01*
X-56830Y-115200D01*
X-56000Y-116270D01*
X-55000Y-116930D01*
X-54000Y-117070D01*
X-52830Y-116800D01*
X-52000Y-115870D01*
X-51670Y-114930D01*
Y-113730D01*
G01Y-114930D02*
X-51170Y-115730D01*
X-50330Y-116400D01*
X-49330Y-116670D01*
X-48330Y-116400D01*
X-47500Y-115730D01*
X-47000Y-114530D01*
X-47170Y-113330D01*
X-47830Y-112130D01*
G01X-33830Y-100930D02*
X-33330Y-100130D01*
X-33000Y-99200D01*
Y-98130D01*
X-33500Y-96930D01*
X-34330Y-96000D01*
X-35330Y-95330D01*
X-37000Y-94800D01*
X-38500Y-94670D01*
X-40000Y-94930D01*
X-41000Y-95330D01*
X-42000Y-96130D01*
X-42670Y-97070D01*
X-43000Y-98000D01*
Y-98930D01*
X-42670Y-99870D01*
X-42170Y-100670D01*
X-41500Y-101330D01*
G01X-43000Y-106000D02*
X-33000D01*
X-35000Y-104400D01*
G01X-43000D02*
Y-107600D01*
G01Y-113730D02*
X-40830Y-114000D01*
X-39000Y-114400D01*
X-37330Y-114930D01*
X-35500Y-115600D01*
X-33000Y-116670D01*
Y-111330D01*
G01X-91780Y80970D02*
Y70970D01*
X-85120D01*
G01X-78450D02*
Y80970D01*
X-80450Y78970D01*
G01Y70970D02*
X-76450D01*
G01X-74930Y246000D02*
Y238830D01*
X-74400Y237330D01*
X-73330Y236330D01*
X-72000Y236000D01*
X-70670Y236330D01*
X-69600Y237330D01*
X-69070Y238830D01*
Y246000D01*
G01X-62400Y236000D02*
Y246000D01*
X-67330Y238830D01*
X-60670D01*
G01X26170Y-100930D02*
X26670Y-100130D01*
X27000Y-99200D01*
Y-98130D01*
X26500Y-96930D01*
X25670Y-96000D01*
X24670Y-95330D01*
X23000Y-94800D01*
X21500Y-94670D01*
X20000Y-94930D01*
X19000Y-95330D01*
X18000Y-96130D01*
X17330Y-97070D01*
X17000Y-98000D01*
Y-98930D01*
X17330Y-99870D01*
X17830Y-100670D01*
X18500Y-101330D01*
G01X17000Y-106000D02*
X27000D01*
X25000Y-104400D01*
G01X17000D02*
Y-107600D01*
G01Y-115600D02*
X27000D01*
X19830Y-110670D01*
Y-117330D01*
G01X-8670Y-4000D02*
X-8000Y-5000D01*
X-7200Y-5670D01*
X-6270Y-6000D01*
X-5200Y-5670D01*
X-4400Y-5000D01*
X-3600Y-4000D01*
X-3330Y-2670D01*
Y4000D01*
G01X2000Y-6000D02*
Y4000D01*
X400Y2000D01*
G01Y-6000D02*
X3600D01*
G01X6930Y147170D02*
X6130Y147670D01*
X5200Y148000D01*
X4130D01*
X2930Y147500D01*
X2000Y146670D01*
X1330Y145670D01*
X800Y144000D01*
X670Y142500D01*
X930Y141000D01*
X1330Y140000D01*
X2130Y139000D01*
X3070Y138330D01*
X4000Y138000D01*
X4930D01*
X5870Y138330D01*
X6670Y138830D01*
X7330Y139500D01*
G01X9070Y140000D02*
X9870Y138830D01*
X10930Y138170D01*
X12130Y138000D01*
X13200Y138170D01*
X14270Y139000D01*
X14930Y140000D01*
X15070Y141000D01*
X14800Y142170D01*
X13870Y143000D01*
X12930Y143330D01*
X11730D01*
G01X12930D02*
X13730Y143830D01*
X14400Y144670D01*
X14670Y145670D01*
X14400Y146670D01*
X13730Y147500D01*
X12530Y148000D01*
X11330Y147830D01*
X10130Y147170D01*
G01X-20070D02*
X-20870Y147670D01*
X-21800Y148000D01*
X-22870D01*
X-24070Y147500D01*
X-25000Y146670D01*
X-25670Y145670D01*
X-26200Y144000D01*
X-26330Y142500D01*
X-26070Y141000D01*
X-25670Y140000D01*
X-24870Y139000D01*
X-23930Y138330D01*
X-23000Y138000D01*
X-22070D01*
X-21130Y138330D01*
X-20330Y138830D01*
X-19670Y139500D01*
G01X-17530Y146330D02*
X-16730Y147330D01*
X-15800Y147830D01*
X-14730Y148000D01*
X-13400Y147670D01*
X-12470Y146830D01*
X-12200Y145830D01*
X-12330Y144830D01*
X-12870Y144000D01*
X-15530Y142330D01*
X-16730Y141170D01*
X-17530Y139500D01*
X-17800Y138000D01*
X-12200D01*
G01X-7000D02*
Y148000D01*
X-8600Y146000D01*
G01Y138000D02*
X-5400D01*
G01X-20070Y132170D02*
X-20870Y132670D01*
X-21800Y133000D01*
X-22870D01*
X-24070Y132500D01*
X-25000Y131670D01*
X-25670Y130670D01*
X-26200Y129000D01*
X-26330Y127500D01*
X-26070Y126000D01*
X-25670Y125000D01*
X-24870Y124000D01*
X-23930Y123330D01*
X-23000Y123000D01*
X-22070D01*
X-21130Y123330D01*
X-20330Y123830D01*
X-19670Y124500D01*
G01X-17530Y131330D02*
X-16730Y132330D01*
X-15800Y132830D01*
X-14730Y133000D01*
X-13400Y132670D01*
X-12470Y131830D01*
X-12200Y130830D01*
X-12330Y129830D01*
X-12870Y129000D01*
X-15530Y127330D01*
X-16730Y126170D01*
X-17530Y124500D01*
X-17800Y123000D01*
X-12200D01*
G01X-7000Y133000D02*
X-8070Y132670D01*
X-8870Y131830D01*
X-9400Y130830D01*
X-9800Y129500D01*
X-9930Y128000D01*
X-9800Y126500D01*
X-9400Y125170D01*
X-8870Y124170D01*
X-8070Y123330D01*
X-7000Y123000D01*
X-5930Y123330D01*
X-5130Y124170D01*
X-4600Y125170D01*
X-4200Y126500D01*
X-4070Y128000D01*
X-4200Y129500D01*
X-4600Y130830D01*
X-5130Y131830D01*
X-5930Y132670D01*
X-7000Y133000D01*
G01X7930Y132170D02*
X7130Y132670D01*
X6200Y133000D01*
X5130D01*
X3930Y132500D01*
X3000Y131670D01*
X2330Y130670D01*
X1800Y129000D01*
X1670Y127500D01*
X1930Y126000D01*
X2330Y125000D01*
X3130Y124000D01*
X4070Y123330D01*
X5000Y123000D01*
X5930D01*
X6870Y123330D01*
X7670Y123830D01*
X8330Y124500D01*
G01X10470Y131330D02*
X11270Y132330D01*
X12200Y132830D01*
X13270Y133000D01*
X14600Y132670D01*
X15530Y131830D01*
X15800Y130830D01*
X15670Y129830D01*
X15130Y129000D01*
X12470Y127330D01*
X11270Y126170D01*
X10470Y124500D01*
X10200Y123000D01*
X15800D01*
G01X-20070Y117170D02*
X-20870Y117670D01*
X-21800Y118000D01*
X-22870D01*
X-24070Y117500D01*
X-25000Y116670D01*
X-25670Y115670D01*
X-26200Y114000D01*
X-26330Y112500D01*
X-26070Y111000D01*
X-25670Y110000D01*
X-24870Y109000D01*
X-23930Y108330D01*
X-23000Y108000D01*
X-22070D01*
X-21130Y108330D01*
X-20330Y108830D01*
X-19670Y109500D01*
G01X-15000Y108000D02*
Y118000D01*
X-16600Y116000D01*
G01Y108000D02*
X-13400D01*
G01X-9270Y109170D02*
X-8330Y108330D01*
X-7270Y108000D01*
X-6200Y108330D01*
X-5270Y109330D01*
X-4600Y110830D01*
X-4330Y112330D01*
Y114170D01*
X-4600Y115670D01*
X-5270Y117000D01*
X-6070Y117670D01*
X-7000Y118000D01*
X-8070Y117670D01*
X-8870Y117000D01*
X-9400Y116000D01*
X-9670Y114670D01*
X-9400Y113500D01*
X-8730Y112330D01*
X-7930Y111670D01*
X-7000Y111500D01*
X-5930Y111830D01*
X-5130Y112670D01*
X-4330Y114170D01*
G01X7930Y117170D02*
X7130Y117670D01*
X6200Y118000D01*
X5130D01*
X3930Y117500D01*
X3000Y116670D01*
X2330Y115670D01*
X1800Y114000D01*
X1670Y112500D01*
X1930Y111000D01*
X2330Y110000D01*
X3130Y109000D01*
X4070Y108330D01*
X5000Y108000D01*
X5930D01*
X6870Y108330D01*
X7670Y108830D01*
X8330Y109500D01*
G01X13000Y108000D02*
Y118000D01*
X11400Y116000D01*
G01Y108000D02*
X14600D01*
G01X-25670Y168000D02*
Y178000D01*
X-22330D01*
X-21270Y177500D01*
X-20600Y176830D01*
X-20330Y175500D01*
X-20600Y174170D01*
X-21400Y173330D01*
X-22330Y172830D01*
X-25670D01*
G01X-22330D02*
X-20330Y168000D01*
G01X-17930Y169500D02*
X-17130Y168670D01*
X-16200Y168170D01*
X-15000Y168000D01*
X-13800Y168330D01*
X-12870Y169000D01*
X-12200Y170170D01*
X-12070Y171500D01*
X-12330Y172830D01*
X-13000Y173670D01*
X-13930Y174330D01*
X-14870Y174500D01*
X-15800Y174330D01*
X-17000Y173670D01*
X-16600Y178000D01*
X-13000D01*
G01X-7000Y168000D02*
Y178000D01*
X-8600Y176000D01*
G01Y168000D02*
X-5400D01*
G01X6930Y162170D02*
X6130Y162670D01*
X5200Y163000D01*
X4130D01*
X2930Y162500D01*
X2000Y161670D01*
X1330Y160670D01*
X800Y159000D01*
X670Y157500D01*
X930Y156000D01*
X1330Y155000D01*
X2130Y154000D01*
X3070Y153330D01*
X4000Y153000D01*
X4930D01*
X5870Y153330D01*
X6670Y153830D01*
X7330Y154500D01*
G01X13600Y153000D02*
Y163000D01*
X8670Y155830D01*
X15330D01*
G01X-20070Y162170D02*
X-20870Y162670D01*
X-21800Y163000D01*
X-22870D01*
X-24070Y162500D01*
X-25000Y161670D01*
X-25670Y160670D01*
X-26200Y159000D01*
X-26330Y157500D01*
X-26070Y156000D01*
X-25670Y155000D01*
X-24870Y154000D01*
X-23930Y153330D01*
X-23000Y153000D01*
X-22070D01*
X-21130Y153330D01*
X-20330Y153830D01*
X-19670Y154500D01*
G01X-17530Y161330D02*
X-16730Y162330D01*
X-15800Y162830D01*
X-14730Y163000D01*
X-13400Y162670D01*
X-12470Y161830D01*
X-12200Y160830D01*
X-12330Y159830D01*
X-12870Y159000D01*
X-15530Y157330D01*
X-16730Y156170D01*
X-17530Y154500D01*
X-17800Y153000D01*
X-12200D01*
G01X-9530Y161330D02*
X-8730Y162330D01*
X-7800Y162830D01*
X-6730Y163000D01*
X-5400Y162670D01*
X-4470Y161830D01*
X-4200Y160830D01*
X-4330Y159830D01*
X-4870Y159000D01*
X-7530Y157330D01*
X-8730Y156170D01*
X-9530Y154500D01*
X-9800Y153000D01*
X-4200D01*
G01X6930Y192170D02*
X6130Y192670D01*
X5200Y193000D01*
X4130D01*
X2930Y192500D01*
X2000Y191670D01*
X1330Y190670D01*
X800Y189000D01*
X670Y187500D01*
X930Y186000D01*
X1330Y185000D01*
X2130Y184000D01*
X3070Y183330D01*
X4000Y183000D01*
X4930D01*
X5870Y183330D01*
X6670Y183830D01*
X7330Y184500D01*
G01X12000Y183000D02*
Y193000D01*
X10400Y191000D01*
G01Y183000D02*
X13600D01*
G01X17070Y185000D02*
X17870Y183830D01*
X18930Y183170D01*
X20130Y183000D01*
X21200Y183170D01*
X22270Y184000D01*
X22930Y185000D01*
X23070Y186000D01*
X22800Y187170D01*
X21870Y188000D01*
X20930Y188330D01*
X19730D01*
G01X20930D02*
X21730Y188830D01*
X22400Y189670D01*
X22670Y190670D01*
X22400Y191670D01*
X21730Y192500D01*
X20530Y193000D01*
X19330Y192830D01*
X18130Y192170D01*
G01X6930Y177170D02*
X6130Y177670D01*
X5200Y178000D01*
X4130D01*
X2930Y177500D01*
X2000Y176670D01*
X1330Y175670D01*
X800Y174000D01*
X670Y172500D01*
X930Y171000D01*
X1330Y170000D01*
X2130Y169000D01*
X3070Y168330D01*
X4000Y168000D01*
X4930D01*
X5870Y168330D01*
X6670Y168830D01*
X7330Y169500D01*
G01X12000Y168000D02*
Y178000D01*
X10400Y176000D01*
G01Y168000D02*
X13600D01*
G01X20000D02*
X20930Y168170D01*
X22000Y168670D01*
X22670Y169500D01*
X22930Y170670D01*
X22670Y171830D01*
X21870Y172830D01*
X20670Y173330D01*
X19330D01*
X18530Y173670D01*
X17870Y174500D01*
X17600Y175670D01*
X18000Y176830D01*
X18930Y177670D01*
X20000Y178000D01*
X21070Y177670D01*
X22000Y176830D01*
X22400Y175670D01*
X22130Y174500D01*
X21470Y173670D01*
X20670Y173330D01*
X19330D01*
X18130Y172830D01*
X17330Y171830D01*
X17070Y170670D01*
X17330Y169500D01*
X18000Y168670D01*
X19070Y168170D01*
X20000Y168000D01*
G01X-7070Y255170D02*
X-7870Y255670D01*
X-8800Y256000D01*
X-9870D01*
X-11070Y255500D01*
X-12000Y254670D01*
X-12670Y253670D01*
X-13200Y252000D01*
X-13330Y250500D01*
X-13070Y249000D01*
X-12670Y248000D01*
X-11870Y247000D01*
X-10930Y246330D01*
X-10000Y246000D01*
X-9070D01*
X-8130Y246330D01*
X-7330Y246830D01*
X-6670Y247500D01*
G01X-400Y246000D02*
Y256000D01*
X-5330Y248830D01*
X1330D01*
G01X6000Y246000D02*
X6930Y246170D01*
X8000Y246670D01*
X8670Y247500D01*
X8930Y248670D01*
X8670Y249830D01*
X7870Y250830D01*
X6670Y251330D01*
X5330D01*
X4530Y251670D01*
X3870Y252500D01*
X3600Y253670D01*
X4000Y254830D01*
X4930Y255670D01*
X6000Y256000D01*
X7070Y255670D01*
X8000Y254830D01*
X8400Y253670D01*
X8130Y252500D01*
X7470Y251670D01*
X6670Y251330D01*
X5330D01*
X4130Y250830D01*
X3330Y249830D01*
X3070Y248670D01*
X3330Y247500D01*
X4000Y246670D01*
X5070Y246170D01*
X6000Y246000D01*
G01X74930Y-101830D02*
X74130Y-101330D01*
X73200Y-101000D01*
X72130D01*
X70930Y-101500D01*
X70000Y-102330D01*
X69330Y-103330D01*
X68800Y-105000D01*
X68670Y-106500D01*
X68930Y-108000D01*
X69330Y-109000D01*
X70130Y-110000D01*
X71070Y-110670D01*
X72000Y-111000D01*
X72930D01*
X73870Y-110670D01*
X74670Y-110170D01*
X75330Y-109500D01*
G01X80000Y-111000D02*
Y-101000D01*
X78400Y-103000D01*
G01Y-111000D02*
X81600D01*
G01X88000Y-101000D02*
X86930Y-101330D01*
X86130Y-102170D01*
X85600Y-103170D01*
X85200Y-104500D01*
X85070Y-106000D01*
X85200Y-107500D01*
X85600Y-108830D01*
X86130Y-109830D01*
X86930Y-110670D01*
X88000Y-111000D01*
X89070Y-110670D01*
X89870Y-109830D01*
X90400Y-108830D01*
X90800Y-107500D01*
X90930Y-106000D01*
X90800Y-104500D01*
X90400Y-103170D01*
X89870Y-102170D01*
X89070Y-101330D01*
X88000Y-101000D01*
G01X70330Y80000D02*
Y72830D01*
X71000Y71330D01*
X72330Y70330D01*
X74000Y70000D01*
X75670Y70330D01*
X77000Y71330D01*
X77670Y72830D01*
Y80000D01*
G01X84000Y70000D02*
Y80000D01*
X82000Y78000D01*
G01Y70000D02*
X86000D01*
G01X74000Y182670D02*
X84000D01*
Y179330D01*
X83500Y178270D01*
X82830Y177600D01*
X81500Y177330D01*
X80170Y177600D01*
X79330Y178400D01*
X78830Y179330D01*
Y182670D01*
G01Y179330D02*
X74000Y177330D01*
G01X78170Y174530D02*
X79330Y173600D01*
X80000Y172800D01*
X80330Y171730D01*
X80000Y170800D01*
X79330Y170130D01*
X78330Y169600D01*
X77170Y169470D01*
X76170Y169600D01*
X75170Y170130D01*
X74330Y170930D01*
X74000Y171870D01*
X74330Y172930D01*
X75330Y173870D01*
X76830Y174400D01*
X78500Y174530D01*
X80670Y174270D01*
X81830Y173870D01*
X83000Y173200D01*
X83830Y172270D01*
X84000Y171330D01*
X83670Y170400D01*
X82830Y169730D01*
G01X47000Y299670D02*
X57000D01*
Y296330D01*
X56500Y295270D01*
X55830Y294600D01*
X54500Y294330D01*
X53170Y294600D01*
X52330Y295400D01*
X51830Y296330D01*
Y299670D01*
G01Y296330D02*
X47000Y294330D01*
G01Y289000D02*
X57000D01*
X55000Y290600D01*
G01X47000D02*
Y287400D01*
G01Y281270D02*
X49170Y281000D01*
X51000Y280600D01*
X52670Y280070D01*
X54500Y279400D01*
X57000Y278330D01*
Y283670D01*
G01X33000Y299670D02*
X43000D01*
Y296330D01*
X42500Y295270D01*
X41830Y294600D01*
X40500Y294330D01*
X39170Y294600D01*
X38330Y295400D01*
X37830Y296330D01*
Y299670D01*
G01Y296330D02*
X33000Y294330D01*
G01Y289000D02*
X43000D01*
X41000Y290600D01*
G01X33000D02*
Y287400D01*
G01X37170Y283530D02*
X38330Y282600D01*
X39000Y281800D01*
X39330Y280730D01*
X39000Y279800D01*
X38330Y279130D01*
X37330Y278600D01*
X36170Y278470D01*
X35170Y278600D01*
X34170Y279130D01*
X33330Y279930D01*
X33000Y280870D01*
X33330Y281930D01*
X34330Y282870D01*
X35830Y283400D01*
X37500Y283530D01*
X39670Y283270D01*
X40830Y282870D01*
X42000Y282200D01*
X42830Y281270D01*
X43000Y280330D01*
X42670Y279400D01*
X41830Y278730D01*
G01X61000Y299670D02*
X71000D01*
Y296330D01*
X70500Y295270D01*
X69830Y294600D01*
X68500Y294330D01*
X67170Y294600D01*
X66330Y295400D01*
X65830Y296330D01*
Y299670D01*
G01Y296330D02*
X61000Y294330D01*
G01Y289000D02*
X71000D01*
X69000Y290600D01*
G01X61000D02*
Y287400D01*
G01X62500Y283930D02*
X61670Y283130D01*
X61170Y282200D01*
X61000Y281000D01*
X61330Y279800D01*
X62000Y278870D01*
X63170Y278200D01*
X64500Y278070D01*
X65830Y278330D01*
X66670Y279000D01*
X67330Y279930D01*
X67500Y280870D01*
X67330Y281800D01*
X66670Y283000D01*
X71000Y282600D01*
Y279000D01*
G01X136930Y-162830D02*
X136130Y-162330D01*
X135200Y-162000D01*
X134130D01*
X132930Y-162500D01*
X132000Y-163330D01*
X131330Y-164330D01*
X130800Y-166000D01*
X130670Y-167500D01*
X130930Y-169000D01*
X131330Y-170000D01*
X132130Y-171000D01*
X133070Y-171670D01*
X134000Y-172000D01*
X134930D01*
X135870Y-171670D01*
X136670Y-171170D01*
X137330Y-170500D01*
G01X139070D02*
X139870Y-171330D01*
X140800Y-171830D01*
X142000Y-172000D01*
X143200Y-171670D01*
X144130Y-171000D01*
X144800Y-169830D01*
X144930Y-168500D01*
X144670Y-167170D01*
X144000Y-166330D01*
X143070Y-165670D01*
X142130Y-165500D01*
X141200Y-165670D01*
X140000Y-166330D01*
X140400Y-162000D01*
X144000D01*
G01X150000Y-172000D02*
Y-162000D01*
X148400Y-164000D01*
G01Y-172000D02*
X151600D01*
G01X97930Y-75830D02*
X97130Y-75330D01*
X96200Y-75000D01*
X95130D01*
X93930Y-75500D01*
X93000Y-76330D01*
X92330Y-77330D01*
X91800Y-79000D01*
X91670Y-80500D01*
X91930Y-82000D01*
X92330Y-83000D01*
X93130Y-84000D01*
X94070Y-84670D01*
X95000Y-85000D01*
X95930D01*
X96870Y-84670D01*
X97670Y-84170D01*
X98330Y-83500D01*
G01X103000Y-85000D02*
Y-75000D01*
X101400Y-77000D01*
G01Y-85000D02*
X104600D01*
G01X111000D02*
Y-75000D01*
X109400Y-77000D01*
G01Y-85000D02*
X112600D01*
G01X123930Y-75830D02*
X123130Y-75330D01*
X122200Y-75000D01*
X121130D01*
X119930Y-75500D01*
X119000Y-76330D01*
X118330Y-77330D01*
X117800Y-79000D01*
X117670Y-80500D01*
X117930Y-82000D01*
X118330Y-83000D01*
X119130Y-84000D01*
X120070Y-84670D01*
X121000Y-85000D01*
X121930D01*
X122870Y-84670D01*
X123670Y-84170D01*
X124330Y-83500D01*
G01X129000Y-85000D02*
Y-75000D01*
X127400Y-77000D01*
G01Y-85000D02*
X130600D01*
G01X134470Y-76670D02*
X135270Y-75670D01*
X136200Y-75170D01*
X137270Y-75000D01*
X138600Y-75330D01*
X139530Y-76170D01*
X139800Y-77170D01*
X139670Y-78170D01*
X139130Y-79000D01*
X136470Y-80670D01*
X135270Y-81830D01*
X134470Y-83500D01*
X134200Y-85000D01*
X139800D01*
G01X113170Y75070D02*
X113670Y75870D01*
X114000Y76800D01*
Y77870D01*
X113500Y79070D01*
X112670Y80000D01*
X111670Y80670D01*
X110000Y81200D01*
X108500Y81330D01*
X107000Y81070D01*
X106000Y80670D01*
X105000Y79870D01*
X104330Y78930D01*
X104000Y78000D01*
Y77070D01*
X104330Y76130D01*
X104830Y75330D01*
X105500Y74670D01*
G01X106000Y72930D02*
X104830Y72130D01*
X104170Y71070D01*
X104000Y69870D01*
X104170Y68800D01*
X105000Y67730D01*
X106000Y67070D01*
X107000Y66930D01*
X108170Y67200D01*
X109000Y68130D01*
X109330Y69070D01*
Y70270D01*
G01Y69070D02*
X109830Y68270D01*
X110670Y67600D01*
X111670Y67330D01*
X112670Y67600D01*
X113500Y68270D01*
X114000Y69470D01*
X113830Y70670D01*
X113170Y71870D01*
G01X105170Y64270D02*
X104330Y63330D01*
X104000Y62270D01*
X104330Y61200D01*
X105330Y60270D01*
X106830Y59600D01*
X108330Y59330D01*
X110170D01*
X111670Y59600D01*
X113000Y60270D01*
X113670Y61070D01*
X114000Y62000D01*
X113670Y63070D01*
X113000Y63870D01*
X112000Y64400D01*
X110670Y64670D01*
X109500Y64400D01*
X108330Y63730D01*
X107670Y62930D01*
X107500Y62000D01*
X107830Y60930D01*
X108670Y60130D01*
X110170Y59330D01*
G01X113170Y129070D02*
X113670Y129870D01*
X114000Y130800D01*
Y131870D01*
X113500Y133070D01*
X112670Y134000D01*
X111670Y134670D01*
X110000Y135200D01*
X108500Y135330D01*
X107000Y135070D01*
X106000Y134670D01*
X105000Y133870D01*
X104330Y132930D01*
X104000Y132000D01*
Y131070D01*
X104330Y130130D01*
X104830Y129330D01*
X105500Y128670D01*
G01X106000Y126930D02*
X104830Y126130D01*
X104170Y125070D01*
X104000Y123870D01*
X104170Y122800D01*
X105000Y121730D01*
X106000Y121070D01*
X107000Y120930D01*
X108170Y121200D01*
X109000Y122130D01*
X109330Y123070D01*
Y124270D01*
G01Y123070D02*
X109830Y122270D01*
X110670Y121600D01*
X111670Y121330D01*
X112670Y121600D01*
X113500Y122270D01*
X114000Y123470D01*
X113830Y124670D01*
X113170Y125870D01*
G01X108170Y118530D02*
X109330Y117600D01*
X110000Y116800D01*
X110330Y115730D01*
X110000Y114800D01*
X109330Y114130D01*
X108330Y113600D01*
X107170Y113470D01*
X106170Y113600D01*
X105170Y114130D01*
X104330Y114930D01*
X104000Y115870D01*
X104330Y116930D01*
X105330Y117870D01*
X106830Y118400D01*
X108500Y118530D01*
X110670Y118270D01*
X111830Y117870D01*
X113000Y117200D01*
X113830Y116270D01*
X114000Y115330D01*
X113670Y114400D01*
X112830Y113730D01*
G01X113170Y103070D02*
X113670Y103870D01*
X114000Y104800D01*
Y105870D01*
X113500Y107070D01*
X112670Y108000D01*
X111670Y108670D01*
X110000Y109200D01*
X108500Y109330D01*
X107000Y109070D01*
X106000Y108670D01*
X105000Y107870D01*
X104330Y106930D01*
X104000Y106000D01*
Y105070D01*
X104330Y104130D01*
X104830Y103330D01*
X105500Y102670D01*
G01X106000Y100930D02*
X104830Y100130D01*
X104170Y99070D01*
X104000Y97870D01*
X104170Y96800D01*
X105000Y95730D01*
X106000Y95070D01*
X107000Y94930D01*
X108170Y95200D01*
X109000Y96130D01*
X109330Y97070D01*
Y98270D01*
G01Y97070D02*
X109830Y96270D01*
X110670Y95600D01*
X111670Y95330D01*
X112670Y95600D01*
X113500Y96270D01*
X114000Y97470D01*
X113830Y98670D01*
X113170Y99870D01*
G01X104000Y90000D02*
X104170Y89070D01*
X104670Y88000D01*
X105500Y87330D01*
X106670Y87070D01*
X107830Y87330D01*
X108830Y88130D01*
X109330Y89330D01*
Y90670D01*
X109670Y91470D01*
X110500Y92130D01*
X111670Y92400D01*
X112830Y92000D01*
X113670Y91070D01*
X114000Y90000D01*
X113670Y88930D01*
X112830Y88000D01*
X111670Y87600D01*
X110500Y87870D01*
X109670Y88530D01*
X109330Y89330D01*
Y90670D01*
X108830Y91870D01*
X107830Y92670D01*
X106670Y92930D01*
X105500Y92670D01*
X104670Y92000D01*
X104170Y90930D01*
X104000Y90000D01*
G01X88000Y182670D02*
X98000D01*
Y179330D01*
X97500Y178270D01*
X96830Y177600D01*
X95500Y177330D01*
X94170Y177600D01*
X93330Y178400D01*
X92830Y179330D01*
Y182670D01*
G01Y179330D02*
X88000Y177330D01*
G01Y172270D02*
X90170Y172000D01*
X92000Y171600D01*
X93670Y171070D01*
X95500Y170400D01*
X98000Y169330D01*
Y174670D01*
G01X117330Y180000D02*
Y190000D01*
X120670D01*
X121730Y189500D01*
X122400Y188830D01*
X122670Y187500D01*
X122400Y186170D01*
X121600Y185330D01*
X120670Y184830D01*
X117330D01*
G01X120670D02*
X122670Y180000D01*
G01X128000D02*
X128930Y180170D01*
X130000Y180670D01*
X130670Y181500D01*
X130930Y182670D01*
X130670Y183830D01*
X129870Y184830D01*
X128670Y185330D01*
X127330D01*
X126530Y185670D01*
X125870Y186500D01*
X125600Y187670D01*
X126000Y188830D01*
X126930Y189670D01*
X128000Y190000D01*
X129070Y189670D01*
X130000Y188830D01*
X130400Y187670D01*
X130130Y186500D01*
X129470Y185670D01*
X128670Y185330D01*
X127330D01*
X126130Y184830D01*
X125330Y183830D01*
X125070Y182670D01*
X125330Y181500D01*
X126000Y180670D01*
X127070Y180170D01*
X128000Y180000D01*
G01X112170Y185070D02*
X112670Y185870D01*
X113000Y186800D01*
Y187870D01*
X112500Y189070D01*
X111670Y190000D01*
X110670Y190670D01*
X109000Y191200D01*
X107500Y191330D01*
X106000Y191070D01*
X105000Y190670D01*
X104000Y189870D01*
X103330Y188930D01*
X103000Y188000D01*
Y187070D01*
X103330Y186130D01*
X103830Y185330D01*
X104500Y184670D01*
G01X105000Y182930D02*
X103830Y182130D01*
X103170Y181070D01*
X103000Y179870D01*
X103170Y178800D01*
X104000Y177730D01*
X105000Y177070D01*
X106000Y176930D01*
X107170Y177200D01*
X108000Y178130D01*
X108330Y179070D01*
Y180270D01*
G01Y179070D02*
X108830Y178270D01*
X109670Y177600D01*
X110670Y177330D01*
X111670Y177600D01*
X112500Y178270D01*
X113000Y179470D01*
X112830Y180670D01*
X112170Y181870D01*
G01X103000Y172270D02*
X105170Y172000D01*
X107000Y171600D01*
X108670Y171070D01*
X110500Y170400D01*
X113000Y169330D01*
Y174670D01*
G01X207470Y-180670D02*
X208270Y-179670D01*
X209200Y-179170D01*
X210270Y-179000D01*
X211600Y-179330D01*
X212530Y-180170D01*
X212800Y-181170D01*
X212670Y-182170D01*
X212130Y-183000D01*
X209470Y-184670D01*
X208270Y-185830D01*
X207470Y-187500D01*
X207200Y-189000D01*
X212800D01*
G01X214930D02*
Y-179000D01*
X221070Y-189000D01*
Y-179000D01*
G01X223070Y-189000D02*
Y-179000D01*
X225730D01*
X226800Y-179500D01*
X227600Y-180170D01*
X228270Y-181170D01*
X228800Y-182330D01*
X228930Y-184000D01*
X228800Y-185670D01*
X228270Y-186830D01*
X227600Y-187830D01*
X226800Y-188500D01*
X225730Y-189000D01*
X223070D01*
G01X230000Y-192330D02*
X238000D01*
G01X239070Y-179000D02*
Y-186170D01*
X239600Y-187670D01*
X240670Y-188670D01*
X242000Y-189000D01*
X243330Y-188670D01*
X244400Y-187670D01*
X244930Y-186170D01*
Y-179000D01*
G01X247200Y-187670D02*
X248270Y-188500D01*
X249470Y-189000D01*
X250530D01*
X251600Y-188500D01*
X252400Y-187670D01*
X252800Y-186500D01*
X252530Y-185330D01*
X251870Y-184330D01*
X250670Y-183670D01*
X249070Y-183330D01*
X248130Y-182670D01*
X247730Y-181500D01*
X248000Y-180330D01*
X248670Y-179500D01*
X249600Y-179000D01*
X250530D01*
X251470Y-179330D01*
X252270Y-180170D01*
G01X255070Y-189000D02*
Y-179000D01*
X257730D01*
X258800Y-179500D01*
X259600Y-180170D01*
X260270Y-181170D01*
X260800Y-182330D01*
X260930Y-184000D01*
X260800Y-185670D01*
X260270Y-186830D01*
X259600Y-187830D01*
X258800Y-188500D01*
X257730Y-189000D01*
X255070D01*
G01X157070Y-45000D02*
Y-52170D01*
X157600Y-53670D01*
X158670Y-54670D01*
X160000Y-55000D01*
X161330Y-54670D01*
X162400Y-53670D01*
X162930Y-52170D01*
Y-45000D01*
G01X165070Y-53500D02*
X165870Y-54330D01*
X166800Y-54830D01*
X168000Y-55000D01*
X169200Y-54670D01*
X170130Y-54000D01*
X170800Y-52830D01*
X170930Y-51500D01*
X170670Y-50170D01*
X170000Y-49330D01*
X169070Y-48670D01*
X168130Y-48500D01*
X167200Y-48670D01*
X166000Y-49330D01*
X166400Y-45000D01*
X170000D01*
G01X191330Y21000D02*
Y13830D01*
X192000Y12330D01*
X193330Y11330D01*
X195000Y11000D01*
X196670Y11330D01*
X198000Y12330D01*
X198670Y13830D01*
Y21000D01*
G01X201830Y19330D02*
X202830Y20330D01*
X204000Y20830D01*
X205330Y21000D01*
X207000Y20670D01*
X208170Y19830D01*
X208500Y18830D01*
X208330Y17830D01*
X207670Y17000D01*
X204330Y15330D01*
X202830Y14170D01*
X201830Y12500D01*
X201500Y11000D01*
X208500D01*
G01X179330Y256000D02*
Y266000D01*
X182670D01*
X183730Y265500D01*
X184400Y264830D01*
X184670Y263500D01*
X184400Y262170D01*
X183600Y261330D01*
X182670Y260830D01*
X179330D01*
G01X182670D02*
X184670Y256000D01*
G01X187730Y257170D02*
X188670Y256330D01*
X189730Y256000D01*
X190800Y256330D01*
X191730Y257330D01*
X192400Y258830D01*
X192670Y260330D01*
Y262170D01*
X192400Y263670D01*
X191730Y265000D01*
X190930Y265670D01*
X190000Y266000D01*
X188930Y265670D01*
X188130Y265000D01*
X187600Y264000D01*
X187330Y262670D01*
X187600Y261500D01*
X188270Y260330D01*
X189070Y259670D01*
X190000Y259500D01*
X191070Y259830D01*
X191870Y260670D01*
X192670Y262170D01*
G01X304930Y90170D02*
X304130Y90670D01*
X303200Y91000D01*
X302130D01*
X300930Y90500D01*
X300000Y89670D01*
X299330Y88670D01*
X298800Y87000D01*
X298670Y85500D01*
X298930Y84000D01*
X299330Y83000D01*
X300130Y82000D01*
X301070Y81330D01*
X302000Y81000D01*
X302930D01*
X303870Y81330D01*
X304670Y81830D01*
X305330Y82500D01*
G01X311600Y81000D02*
Y91000D01*
X306670Y83830D01*
X313330D01*
G01X319600Y81000D02*
Y91000D01*
X314670Y83830D01*
X321330D01*
G01X304930Y44170D02*
X304130Y44670D01*
X303200Y45000D01*
X302130D01*
X300930Y44500D01*
X300000Y43670D01*
X299330Y42670D01*
X298800Y41000D01*
X298670Y39500D01*
X298930Y38000D01*
X299330Y37000D01*
X300130Y36000D01*
X301070Y35330D01*
X302000Y35000D01*
X302930D01*
X303870Y35330D01*
X304670Y35830D01*
X305330Y36500D01*
G01X311600Y35000D02*
Y45000D01*
X306670Y37830D01*
X313330D01*
G01X315070Y36500D02*
X315870Y35670D01*
X316800Y35170D01*
X318000Y35000D01*
X319200Y35330D01*
X320130Y36000D01*
X320800Y37170D01*
X320930Y38500D01*
X320670Y39830D01*
X320000Y40670D01*
X319070Y41330D01*
X318130Y41500D01*
X317200Y41330D01*
X316000Y40670D01*
X316400Y45000D01*
X320000D01*
G01X304930Y59170D02*
X304130Y59670D01*
X303200Y60000D01*
X302130D01*
X300930Y59500D01*
X300000Y58670D01*
X299330Y57670D01*
X298800Y56000D01*
X298670Y54500D01*
X298930Y53000D01*
X299330Y52000D01*
X300130Y51000D01*
X301070Y50330D01*
X302000Y50000D01*
X302930D01*
X303870Y50330D01*
X304670Y50830D01*
X305330Y51500D01*
G01X311600Y50000D02*
Y60000D01*
X306670Y52830D01*
X313330D01*
G01X318000Y60000D02*
X316930Y59670D01*
X316130Y58830D01*
X315600Y57830D01*
X315200Y56500D01*
X315070Y55000D01*
X315200Y53500D01*
X315600Y52170D01*
X316130Y51170D01*
X316930Y50330D01*
X318000Y50000D01*
X319070Y50330D01*
X319870Y51170D01*
X320400Y52170D01*
X320800Y53500D01*
X320930Y55000D01*
X320800Y56500D01*
X320400Y57830D01*
X319870Y58830D01*
X319070Y59670D01*
X318000Y60000D01*
G01X304930Y149170D02*
X304130Y149670D01*
X303200Y150000D01*
X302130D01*
X300930Y149500D01*
X300000Y148670D01*
X299330Y147670D01*
X298800Y146000D01*
X298670Y144500D01*
X298930Y143000D01*
X299330Y142000D01*
X300130Y141000D01*
X301070Y140330D01*
X302000Y140000D01*
X302930D01*
X303870Y140330D01*
X304670Y140830D01*
X305330Y141500D01*
G01X311600Y140000D02*
Y150000D01*
X306670Y142830D01*
X313330D01*
G01X315470Y148330D02*
X316270Y149330D01*
X317200Y149830D01*
X318270Y150000D01*
X319600Y149670D01*
X320530Y148830D01*
X320800Y147830D01*
X320670Y146830D01*
X320130Y146000D01*
X317470Y144330D01*
X316270Y143170D01*
X315470Y141500D01*
X315200Y140000D01*
X320800D01*
G01X304930Y129170D02*
X304130Y129670D01*
X303200Y130000D01*
X302130D01*
X300930Y129500D01*
X300000Y128670D01*
X299330Y127670D01*
X298800Y126000D01*
X298670Y124500D01*
X298930Y123000D01*
X299330Y122000D01*
X300130Y121000D01*
X301070Y120330D01*
X302000Y120000D01*
X302930D01*
X303870Y120330D01*
X304670Y120830D01*
X305330Y121500D01*
G01X311600Y120000D02*
Y130000D01*
X306670Y122830D01*
X313330D01*
G01X315070Y122000D02*
X315870Y120830D01*
X316930Y120170D01*
X318130Y120000D01*
X319200Y120170D01*
X320270Y121000D01*
X320930Y122000D01*
X321070Y123000D01*
X320800Y124170D01*
X319870Y125000D01*
X318930Y125330D01*
X317730D01*
G01X318930D02*
X319730Y125830D01*
X320400Y126670D01*
X320670Y127670D01*
X320400Y128670D01*
X319730Y129500D01*
X318530Y130000D01*
X317330Y129830D01*
X316130Y129170D01*
G01X298330Y178000D02*
Y188000D01*
X301670D01*
X302730Y187500D01*
X303400Y186830D01*
X303670Y185500D01*
X303400Y184170D01*
X302600Y183330D01*
X301670Y182830D01*
X298330D01*
G01X301670D02*
X303670Y178000D01*
G01X306070Y179500D02*
X306870Y178670D01*
X307800Y178170D01*
X309000Y178000D01*
X310200Y178330D01*
X311130Y179000D01*
X311800Y180170D01*
X311930Y181500D01*
X311670Y182830D01*
X311000Y183670D01*
X310070Y184330D01*
X309130Y184500D01*
X308200Y184330D01*
X307000Y183670D01*
X307400Y188000D01*
X311000D01*
G01X304930Y248170D02*
X304130Y248670D01*
X303200Y249000D01*
X302130D01*
X300930Y248500D01*
X300000Y247670D01*
X299330Y246670D01*
X298800Y245000D01*
X298670Y243500D01*
X298930Y242000D01*
X299330Y241000D01*
X300130Y240000D01*
X301070Y239330D01*
X302000Y239000D01*
X302930D01*
X303870Y239330D01*
X304670Y239830D01*
X305330Y240500D01*
G01X311600Y239000D02*
Y249000D01*
X306670Y241830D01*
X313330D01*
G01X318000Y239000D02*
Y249000D01*
X316400Y247000D01*
G01Y239000D02*
X319600D01*
G01X288000Y336000D02*
X286930Y335670D01*
X286130Y334830D01*
X285600Y333830D01*
X285200Y332500D01*
X285070Y331000D01*
X285200Y329500D01*
X285600Y328170D01*
X286130Y327170D01*
X286930Y326330D01*
X288000Y326000D01*
X289070Y326330D01*
X289870Y327170D01*
X290400Y328170D01*
X290800Y329500D01*
X290930Y331000D01*
X290800Y332500D01*
X290400Y333830D01*
X289870Y334830D01*
X289070Y335670D01*
X288000Y336000D01*
G01X297600Y326000D02*
Y336000D01*
X292670Y328830D01*
X299330D01*
G01X304000Y336000D02*
X302930Y335670D01*
X302130Y334830D01*
X301600Y333830D01*
X301200Y332500D01*
X301070Y331000D01*
X301200Y329500D01*
X301600Y328170D01*
X302130Y327170D01*
X302930Y326330D01*
X304000Y326000D01*
X305070Y326330D01*
X305870Y327170D01*
X306400Y328170D01*
X306800Y329500D01*
X306930Y331000D01*
X306800Y332500D01*
X306400Y333830D01*
X305870Y334830D01*
X305070Y335670D01*
X304000Y336000D01*
G01X313600Y326000D02*
Y336000D01*
X308670Y328830D01*
X315330D01*
G01X317470Y334330D02*
X318270Y335330D01*
X319200Y335830D01*
X320270Y336000D01*
X321600Y335670D01*
X322530Y334830D01*
X322800Y333830D01*
X322670Y332830D01*
X322130Y332000D01*
X319470Y330330D01*
X318270Y329170D01*
X317470Y327500D01*
X317200Y326000D01*
X322800D01*
G01X328000Y336000D02*
X326930Y335670D01*
X326130Y334830D01*
X325600Y333830D01*
X325200Y332500D01*
X325070Y331000D01*
X325200Y329500D01*
X325600Y328170D01*
X326130Y327170D01*
X326930Y326330D01*
X328000Y326000D01*
X329070Y326330D01*
X329870Y327170D01*
X330400Y328170D01*
X330800Y329500D01*
X330930Y331000D01*
X330800Y332500D01*
X330400Y333830D01*
X329870Y334830D01*
X329070Y335670D01*
X328000Y336000D01*
G01X336000Y326000D02*
Y336000D01*
X334400Y334000D01*
G01Y326000D02*
X337600D01*
G01X341470Y334330D02*
X342270Y335330D01*
X343200Y335830D01*
X344270Y336000D01*
X345600Y335670D01*
X346530Y334830D01*
X346800Y333830D01*
X346670Y332830D01*
X346130Y332000D01*
X343470Y330330D01*
X342270Y329170D01*
X341470Y327500D01*
X341200Y326000D01*
X346800D01*
G54D16*
G01X-176200Y52750D02*
G02I-1254J-4D01*
G01X-212250Y119500D02*
G02I-1250J0D01*
G01X-106750Y-174800D02*
G02I-1250J0D01*
G01X-105930Y62530D02*
G02I-1246J-2D01*
G01X-129250Y172750D02*
G02I-1250J0D01*
G01X-103400Y304450D02*
G02I-1250J0D01*
G01X-67250Y-77500D02*
G02I-1250J0D01*
G01X-87650Y300750D02*
G02I-1250J0D01*
G01X255580Y26250D02*
G02I-1255J0D01*
G01X241080Y29900D02*
G02I-1255J0D01*
G54D17*
G01X-217710Y-200510D02*
X-228640D01*
Y-191620D01*
G01Y-176380D02*
Y-167490D01*
X-217710D01*
G01X-211490Y-185880D02*
Y-182120D01*
G01X-152290Y-167490D02*
X-141360D01*
Y-176380D01*
G01Y-191620D02*
Y-200510D01*
X-152290D01*
G01X-158510Y-182120D02*
Y-185880D01*
M02*
