G75*
G70*
%OFA0B0*%
%FSLAX24Y24*%
%IPPOS*%
%LPD*%
%AMOC8*
5,1,8,0,0,1.08239X$1,22.5*
%
%ADD10R,0.0079X0.0591*%
%ADD11R,0.0591X0.0079*%
%ADD12R,0.0394X0.0433*%
%ADD13R,0.0433X0.0394*%
%ADD14R,0.0748X0.0433*%
%ADD15R,0.0200X0.0300*%
%ADD16R,0.2953X0.1181*%
%ADD17R,0.0256X0.0197*%
%ADD18R,0.0500X0.0579*%
%ADD19R,0.0551X0.0394*%
%ADD20R,0.0177X0.0906*%
%ADD21C,0.0591*%
%ADD22R,0.0709X0.0551*%
%ADD23R,0.0551X0.0748*%
%ADD24R,0.0315X0.0591*%
%ADD25R,0.0315X0.0315*%
%ADD26R,0.0984X0.0300*%
%ADD27C,0.0079*%
%ADD28C,0.0067*%
%ADD29C,0.0236*%
%ADD30C,0.0059*%
%ADD31C,0.0217*%
%ADD32C,0.0160*%
%ADD33C,0.0098*%
%ADD34C,0.0354*%
%ADD35C,0.0100*%
%ADD36C,0.0236*%
%ADD37C,0.0472*%
%ADD38C,0.0120*%
%ADD39C,0.0240*%
%ADD40C,0.0276*%
D10*
X012083Y003685D03*
X012240Y003685D03*
X012398Y003685D03*
X012555Y003685D03*
X012713Y003685D03*
X012870Y003685D03*
X013028Y003685D03*
X013185Y003685D03*
X013343Y003685D03*
X013500Y003685D03*
X013657Y003685D03*
X013815Y003685D03*
X013972Y003685D03*
X014130Y003685D03*
X014287Y003685D03*
X014445Y003685D03*
X014602Y003685D03*
X014760Y003685D03*
X014917Y003685D03*
X015075Y003685D03*
X015232Y003685D03*
X015390Y003685D03*
X015547Y003685D03*
X015705Y003685D03*
X015862Y003685D03*
X016020Y003685D03*
X016177Y003685D03*
X016335Y003685D03*
X016492Y003685D03*
X016650Y003685D03*
X016807Y003685D03*
X016965Y003685D03*
X016965Y009787D03*
X016807Y009787D03*
X016650Y009787D03*
X016492Y009787D03*
X016335Y009787D03*
X016177Y009787D03*
X016020Y009787D03*
X015862Y009787D03*
X015705Y009787D03*
X015547Y009787D03*
X015390Y009787D03*
X015232Y009787D03*
X015075Y009787D03*
X014917Y009787D03*
X014760Y009787D03*
X014602Y009787D03*
X014445Y009787D03*
X014287Y009787D03*
X014130Y009787D03*
X013972Y009787D03*
X013815Y009787D03*
X013657Y009787D03*
X013500Y009787D03*
X013343Y009787D03*
X013185Y009787D03*
X013028Y009787D03*
X012870Y009787D03*
X012713Y009787D03*
X012555Y009787D03*
X012398Y009787D03*
X012240Y009787D03*
X012083Y009787D03*
D11*
X011472Y009177D03*
X011472Y009020D03*
X011472Y008862D03*
X011472Y008705D03*
X011472Y008547D03*
X011472Y008390D03*
X011472Y008232D03*
X011472Y008075D03*
X011472Y007917D03*
X011472Y007760D03*
X011472Y007602D03*
X011472Y007445D03*
X011472Y007287D03*
X011472Y007130D03*
X011472Y006972D03*
X011472Y006815D03*
X011472Y006657D03*
X011472Y006500D03*
X011472Y006343D03*
X011472Y006185D03*
X011472Y006028D03*
X011472Y005870D03*
X011472Y005713D03*
X011472Y005555D03*
X011472Y005398D03*
X011472Y005240D03*
X011472Y005083D03*
X011472Y004925D03*
X011472Y004768D03*
X011472Y004610D03*
X011472Y004453D03*
X011472Y004295D03*
X017575Y004295D03*
X017575Y004453D03*
X017575Y004610D03*
X017575Y004768D03*
X017575Y004925D03*
X017575Y005083D03*
X017575Y005240D03*
X017575Y005398D03*
X017575Y005555D03*
X017575Y005713D03*
X017575Y005870D03*
X017575Y006028D03*
X017575Y006185D03*
X017575Y006343D03*
X017575Y006500D03*
X017575Y006657D03*
X017575Y006815D03*
X017575Y006972D03*
X017575Y007130D03*
X017575Y007287D03*
X017575Y007445D03*
X017575Y007602D03*
X017575Y007760D03*
X017575Y007917D03*
X017575Y008075D03*
X017575Y008232D03*
X017575Y008390D03*
X017575Y008547D03*
X017575Y008705D03*
X017575Y008862D03*
X017575Y009020D03*
X017575Y009177D03*
D12*
X021012Y007268D03*
X021717Y007268D03*
X022406Y007268D03*
X022406Y006598D03*
X021717Y006598D03*
X021012Y006598D03*
X019705Y005780D03*
X019705Y005110D03*
X020845Y004200D03*
X021515Y004200D03*
X009354Y008354D03*
X008646Y008354D03*
X008646Y009024D03*
X009354Y009024D03*
X012291Y012953D03*
X012921Y012965D03*
X013551Y012965D03*
X013551Y013634D03*
X012921Y013634D03*
X012291Y013622D03*
X011492Y013618D03*
X010823Y013618D03*
X016295Y013630D03*
X016965Y013630D03*
X017834Y011809D03*
X018503Y011809D03*
X003917Y004571D03*
X003260Y004575D03*
X003260Y003906D03*
X003917Y003902D03*
D13*
X004913Y003902D03*
X004913Y004571D03*
X004913Y005469D03*
X003920Y005465D03*
X003261Y005469D03*
X002303Y005453D03*
X002303Y006122D03*
X003261Y006139D03*
X003920Y006135D03*
X004913Y006138D03*
X005398Y007063D03*
X006067Y007063D03*
X007051Y007441D03*
X007720Y007441D03*
X008571Y007449D03*
X009240Y007449D03*
X007744Y008185D03*
X007075Y008185D03*
X006067Y008327D03*
X005398Y008327D03*
X005398Y007681D03*
X006067Y007681D03*
X007047Y006476D03*
X007717Y006476D03*
X008535Y006484D03*
X009205Y006484D03*
X009439Y003825D03*
X008770Y003825D03*
X007954Y003825D03*
X007285Y003825D03*
X008969Y002681D03*
X009638Y002681D03*
X019728Y009981D03*
X019728Y010650D03*
X011492Y010423D03*
X010823Y010423D03*
X010823Y011083D03*
X011492Y011083D03*
X011492Y011703D03*
X010823Y011703D03*
X010823Y012315D03*
X011492Y012315D03*
X011492Y012937D03*
X010823Y012937D03*
X007307Y010630D03*
X006638Y010630D03*
D14*
X007784Y005620D03*
X009241Y005620D03*
X009241Y004715D03*
X007784Y004715D03*
D15*
X001351Y003433D03*
X001051Y003433D03*
X001051Y002961D03*
X001351Y002961D03*
X001351Y002496D03*
X001051Y002496D03*
X001051Y002024D03*
X001351Y002024D03*
D16*
X003063Y008835D03*
X003063Y010803D03*
D17*
X002656Y003197D03*
X002656Y002882D03*
X002656Y002567D03*
X002656Y002252D03*
X002163Y002252D03*
X002163Y002567D03*
X002163Y002882D03*
X002163Y003197D03*
X004376Y003197D03*
X004376Y002882D03*
X004376Y002567D03*
X004376Y002252D03*
X004868Y002252D03*
X004868Y002567D03*
X004868Y002882D03*
X004868Y003197D03*
X018004Y012528D03*
X018004Y012843D03*
X018004Y013157D03*
X018004Y013472D03*
X018496Y013472D03*
X018496Y013157D03*
X018496Y012843D03*
X018496Y012528D03*
D18*
X007768Y009594D03*
X006075Y009594D03*
D19*
X005697Y006016D03*
X006563Y005642D03*
X005697Y005268D03*
X005689Y004571D03*
X006555Y004197D03*
X005689Y003823D03*
D20*
X005598Y001051D03*
X005362Y001051D03*
X005126Y001051D03*
X004890Y001051D03*
X004654Y001051D03*
X004417Y001051D03*
X004181Y001051D03*
X003945Y001051D03*
X003709Y001051D03*
X003472Y001051D03*
X003236Y001051D03*
X003000Y001051D03*
X002764Y001051D03*
X002528Y001051D03*
X002291Y001051D03*
X002055Y001051D03*
X001819Y001051D03*
X001583Y001051D03*
X001346Y001051D03*
X005835Y001051D03*
X007488Y001051D03*
X007724Y001051D03*
X007961Y001051D03*
X008197Y001051D03*
X008433Y001051D03*
X008669Y001051D03*
X008906Y001051D03*
X009142Y001051D03*
X009378Y001051D03*
X009614Y001051D03*
X009850Y001051D03*
X010087Y001051D03*
X010323Y001051D03*
X010559Y001051D03*
X010795Y001051D03*
X011031Y001051D03*
X011268Y001051D03*
X011504Y001051D03*
X011740Y001051D03*
X011976Y001051D03*
X012213Y001051D03*
X012449Y001051D03*
X012685Y001051D03*
X012921Y001051D03*
X013157Y001051D03*
X013394Y001051D03*
X013630Y001051D03*
X013866Y001051D03*
X014102Y001051D03*
X014339Y001051D03*
X014575Y001051D03*
X014811Y001051D03*
X015047Y001051D03*
X015283Y001051D03*
X015520Y001051D03*
X015756Y001051D03*
X015992Y001051D03*
X016228Y001051D03*
X016465Y001051D03*
X016701Y001051D03*
X016937Y001051D03*
X017173Y001051D03*
X017409Y001051D03*
X017646Y001051D03*
X017882Y001051D03*
X018118Y001051D03*
X018354Y001051D03*
X018591Y001051D03*
X018827Y001051D03*
X019063Y001051D03*
X019299Y001051D03*
X019535Y001051D03*
X019772Y001051D03*
X020008Y001051D03*
X020244Y001051D03*
X020480Y001051D03*
X020717Y001051D03*
X020953Y001051D03*
X021189Y001051D03*
X021425Y001051D03*
X021661Y001051D03*
X021898Y001051D03*
X022134Y001051D03*
X022370Y001051D03*
X022606Y001051D03*
X022843Y001051D03*
X023079Y001051D03*
X023315Y001051D03*
X023551Y001051D03*
X023787Y001051D03*
X024024Y001051D03*
X024260Y001051D03*
X024496Y001051D03*
X024732Y001051D03*
X024969Y001051D03*
X025205Y001051D03*
X025441Y001051D03*
X025677Y001051D03*
X025913Y001051D03*
X026150Y001051D03*
D21*
X024319Y004437D03*
X024319Y007193D03*
X007856Y012311D03*
D22*
X022803Y008138D03*
X025047Y008138D03*
D23*
X025677Y013315D03*
X020500Y013709D03*
D24*
X022335Y012193D03*
X022768Y012035D03*
X023201Y012193D03*
X023634Y012272D03*
X024067Y012193D03*
X024500Y012272D03*
X024933Y012193D03*
X025366Y012193D03*
D25*
X016285Y012470D03*
X015695Y012470D03*
X021515Y005060D03*
X022105Y005060D03*
D26*
X004057Y012080D03*
X004057Y013655D03*
X001380Y013655D03*
X001380Y012080D03*
D27*
X007075Y008185D02*
X007720Y007539D01*
X007720Y007441D01*
X007720Y006480D01*
X007717Y006476D01*
X007724Y006484D01*
X008535Y006484D01*
X008888Y005620D02*
X009241Y005620D01*
X008888Y005620D02*
X008445Y005177D01*
X007476Y005177D01*
X007185Y004886D01*
X007185Y004472D01*
X007346Y004311D01*
X007783Y004311D01*
X007913Y004181D01*
X007913Y003865D01*
X007954Y003825D01*
X008280Y003335D02*
X007469Y003335D01*
X007285Y003519D01*
X007285Y003825D01*
X008280Y003335D02*
X008770Y003825D01*
X009439Y003825D02*
X009439Y004143D01*
X009283Y004299D01*
X008760Y004299D01*
X008344Y004715D01*
X007784Y004715D01*
X004913Y006138D02*
X004055Y006996D01*
X002154Y006996D01*
X007744Y008185D02*
X008480Y007449D01*
X008571Y007449D01*
X009240Y007449D02*
X009240Y007189D01*
X009354Y008354D02*
X008646Y008354D01*
X009354Y008354D02*
X009543Y008543D01*
X011472Y008547D01*
X011472Y009177D02*
X011307Y009177D01*
X012240Y009787D02*
X012240Y010671D01*
X012488Y010252D02*
X012488Y009854D01*
X012555Y009787D01*
X012398Y009787D01*
X009354Y009024D02*
X008646Y009024D01*
X011472Y007760D02*
X011492Y007760D01*
X014642Y007002D02*
X014671Y006972D01*
X017575Y005870D02*
X017949Y005870D01*
X018067Y005988D01*
X018382Y005988D01*
X018461Y005909D01*
X018165Y005713D02*
X017575Y005713D01*
X017575Y004768D02*
X017594Y004768D01*
X022800Y003540D02*
X022800Y002200D01*
X022980Y002020D01*
X023430Y002020D01*
X023560Y001890D01*
X023560Y001060D01*
X023551Y001051D01*
X023787Y001051D02*
X023790Y001054D01*
X023790Y003150D01*
X025620Y004980D01*
X025620Y011090D01*
X025900Y011370D01*
X025900Y012180D01*
X026360Y012630D02*
X026360Y011260D01*
X025910Y010810D01*
X025910Y006850D01*
X026310Y006450D01*
X026310Y004700D01*
X025690Y004080D01*
X025690Y003270D01*
X025310Y002890D01*
X024430Y002890D01*
X024260Y002720D01*
X024260Y001051D01*
X024260Y001051D01*
X024490Y001057D02*
X024490Y002440D01*
X024670Y002620D01*
X025400Y002620D01*
X026120Y003340D01*
X026120Y004070D01*
X026570Y004520D01*
X026570Y006760D01*
X025990Y005860D02*
X025990Y004850D01*
X024020Y002880D01*
X024020Y001055D01*
X024024Y001051D01*
X024490Y001057D02*
X024496Y001051D01*
X024720Y001063D02*
X024720Y001930D01*
X025080Y002290D01*
X025780Y002290D01*
X026310Y002820D01*
X026530Y002820D01*
X024732Y001051D02*
X024720Y001063D01*
X022800Y003540D02*
X023850Y004590D01*
X023850Y009390D01*
X023760Y009480D01*
X024933Y010077D02*
X024933Y010327D01*
X024933Y010077D02*
X025050Y009960D01*
X022335Y011565D02*
X022335Y012193D01*
X022335Y011565D02*
X022330Y011560D01*
X018972Y009098D02*
X017998Y009098D01*
X017919Y009020D01*
X017575Y009020D01*
X017575Y008862D02*
X017998Y008862D01*
X018077Y008941D01*
X018697Y008941D01*
X018854Y008783D01*
X019169Y008783D01*
X019307Y008429D02*
X018933Y008429D01*
X018579Y008783D01*
X018156Y008783D01*
X018077Y008705D01*
X017575Y008705D01*
X003492Y001878D02*
X003098Y001878D01*
X003000Y001780D01*
X003000Y001051D01*
X002783Y001071D02*
X002783Y001681D01*
X002705Y001760D01*
X002783Y001071D02*
X002764Y001051D01*
D28*
X001051Y002024D02*
X001051Y002496D01*
X001051Y002961D01*
X001051Y003433D01*
X002303Y004862D02*
X003260Y003906D01*
X003260Y004575D02*
X003260Y005469D01*
X003261Y005469D01*
X003920Y005465D02*
X003920Y005446D01*
X003992Y005374D01*
X004378Y005374D01*
X004913Y005469D02*
X004913Y004571D01*
X005689Y004571D01*
X006555Y004197D02*
X006555Y003638D01*
X007091Y003102D01*
X009091Y003102D01*
X009439Y003451D01*
X009439Y003825D01*
X009439Y003770D01*
X011551Y003693D02*
X011559Y003685D01*
X012083Y003685D01*
X012083Y003524D01*
X014593Y004768D02*
X017575Y004768D01*
X017575Y004925D02*
X014661Y004925D01*
X013303Y006283D01*
X013303Y008035D01*
X013500Y008232D01*
X013500Y008587D01*
X013146Y008528D02*
X013126Y008547D01*
X013146Y008528D02*
X013146Y006215D01*
X014593Y004768D01*
X014533Y005280D02*
X014996Y005280D01*
X015232Y005516D01*
X015587Y005516D01*
X015705Y005398D01*
X017575Y005398D01*
X017575Y005555D02*
X017949Y005555D01*
X018146Y005358D01*
X018579Y005358D01*
X017575Y005240D02*
X015449Y005240D01*
X015823Y005673D02*
X015823Y006106D01*
X016689Y006972D01*
X017575Y006972D01*
X017575Y006815D02*
X016758Y006815D01*
X016138Y006194D01*
X016138Y005880D01*
X016433Y005654D02*
X016433Y006244D01*
X016846Y006657D01*
X017575Y006657D01*
X017575Y006500D02*
X016925Y006500D01*
X016728Y006303D01*
X016728Y005870D01*
X017043Y005850D02*
X017220Y006028D01*
X017575Y006028D01*
X017575Y006343D02*
X017161Y006343D01*
X017043Y006224D01*
X017043Y005850D02*
X017043Y005673D01*
X016531Y007130D02*
X016453Y007209D01*
X016531Y007130D02*
X017575Y007130D01*
X017575Y007287D02*
X016886Y007287D01*
X016768Y007406D01*
X017083Y007602D02*
X017575Y007602D01*
X017575Y007760D02*
X017919Y007760D01*
X018215Y007465D01*
X018303Y007465D01*
X018215Y007848D02*
X018146Y007848D01*
X017919Y008075D01*
X017575Y008075D01*
X017575Y008232D02*
X017969Y008232D01*
X018096Y008104D01*
X018411Y008104D01*
X018559Y007957D01*
X018559Y008252D02*
X018156Y008252D01*
X018018Y008390D01*
X017575Y008390D01*
X017575Y008547D02*
X018224Y008547D01*
X018264Y008508D01*
X018559Y008252D02*
X018618Y008311D01*
X017575Y007917D02*
X017201Y007917D01*
X017083Y008035D01*
X017083Y009335D01*
X017319Y009571D01*
X017535Y009571D01*
X017890Y009591D02*
X017890Y009256D01*
X017811Y009177D01*
X017575Y009177D01*
X016807Y009787D02*
X016807Y007917D01*
X016571Y007681D01*
X016433Y007681D01*
X015961Y007209D01*
X015902Y007593D02*
X015902Y007642D01*
X015862Y007681D01*
X015862Y007996D01*
X016335Y008469D01*
X016335Y009787D01*
X016492Y009787D02*
X016492Y008390D01*
X016118Y008016D01*
X016118Y007878D01*
X015705Y007760D02*
X015705Y008075D01*
X016177Y008547D01*
X016177Y009787D01*
X016020Y009787D02*
X016020Y008626D01*
X015547Y008154D01*
X015547Y007996D01*
X015252Y007701D01*
X015252Y007386D01*
X015547Y007602D02*
X015705Y007760D01*
X015390Y008114D02*
X015390Y008232D01*
X015862Y008705D01*
X015862Y009787D01*
X015705Y009787D02*
X015705Y008783D01*
X015232Y008311D01*
X015232Y008193D01*
X014642Y007602D01*
X014642Y007002D01*
X014307Y006913D02*
X014307Y007504D01*
X015075Y008272D01*
X015075Y008390D01*
X015547Y008862D01*
X015547Y009787D01*
X015390Y009787D02*
X015390Y008941D01*
X014917Y008469D01*
X014917Y008350D01*
X014051Y007484D01*
X014051Y006756D01*
X014248Y006559D01*
X013874Y006559D02*
X013874Y007543D01*
X014760Y008429D01*
X014760Y008547D01*
X015232Y009020D01*
X015232Y009787D01*
X015075Y009787D02*
X015075Y009098D01*
X014602Y008626D01*
X014602Y008508D01*
X013618Y007524D01*
X013618Y006421D01*
X014484Y005555D01*
X014642Y005555D01*
X014533Y005280D02*
X013461Y006352D01*
X013461Y007681D01*
X014228Y008449D01*
X014228Y008528D01*
X014150Y008823D02*
X013854Y008528D01*
X014150Y008823D02*
X014583Y008823D01*
X014917Y009157D01*
X014917Y009787D01*
X014760Y009787D02*
X014760Y009217D01*
X014524Y008980D01*
X013146Y008980D01*
X012870Y008705D01*
X012870Y008350D01*
X012988Y008232D01*
X012988Y006106D01*
X013264Y005831D01*
X013264Y005713D01*
X012929Y005594D02*
X012831Y005693D01*
X012831Y008154D01*
X012713Y008272D01*
X012713Y008783D01*
X013067Y009138D01*
X014445Y009138D01*
X014602Y009295D01*
X014602Y009787D01*
X014130Y009787D02*
X014122Y009795D01*
X012488Y010252D02*
X012488Y011209D01*
X012240Y011301D02*
X011839Y011703D01*
X011492Y011703D01*
X010823Y011703D02*
X010346Y011703D01*
X010160Y011889D01*
X010160Y012163D01*
X010326Y012329D01*
X010809Y012329D01*
X010823Y012315D01*
X012240Y011301D02*
X012240Y010671D01*
X011492Y010423D02*
X011492Y011083D01*
X010823Y011083D02*
X010157Y011083D01*
X010087Y011012D01*
X010823Y011083D02*
X010823Y010423D01*
X011492Y010423D02*
X012083Y009833D01*
X012083Y009787D01*
X011472Y009555D02*
X011472Y009177D01*
X011472Y009020D02*
X011110Y009020D01*
X010854Y009276D01*
X010854Y009642D01*
X011098Y009929D02*
X010354Y009929D01*
X008909Y011374D01*
X003634Y011374D01*
X003063Y010803D01*
X004866Y009559D02*
X004866Y008484D01*
X005024Y008327D01*
X005398Y008327D01*
X005358Y008366D01*
X006067Y008327D02*
X006067Y007681D01*
X006067Y008327D02*
X005256Y009138D01*
X005256Y009610D01*
X005291Y009646D01*
X005898Y010252D01*
X007685Y010252D01*
X007768Y010169D01*
X007768Y009594D01*
X008646Y009685D02*
X008646Y009024D01*
X008079Y008870D02*
X008594Y008354D01*
X008646Y008354D01*
X008744Y007870D02*
X008571Y007697D01*
X008571Y007449D01*
X009059Y007008D02*
X009075Y007008D01*
X009075Y007024D01*
X009240Y007189D01*
X009059Y007008D02*
X008535Y006484D01*
X007185Y005020D02*
X006563Y005642D01*
X007185Y005020D02*
X007185Y004886D01*
X004390Y004571D02*
X003917Y004571D01*
X002303Y004862D02*
X002303Y005453D01*
X002303Y006122D02*
X002320Y006139D01*
X003261Y006139D01*
X003265Y006135D01*
X003920Y006135D01*
X003650Y008835D02*
X003063Y008835D01*
X003650Y008835D02*
X005921Y011106D01*
X008748Y011106D01*
X010992Y008862D01*
X011472Y008862D01*
X011472Y008705D02*
X010791Y008705D01*
X008780Y010717D01*
X007394Y010717D01*
X007307Y010630D01*
X007685Y010252D01*
X008646Y009685D02*
X008740Y009780D01*
X008079Y008870D02*
X006799Y008870D01*
X006075Y009594D01*
X005937Y010630D02*
X004866Y009559D01*
X005937Y010630D02*
X006638Y010630D01*
X009756Y007870D02*
X010264Y008378D01*
X011465Y008382D01*
X011472Y008390D01*
X009756Y007870D02*
X008744Y007870D01*
X011098Y009929D02*
X011472Y009555D01*
X014917Y007642D02*
X015390Y008114D01*
X014917Y007642D02*
X014917Y007228D01*
X016463Y007986D02*
X016463Y008124D01*
X016650Y008311D01*
X016650Y009787D01*
X017177Y010539D02*
X019008Y010539D01*
X019094Y010626D01*
X019728Y010650D02*
X019767Y010690D01*
X020389Y010690D01*
X021602Y009476D01*
X019728Y009981D02*
X018972Y009226D01*
X018972Y009098D01*
X018965Y009831D02*
X018965Y009887D01*
X019728Y010650D01*
X018453Y011209D02*
X018295Y011366D01*
X017744Y011366D01*
X017744Y011719D01*
X017834Y011809D01*
X018503Y011809D02*
X018651Y011957D01*
X019319Y011957D01*
X018503Y011809D02*
X018503Y012520D01*
X018496Y012528D01*
X018496Y012843D01*
X018496Y013157D01*
X017823Y013807D02*
X017744Y013728D01*
X017823Y013807D02*
X019516Y013807D01*
X020224Y013098D01*
X020894Y013098D01*
X021524Y013728D01*
X022075Y013728D01*
X022350Y013453D01*
X022350Y012209D01*
X022335Y012193D01*
X022768Y012035D02*
X022783Y012051D01*
X022783Y012783D01*
X017744Y011366D02*
X017705Y011327D01*
X015579Y011327D01*
X013551Y012965D02*
X012921Y012965D01*
X012902Y012945D01*
X020224Y007665D02*
X020614Y007665D01*
X021012Y007268D01*
X020378Y006984D02*
X020764Y006598D01*
X021012Y006598D01*
X022406Y006598D02*
X022898Y006598D01*
X022154Y003453D02*
X020146Y003453D01*
X019535Y002843D01*
X011472Y005713D02*
X011469Y005717D01*
X004868Y003197D02*
X004868Y002882D01*
X004868Y002567D01*
D29*
X003492Y001878D03*
X001799Y001839D03*
X001406Y004555D03*
X002154Y006996D03*
X008740Y009780D03*
X010087Y011012D03*
X010854Y009642D03*
X013126Y008547D03*
X013500Y008587D03*
X013854Y008528D03*
X014228Y008528D03*
X015547Y007602D03*
X015252Y007386D03*
X014917Y007228D03*
X014671Y006972D03*
X014307Y006913D03*
X014248Y006559D03*
X013874Y006559D03*
X013264Y005713D03*
X012929Y005594D03*
X014642Y005555D03*
X015449Y005240D03*
X015823Y005673D03*
X016138Y005880D03*
X016433Y005654D03*
X016728Y005870D03*
X017043Y005673D03*
X017043Y006224D03*
X018165Y005713D03*
X018461Y005909D03*
X018579Y005358D03*
X016453Y007209D03*
X016768Y007406D03*
X017083Y007602D03*
X016463Y007986D03*
X016118Y007878D03*
X015902Y007593D03*
X015961Y007209D03*
X018215Y007848D03*
X018559Y007957D03*
X018618Y008311D03*
X018264Y008508D03*
X018972Y009098D03*
X019169Y008783D03*
X019307Y008429D03*
X018303Y007465D03*
X020854Y009122D03*
X018965Y009831D03*
X019094Y010626D03*
X018453Y011209D03*
X017193Y011602D03*
X017177Y010539D03*
X014752Y011681D03*
X014201Y012272D03*
X017547Y012823D03*
X021406Y012823D03*
X022783Y012783D03*
X024043Y012823D03*
X025382Y011563D03*
X025900Y012180D03*
X026360Y012630D03*
X024476Y011248D03*
X023728Y011366D03*
X023217Y011524D03*
X022330Y011560D03*
X021563Y011602D03*
X023760Y009480D03*
X024871Y008729D03*
X025050Y009960D03*
X026570Y006760D03*
X025990Y005860D03*
X022898Y006598D03*
X026530Y002820D03*
X009075Y007008D03*
D30*
X009018Y007222D02*
X009211Y007222D01*
X009211Y007419D01*
X009270Y007419D01*
X009270Y007478D01*
X009486Y007478D01*
X009486Y007652D01*
X009482Y007662D01*
X009473Y007671D01*
X009463Y007675D01*
X009270Y007675D01*
X009270Y007478D01*
X009211Y007478D01*
X009211Y007419D01*
X008994Y007419D01*
X008994Y007246D01*
X008999Y007235D01*
X009007Y007227D01*
X009018Y007222D01*
X009000Y007234D02*
X008937Y007234D01*
X008937Y007190D02*
X008937Y007687D01*
X009757Y007687D01*
X009730Y007661D01*
X009730Y007654D01*
X009691Y007615D01*
X009652Y007520D01*
X009652Y007417D01*
X009691Y007322D01*
X009740Y007273D01*
X009720Y007252D01*
X009298Y006831D01*
X007314Y006831D01*
X007305Y006823D02*
X007333Y006850D01*
X007372Y006945D01*
X007372Y007047D01*
X007346Y007111D01*
X007417Y007182D01*
X007417Y007700D01*
X007330Y007787D01*
X006773Y007787D01*
X006685Y007700D01*
X006685Y007182D01*
X006773Y007095D01*
X006872Y007095D01*
X006872Y007085D01*
X006856Y007047D01*
X006856Y006945D01*
X006896Y006850D01*
X006923Y006823D01*
X006769Y006823D01*
X006681Y006735D01*
X006681Y006218D01*
X006769Y006130D01*
X007154Y006130D01*
X007269Y006021D01*
X007326Y005964D01*
X007261Y005899D01*
X007261Y005342D01*
X007317Y005285D01*
X007287Y005255D01*
X007248Y005216D01*
X006988Y005475D01*
X006988Y005901D01*
X006901Y005988D01*
X006225Y005988D01*
X006138Y005901D01*
X006138Y005383D01*
X006225Y005295D01*
X006651Y005295D01*
X006996Y004950D01*
X006996Y004394D01*
X007107Y004284D01*
X007268Y004122D01*
X007626Y004122D01*
X007588Y004084D01*
X007588Y003566D01*
X007675Y003478D01*
X008232Y003478D01*
X008320Y003566D01*
X008320Y004084D01*
X008232Y004171D01*
X008102Y004171D01*
X008102Y004259D01*
X008013Y004349D01*
X008220Y004349D01*
X008308Y004436D01*
X008308Y004484D01*
X008571Y004221D01*
X008682Y004110D01*
X009100Y004110D01*
X009073Y004084D01*
X009073Y003566D01*
X009161Y003478D01*
X009208Y003478D01*
X009015Y003285D01*
X007166Y003285D01*
X006738Y003714D01*
X006738Y003850D01*
X006893Y003850D01*
X006980Y003938D01*
X006980Y004456D01*
X006893Y004543D01*
X006218Y004543D01*
X006130Y004456D01*
X006130Y003938D01*
X006218Y003850D01*
X006372Y003850D01*
X006372Y003562D01*
X006908Y003027D01*
X007015Y002919D01*
X009166Y002919D01*
X009515Y003268D01*
X009584Y003337D01*
X009612Y003267D01*
X009652Y003228D01*
X009652Y003027D01*
X009359Y003027D01*
X009272Y002940D01*
X009272Y002422D01*
X009301Y002393D01*
X009252Y002372D01*
X009179Y002300D01*
X009140Y002205D01*
X009140Y002136D01*
X009110Y002136D01*
X009015Y002096D01*
X008943Y002024D01*
X008933Y002000D01*
X008380Y002000D01*
X008363Y002018D01*
X008268Y002057D01*
X008165Y002057D01*
X008071Y002018D01*
X008053Y002000D01*
X007933Y002000D01*
X007923Y002024D01*
X007851Y002096D01*
X007756Y002136D01*
X007653Y002136D01*
X007559Y002096D01*
X007486Y002024D01*
X007476Y002000D01*
X007227Y002000D01*
X007151Y002132D01*
X006990Y002224D01*
X006805Y002224D01*
X006644Y002132D01*
X006644Y002132D01*
X006644Y002132D01*
X006568Y002000D01*
X006083Y002000D01*
X006073Y002024D01*
X006000Y002096D01*
X005906Y002136D01*
X005803Y002136D01*
X005708Y002096D01*
X005636Y002024D01*
X005626Y002000D01*
X005610Y002000D01*
X005600Y002024D01*
X005528Y002096D01*
X005433Y002136D01*
X005331Y002136D01*
X005236Y002096D01*
X005163Y002024D01*
X005153Y002000D01*
X005099Y002000D01*
X005089Y002024D01*
X005016Y002096D01*
X004950Y002124D01*
X005002Y002124D01*
X005012Y002129D01*
X005021Y002137D01*
X005025Y002148D01*
X005025Y002232D01*
X004887Y002232D01*
X004887Y002272D01*
X004848Y002272D01*
X004848Y002380D01*
X004734Y002380D01*
X004723Y002375D01*
X004715Y002367D01*
X004710Y002356D01*
X004710Y002272D01*
X004848Y002272D01*
X004848Y002232D01*
X004710Y002232D01*
X004710Y002148D01*
X004715Y002137D01*
X004723Y002129D01*
X004734Y002124D01*
X004790Y002124D01*
X004724Y002096D01*
X004652Y002024D01*
X004642Y002000D01*
X004640Y002000D01*
X004601Y002039D01*
X004653Y002092D01*
X004653Y003357D01*
X004565Y003445D01*
X004186Y003445D01*
X004098Y003357D01*
X004098Y003356D01*
X003638Y003356D01*
X003599Y003396D01*
X003504Y003435D01*
X003401Y003435D01*
X003307Y003396D01*
X003267Y003356D01*
X002933Y003356D01*
X002933Y003357D01*
X002845Y003445D01*
X002466Y003445D01*
X002409Y003389D01*
X002353Y003445D01*
X002169Y003445D01*
X002001Y003612D01*
X001600Y003612D01*
X001600Y003645D01*
X001513Y003733D01*
X001319Y003733D01*
X001319Y004301D01*
X001352Y004287D01*
X001459Y004287D01*
X001557Y004328D01*
X001632Y004404D01*
X001673Y004502D01*
X001673Y004608D01*
X001661Y004637D01*
X001900Y004875D01*
X001900Y005820D01*
X001940Y005860D01*
X002025Y005776D01*
X002582Y005776D01*
X002669Y005863D01*
X002669Y005956D01*
X002895Y005956D01*
X002895Y005880D01*
X002970Y005804D01*
X002895Y005728D01*
X002895Y005211D01*
X002982Y005123D01*
X003077Y005123D01*
X003077Y004941D01*
X003001Y004941D01*
X002913Y004853D01*
X002913Y004296D01*
X003001Y004209D01*
X003519Y004209D01*
X003587Y004277D01*
X003659Y004205D01*
X004176Y004205D01*
X004264Y004292D01*
X004264Y004344D01*
X004338Y004313D01*
X004441Y004313D01*
X004536Y004352D01*
X004547Y004364D01*
X004547Y004312D01*
X004635Y004224D01*
X005192Y004224D01*
X005272Y004304D01*
X005351Y004224D01*
X006027Y004224D01*
X006114Y004312D01*
X006114Y004830D01*
X006027Y004917D01*
X005351Y004917D01*
X005272Y004837D01*
X005192Y004917D01*
X005096Y004917D01*
X005096Y005122D01*
X005192Y005122D01*
X005279Y005210D01*
X005279Y005727D01*
X005204Y005803D01*
X005279Y005879D01*
X005279Y006397D01*
X005192Y006484D01*
X004834Y006484D01*
X004244Y007074D01*
X004244Y007074D01*
X004133Y007185D01*
X003389Y007185D01*
X003474Y007220D01*
X003583Y007329D01*
X003642Y007471D01*
X003642Y007624D01*
X003583Y007766D01*
X003474Y007874D01*
X003333Y007933D01*
X003179Y007933D01*
X003037Y007874D01*
X002929Y007766D01*
X002870Y007624D01*
X002870Y007471D01*
X002929Y007329D01*
X003037Y007220D01*
X003123Y007185D01*
X002343Y007185D01*
X002305Y007223D01*
X002207Y007264D01*
X002100Y007264D01*
X002002Y007223D01*
X001927Y007148D01*
X001886Y007049D01*
X001886Y006943D01*
X001927Y006844D01*
X002002Y006769D01*
X002100Y006728D01*
X002207Y006728D01*
X002305Y006769D01*
X002343Y006807D01*
X003977Y006807D01*
X004547Y006237D01*
X004547Y005879D01*
X004623Y005803D01*
X004547Y005727D01*
X004547Y005569D01*
X004524Y005593D01*
X004429Y005632D01*
X004327Y005632D01*
X004287Y005615D01*
X004287Y005724D01*
X004211Y005800D01*
X004287Y005876D01*
X004287Y006393D01*
X004199Y006481D01*
X003642Y006481D01*
X003593Y006432D01*
X003539Y006485D01*
X002982Y006485D01*
X002895Y006397D01*
X002895Y006322D01*
X002669Y006322D01*
X002669Y006381D01*
X002582Y006468D01*
X002025Y006468D01*
X001937Y006381D01*
X001937Y006270D01*
X001843Y006270D01*
X001646Y006073D01*
X001634Y006060D01*
X001634Y006994D01*
X001693Y007053D01*
X001752Y007195D01*
X001752Y007348D01*
X001693Y007490D01*
X001585Y007599D01*
X001443Y007657D01*
X001289Y007657D01*
X001148Y007599D01*
X001039Y007490D01*
X000980Y007348D01*
X000980Y007195D01*
X001039Y007053D01*
X001099Y006994D01*
X001099Y005611D01*
X000824Y005337D01*
X000784Y005238D01*
X000784Y003380D01*
X000801Y003337D01*
X000801Y003221D01*
X000826Y003197D01*
X000801Y003173D01*
X000801Y002749D01*
X000822Y002728D01*
X000801Y002708D01*
X000801Y002284D01*
X000826Y002260D01*
X000801Y002236D01*
X000801Y002000D01*
X000650Y002000D01*
X000650Y007437D01*
X000665Y007437D01*
X000976Y007550D01*
X001229Y007762D01*
X001229Y007762D01*
X001229Y007762D01*
X001394Y008049D01*
X001437Y008293D01*
X001437Y008182D01*
X001525Y008095D01*
X004314Y008095D01*
X004258Y008071D01*
X004149Y007963D01*
X004091Y007821D01*
X004091Y007667D01*
X004149Y007526D01*
X004258Y007417D01*
X004400Y007358D01*
X004553Y007358D01*
X004695Y007417D01*
X004803Y007526D01*
X004862Y007667D01*
X004862Y007821D01*
X004803Y007963D01*
X004695Y008071D01*
X004612Y008105D01*
X004689Y008182D01*
X004689Y009487D01*
X004625Y009551D01*
X005997Y010923D01*
X006976Y010923D01*
X006941Y010889D01*
X006941Y010435D01*
X006884Y010435D01*
X006884Y010600D01*
X006667Y010600D01*
X006667Y010659D01*
X006884Y010659D01*
X006884Y010833D01*
X006879Y010843D01*
X006871Y010852D01*
X006860Y010856D01*
X006667Y010856D01*
X006667Y010659D01*
X006608Y010659D01*
X006608Y010600D01*
X006392Y010600D01*
X006392Y010435D01*
X005822Y010435D01*
X005715Y010328D01*
X005108Y009721D01*
X005073Y009686D01*
X005073Y009062D01*
X005180Y008955D01*
X005582Y008553D01*
X005427Y008553D01*
X005427Y008356D01*
X005644Y008356D01*
X005644Y008491D01*
X005701Y008434D01*
X005701Y008068D01*
X005765Y008004D01*
X005701Y007940D01*
X005701Y007422D01*
X005751Y007372D01*
X005701Y007322D01*
X005701Y006804D01*
X005788Y006717D01*
X005888Y006717D01*
X005888Y006591D01*
X005951Y006528D01*
X005951Y006472D01*
X005990Y006378D01*
X006063Y006305D01*
X006157Y006266D01*
X006260Y006266D01*
X006355Y006305D01*
X006427Y006378D01*
X006466Y006472D01*
X006466Y006575D01*
X006427Y006670D01*
X006363Y006734D01*
X006433Y006804D01*
X006433Y007322D01*
X006383Y007372D01*
X006433Y007422D01*
X006433Y007940D01*
X006369Y008004D01*
X006433Y008068D01*
X006433Y008586D01*
X006345Y008673D01*
X006164Y008673D01*
X006197Y008707D01*
X006371Y008707D01*
X006607Y008471D01*
X007205Y008471D01*
X007264Y008411D01*
X007104Y008411D01*
X007104Y008215D01*
X007045Y008215D01*
X007045Y008411D01*
X006852Y008411D01*
X006842Y008407D01*
X006833Y008399D01*
X006829Y008388D01*
X006829Y008215D01*
X007045Y008215D01*
X007045Y008156D01*
X006829Y008156D01*
X006829Y007982D01*
X006391Y007982D01*
X006405Y008040D02*
X006829Y008040D01*
X006829Y008097D02*
X006433Y008097D01*
X006433Y008155D02*
X006829Y008155D01*
X006829Y008270D02*
X006433Y008270D01*
X006433Y008328D02*
X006829Y008328D01*
X006829Y008385D02*
X006433Y008385D01*
X006433Y008443D02*
X007233Y008443D01*
X007321Y008355D02*
X007378Y008298D01*
X007378Y007926D01*
X007466Y007839D01*
X007823Y007839D01*
X008205Y007457D01*
X008205Y007190D01*
X008292Y007102D01*
X008849Y007102D01*
X008937Y007190D01*
X008923Y007176D02*
X009644Y007176D01*
X009586Y007119D02*
X008866Y007119D01*
X008937Y007292D02*
X008994Y007292D01*
X008994Y007349D02*
X008937Y007349D01*
X008937Y007407D02*
X008994Y007407D01*
X008994Y007478D02*
X009211Y007478D01*
X009211Y007675D01*
X009018Y007675D01*
X009007Y007671D01*
X008999Y007662D01*
X008994Y007652D01*
X008994Y007478D01*
X008994Y007522D02*
X008937Y007522D01*
X008937Y007579D02*
X008994Y007579D01*
X008994Y007637D02*
X008937Y007637D01*
X008937Y007464D02*
X009211Y007464D01*
X009211Y007407D02*
X009270Y007407D01*
X009270Y007419D02*
X009270Y007222D01*
X009463Y007222D01*
X009473Y007227D01*
X009482Y007235D01*
X009486Y007246D01*
X009486Y007419D01*
X009270Y007419D01*
X009270Y007464D02*
X009652Y007464D01*
X009656Y007407D02*
X009486Y007407D01*
X009486Y007349D02*
X009680Y007349D01*
X009722Y007292D02*
X009486Y007292D01*
X009480Y007234D02*
X009701Y007234D01*
X009846Y007126D02*
X009205Y006484D01*
X008839Y006486D02*
X008565Y006486D01*
X008565Y006514D02*
X008565Y006455D01*
X008781Y006455D01*
X008781Y006282D01*
X008777Y006271D01*
X008769Y006262D01*
X008758Y006258D01*
X008565Y006258D01*
X008565Y006455D01*
X008506Y006455D01*
X008289Y006455D01*
X008289Y006282D01*
X008294Y006271D01*
X008302Y006262D01*
X008313Y006258D01*
X008506Y006258D01*
X008506Y006455D01*
X008506Y006514D01*
X008506Y006711D01*
X008313Y006711D01*
X008302Y006706D01*
X008294Y006698D01*
X008289Y006687D01*
X008289Y006514D01*
X008506Y006514D01*
X008565Y006514D01*
X008565Y006711D01*
X008758Y006711D01*
X008769Y006706D01*
X008777Y006698D01*
X008781Y006687D01*
X008781Y006514D01*
X008565Y006514D01*
X008565Y006543D02*
X008506Y006543D01*
X008506Y006486D02*
X007746Y006486D01*
X007746Y006506D02*
X007963Y006506D01*
X007963Y006679D01*
X007958Y006690D01*
X007950Y006698D01*
X007939Y006703D01*
X007746Y006703D01*
X007746Y006506D01*
X007687Y006506D01*
X007687Y006703D01*
X007494Y006703D01*
X007483Y006698D01*
X007475Y006690D01*
X007470Y006679D01*
X007470Y006506D01*
X007687Y006506D01*
X007687Y006447D01*
X007470Y006447D01*
X007470Y006326D01*
X007468Y006329D01*
X007465Y006329D01*
X007413Y006377D01*
X007413Y006735D01*
X007326Y006823D01*
X007305Y006823D01*
X007349Y006889D02*
X009356Y006889D01*
X009413Y006946D02*
X007372Y006946D01*
X007372Y007004D02*
X009471Y007004D01*
X009529Y007061D02*
X007366Y007061D01*
X007354Y007119D02*
X008276Y007119D01*
X008218Y007176D02*
X007412Y007176D01*
X007417Y007234D02*
X007476Y007234D01*
X007474Y007238D02*
X007479Y007227D01*
X007487Y007219D01*
X007498Y007215D01*
X007691Y007215D01*
X007691Y007411D01*
X007750Y007411D01*
X007750Y007215D01*
X007943Y007215D01*
X007954Y007219D01*
X007962Y007227D01*
X007967Y007238D01*
X007967Y007411D01*
X007750Y007411D01*
X007750Y007470D01*
X007967Y007470D01*
X007967Y007644D01*
X007962Y007655D01*
X007954Y007663D01*
X007943Y007667D01*
X007750Y007667D01*
X007750Y007470D01*
X007691Y007470D01*
X007691Y007411D01*
X007474Y007411D01*
X007474Y007238D01*
X007474Y007292D02*
X007417Y007292D01*
X007417Y007349D02*
X007474Y007349D01*
X007474Y007407D02*
X007417Y007407D01*
X007417Y007464D02*
X007691Y007464D01*
X007691Y007470D02*
X007474Y007470D01*
X007474Y007644D01*
X007479Y007655D01*
X007487Y007663D01*
X007498Y007667D01*
X007691Y007667D01*
X007691Y007470D01*
X007691Y007522D02*
X007750Y007522D01*
X007750Y007579D02*
X007691Y007579D01*
X007691Y007637D02*
X007750Y007637D01*
X007750Y007464D02*
X008198Y007464D01*
X008205Y007407D02*
X007967Y007407D01*
X007967Y007349D02*
X008205Y007349D01*
X008205Y007292D02*
X007967Y007292D01*
X007965Y007234D02*
X008205Y007234D01*
X007750Y007234D02*
X007691Y007234D01*
X007691Y007292D02*
X007750Y007292D01*
X007750Y007349D02*
X007691Y007349D01*
X007691Y007407D02*
X007750Y007407D01*
X007967Y007522D02*
X008140Y007522D01*
X008083Y007579D02*
X007967Y007579D01*
X007967Y007637D02*
X008025Y007637D01*
X007968Y007694D02*
X007417Y007694D01*
X007417Y007637D02*
X007474Y007637D01*
X007474Y007579D02*
X007417Y007579D01*
X007417Y007522D02*
X007474Y007522D01*
X007365Y007752D02*
X007910Y007752D01*
X007852Y007810D02*
X006433Y007810D01*
X006433Y007867D02*
X007437Y007867D01*
X007380Y007925D02*
X006433Y007925D01*
X006433Y007752D02*
X006737Y007752D01*
X006685Y007694D02*
X006433Y007694D01*
X006433Y007637D02*
X006685Y007637D01*
X006685Y007579D02*
X006433Y007579D01*
X006433Y007522D02*
X006685Y007522D01*
X006685Y007464D02*
X006433Y007464D01*
X006417Y007407D02*
X006685Y007407D01*
X006685Y007349D02*
X006406Y007349D01*
X006433Y007292D02*
X006685Y007292D01*
X006685Y007234D02*
X006433Y007234D01*
X006433Y007176D02*
X006691Y007176D01*
X006748Y007119D02*
X006433Y007119D01*
X006433Y007061D02*
X006862Y007061D01*
X006856Y007004D02*
X006433Y007004D01*
X006433Y006946D02*
X006856Y006946D01*
X006880Y006889D02*
X006433Y006889D01*
X006433Y006831D02*
X006915Y006831D01*
X006720Y006774D02*
X006402Y006774D01*
X006381Y006716D02*
X006681Y006716D01*
X006681Y006658D02*
X006432Y006658D01*
X006456Y006601D02*
X006681Y006601D01*
X006681Y006543D02*
X006466Y006543D01*
X006466Y006486D02*
X006681Y006486D01*
X006681Y006428D02*
X006448Y006428D01*
X006420Y006371D02*
X006681Y006371D01*
X006681Y006313D02*
X006363Y006313D01*
X006055Y006313D02*
X005279Y006313D01*
X005279Y006256D02*
X006681Y006256D01*
X006701Y006198D02*
X006002Y006198D01*
X006002Y006218D02*
X005997Y006229D01*
X005989Y006238D01*
X005978Y006242D01*
X005726Y006242D01*
X005726Y006045D01*
X005667Y006045D01*
X005667Y005986D01*
X005392Y005986D01*
X005392Y005813D01*
X005396Y005802D01*
X005405Y005794D01*
X005415Y005789D01*
X005667Y005789D01*
X005667Y005986D01*
X005726Y005986D01*
X005726Y005789D01*
X005978Y005789D01*
X005989Y005794D01*
X005997Y005802D01*
X006002Y005813D01*
X006002Y005986D01*
X005726Y005986D01*
X005726Y006045D01*
X006002Y006045D01*
X006002Y006218D01*
X006002Y006140D02*
X006758Y006140D01*
X006921Y005968D02*
X007322Y005968D01*
X007272Y005910D02*
X006978Y005910D01*
X006988Y005853D02*
X007261Y005853D01*
X007261Y005795D02*
X006988Y005795D01*
X006988Y005738D02*
X007261Y005738D01*
X007261Y005680D02*
X006988Y005680D01*
X006988Y005622D02*
X007261Y005622D01*
X007261Y005565D02*
X006988Y005565D01*
X006988Y005507D02*
X007261Y005507D01*
X007261Y005450D02*
X007014Y005450D01*
X007071Y005392D02*
X007261Y005392D01*
X007268Y005335D02*
X007129Y005335D01*
X007186Y005277D02*
X007309Y005277D01*
X007287Y005255D02*
X007287Y005255D01*
X007252Y005220D02*
X007244Y005220D01*
X006899Y005047D02*
X005990Y005047D01*
X005989Y005046D02*
X005997Y005054D01*
X006002Y005065D01*
X006002Y005238D01*
X005726Y005238D01*
X005726Y005041D01*
X005978Y005041D01*
X005989Y005046D01*
X006002Y005104D02*
X006842Y005104D01*
X006784Y005162D02*
X006002Y005162D01*
X006002Y005220D02*
X006726Y005220D01*
X006669Y005277D02*
X005726Y005277D01*
X005726Y005297D02*
X006002Y005297D01*
X006002Y005470D01*
X005997Y005481D01*
X005989Y005490D01*
X005978Y005494D01*
X005726Y005494D01*
X005726Y005297D01*
X005667Y005297D01*
X005667Y005238D01*
X005392Y005238D01*
X005392Y005065D01*
X005396Y005054D01*
X005405Y005046D01*
X005415Y005041D01*
X005667Y005041D01*
X005667Y005238D01*
X005726Y005238D01*
X005726Y005297D01*
X005726Y005335D02*
X005667Y005335D01*
X005667Y005297D02*
X005667Y005494D01*
X005415Y005494D01*
X005405Y005490D01*
X005396Y005481D01*
X005392Y005470D01*
X005392Y005297D01*
X005667Y005297D01*
X005667Y005277D02*
X005279Y005277D01*
X005279Y005220D02*
X005392Y005220D01*
X005392Y005162D02*
X005232Y005162D01*
X005096Y005104D02*
X005392Y005104D01*
X005403Y005047D02*
X005096Y005047D01*
X005096Y004989D02*
X006957Y004989D01*
X006996Y004932D02*
X005096Y004932D01*
X005235Y004874D02*
X005308Y004874D01*
X005667Y005047D02*
X005726Y005047D01*
X005726Y005104D02*
X005667Y005104D01*
X005667Y005162D02*
X005726Y005162D01*
X005726Y005220D02*
X005667Y005220D01*
X005697Y005268D02*
X005858Y005106D01*
X006602Y005106D01*
X006996Y004713D01*
X006996Y004358D01*
X007285Y004070D01*
X007285Y003825D01*
X007314Y003838D02*
X007588Y003838D01*
X007588Y003781D02*
X007531Y003781D01*
X007531Y003795D02*
X007314Y003795D01*
X007314Y003598D01*
X007507Y003598D01*
X007518Y003603D01*
X007526Y003611D01*
X007531Y003622D01*
X007531Y003795D01*
X007531Y003854D02*
X007531Y004028D01*
X007526Y004038D01*
X007518Y004047D01*
X007507Y004051D01*
X007314Y004051D01*
X007314Y003854D01*
X007531Y003854D01*
X007531Y003896D02*
X007588Y003896D01*
X007588Y003953D02*
X007531Y003953D01*
X007531Y004011D02*
X007588Y004011D01*
X007588Y004068D02*
X006980Y004068D01*
X006980Y004011D02*
X007039Y004011D01*
X007039Y004028D02*
X007039Y003854D01*
X007255Y003854D01*
X007255Y003795D01*
X007314Y003795D01*
X007314Y003854D01*
X007255Y003854D01*
X007255Y004051D01*
X007062Y004051D01*
X007051Y004047D01*
X007043Y004038D01*
X007039Y004028D01*
X007039Y003953D02*
X006980Y003953D01*
X006938Y003896D02*
X007039Y003896D01*
X007039Y003795D02*
X007039Y003622D01*
X007043Y003611D01*
X007051Y003603D01*
X007062Y003598D01*
X007255Y003598D01*
X007255Y003795D01*
X007039Y003795D01*
X007039Y003781D02*
X006738Y003781D01*
X006738Y003838D02*
X007255Y003838D01*
X007255Y003781D02*
X007314Y003781D01*
X007314Y003723D02*
X007255Y003723D01*
X007255Y003666D02*
X007314Y003666D01*
X007314Y003608D02*
X007255Y003608D01*
X007046Y003608D02*
X006844Y003608D01*
X006901Y003550D02*
X007603Y003550D01*
X007588Y003608D02*
X007523Y003608D01*
X007531Y003666D02*
X007588Y003666D01*
X007588Y003723D02*
X007531Y003723D01*
X007661Y003493D02*
X006959Y003493D01*
X007016Y003435D02*
X009165Y003435D01*
X009146Y003493D02*
X008247Y003493D01*
X008304Y003550D02*
X009089Y003550D01*
X009073Y003608D02*
X009008Y003608D01*
X009012Y003611D02*
X009016Y003622D01*
X009016Y003795D01*
X008800Y003795D01*
X008800Y003854D01*
X009016Y003854D01*
X009016Y004028D01*
X009012Y004038D01*
X009003Y004047D01*
X008992Y004051D01*
X008800Y004051D01*
X008800Y003854D01*
X008741Y003854D01*
X008741Y003795D01*
X008800Y003795D01*
X008800Y003598D01*
X008992Y003598D01*
X009003Y003603D01*
X009012Y003611D01*
X009016Y003666D02*
X009073Y003666D01*
X009073Y003723D02*
X009016Y003723D01*
X009016Y003781D02*
X009073Y003781D01*
X009073Y003838D02*
X008800Y003838D01*
X008770Y003825D02*
X008768Y003822D01*
X008768Y003413D01*
X009050Y003320D02*
X007131Y003320D01*
X007074Y003378D02*
X009107Y003378D01*
X009395Y003148D02*
X009652Y003148D01*
X009652Y003205D02*
X009452Y003205D01*
X009510Y003263D02*
X009617Y003263D01*
X009590Y003320D02*
X009567Y003320D01*
X009831Y003413D02*
X009831Y003472D01*
X009831Y003413D02*
X009831Y002874D01*
X009638Y002681D01*
X009652Y003032D02*
X009279Y003032D01*
X009307Y002975D02*
X009222Y002975D01*
X009191Y002907D02*
X008998Y002907D01*
X008998Y002711D01*
X008939Y002711D01*
X008939Y002907D01*
X008746Y002907D01*
X008735Y002903D01*
X008727Y002895D01*
X008722Y002884D01*
X008722Y002711D01*
X008939Y002711D01*
X008939Y002652D01*
X008722Y002652D01*
X008722Y002478D01*
X008727Y002468D01*
X008735Y002459D01*
X008746Y002455D01*
X008939Y002455D01*
X008939Y002652D01*
X008998Y002652D01*
X008998Y002711D01*
X009215Y002711D01*
X009215Y002884D01*
X009210Y002895D01*
X009202Y002903D01*
X009191Y002907D01*
X009215Y002860D02*
X009272Y002860D01*
X009272Y002917D02*
X005025Y002917D01*
X005025Y002902D02*
X005025Y002986D01*
X005021Y002997D01*
X005012Y003005D01*
X005002Y003010D01*
X004887Y003010D01*
X004887Y002902D01*
X004848Y002902D01*
X004848Y003010D01*
X004734Y003010D01*
X004723Y003005D01*
X004715Y002997D01*
X004710Y002986D01*
X004710Y002902D01*
X004848Y002902D01*
X004848Y002862D01*
X004887Y002862D01*
X004887Y002754D01*
X005002Y002754D01*
X005012Y002758D01*
X005021Y002767D01*
X005025Y002778D01*
X005025Y002862D01*
X004887Y002862D01*
X004887Y002902D01*
X005025Y002902D01*
X005025Y002860D02*
X008722Y002860D01*
X008722Y002802D02*
X005025Y002802D01*
X005002Y002695D02*
X004887Y002695D01*
X004887Y002587D01*
X004848Y002587D01*
X004848Y002695D01*
X004734Y002695D01*
X004723Y002690D01*
X004715Y002682D01*
X004710Y002671D01*
X004710Y002587D01*
X004848Y002587D01*
X004848Y002547D01*
X004887Y002547D01*
X004887Y002439D01*
X005002Y002439D01*
X005012Y002443D01*
X005021Y002452D01*
X005025Y002463D01*
X005025Y002547D01*
X004887Y002547D01*
X004887Y002587D01*
X005025Y002587D01*
X005025Y002671D01*
X005021Y002682D01*
X005012Y002690D01*
X005002Y002695D01*
X005016Y002687D02*
X008939Y002687D01*
X008945Y002705D02*
X006327Y002705D01*
X006327Y001839D01*
X006599Y002054D02*
X006043Y002054D01*
X005964Y002112D02*
X006633Y002112D01*
X006709Y002169D02*
X005025Y002169D01*
X005025Y002227D02*
X009149Y002227D01*
X009140Y002169D02*
X007086Y002169D01*
X007151Y002132D02*
X007151Y002132D01*
X007151Y002132D01*
X007163Y002112D02*
X007595Y002112D01*
X007516Y002054D02*
X007196Y002054D01*
X007705Y001878D02*
X007724Y001858D01*
X007724Y001051D01*
X008197Y001051D02*
X008197Y001780D01*
X008217Y001799D01*
X008275Y002054D02*
X008973Y002054D01*
X009052Y002112D02*
X007814Y002112D01*
X007893Y002054D02*
X008158Y002054D01*
X008650Y001720D02*
X008669Y001701D01*
X008669Y001051D01*
X009142Y001051D02*
X009142Y001858D01*
X009161Y001878D01*
X009594Y001878D02*
X009594Y001071D01*
X009614Y001051D01*
X010559Y001051D02*
X010559Y001543D01*
X010224Y001878D01*
X010106Y001878D01*
X010343Y002075D02*
X010343Y004562D01*
X010863Y005083D01*
X011472Y005083D01*
X011472Y005240D02*
X010843Y005240D01*
X010598Y004996D01*
X009996Y004996D01*
X009831Y004831D01*
X009831Y004398D01*
X009732Y004299D01*
X009283Y004299D01*
X009073Y004068D02*
X008320Y004068D01*
X008320Y004011D02*
X008524Y004011D01*
X008524Y004028D02*
X008524Y003854D01*
X008741Y003854D01*
X008741Y004051D01*
X008548Y004051D01*
X008537Y004047D01*
X008529Y004038D01*
X008524Y004028D01*
X008524Y003953D02*
X008320Y003953D01*
X008320Y003896D02*
X008524Y003896D01*
X008524Y003795D02*
X008524Y003622D01*
X008529Y003611D01*
X008537Y003603D01*
X008548Y003598D01*
X008741Y003598D01*
X008741Y003795D01*
X008524Y003795D01*
X008524Y003781D02*
X008320Y003781D01*
X008320Y003838D02*
X008741Y003838D01*
X008741Y003781D02*
X008800Y003781D01*
X008800Y003723D02*
X008741Y003723D01*
X008741Y003666D02*
X008800Y003666D01*
X008800Y003608D02*
X008741Y003608D01*
X008532Y003608D02*
X008320Y003608D01*
X008320Y003666D02*
X008524Y003666D01*
X008524Y003723D02*
X008320Y003723D01*
X008741Y003896D02*
X008800Y003896D01*
X008800Y003953D02*
X008741Y003953D01*
X008741Y004011D02*
X008800Y004011D01*
X008666Y004126D02*
X008278Y004126D01*
X008102Y004184D02*
X008608Y004184D01*
X008551Y004241D02*
X008102Y004241D01*
X008063Y004299D02*
X008493Y004299D01*
X008436Y004356D02*
X008228Y004356D01*
X008285Y004414D02*
X008378Y004414D01*
X008321Y004471D02*
X008308Y004471D01*
X009016Y004011D02*
X009073Y004011D01*
X009073Y003953D02*
X009016Y003953D01*
X009016Y003896D02*
X009073Y003896D01*
X009337Y003090D02*
X009652Y003090D01*
X009272Y002802D02*
X009215Y002802D01*
X009215Y002745D02*
X009272Y002745D01*
X009272Y002687D02*
X008998Y002687D01*
X008969Y002681D02*
X008945Y002705D01*
X008939Y002745D02*
X008998Y002745D01*
X008998Y002802D02*
X008939Y002802D01*
X008939Y002860D02*
X008998Y002860D01*
X008998Y002652D02*
X009215Y002652D01*
X009215Y002478D01*
X009210Y002468D01*
X009202Y002459D01*
X009191Y002455D01*
X008998Y002455D01*
X008998Y002652D01*
X008998Y002630D02*
X008939Y002630D01*
X008939Y002572D02*
X008998Y002572D01*
X008998Y002514D02*
X008939Y002514D01*
X008939Y002457D02*
X008998Y002457D01*
X009196Y002457D02*
X009272Y002457D01*
X009272Y002514D02*
X009215Y002514D01*
X009215Y002572D02*
X009272Y002572D01*
X009272Y002630D02*
X009215Y002630D01*
X009295Y002399D02*
X004653Y002399D01*
X004653Y002342D02*
X004710Y002342D01*
X004710Y002284D02*
X004653Y002284D01*
X004653Y002227D02*
X004710Y002227D01*
X004710Y002169D02*
X004653Y002169D01*
X004653Y002112D02*
X004760Y002112D01*
X004682Y002054D02*
X004615Y002054D01*
X004437Y001839D02*
X004437Y001071D01*
X004417Y001051D01*
X004890Y001051D02*
X004890Y001858D01*
X004870Y001878D01*
X005059Y002054D02*
X005193Y002054D01*
X005272Y002112D02*
X004980Y002112D01*
X005025Y002272D02*
X004887Y002272D01*
X004887Y002380D01*
X005002Y002380D01*
X005012Y002375D01*
X005021Y002367D01*
X005025Y002356D01*
X005025Y002272D01*
X005025Y002284D02*
X009173Y002284D01*
X009221Y002342D02*
X005025Y002342D01*
X005023Y002457D02*
X008741Y002457D01*
X008722Y002514D02*
X005025Y002514D01*
X005025Y002630D02*
X008722Y002630D01*
X008722Y002572D02*
X004887Y002572D01*
X004868Y002567D02*
X004868Y002252D01*
X004848Y002284D02*
X004887Y002284D01*
X004887Y002342D02*
X004848Y002342D01*
X004848Y002439D02*
X004848Y002547D01*
X004710Y002547D01*
X004710Y002463D01*
X004715Y002452D01*
X004723Y002443D01*
X004734Y002439D01*
X004848Y002439D01*
X004848Y002457D02*
X004887Y002457D01*
X004887Y002514D02*
X004848Y002514D01*
X004848Y002572D02*
X004653Y002572D01*
X004653Y002630D02*
X004710Y002630D01*
X004720Y002687D02*
X004653Y002687D01*
X004653Y002745D02*
X008722Y002745D01*
X010343Y002075D02*
X010795Y001622D01*
X010795Y001051D01*
X011031Y001051D02*
X011031Y001583D01*
X010500Y002114D01*
X010500Y004526D01*
X010899Y004925D01*
X011472Y004925D01*
X011472Y004768D02*
X010949Y004768D01*
X010657Y004476D01*
X010657Y002193D01*
X011248Y001602D01*
X011248Y001071D01*
X011268Y001051D01*
X011484Y001071D02*
X011484Y001563D01*
X010776Y002272D01*
X010776Y004358D01*
X011028Y004610D01*
X011472Y004610D01*
X011472Y004453D02*
X011067Y004453D01*
X010933Y004319D01*
X010933Y002390D01*
X011720Y001602D01*
X011720Y001071D01*
X011740Y001051D01*
X011957Y001071D02*
X011957Y001681D01*
X011091Y002547D01*
X011091Y003886D01*
X011472Y004268D01*
X011472Y004295D01*
X011564Y004106D02*
X011830Y004106D01*
X011917Y004194D01*
X011917Y005814D01*
X011861Y005870D01*
X011917Y005926D01*
X011917Y006321D01*
X012165Y006321D01*
X012306Y006463D01*
X012362Y006463D01*
X012447Y006498D01*
X012447Y005190D01*
X012552Y005085D01*
X013260Y004376D01*
X014481Y004376D01*
X014581Y004276D01*
X014581Y004130D01*
X011981Y004130D01*
X011894Y004042D01*
X011894Y003868D01*
X011741Y003868D01*
X011697Y003911D01*
X011602Y003951D01*
X011500Y003951D01*
X011405Y003911D01*
X011333Y003839D01*
X011293Y003744D01*
X011293Y003642D01*
X011333Y003547D01*
X011405Y003474D01*
X011500Y003435D01*
X011602Y003435D01*
X011697Y003474D01*
X011725Y003502D01*
X011894Y003502D01*
X011894Y003374D01*
X011850Y003356D01*
X011811Y003317D01*
X011686Y003317D01*
X011581Y003212D01*
X011270Y002901D01*
X011270Y003812D01*
X011547Y004089D01*
X011564Y004106D01*
X011526Y004068D02*
X011920Y004068D01*
X011894Y004011D02*
X011469Y004011D01*
X011411Y003953D02*
X011894Y003953D01*
X011894Y003896D02*
X011713Y003896D01*
X011389Y003896D02*
X011354Y003896D01*
X011332Y003838D02*
X011296Y003838D01*
X011308Y003781D02*
X011270Y003781D01*
X011270Y003723D02*
X011293Y003723D01*
X011293Y003666D02*
X011270Y003666D01*
X011270Y003608D02*
X011307Y003608D01*
X011331Y003550D02*
X011270Y003550D01*
X011270Y003493D02*
X011387Y003493D01*
X011499Y003435D02*
X011270Y003435D01*
X011270Y003378D02*
X011894Y003378D01*
X011894Y003435D02*
X011603Y003435D01*
X011716Y003493D02*
X011894Y003493D01*
X011814Y003320D02*
X011270Y003320D01*
X011270Y003263D02*
X011631Y003263D01*
X011574Y003205D02*
X011270Y003205D01*
X011270Y003148D02*
X011516Y003148D01*
X011459Y003090D02*
X011270Y003090D01*
X011270Y003032D02*
X011401Y003032D01*
X011344Y002975D02*
X011270Y002975D01*
X011270Y002917D02*
X011286Y002917D01*
X011327Y002705D02*
X011760Y003138D01*
X011996Y003138D01*
X012240Y003138D01*
X012240Y003685D01*
X012390Y003677D02*
X012390Y003059D01*
X012193Y002862D01*
X011917Y002862D01*
X011760Y002862D01*
X011563Y002665D01*
X011563Y002587D01*
X012429Y001720D01*
X012429Y001071D01*
X012449Y001051D01*
X012240Y001079D02*
X012193Y001126D01*
X012193Y001720D01*
X011327Y002587D01*
X011327Y002705D01*
X011996Y002587D02*
X011996Y002508D01*
X012665Y001839D01*
X012665Y001071D01*
X012685Y001051D01*
X012902Y001071D02*
X012921Y001051D01*
X012902Y001071D02*
X012902Y001878D01*
X012429Y002350D01*
X012429Y002547D01*
X012713Y002831D01*
X012713Y003685D01*
X012870Y003685D02*
X012870Y002752D01*
X012665Y002547D01*
X012665Y002390D01*
X013157Y001898D01*
X013157Y001051D01*
X013394Y001051D02*
X013394Y001937D01*
X012941Y002390D01*
X012941Y002469D01*
X013020Y002547D01*
X013020Y003677D01*
X013028Y003685D01*
X013185Y003685D02*
X013185Y002343D01*
X013630Y001898D01*
X013630Y001051D01*
X013866Y001051D02*
X013866Y001858D01*
X013343Y002382D01*
X013343Y003685D01*
X013500Y003685D02*
X013500Y002421D01*
X014102Y001819D01*
X014102Y001051D01*
X014339Y001051D02*
X014339Y001780D01*
X013657Y002461D01*
X013657Y003685D01*
X013650Y003677D01*
X013815Y003685D02*
X013815Y002539D01*
X014575Y001780D01*
X014575Y001051D01*
X014811Y001051D02*
X014811Y001780D01*
X013965Y002626D01*
X013965Y003677D01*
X013972Y003685D01*
X014122Y003677D02*
X014130Y003685D01*
X014130Y002678D01*
X015043Y001765D01*
X015043Y001686D01*
X015047Y001682D01*
X015047Y001051D01*
X015283Y001051D02*
X015283Y001827D01*
X015219Y001892D01*
X015134Y001892D01*
X014287Y002738D01*
X014287Y003685D01*
X014437Y003677D02*
X014437Y002827D01*
X015212Y002052D01*
X015260Y002052D01*
X015520Y001792D01*
X015520Y001051D01*
X015697Y001110D02*
X015756Y001051D01*
X015697Y001110D02*
X015697Y001839D01*
X014602Y002933D01*
X014602Y003685D01*
X014752Y003677D02*
X014752Y003374D01*
X014909Y003295D02*
X014752Y003138D01*
X014752Y002980D01*
X015992Y001740D01*
X015992Y001051D01*
X016228Y001051D02*
X016228Y001701D01*
X014909Y003020D01*
X014909Y003118D01*
X015068Y003277D01*
X015068Y003678D01*
X015075Y003685D01*
X015067Y003677D01*
X014917Y003685D02*
X014909Y003677D01*
X014909Y003295D01*
X015185Y003059D02*
X015224Y003098D01*
X015224Y003677D01*
X015232Y003685D01*
X015382Y003677D02*
X015382Y002823D01*
X016465Y001740D01*
X016465Y001051D01*
X016701Y001051D02*
X016701Y001701D01*
X015539Y002862D01*
X015539Y003677D01*
X015547Y003685D01*
X015390Y003685D02*
X015382Y003677D01*
X015705Y003685D02*
X015705Y002894D01*
X016937Y001661D01*
X016937Y001051D01*
X017173Y001051D02*
X017173Y001622D01*
X015854Y002941D01*
X015854Y003677D01*
X015862Y003685D01*
X016012Y003677D02*
X016012Y003020D01*
X017409Y001622D01*
X017409Y001051D01*
X017646Y001051D02*
X017646Y001583D01*
X016169Y003059D01*
X016169Y003677D01*
X016177Y003685D01*
X016020Y003685D02*
X016012Y003677D01*
X016484Y003677D02*
X016484Y003256D01*
X016366Y003138D01*
X016366Y003098D01*
X017882Y001583D01*
X017882Y001051D01*
X018098Y001071D02*
X018098Y001878D01*
X017902Y002075D01*
X017902Y002154D01*
X017804Y002392D02*
X017756Y002372D01*
X017683Y002300D01*
X017644Y002205D01*
X017644Y002102D01*
X017664Y002054D01*
X016600Y003118D01*
X016663Y003182D01*
X016663Y003217D01*
X016733Y003148D01*
X016922Y002959D01*
X017237Y002959D01*
X017264Y002932D01*
X017244Y002923D01*
X017171Y002851D01*
X017132Y002756D01*
X017132Y002653D01*
X017171Y002559D01*
X017244Y002486D01*
X017338Y002447D01*
X017441Y002447D01*
X017536Y002486D01*
X017608Y002559D01*
X017617Y002579D01*
X017804Y002392D01*
X017796Y002399D02*
X017318Y002399D01*
X017314Y002457D02*
X017261Y002457D01*
X017215Y002514D02*
X017203Y002514D01*
X017166Y002572D02*
X017146Y002572D01*
X017142Y002630D02*
X017088Y002630D01*
X017132Y002687D02*
X017031Y002687D01*
X016973Y002745D02*
X017132Y002745D01*
X017151Y002802D02*
X016916Y002802D01*
X016858Y002860D02*
X017180Y002860D01*
X017238Y002917D02*
X016800Y002917D01*
X016743Y002975D02*
X016906Y002975D01*
X016848Y003032D02*
X016685Y003032D01*
X016642Y003059D02*
X017390Y002311D01*
X017508Y002311D01*
X017434Y002284D02*
X017677Y002284D01*
X017653Y002227D02*
X017491Y002227D01*
X017549Y002169D02*
X017644Y002169D01*
X017644Y002112D02*
X017606Y002112D01*
X017725Y002342D02*
X017376Y002342D01*
X017465Y002457D02*
X017739Y002457D01*
X017681Y002514D02*
X017564Y002514D01*
X017614Y002572D02*
X017624Y002572D01*
X017587Y003059D02*
X017587Y003063D01*
X016965Y003685D01*
X016807Y003685D02*
X016807Y003327D01*
X016996Y003138D01*
X017311Y003138D01*
X018335Y002114D01*
X018335Y001071D01*
X018354Y001051D01*
X018571Y001071D02*
X018571Y002075D01*
X017587Y003059D01*
X017575Y003346D02*
X017575Y004295D01*
X017575Y004453D02*
X018043Y004453D01*
X018138Y004358D01*
X018138Y003118D01*
X019063Y002193D01*
X019063Y001051D01*
X019299Y001051D02*
X019299Y003039D01*
X019988Y003728D01*
X021839Y003728D01*
X023413Y005303D01*
X023413Y008768D01*
X020972Y011209D01*
X019476Y011209D01*
X019201Y010933D01*
X018965Y010933D01*
X018768Y010736D01*
X017823Y010736D01*
X017547Y011012D01*
X017272Y011012D01*
X016799Y010539D01*
X014752Y010539D01*
X014445Y010232D01*
X014445Y009787D01*
X014287Y009787D02*
X014287Y010272D01*
X014752Y010736D01*
X015264Y010736D01*
X015618Y011091D01*
X016012Y011091D01*
X016327Y010776D01*
X016642Y010776D01*
X017035Y011169D01*
X017665Y011169D01*
X017941Y010894D01*
X018689Y010894D01*
X018925Y011130D01*
X019043Y011130D01*
X019358Y011445D01*
X021209Y011445D01*
X023650Y009004D01*
X023650Y004949D01*
X022154Y003453D01*
X021861Y004004D02*
X021861Y004264D01*
X022305Y004708D01*
X022305Y004753D01*
X022325Y004753D01*
X022412Y004841D01*
X022412Y005279D01*
X022325Y005367D01*
X021886Y005367D01*
X021810Y005291D01*
X021734Y005367D01*
X021401Y005367D01*
X021467Y005433D01*
X021506Y005527D01*
X021506Y005630D01*
X021467Y005725D01*
X021394Y005797D01*
X021299Y005837D01*
X021197Y005837D01*
X021102Y005797D01*
X021029Y005725D01*
X020990Y005630D01*
X020990Y005574D01*
X020726Y005310D01*
X020051Y005310D01*
X020051Y005389D01*
X019964Y005476D01*
X019446Y005476D01*
X019358Y005389D01*
X019358Y004832D01*
X019446Y004744D01*
X019964Y004744D01*
X020051Y004832D01*
X020051Y004911D01*
X021208Y004911D01*
X021208Y004841D01*
X021295Y004753D01*
X021734Y004753D01*
X021810Y004829D01*
X021836Y004803D01*
X021599Y004566D01*
X021256Y004566D01*
X021168Y004478D01*
X021168Y003922D01*
X021182Y003907D01*
X019914Y003907D01*
X019809Y003803D01*
X019225Y003218D01*
X019120Y003114D01*
X019120Y002389D01*
X018317Y003192D01*
X018317Y004432D01*
X018212Y004537D01*
X018117Y004632D01*
X017985Y004632D01*
X018020Y004666D01*
X018020Y004904D01*
X018560Y004904D01*
X018746Y004717D01*
X018746Y004661D01*
X018785Y004567D01*
X018858Y004494D01*
X018953Y004455D01*
X019055Y004455D01*
X019150Y004494D01*
X019222Y004567D01*
X019262Y004661D01*
X019262Y004764D01*
X019222Y004859D01*
X019150Y004931D01*
X019112Y004947D01*
X019112Y006047D01*
X019007Y006151D01*
X018907Y006252D01*
X018907Y006253D01*
X018907Y006716D01*
X020387Y006716D01*
X020377Y006726D02*
X020581Y006523D01*
X020665Y006438D01*
X020665Y006320D01*
X020753Y006232D01*
X021271Y006232D01*
X021358Y006320D01*
X021358Y006419D01*
X021370Y006419D01*
X021370Y006320D01*
X021458Y006232D01*
X021975Y006232D01*
X022061Y006318D01*
X022147Y006232D01*
X022664Y006232D01*
X022752Y006320D01*
X022752Y006369D01*
X022844Y006331D01*
X022951Y006331D01*
X023049Y006372D01*
X023125Y006447D01*
X023165Y006545D01*
X023165Y006652D01*
X023125Y006750D01*
X023049Y006825D01*
X022951Y006866D01*
X022844Y006866D01*
X022752Y006828D01*
X022752Y006877D01*
X022664Y006964D01*
X022147Y006964D01*
X022061Y006879D01*
X021975Y006964D01*
X021458Y006964D01*
X021370Y006877D01*
X021370Y006777D01*
X021358Y006777D01*
X021358Y006877D01*
X021271Y006964D01*
X020753Y006964D01*
X020705Y006916D01*
X020636Y006985D01*
X020636Y007036D01*
X020596Y007130D01*
X020524Y007203D01*
X020429Y007242D01*
X020327Y007242D01*
X020232Y007203D01*
X020159Y007130D01*
X020120Y007036D01*
X020120Y006933D01*
X020159Y006838D01*
X020232Y006766D01*
X020327Y006726D01*
X020377Y006726D01*
X020445Y006658D02*
X018907Y006658D01*
X018907Y006601D02*
X020503Y006601D01*
X020560Y006543D02*
X018907Y006543D01*
X018907Y006486D02*
X020618Y006486D01*
X020665Y006428D02*
X018907Y006428D01*
X018907Y006371D02*
X020665Y006371D01*
X020672Y006313D02*
X018907Y006313D01*
X018907Y006256D02*
X020730Y006256D01*
X021012Y006598D02*
X021717Y006598D01*
X022406Y006598D01*
X022752Y006831D02*
X022760Y006831D01*
X022740Y006889D02*
X023234Y006889D01*
X023234Y006946D02*
X022683Y006946D01*
X022619Y007026D02*
X022627Y007034D01*
X022632Y007045D01*
X022632Y007238D01*
X022435Y007238D01*
X022435Y007022D01*
X022608Y007022D01*
X022619Y007026D01*
X022632Y007061D02*
X023234Y007061D01*
X023234Y007004D02*
X020636Y007004D01*
X020625Y007061D02*
X020785Y007061D01*
X020785Y007045D02*
X020790Y007034D01*
X020798Y007026D01*
X020809Y007022D01*
X020982Y007022D01*
X020982Y007238D01*
X020785Y007238D01*
X020785Y007045D01*
X020785Y007119D02*
X020601Y007119D01*
X020550Y007176D02*
X020785Y007176D01*
X020785Y007234D02*
X020449Y007234D01*
X020307Y007234D02*
X018446Y007234D01*
X018455Y007238D02*
X018530Y007313D01*
X018571Y007411D01*
X018571Y007518D01*
X018530Y007616D01*
X018455Y007691D01*
X018442Y007697D01*
X018448Y007713D01*
X018506Y007689D01*
X018612Y007689D01*
X018711Y007730D01*
X018786Y007805D01*
X018827Y007903D01*
X018827Y008010D01*
X018788Y008103D01*
X018845Y008159D01*
X018878Y008240D01*
X019117Y008240D01*
X019155Y008202D01*
X019254Y008161D01*
X019360Y008161D01*
X019459Y008202D01*
X019534Y008278D01*
X019575Y008376D01*
X019575Y008482D01*
X019534Y008581D01*
X019459Y008656D01*
X019414Y008675D01*
X019437Y008730D01*
X019437Y008837D01*
X019396Y008935D01*
X019321Y009010D01*
X019240Y009044D01*
X019240Y009045D01*
X019240Y009152D01*
X019216Y009210D01*
X019640Y009635D01*
X020006Y009635D01*
X020094Y009722D01*
X020094Y010240D01*
X020018Y010316D01*
X020094Y010392D01*
X020094Y010507D01*
X020313Y010507D01*
X021345Y009475D01*
X021345Y009425D01*
X021384Y009330D01*
X021456Y009258D01*
X021551Y009219D01*
X021654Y009219D01*
X021748Y009258D01*
X021821Y009330D01*
X021860Y009425D01*
X021860Y009528D01*
X021821Y009622D01*
X021748Y009695D01*
X021654Y009734D01*
X021603Y009734D01*
X020465Y010873D01*
X020094Y010873D01*
X020094Y010909D01*
X020006Y010997D01*
X019518Y010997D01*
X019551Y011030D01*
X020898Y011030D01*
X023234Y008694D01*
X023234Y008548D01*
X023219Y008563D01*
X022387Y008563D01*
X022299Y008475D01*
X022299Y007800D01*
X022387Y007713D01*
X023219Y007713D01*
X023234Y007728D01*
X023234Y005377D01*
X021861Y004004D01*
X021861Y004011D02*
X021868Y004011D01*
X021861Y004068D02*
X021925Y004068D01*
X021983Y004126D02*
X021861Y004126D01*
X021861Y004184D02*
X022041Y004184D01*
X022098Y004241D02*
X021861Y004241D01*
X021895Y004299D02*
X022156Y004299D01*
X022213Y004356D02*
X021953Y004356D01*
X022011Y004414D02*
X022271Y004414D01*
X022328Y004471D02*
X022068Y004471D01*
X022126Y004529D02*
X022386Y004529D01*
X022443Y004586D02*
X022183Y004586D01*
X022241Y004644D02*
X022501Y004644D01*
X022559Y004702D02*
X022298Y004702D01*
X022331Y004759D02*
X022616Y004759D01*
X022674Y004817D02*
X022388Y004817D01*
X022412Y004874D02*
X022731Y004874D01*
X022789Y004932D02*
X022412Y004932D01*
X022412Y004989D02*
X022846Y004989D01*
X022904Y005047D02*
X022412Y005047D01*
X022412Y005104D02*
X022961Y005104D01*
X023019Y005162D02*
X022412Y005162D01*
X022412Y005220D02*
X023077Y005220D01*
X023134Y005277D02*
X022412Y005277D01*
X022357Y005335D02*
X023192Y005335D01*
X023234Y005392D02*
X021426Y005392D01*
X021474Y005450D02*
X023234Y005450D01*
X023234Y005507D02*
X021497Y005507D01*
X021506Y005565D02*
X023234Y005565D01*
X023234Y005622D02*
X021506Y005622D01*
X021485Y005680D02*
X023234Y005680D01*
X023234Y005738D02*
X021454Y005738D01*
X021396Y005795D02*
X023234Y005795D01*
X023234Y005853D02*
X019931Y005853D01*
X019931Y005809D02*
X019931Y006002D01*
X019927Y006013D01*
X019918Y006021D01*
X019907Y006026D01*
X019734Y006026D01*
X019734Y005809D01*
X019675Y005809D01*
X019675Y005750D01*
X019478Y005750D01*
X019478Y005557D01*
X019483Y005546D01*
X019491Y005538D01*
X019502Y005533D01*
X019675Y005533D01*
X019675Y005750D01*
X019734Y005750D01*
X019734Y005533D01*
X019907Y005533D01*
X019918Y005538D01*
X019927Y005546D01*
X019931Y005557D01*
X019931Y005750D01*
X019734Y005750D01*
X019734Y005809D01*
X019931Y005809D01*
X019931Y005738D02*
X021042Y005738D01*
X021011Y005680D02*
X019931Y005680D01*
X019931Y005622D02*
X020990Y005622D01*
X020981Y005565D02*
X019931Y005565D01*
X019990Y005450D02*
X020866Y005450D01*
X020923Y005507D02*
X019112Y005507D01*
X019112Y005450D02*
X019419Y005450D01*
X019362Y005392D02*
X019112Y005392D01*
X019112Y005335D02*
X019358Y005335D01*
X019358Y005277D02*
X019112Y005277D01*
X019112Y005220D02*
X019358Y005220D01*
X019358Y005162D02*
X019112Y005162D01*
X019112Y005104D02*
X019358Y005104D01*
X019358Y005047D02*
X019112Y005047D01*
X019112Y004989D02*
X019358Y004989D01*
X019358Y004932D02*
X019148Y004932D01*
X019207Y004874D02*
X019358Y004874D01*
X019373Y004817D02*
X019240Y004817D01*
X019262Y004759D02*
X019431Y004759D01*
X019262Y004702D02*
X021734Y004702D01*
X021740Y004759D02*
X021792Y004759D01*
X021798Y004817D02*
X021822Y004817D01*
X021676Y004644D02*
X019255Y004644D01*
X019231Y004586D02*
X021619Y004586D01*
X021289Y004759D02*
X019978Y004759D01*
X020036Y004817D02*
X021232Y004817D01*
X021208Y004874D02*
X020051Y004874D01*
X019705Y005110D02*
X020780Y005110D01*
X021248Y005579D01*
X021100Y005795D02*
X019734Y005795D01*
X019705Y005780D02*
X019705Y007146D01*
X020224Y007665D01*
X020785Y007490D02*
X020785Y007297D01*
X020982Y007297D01*
X020982Y007238D01*
X021041Y007238D01*
X021041Y007022D01*
X021215Y007022D01*
X021225Y007026D01*
X021234Y007034D01*
X021238Y007045D01*
X021238Y007238D01*
X021041Y007238D01*
X021041Y007297D01*
X020982Y007297D01*
X020982Y007514D01*
X020809Y007514D01*
X020798Y007509D01*
X020790Y007501D01*
X020785Y007490D01*
X020785Y007464D02*
X018571Y007464D01*
X018569Y007407D02*
X020785Y007407D01*
X020785Y007349D02*
X018545Y007349D01*
X018509Y007292D02*
X020982Y007292D01*
X021012Y007268D02*
X021717Y007268D01*
X022406Y007268D01*
X022435Y007292D02*
X023234Y007292D01*
X023234Y007349D02*
X022632Y007349D01*
X022632Y007297D02*
X022435Y007297D01*
X022435Y007238D01*
X022376Y007238D01*
X022376Y007022D01*
X022203Y007022D01*
X022192Y007026D01*
X022184Y007034D01*
X022179Y007045D01*
X022179Y007238D01*
X022376Y007238D01*
X022376Y007297D01*
X022179Y007297D01*
X022179Y007490D01*
X022184Y007501D01*
X022192Y007509D01*
X022203Y007514D01*
X022376Y007514D01*
X022376Y007297D01*
X022435Y007297D01*
X022435Y007514D01*
X022608Y007514D01*
X022619Y007509D01*
X022627Y007501D01*
X022632Y007490D01*
X022632Y007297D01*
X022632Y007234D02*
X023234Y007234D01*
X023234Y007176D02*
X022632Y007176D01*
X022632Y007119D02*
X023234Y007119D01*
X023234Y007407D02*
X022632Y007407D01*
X022632Y007464D02*
X023234Y007464D01*
X023234Y007522D02*
X018569Y007522D01*
X018545Y007579D02*
X023234Y007579D01*
X023234Y007637D02*
X018509Y007637D01*
X018493Y007694D02*
X018448Y007694D01*
X018625Y007694D02*
X023234Y007694D01*
X024039Y007694D02*
X025431Y007694D01*
X025431Y007713D02*
X025431Y005058D01*
X024764Y004391D01*
X024764Y004525D01*
X024696Y004689D01*
X024571Y004814D01*
X024407Y004882D01*
X024230Y004882D01*
X024067Y004814D01*
X024039Y004786D01*
X024039Y006844D01*
X024067Y006816D01*
X024230Y006748D01*
X024407Y006748D01*
X024571Y006816D01*
X024696Y006941D01*
X024764Y007104D01*
X024764Y007281D01*
X024696Y007445D01*
X024571Y007570D01*
X024407Y007638D01*
X024230Y007638D01*
X024067Y007570D01*
X024039Y007542D01*
X024039Y009468D01*
X024028Y009480D01*
X024028Y009533D01*
X023987Y009632D01*
X023912Y009707D01*
X023813Y009748D01*
X023707Y009748D01*
X023608Y009707D01*
X023533Y009632D01*
X023492Y009533D01*
X023492Y009427D01*
X023501Y009406D01*
X021572Y011335D01*
X021577Y011335D01*
X022723Y010190D01*
X022827Y010085D01*
X024744Y010085D01*
X024744Y009999D01*
X024782Y009960D01*
X024782Y009907D01*
X024823Y009808D01*
X024898Y009733D01*
X024997Y009692D01*
X025103Y009692D01*
X025202Y009733D01*
X025277Y009808D01*
X025318Y009907D01*
X025318Y010013D01*
X025277Y010112D01*
X025431Y010112D01*
X025431Y010169D02*
X025219Y010169D01*
X025202Y010187D02*
X025122Y010220D01*
X025122Y010405D01*
X025112Y010415D01*
X025112Y011748D01*
X025188Y011748D01*
X025155Y011715D01*
X025114Y011616D01*
X025114Y011510D01*
X025155Y011411D01*
X025230Y011336D01*
X025329Y011295D01*
X025435Y011295D01*
X025533Y011336D01*
X025609Y011411D01*
X025650Y011510D01*
X025650Y011616D01*
X025609Y011715D01*
X025575Y011748D01*
X025585Y011748D01*
X025673Y011836D01*
X025673Y012028D01*
X025711Y011990D01*
X025711Y011448D01*
X025431Y011168D01*
X025431Y008563D01*
X024631Y008563D01*
X024543Y008475D01*
X024543Y007800D01*
X024631Y007713D01*
X025431Y007713D01*
X025431Y007637D02*
X024409Y007637D01*
X024548Y007579D02*
X025431Y007579D01*
X025431Y007522D02*
X024619Y007522D01*
X024677Y007464D02*
X025431Y007464D01*
X025431Y007407D02*
X024712Y007407D01*
X024736Y007349D02*
X025431Y007349D01*
X025431Y007292D02*
X024759Y007292D01*
X024764Y007234D02*
X025431Y007234D01*
X025431Y007176D02*
X024764Y007176D01*
X024764Y007119D02*
X025431Y007119D01*
X025431Y007061D02*
X024746Y007061D01*
X024722Y007004D02*
X025431Y007004D01*
X025431Y006946D02*
X024698Y006946D01*
X024644Y006889D02*
X025431Y006889D01*
X025431Y006831D02*
X024586Y006831D01*
X024469Y006774D02*
X025431Y006774D01*
X025431Y006716D02*
X024039Y006716D01*
X024039Y006774D02*
X024169Y006774D01*
X024052Y006831D02*
X024039Y006831D01*
X024039Y006658D02*
X025431Y006658D01*
X025431Y006601D02*
X024039Y006601D01*
X024039Y006543D02*
X025431Y006543D01*
X025431Y006486D02*
X024039Y006486D01*
X024039Y006428D02*
X025431Y006428D01*
X025431Y006371D02*
X024039Y006371D01*
X024039Y006313D02*
X025431Y006313D01*
X025431Y006256D02*
X024039Y006256D01*
X024039Y006198D02*
X025431Y006198D01*
X025431Y006140D02*
X024039Y006140D01*
X024039Y006083D02*
X025431Y006083D01*
X025431Y006025D02*
X024039Y006025D01*
X024039Y005968D02*
X025431Y005968D01*
X025431Y005910D02*
X024039Y005910D01*
X024039Y005853D02*
X025431Y005853D01*
X025431Y005795D02*
X024039Y005795D01*
X024039Y005738D02*
X025431Y005738D01*
X025431Y005680D02*
X024039Y005680D01*
X024039Y005622D02*
X025431Y005622D01*
X025431Y005565D02*
X024039Y005565D01*
X024039Y005507D02*
X025431Y005507D01*
X025431Y005450D02*
X024039Y005450D01*
X024039Y005392D02*
X025431Y005392D01*
X025431Y005335D02*
X024039Y005335D01*
X024039Y005277D02*
X025431Y005277D01*
X025431Y005220D02*
X024039Y005220D01*
X024039Y005162D02*
X025431Y005162D01*
X025431Y005104D02*
X024039Y005104D01*
X024039Y005047D02*
X025420Y005047D01*
X025362Y004989D02*
X024039Y004989D01*
X024039Y004932D02*
X025305Y004932D01*
X025247Y004874D02*
X024426Y004874D01*
X024565Y004817D02*
X025190Y004817D01*
X025132Y004759D02*
X024626Y004759D01*
X024683Y004702D02*
X025074Y004702D01*
X025017Y004644D02*
X024715Y004644D01*
X024738Y004586D02*
X024959Y004586D01*
X024902Y004529D02*
X024762Y004529D01*
X024764Y004471D02*
X024844Y004471D01*
X024787Y004414D02*
X024764Y004414D01*
X024212Y004874D02*
X024039Y004874D01*
X024039Y004817D02*
X024073Y004817D01*
X023875Y004347D02*
X023942Y004185D01*
X024067Y004060D01*
X024230Y003992D01*
X024365Y003992D01*
X023601Y003228D01*
X023601Y003072D01*
X023601Y002116D01*
X023508Y002209D01*
X023058Y002209D01*
X022989Y002278D01*
X022989Y003462D01*
X023875Y004347D01*
X023895Y004299D02*
X023826Y004299D01*
X023768Y004241D02*
X023919Y004241D01*
X023943Y004184D02*
X023711Y004184D01*
X023653Y004126D02*
X024001Y004126D01*
X024058Y004068D02*
X023596Y004068D01*
X023538Y004011D02*
X024185Y004011D01*
X024269Y003896D02*
X023423Y003896D01*
X023480Y003953D02*
X024326Y003953D01*
X024211Y003838D02*
X023365Y003838D01*
X023308Y003781D02*
X024154Y003781D01*
X024096Y003723D02*
X023250Y003723D01*
X023193Y003666D02*
X024038Y003666D01*
X023981Y003608D02*
X023135Y003608D01*
X023078Y003550D02*
X023923Y003550D01*
X023866Y003493D02*
X023020Y003493D01*
X022989Y003435D02*
X023808Y003435D01*
X023751Y003378D02*
X022989Y003378D01*
X022989Y003320D02*
X023693Y003320D01*
X023636Y003263D02*
X022989Y003263D01*
X022989Y003205D02*
X023601Y003205D01*
X023601Y003148D02*
X022989Y003148D01*
X022989Y003090D02*
X023601Y003090D01*
X023601Y003032D02*
X022989Y003032D01*
X022989Y002975D02*
X023601Y002975D01*
X023601Y002917D02*
X022989Y002917D01*
X022989Y002860D02*
X023601Y002860D01*
X023601Y002802D02*
X022989Y002802D01*
X022989Y002745D02*
X023601Y002745D01*
X023601Y002687D02*
X022989Y002687D01*
X022989Y002630D02*
X023601Y002630D01*
X023601Y002572D02*
X022989Y002572D01*
X022989Y002514D02*
X023601Y002514D01*
X023601Y002457D02*
X022989Y002457D01*
X022989Y002399D02*
X023601Y002399D01*
X023601Y002342D02*
X022989Y002342D01*
X022989Y002284D02*
X023601Y002284D01*
X023601Y002227D02*
X023040Y002227D01*
X023548Y002169D02*
X023601Y002169D01*
X025057Y002000D02*
X025158Y002101D01*
X025858Y002101D01*
X026364Y002607D01*
X026378Y002593D01*
X026477Y002552D01*
X026583Y002552D01*
X026682Y002593D01*
X026757Y002668D01*
X026798Y002767D01*
X026798Y002873D01*
X026757Y002972D01*
X026682Y003047D01*
X026583Y003088D01*
X026477Y003088D01*
X026378Y003047D01*
X026340Y003009D01*
X026232Y003009D01*
X026121Y002898D01*
X025702Y002479D01*
X025526Y002479D01*
X026198Y003151D01*
X026309Y003262D01*
X026309Y003992D01*
X026648Y004331D01*
X026759Y004442D01*
X026759Y006570D01*
X026797Y006608D01*
X026838Y006707D01*
X026838Y006813D01*
X026797Y006912D01*
X026722Y006987D01*
X026623Y007028D01*
X026517Y007028D01*
X026418Y006987D01*
X026343Y006912D01*
X026302Y006813D01*
X026302Y006725D01*
X026099Y006928D01*
X026099Y010732D01*
X026438Y011071D01*
X026549Y011182D01*
X026549Y012440D01*
X026587Y012478D01*
X026628Y012577D01*
X026628Y012683D01*
X026587Y012782D01*
X026512Y012857D01*
X026413Y012898D01*
X026307Y012898D01*
X026208Y012857D01*
X026133Y012782D01*
X026092Y012683D01*
X026092Y012577D01*
X026133Y012478D01*
X026171Y012440D01*
X026171Y011338D01*
X025809Y010976D01*
X025809Y011012D01*
X025978Y011181D01*
X026089Y011292D01*
X026089Y011990D01*
X026127Y012028D01*
X026168Y012127D01*
X026168Y012233D01*
X026127Y012332D01*
X026052Y012407D01*
X025953Y012448D01*
X025847Y012448D01*
X025748Y012407D01*
X025673Y012332D01*
X025673Y012332D01*
X025673Y012550D01*
X025585Y012638D01*
X024714Y012638D01*
X024670Y012594D01*
X024663Y012596D01*
X024529Y012596D01*
X024529Y012301D01*
X024470Y012301D01*
X024470Y012596D01*
X024337Y012596D01*
X024330Y012594D01*
X024286Y012638D01*
X024246Y012638D01*
X024246Y012647D01*
X024270Y012671D01*
X024311Y012770D01*
X024311Y012876D01*
X024270Y012974D01*
X024195Y013050D01*
X024097Y013090D01*
X023990Y013090D01*
X023892Y013050D01*
X023816Y012974D01*
X023776Y012876D01*
X023776Y012770D01*
X023798Y012716D01*
X023414Y012716D01*
X023336Y012638D01*
X023013Y012638D01*
X023051Y012730D01*
X023051Y012837D01*
X023010Y012935D01*
X022935Y013010D01*
X022837Y013051D01*
X022730Y013051D01*
X022632Y013010D01*
X022557Y012935D01*
X022533Y012879D01*
X022533Y013529D01*
X022258Y013804D01*
X022151Y013911D01*
X021448Y013911D01*
X020818Y013281D01*
X020300Y013281D01*
X020277Y013305D01*
X020470Y013305D01*
X020470Y013679D01*
X020195Y013679D01*
X020195Y013387D01*
X019592Y013990D01*
X017747Y013990D01*
X017640Y013883D01*
X017561Y013804D01*
X017561Y013799D01*
X017512Y013750D01*
X017408Y013645D01*
X017408Y013474D01*
X017311Y013474D01*
X017311Y013908D01*
X017223Y013996D01*
X016706Y013996D01*
X016618Y013908D01*
X016618Y013420D01*
X016203Y013005D01*
X016086Y012888D01*
X016086Y012777D01*
X016066Y012777D01*
X015990Y012701D01*
X015914Y012777D01*
X015670Y012777D01*
X015640Y012807D01*
X015640Y012835D01*
X015600Y012929D01*
X015528Y013002D01*
X015433Y013041D01*
X015331Y013041D01*
X015236Y013002D01*
X015163Y012929D01*
X015124Y012835D01*
X015124Y012779D01*
X014931Y012586D01*
X014931Y012992D01*
X014971Y013031D01*
X015010Y013126D01*
X015010Y013228D01*
X014971Y013323D01*
X014898Y013396D01*
X014803Y013435D01*
X014701Y013435D01*
X014606Y013396D01*
X014533Y013323D01*
X014498Y013238D01*
X014498Y013307D01*
X014537Y013346D01*
X014577Y013441D01*
X014577Y013543D01*
X014537Y013638D01*
X014465Y013711D01*
X014370Y013750D01*
X014268Y013750D01*
X014173Y013711D01*
X014100Y013638D01*
X014061Y013543D01*
X014061Y013441D01*
X014100Y013346D01*
X014140Y013307D01*
X014140Y012858D01*
X013277Y011995D01*
X013277Y012008D01*
X013238Y012103D01*
X013166Y012175D01*
X013071Y012214D01*
X012968Y012214D01*
X012874Y012175D01*
X012844Y012146D01*
X012844Y012237D01*
X012995Y012388D01*
X013100Y012493D01*
X013100Y012599D01*
X013180Y012599D01*
X013236Y012655D01*
X013292Y012599D01*
X013810Y012599D01*
X013898Y012686D01*
X013898Y013243D01*
X013810Y013331D01*
X013292Y013331D01*
X013236Y013274D01*
X013180Y013331D01*
X012662Y013331D01*
X012600Y013269D01*
X012550Y013319D01*
X012033Y013319D01*
X011945Y013231D01*
X011945Y012674D01*
X012033Y012587D01*
X012112Y012587D01*
X012112Y012496D01*
X012034Y012417D01*
X011984Y012297D01*
X011984Y012167D01*
X012034Y012047D01*
X012126Y011955D01*
X012235Y011910D01*
X012211Y011850D01*
X012211Y011748D01*
X012250Y011653D01*
X012309Y011594D01*
X012309Y011491D01*
X012022Y011779D01*
X011914Y011886D01*
X011858Y011886D01*
X011858Y011962D01*
X011811Y012009D01*
X011858Y012056D01*
X011858Y012574D01*
X011806Y012626D01*
X011858Y012678D01*
X011858Y013196D01*
X011776Y013278D01*
X011839Y013340D01*
X011839Y013897D01*
X011751Y013984D01*
X011233Y013984D01*
X011157Y013908D01*
X011082Y013984D01*
X010564Y013984D01*
X010476Y013897D01*
X010476Y013817D01*
X010455Y013817D01*
X010433Y013868D01*
X010325Y013977D01*
X010183Y014035D01*
X010030Y014035D01*
X009888Y013977D01*
X009830Y013919D01*
X004646Y013919D01*
X004611Y013954D01*
X003503Y013954D01*
X003416Y013867D01*
X003416Y013443D01*
X003503Y013355D01*
X004611Y013355D01*
X004636Y013380D01*
X009830Y013380D01*
X009888Y013323D01*
X010030Y013264D01*
X010183Y013264D01*
X010325Y013323D01*
X010422Y013419D01*
X010476Y013419D01*
X010476Y013340D01*
X010564Y013252D01*
X011082Y013252D01*
X011157Y013328D01*
X011208Y013278D01*
X011126Y013196D01*
X011126Y012678D01*
X011178Y012626D01*
X011126Y012574D01*
X011126Y012224D01*
X011069Y012224D01*
X011069Y012285D01*
X010852Y012285D01*
X010852Y012344D01*
X011069Y012344D01*
X011069Y012518D01*
X011064Y012529D01*
X011126Y012529D01*
X011126Y012472D02*
X011069Y012472D01*
X011064Y012529D02*
X011056Y012537D01*
X011045Y012541D01*
X010852Y012541D01*
X010852Y012344D01*
X010793Y012344D01*
X010793Y012285D01*
X010577Y012285D01*
X010577Y012112D01*
X010581Y012101D01*
X010590Y012093D01*
X010600Y012089D01*
X010744Y012089D01*
X010744Y011957D01*
X010772Y011929D01*
X010600Y011929D01*
X010590Y011925D01*
X010581Y011916D01*
X010577Y011905D01*
X010577Y011732D01*
X010793Y011732D01*
X010793Y011673D01*
X010577Y011673D01*
X010577Y011500D01*
X010581Y011489D01*
X010590Y011481D01*
X010600Y011476D01*
X010793Y011476D01*
X010793Y011673D01*
X010852Y011673D01*
X010852Y011476D01*
X011045Y011476D01*
X011056Y011481D01*
X011064Y011489D01*
X011069Y011500D01*
X011069Y011673D01*
X010852Y011673D01*
X010852Y011732D01*
X011069Y011732D01*
X011069Y011847D01*
X011126Y011847D01*
X011126Y011444D01*
X011177Y011393D01*
X011126Y011341D01*
X011126Y010824D01*
X011197Y010753D01*
X011126Y010682D01*
X011126Y010164D01*
X011214Y010077D01*
X011580Y010077D01*
X011894Y009763D01*
X011894Y009430D01*
X011904Y009420D01*
X011904Y009292D01*
X011830Y009366D01*
X011655Y009366D01*
X011655Y009631D01*
X011174Y010112D01*
X010430Y010112D01*
X008985Y011557D01*
X003558Y011557D01*
X003544Y011543D01*
X001525Y011543D01*
X001437Y011456D01*
X001437Y010151D01*
X001525Y010063D01*
X004601Y010063D01*
X004689Y010151D01*
X004689Y011191D01*
X005747Y011191D01*
X004131Y009575D01*
X001525Y009575D01*
X001437Y009487D01*
X001437Y008455D01*
X001394Y008699D01*
X001394Y008699D01*
X001229Y008986D01*
X000976Y009198D01*
X000976Y009198D01*
X000665Y009311D01*
X000650Y009311D01*
X000650Y014130D01*
X027000Y014130D01*
X027000Y009311D01*
X026949Y009311D01*
X026638Y009198D01*
X026385Y008986D01*
X026385Y008986D01*
X026385Y008986D01*
X026220Y008699D01*
X026163Y008374D01*
X026220Y008049D01*
X026220Y008049D01*
X026385Y007762D01*
X026638Y007550D01*
X026638Y007550D01*
X026949Y007437D01*
X026965Y007437D01*
X026965Y002000D01*
X025057Y002000D01*
X025111Y002054D02*
X026965Y002054D01*
X026965Y002112D02*
X025869Y002112D01*
X025926Y002169D02*
X026965Y002169D01*
X026965Y002227D02*
X025984Y002227D01*
X026041Y002284D02*
X026965Y002284D01*
X026965Y002342D02*
X026099Y002342D01*
X026156Y002399D02*
X026965Y002399D01*
X026965Y002457D02*
X026214Y002457D01*
X026272Y002514D02*
X026965Y002514D01*
X026965Y002572D02*
X026631Y002572D01*
X026718Y002630D02*
X026965Y002630D01*
X026965Y002687D02*
X026765Y002687D01*
X026788Y002745D02*
X026965Y002745D01*
X026965Y002802D02*
X026798Y002802D01*
X026798Y002860D02*
X026965Y002860D01*
X026965Y002917D02*
X026779Y002917D01*
X026754Y002975D02*
X026965Y002975D01*
X026965Y003032D02*
X026696Y003032D01*
X026965Y003090D02*
X026137Y003090D01*
X026080Y003032D02*
X026364Y003032D01*
X026198Y002975D02*
X026022Y002975D01*
X025964Y002917D02*
X026140Y002917D01*
X026083Y002860D02*
X025907Y002860D01*
X025849Y002802D02*
X026025Y002802D01*
X025968Y002745D02*
X025792Y002745D01*
X025734Y002687D02*
X025910Y002687D01*
X025852Y002630D02*
X025677Y002630D01*
X025619Y002572D02*
X025795Y002572D01*
X025737Y002514D02*
X025562Y002514D01*
X026329Y002572D02*
X026429Y002572D01*
X026195Y003148D02*
X026965Y003148D01*
X026965Y003205D02*
X026252Y003205D01*
X026309Y003263D02*
X026965Y003263D01*
X026965Y003320D02*
X026309Y003320D01*
X026309Y003378D02*
X026965Y003378D01*
X026965Y003435D02*
X026309Y003435D01*
X026309Y003493D02*
X026965Y003493D01*
X026965Y003550D02*
X026309Y003550D01*
X026309Y003608D02*
X026965Y003608D01*
X026965Y003666D02*
X026309Y003666D01*
X026309Y003723D02*
X026965Y003723D01*
X026965Y003781D02*
X026309Y003781D01*
X026309Y003838D02*
X026965Y003838D01*
X026965Y003896D02*
X026309Y003896D01*
X026309Y003953D02*
X026965Y003953D01*
X026965Y004011D02*
X026328Y004011D01*
X026386Y004068D02*
X026965Y004068D01*
X026965Y004126D02*
X026443Y004126D01*
X026501Y004184D02*
X026965Y004184D01*
X026965Y004241D02*
X026558Y004241D01*
X026616Y004299D02*
X026965Y004299D01*
X026965Y004356D02*
X026673Y004356D01*
X026731Y004414D02*
X026965Y004414D01*
X026965Y004471D02*
X026759Y004471D01*
X026759Y004529D02*
X026965Y004529D01*
X026965Y004586D02*
X026759Y004586D01*
X026759Y004644D02*
X026965Y004644D01*
X026965Y004702D02*
X026759Y004702D01*
X026759Y004759D02*
X026965Y004759D01*
X026965Y004817D02*
X026759Y004817D01*
X026759Y004874D02*
X026965Y004874D01*
X026965Y004932D02*
X026759Y004932D01*
X026759Y004989D02*
X026965Y004989D01*
X026965Y005047D02*
X026759Y005047D01*
X026759Y005104D02*
X026965Y005104D01*
X026965Y005162D02*
X026759Y005162D01*
X026759Y005220D02*
X026965Y005220D01*
X026965Y005277D02*
X026759Y005277D01*
X026759Y005335D02*
X026965Y005335D01*
X026965Y005392D02*
X026759Y005392D01*
X026759Y005450D02*
X026965Y005450D01*
X026965Y005507D02*
X026759Y005507D01*
X026759Y005565D02*
X026965Y005565D01*
X026965Y005622D02*
X026759Y005622D01*
X026759Y005680D02*
X026965Y005680D01*
X026965Y005738D02*
X026759Y005738D01*
X026759Y005795D02*
X026965Y005795D01*
X026965Y005853D02*
X026759Y005853D01*
X026759Y005910D02*
X026965Y005910D01*
X026965Y005968D02*
X026759Y005968D01*
X026759Y006025D02*
X026965Y006025D01*
X026965Y006083D02*
X026759Y006083D01*
X026759Y006140D02*
X026965Y006140D01*
X026965Y006198D02*
X026759Y006198D01*
X026759Y006256D02*
X026965Y006256D01*
X026965Y006313D02*
X026759Y006313D01*
X026759Y006371D02*
X026965Y006371D01*
X026965Y006428D02*
X026759Y006428D01*
X026759Y006486D02*
X026965Y006486D01*
X026965Y006543D02*
X026759Y006543D01*
X026789Y006601D02*
X026965Y006601D01*
X026965Y006658D02*
X026818Y006658D01*
X026838Y006716D02*
X026965Y006716D01*
X026965Y006774D02*
X026838Y006774D01*
X026830Y006831D02*
X026965Y006831D01*
X026965Y006889D02*
X026806Y006889D01*
X026762Y006946D02*
X026965Y006946D01*
X026965Y007004D02*
X026681Y007004D01*
X026459Y007004D02*
X026099Y007004D01*
X026099Y007061D02*
X026965Y007061D01*
X026965Y007119D02*
X026099Y007119D01*
X026099Y007176D02*
X026965Y007176D01*
X026965Y007234D02*
X026099Y007234D01*
X026099Y007292D02*
X026965Y007292D01*
X026965Y007349D02*
X026099Y007349D01*
X026099Y007407D02*
X026965Y007407D01*
X026874Y007464D02*
X026099Y007464D01*
X026099Y007522D02*
X026716Y007522D01*
X026604Y007579D02*
X026099Y007579D01*
X026099Y007637D02*
X026535Y007637D01*
X026466Y007694D02*
X026099Y007694D01*
X026099Y007752D02*
X026398Y007752D01*
X026385Y007762D02*
X026385Y007762D01*
X026358Y007810D02*
X026099Y007810D01*
X026099Y007867D02*
X026325Y007867D01*
X026292Y007925D02*
X026099Y007925D01*
X026099Y007982D02*
X026259Y007982D01*
X026225Y008040D02*
X026099Y008040D01*
X026099Y008097D02*
X026212Y008097D01*
X026201Y008155D02*
X026099Y008155D01*
X026099Y008212D02*
X026191Y008212D01*
X026181Y008270D02*
X026099Y008270D01*
X026099Y008328D02*
X026171Y008328D01*
X026163Y008374D02*
X026163Y008374D01*
X026165Y008385D02*
X026099Y008385D01*
X026099Y008443D02*
X026175Y008443D01*
X026185Y008500D02*
X026099Y008500D01*
X026099Y008558D02*
X026195Y008558D01*
X026205Y008615D02*
X026099Y008615D01*
X026099Y008673D02*
X026215Y008673D01*
X026220Y008699D02*
X026220Y008699D01*
X026238Y008730D02*
X026099Y008730D01*
X026099Y008788D02*
X026271Y008788D01*
X026305Y008846D02*
X026099Y008846D01*
X026099Y008903D02*
X026338Y008903D01*
X026371Y008961D02*
X026099Y008961D01*
X026099Y009018D02*
X026424Y009018D01*
X026493Y009076D02*
X026099Y009076D01*
X026099Y009133D02*
X026561Y009133D01*
X026630Y009191D02*
X026099Y009191D01*
X026099Y009248D02*
X026777Y009248D01*
X026638Y009198D02*
X026638Y009198D01*
X026935Y009306D02*
X026099Y009306D01*
X026099Y009364D02*
X027000Y009364D01*
X027000Y009421D02*
X026099Y009421D01*
X026099Y009479D02*
X027000Y009479D01*
X027000Y009536D02*
X026099Y009536D01*
X026099Y009594D02*
X027000Y009594D01*
X027000Y009651D02*
X026099Y009651D01*
X026099Y009709D02*
X027000Y009709D01*
X027000Y009766D02*
X026099Y009766D01*
X026099Y009824D02*
X027000Y009824D01*
X027000Y009882D02*
X026099Y009882D01*
X026099Y009939D02*
X027000Y009939D01*
X027000Y009997D02*
X026099Y009997D01*
X026099Y010054D02*
X027000Y010054D01*
X027000Y010112D02*
X026099Y010112D01*
X026099Y010169D02*
X027000Y010169D01*
X027000Y010227D02*
X026099Y010227D01*
X026099Y010284D02*
X027000Y010284D01*
X027000Y010342D02*
X026099Y010342D01*
X026099Y010400D02*
X027000Y010400D01*
X027000Y010457D02*
X026099Y010457D01*
X026099Y010515D02*
X027000Y010515D01*
X027000Y010572D02*
X026099Y010572D01*
X026099Y010630D02*
X027000Y010630D01*
X027000Y010687D02*
X026099Y010687D01*
X026112Y010745D02*
X027000Y010745D01*
X027000Y010802D02*
X026170Y010802D01*
X026227Y010860D02*
X027000Y010860D01*
X027000Y010918D02*
X026285Y010918D01*
X026342Y010975D02*
X027000Y010975D01*
X027000Y011033D02*
X026400Y011033D01*
X026457Y011090D02*
X027000Y011090D01*
X027000Y011148D02*
X026515Y011148D01*
X026549Y011205D02*
X027000Y011205D01*
X027000Y011263D02*
X026549Y011263D01*
X026549Y011320D02*
X027000Y011320D01*
X027000Y011378D02*
X026549Y011378D01*
X026549Y011436D02*
X027000Y011436D01*
X027000Y011493D02*
X026549Y011493D01*
X026549Y011551D02*
X027000Y011551D01*
X027000Y011608D02*
X026549Y011608D01*
X026549Y011666D02*
X027000Y011666D01*
X027000Y011723D02*
X026549Y011723D01*
X026549Y011781D02*
X027000Y011781D01*
X027000Y011838D02*
X026549Y011838D01*
X026549Y011896D02*
X027000Y011896D01*
X027000Y011954D02*
X026549Y011954D01*
X026549Y012011D02*
X027000Y012011D01*
X027000Y012069D02*
X026549Y012069D01*
X026549Y012126D02*
X027000Y012126D01*
X027000Y012184D02*
X026549Y012184D01*
X026549Y012241D02*
X027000Y012241D01*
X027000Y012299D02*
X026549Y012299D01*
X026549Y012356D02*
X027000Y012356D01*
X027000Y012414D02*
X026549Y012414D01*
X026580Y012472D02*
X027000Y012472D01*
X027000Y012529D02*
X026608Y012529D01*
X026628Y012587D02*
X027000Y012587D01*
X027000Y012644D02*
X026628Y012644D01*
X026620Y012702D02*
X027000Y012702D01*
X027000Y012759D02*
X026596Y012759D01*
X026552Y012817D02*
X027000Y012817D01*
X027000Y012874D02*
X026469Y012874D01*
X026251Y012874D02*
X024311Y012874D01*
X024311Y012817D02*
X026168Y012817D01*
X026124Y012759D02*
X024307Y012759D01*
X024283Y012702D02*
X026100Y012702D01*
X026092Y012644D02*
X024246Y012644D01*
X024470Y012587D02*
X024529Y012587D01*
X024529Y012529D02*
X024470Y012529D01*
X024470Y012472D02*
X024529Y012472D01*
X024529Y012414D02*
X024470Y012414D01*
X024470Y012356D02*
X024529Y012356D01*
X024500Y012272D02*
X024500Y012768D01*
X024673Y012941D01*
X024437Y012941D01*
X023492Y013886D01*
X020677Y013886D01*
X020500Y013709D01*
X020529Y013738D02*
X021274Y013738D01*
X021332Y013795D02*
X020805Y013795D01*
X020805Y013738D02*
X020805Y014089D01*
X020801Y014099D01*
X020792Y014108D01*
X020781Y014112D01*
X020529Y014112D01*
X020529Y013738D01*
X020470Y013738D01*
X020470Y013679D01*
X020529Y013679D01*
X020529Y013305D01*
X020781Y013305D01*
X020792Y013310D01*
X020801Y013318D01*
X020805Y013329D01*
X020805Y013679D01*
X020529Y013679D01*
X020529Y013738D01*
X020805Y013738D01*
X020805Y013853D02*
X021389Y013853D01*
X021447Y013910D02*
X020805Y013910D01*
X020805Y013968D02*
X027000Y013968D01*
X027000Y014026D02*
X020805Y014026D01*
X020805Y014083D02*
X027000Y014083D01*
X027000Y013910D02*
X022152Y013910D01*
X022209Y013853D02*
X027000Y013853D01*
X027000Y013795D02*
X022267Y013795D01*
X022324Y013738D02*
X027000Y013738D01*
X027000Y013680D02*
X025982Y013680D01*
X025982Y013695D02*
X025978Y013706D01*
X025969Y013714D01*
X025959Y013718D01*
X025707Y013718D01*
X025707Y013344D01*
X025982Y013344D01*
X025982Y013695D01*
X025982Y013623D02*
X027000Y013623D01*
X027000Y013565D02*
X025982Y013565D01*
X025982Y013508D02*
X027000Y013508D01*
X027000Y013450D02*
X025982Y013450D01*
X025982Y013392D02*
X027000Y013392D01*
X027000Y013335D02*
X025707Y013335D01*
X025707Y013344D02*
X025707Y013285D01*
X025982Y013285D01*
X025982Y012935D01*
X025978Y012924D01*
X025969Y012916D01*
X025959Y012911D01*
X025707Y012911D01*
X025707Y013285D01*
X025648Y013285D01*
X025648Y012911D01*
X025396Y012911D01*
X025385Y012916D01*
X025376Y012924D01*
X025372Y012935D01*
X025372Y013285D01*
X025648Y013285D01*
X025648Y013344D01*
X025372Y013344D01*
X025372Y013695D01*
X025376Y013706D01*
X025385Y013714D01*
X025396Y013718D01*
X025648Y013718D01*
X025648Y013344D01*
X025707Y013344D01*
X025677Y013315D02*
X025303Y012941D01*
X024673Y012941D01*
X024288Y012932D02*
X025373Y012932D01*
X025372Y012990D02*
X024255Y012990D01*
X024198Y013047D02*
X025372Y013047D01*
X025372Y013105D02*
X022533Y013105D01*
X022533Y013162D02*
X025372Y013162D01*
X025372Y013220D02*
X022533Y013220D01*
X022533Y013277D02*
X025372Y013277D01*
X025372Y013392D02*
X022533Y013392D01*
X022533Y013335D02*
X025648Y013335D01*
X025648Y013392D02*
X025707Y013392D01*
X025707Y013450D02*
X025648Y013450D01*
X025648Y013508D02*
X025707Y013508D01*
X025707Y013565D02*
X025648Y013565D01*
X025648Y013623D02*
X025707Y013623D01*
X025707Y013680D02*
X025648Y013680D01*
X025372Y013680D02*
X022382Y013680D01*
X022439Y013623D02*
X025372Y013623D01*
X025372Y013565D02*
X022497Y013565D01*
X022533Y013508D02*
X025372Y013508D01*
X025372Y013450D02*
X022533Y013450D01*
X022167Y013377D02*
X022167Y012638D01*
X022115Y012638D01*
X022028Y012550D01*
X022028Y011836D01*
X022115Y011748D01*
X022140Y011748D01*
X022103Y011712D01*
X022062Y011613D01*
X022062Y011507D01*
X022103Y011408D01*
X022178Y011333D01*
X022277Y011292D01*
X022383Y011292D01*
X022482Y011333D01*
X022557Y011408D01*
X022598Y011507D01*
X022598Y011591D01*
X022955Y011591D01*
X022949Y011577D01*
X022949Y011470D01*
X022990Y011372D01*
X023065Y011297D01*
X023163Y011256D01*
X023270Y011256D01*
X023368Y011297D01*
X023443Y011372D01*
X023461Y011414D01*
X023461Y011313D01*
X023501Y011215D01*
X023577Y011139D01*
X023675Y011099D01*
X023782Y011099D01*
X023880Y011139D01*
X023955Y011215D01*
X023996Y011313D01*
X023996Y011419D01*
X023955Y011518D01*
X023907Y011566D01*
X023907Y011598D01*
X023803Y011703D01*
X023789Y011716D01*
X023789Y011806D01*
X023847Y011748D01*
X024286Y011748D01*
X024374Y011836D01*
X024374Y011947D01*
X024470Y011947D01*
X024470Y012242D01*
X024529Y012242D01*
X024529Y011947D01*
X024626Y011947D01*
X024626Y011836D01*
X024714Y011748D01*
X024754Y011748D01*
X024754Y010443D01*
X022976Y010443D01*
X021831Y011588D01*
X021831Y011656D01*
X021790Y011754D01*
X021715Y011829D01*
X021616Y011870D01*
X021510Y011870D01*
X021411Y011829D01*
X021336Y011754D01*
X021295Y011656D01*
X021295Y011611D01*
X021283Y011624D01*
X019284Y011624D01*
X018969Y011309D01*
X018851Y011309D01*
X018746Y011204D01*
X018720Y011178D01*
X018720Y011262D01*
X018680Y011360D01*
X018604Y011436D01*
X018587Y011443D01*
X018762Y011443D01*
X018850Y011530D01*
X018850Y011774D01*
X019137Y011774D01*
X019173Y011738D01*
X019268Y011699D01*
X019370Y011699D01*
X019465Y011738D01*
X019537Y011811D01*
X019577Y011905D01*
X019577Y012008D01*
X019537Y012103D01*
X019465Y012175D01*
X019370Y012214D01*
X019268Y012214D01*
X019173Y012175D01*
X019137Y012140D01*
X018797Y012140D01*
X018762Y012175D01*
X018686Y012175D01*
X018686Y012280D01*
X018774Y012367D01*
X018774Y013624D01*
X019440Y013624D01*
X020041Y013023D01*
X020149Y012915D01*
X020969Y012915D01*
X021599Y013545D01*
X021999Y013545D01*
X022167Y013377D01*
X022152Y013392D02*
X021446Y013392D01*
X021389Y013335D02*
X022167Y013335D01*
X022167Y013277D02*
X021331Y013277D01*
X021274Y013220D02*
X022167Y013220D01*
X022167Y013162D02*
X021216Y013162D01*
X021159Y013105D02*
X022167Y013105D01*
X022167Y013047D02*
X021560Y013047D01*
X021557Y013050D02*
X021459Y013090D01*
X021352Y013090D01*
X021254Y013050D01*
X021179Y012974D01*
X021138Y012876D01*
X021138Y012770D01*
X021179Y012671D01*
X021254Y012596D01*
X021352Y012555D01*
X021459Y012555D01*
X021557Y012596D01*
X021632Y012671D01*
X021673Y012770D01*
X021673Y012876D01*
X021632Y012974D01*
X021557Y013050D01*
X021617Y012990D02*
X022167Y012990D01*
X022167Y012932D02*
X021650Y012932D01*
X021673Y012874D02*
X022167Y012874D01*
X022167Y012817D02*
X021673Y012817D01*
X021669Y012759D02*
X022167Y012759D01*
X022167Y012702D02*
X021645Y012702D01*
X021605Y012644D02*
X022167Y012644D01*
X022064Y012587D02*
X021535Y012587D01*
X021276Y012587D02*
X018774Y012587D01*
X018774Y012644D02*
X021206Y012644D01*
X021166Y012702D02*
X018774Y012702D01*
X018774Y012759D02*
X021142Y012759D01*
X021138Y012817D02*
X018774Y012817D01*
X018774Y012874D02*
X021138Y012874D01*
X021161Y012932D02*
X020986Y012932D01*
X021044Y012990D02*
X021194Y012990D01*
X021251Y013047D02*
X021101Y013047D01*
X020871Y013335D02*
X020805Y013335D01*
X020805Y013392D02*
X020929Y013392D01*
X020986Y013450D02*
X020805Y013450D01*
X020805Y013508D02*
X021044Y013508D01*
X021102Y013565D02*
X020805Y013565D01*
X020805Y013623D02*
X021159Y013623D01*
X021217Y013680D02*
X020529Y013680D01*
X020529Y013623D02*
X020470Y013623D01*
X020470Y013680D02*
X019901Y013680D01*
X019844Y013738D02*
X020470Y013738D01*
X020195Y013738D01*
X020195Y014089D01*
X020199Y014099D01*
X020208Y014108D01*
X020218Y014112D01*
X020470Y014112D01*
X020470Y013738D01*
X020470Y013795D02*
X020529Y013795D01*
X020529Y013853D02*
X020470Y013853D01*
X020470Y013910D02*
X020529Y013910D01*
X020529Y013968D02*
X020470Y013968D01*
X020470Y014026D02*
X020529Y014026D01*
X020529Y014083D02*
X020470Y014083D01*
X020195Y014083D02*
X000650Y014083D01*
X000650Y014026D02*
X010006Y014026D01*
X009879Y013968D02*
X000650Y013968D01*
X000650Y013910D02*
X000782Y013910D01*
X000738Y013867D02*
X000738Y013443D01*
X000826Y013355D01*
X001934Y013355D01*
X002022Y013443D01*
X002022Y013867D01*
X001934Y013954D01*
X000826Y013954D01*
X000738Y013867D01*
X000738Y013853D02*
X000650Y013853D01*
X000650Y013795D02*
X000738Y013795D01*
X000738Y013738D02*
X000650Y013738D01*
X000650Y013680D02*
X000738Y013680D01*
X000738Y013623D02*
X000650Y013623D01*
X000650Y013565D02*
X000738Y013565D01*
X000738Y013508D02*
X000650Y013508D01*
X000650Y013450D02*
X000738Y013450D01*
X000789Y013392D02*
X000650Y013392D01*
X000650Y013335D02*
X009876Y013335D01*
X009997Y013277D02*
X000650Y013277D01*
X000650Y013220D02*
X011150Y013220D01*
X011126Y013162D02*
X011048Y013162D01*
X011045Y013163D02*
X010852Y013163D01*
X010852Y012967D01*
X010793Y012967D01*
X010793Y013163D01*
X010600Y013163D01*
X010590Y013159D01*
X010581Y013151D01*
X010577Y013140D01*
X010577Y012967D01*
X010793Y012967D01*
X010793Y012907D01*
X010852Y012907D01*
X010852Y012711D01*
X011045Y012711D01*
X011056Y012715D01*
X011064Y012723D01*
X011069Y012734D01*
X011069Y012907D01*
X010852Y012907D01*
X010852Y012967D01*
X011069Y012967D01*
X011069Y013140D01*
X011064Y013151D01*
X011056Y013159D01*
X011045Y013163D01*
X011069Y013105D02*
X011126Y013105D01*
X011126Y013047D02*
X011069Y013047D01*
X011069Y012990D02*
X011126Y012990D01*
X011126Y012932D02*
X010852Y012932D01*
X010823Y012937D02*
X010819Y012941D01*
X009594Y012941D01*
X010215Y013277D02*
X010539Y013277D01*
X010481Y013335D02*
X010337Y013335D01*
X010395Y013392D02*
X010476Y013392D01*
X010598Y013162D02*
X000650Y013162D01*
X000650Y013105D02*
X010577Y013105D01*
X010577Y013047D02*
X000650Y013047D01*
X000650Y012990D02*
X010577Y012990D01*
X010577Y012907D02*
X010577Y012734D01*
X010581Y012723D01*
X010590Y012715D01*
X010600Y012711D01*
X010793Y012711D01*
X010793Y012907D01*
X010577Y012907D01*
X010577Y012874D02*
X000650Y012874D01*
X000650Y012817D02*
X004383Y012817D01*
X004335Y012797D02*
X004455Y012847D01*
X004585Y012847D01*
X004705Y012797D01*
X004797Y012705D01*
X004847Y012585D01*
X004847Y012455D01*
X004797Y012335D01*
X004705Y012243D01*
X004699Y012240D01*
X004699Y011868D01*
X004611Y011780D01*
X003503Y011780D01*
X003416Y011868D01*
X003416Y012292D01*
X003503Y012380D01*
X004097Y012380D01*
X004193Y012475D01*
X004193Y012585D01*
X004243Y012705D01*
X004335Y012797D01*
X004297Y012759D02*
X000650Y012759D01*
X000650Y012702D02*
X004242Y012702D01*
X004218Y012644D02*
X000650Y012644D01*
X000650Y012587D02*
X004194Y012587D01*
X004193Y012529D02*
X000650Y012529D01*
X000650Y012472D02*
X004189Y012472D01*
X004132Y012414D02*
X000650Y012414D01*
X000650Y012356D02*
X000803Y012356D01*
X000826Y012380D02*
X000738Y012292D01*
X000738Y011868D01*
X000826Y011780D01*
X001934Y011780D01*
X002022Y011868D01*
X002022Y012292D01*
X001934Y012380D01*
X000826Y012380D01*
X000745Y012299D02*
X000650Y012299D01*
X000650Y012241D02*
X000738Y012241D01*
X000738Y012184D02*
X000650Y012184D01*
X000650Y012126D02*
X000738Y012126D01*
X000738Y012069D02*
X000650Y012069D01*
X000650Y012011D02*
X000738Y012011D01*
X000738Y011954D02*
X000650Y011954D01*
X000650Y011896D02*
X000738Y011896D01*
X000768Y011838D02*
X000650Y011838D01*
X000650Y011781D02*
X000826Y011781D01*
X000650Y011723D02*
X010793Y011723D01*
X010793Y011666D02*
X010852Y011666D01*
X010852Y011723D02*
X011126Y011723D01*
X011126Y011666D02*
X011069Y011666D01*
X011069Y011608D02*
X011126Y011608D01*
X011126Y011551D02*
X011069Y011551D01*
X011066Y011493D02*
X011126Y011493D01*
X011135Y011436D02*
X009107Y011436D01*
X009049Y011493D02*
X010580Y011493D01*
X010577Y011551D02*
X008992Y011551D01*
X009164Y011378D02*
X011163Y011378D01*
X011126Y011320D02*
X009222Y011320D01*
X009279Y011263D02*
X010577Y011263D01*
X010577Y011285D02*
X010577Y011112D01*
X010793Y011112D01*
X010793Y011053D01*
X010577Y011053D01*
X010577Y010880D01*
X010581Y010869D01*
X010590Y010861D01*
X010600Y010856D01*
X010793Y010856D01*
X010793Y011053D01*
X010852Y011053D01*
X010852Y010856D01*
X011045Y010856D01*
X011056Y010861D01*
X011064Y010869D01*
X011069Y010880D01*
X011069Y011053D01*
X010852Y011053D01*
X010852Y011112D01*
X010793Y011112D01*
X010793Y011309D01*
X010600Y011309D01*
X010590Y011305D01*
X010581Y011296D01*
X010577Y011285D01*
X010577Y011205D02*
X009337Y011205D01*
X009395Y011148D02*
X010577Y011148D01*
X010577Y011033D02*
X009510Y011033D01*
X009567Y010975D02*
X010577Y010975D01*
X010577Y010918D02*
X009625Y010918D01*
X009682Y010860D02*
X010592Y010860D01*
X010793Y010860D02*
X010852Y010860D01*
X010852Y010918D02*
X010793Y010918D01*
X010793Y010975D02*
X010852Y010975D01*
X010852Y011033D02*
X010793Y011033D01*
X010793Y011090D02*
X009452Y011090D01*
X009740Y010802D02*
X011148Y010802D01*
X011126Y010860D02*
X011054Y010860D01*
X011069Y010918D02*
X011126Y010918D01*
X011126Y010975D02*
X011069Y010975D01*
X011069Y011033D02*
X011126Y011033D01*
X011126Y011090D02*
X010852Y011090D01*
X010852Y011112D02*
X011069Y011112D01*
X011069Y011285D01*
X011064Y011296D01*
X011056Y011305D01*
X011045Y011309D01*
X010852Y011309D01*
X010852Y011112D01*
X010852Y011148D02*
X010793Y011148D01*
X010793Y011205D02*
X010852Y011205D01*
X010852Y011263D02*
X010793Y011263D01*
X010793Y011493D02*
X010852Y011493D01*
X010852Y011551D02*
X010793Y011551D01*
X010793Y011608D02*
X010852Y011608D01*
X010577Y011608D02*
X000650Y011608D01*
X000650Y011551D02*
X003552Y011551D01*
X003503Y011781D02*
X001934Y011781D01*
X001992Y011838D02*
X003445Y011838D01*
X003416Y011896D02*
X002022Y011896D01*
X002022Y011954D02*
X003416Y011954D01*
X003416Y012011D02*
X002022Y012011D01*
X002022Y012069D02*
X003416Y012069D01*
X003416Y012126D02*
X002022Y012126D01*
X002022Y012184D02*
X003416Y012184D01*
X003416Y012241D02*
X002022Y012241D01*
X002015Y012299D02*
X003422Y012299D01*
X003480Y012356D02*
X001957Y012356D01*
X001475Y011493D02*
X000650Y011493D01*
X000650Y011436D02*
X001437Y011436D01*
X001437Y011378D02*
X000650Y011378D01*
X000650Y011320D02*
X001437Y011320D01*
X001437Y011263D02*
X000650Y011263D01*
X000650Y011205D02*
X001437Y011205D01*
X001437Y011148D02*
X000650Y011148D01*
X000650Y011090D02*
X001437Y011090D01*
X001437Y011033D02*
X000650Y011033D01*
X000650Y010975D02*
X001437Y010975D01*
X001437Y010918D02*
X000650Y010918D01*
X000650Y010860D02*
X001437Y010860D01*
X001437Y010802D02*
X000650Y010802D01*
X000650Y010745D02*
X001437Y010745D01*
X001437Y010687D02*
X000650Y010687D01*
X000650Y010630D02*
X001437Y010630D01*
X001437Y010572D02*
X000650Y010572D01*
X000650Y010515D02*
X001437Y010515D01*
X001437Y010457D02*
X000650Y010457D01*
X000650Y010400D02*
X001437Y010400D01*
X001437Y010342D02*
X000650Y010342D01*
X000650Y010284D02*
X001437Y010284D01*
X001437Y010227D02*
X000650Y010227D01*
X000650Y010169D02*
X001437Y010169D01*
X001476Y010112D02*
X000650Y010112D01*
X000650Y010054D02*
X004610Y010054D01*
X004650Y010112D02*
X004668Y010112D01*
X004689Y010169D02*
X004725Y010169D01*
X004689Y010227D02*
X004783Y010227D01*
X004841Y010284D02*
X004689Y010284D01*
X004689Y010342D02*
X004898Y010342D01*
X004956Y010400D02*
X004689Y010400D01*
X004689Y010457D02*
X005013Y010457D01*
X005071Y010515D02*
X004689Y010515D01*
X004689Y010572D02*
X005128Y010572D01*
X005186Y010630D02*
X004689Y010630D01*
X004689Y010687D02*
X005243Y010687D01*
X005301Y010745D02*
X004689Y010745D01*
X004689Y010802D02*
X005359Y010802D01*
X005416Y010860D02*
X004689Y010860D01*
X004689Y010918D02*
X005474Y010918D01*
X005531Y010975D02*
X004689Y010975D01*
X004689Y011033D02*
X005589Y011033D01*
X005646Y011090D02*
X004689Y011090D01*
X004689Y011148D02*
X005704Y011148D01*
X005991Y010918D02*
X006970Y010918D01*
X006941Y010860D02*
X005934Y010860D01*
X005876Y010802D02*
X006392Y010802D01*
X006392Y010833D02*
X006392Y010659D01*
X006608Y010659D01*
X006608Y010856D01*
X006415Y010856D01*
X006405Y010852D01*
X006396Y010843D01*
X006392Y010833D01*
X006392Y010745D02*
X005819Y010745D01*
X005761Y010687D02*
X006392Y010687D01*
X006392Y010572D02*
X005646Y010572D01*
X005588Y010515D02*
X006392Y010515D01*
X006392Y010457D02*
X005531Y010457D01*
X005473Y010400D02*
X005786Y010400D01*
X005729Y010342D02*
X005416Y010342D01*
X005358Y010284D02*
X005671Y010284D01*
X005614Y010227D02*
X005301Y010227D01*
X005243Y010169D02*
X005556Y010169D01*
X005499Y010112D02*
X005185Y010112D01*
X005128Y010054D02*
X005441Y010054D01*
X005384Y009997D02*
X005070Y009997D01*
X005013Y009939D02*
X005326Y009939D01*
X005268Y009882D02*
X004955Y009882D01*
X004898Y009824D02*
X005211Y009824D01*
X005153Y009766D02*
X004840Y009766D01*
X004783Y009709D02*
X005096Y009709D01*
X005073Y009651D02*
X004725Y009651D01*
X004667Y009594D02*
X005073Y009594D01*
X005073Y009536D02*
X004640Y009536D01*
X004689Y009479D02*
X005073Y009479D01*
X005073Y009421D02*
X004689Y009421D01*
X004689Y009364D02*
X005073Y009364D01*
X005073Y009306D02*
X004689Y009306D01*
X004689Y009248D02*
X005073Y009248D01*
X005073Y009191D02*
X004689Y009191D01*
X004689Y009133D02*
X005073Y009133D01*
X005073Y009076D02*
X004689Y009076D01*
X004689Y009018D02*
X005117Y009018D01*
X005174Y008961D02*
X004689Y008961D01*
X004689Y008903D02*
X005232Y008903D01*
X005289Y008846D02*
X004689Y008846D01*
X004689Y008788D02*
X005347Y008788D01*
X005404Y008730D02*
X004689Y008730D01*
X004689Y008673D02*
X005462Y008673D01*
X005520Y008615D02*
X004689Y008615D01*
X004689Y008558D02*
X005577Y008558D01*
X005644Y008443D02*
X005692Y008443D01*
X005701Y008385D02*
X005644Y008385D01*
X005701Y008328D02*
X005427Y008328D01*
X005427Y008356D02*
X005427Y008297D01*
X005427Y008100D01*
X005620Y008100D01*
X005631Y008105D01*
X005639Y008113D01*
X005644Y008124D01*
X005644Y008297D01*
X005427Y008297D01*
X005368Y008297D01*
X005368Y008100D01*
X005175Y008100D01*
X005164Y008105D01*
X005156Y008113D01*
X005152Y008124D01*
X005152Y008297D01*
X005368Y008297D01*
X005368Y008356D01*
X005152Y008356D01*
X005152Y008529D01*
X005156Y008540D01*
X005164Y008549D01*
X005175Y008553D01*
X005368Y008553D01*
X005368Y008356D01*
X005427Y008356D01*
X005427Y008385D02*
X005368Y008385D01*
X005368Y008328D02*
X004689Y008328D01*
X004689Y008385D02*
X005152Y008385D01*
X005152Y008443D02*
X004689Y008443D01*
X004689Y008500D02*
X005152Y008500D01*
X005368Y008500D02*
X005427Y008500D01*
X005427Y008443D02*
X005368Y008443D01*
X005398Y008327D02*
X005398Y007681D01*
X005398Y007063D01*
X005398Y006736D01*
X005638Y006496D01*
X005638Y006075D01*
X005697Y006016D01*
X005697Y005268D01*
X005667Y005392D02*
X005726Y005392D01*
X005726Y005450D02*
X005667Y005450D01*
X005392Y005450D02*
X005279Y005450D01*
X005279Y005507D02*
X006138Y005507D01*
X006138Y005450D02*
X006002Y005450D01*
X006002Y005392D02*
X006138Y005392D01*
X006186Y005335D02*
X006002Y005335D01*
X006138Y005565D02*
X005279Y005565D01*
X005279Y005622D02*
X006138Y005622D01*
X006138Y005680D02*
X005279Y005680D01*
X005269Y005738D02*
X006138Y005738D01*
X006138Y005795D02*
X005990Y005795D01*
X006002Y005853D02*
X006138Y005853D01*
X006148Y005910D02*
X006002Y005910D01*
X006002Y005968D02*
X006205Y005968D01*
X006002Y006083D02*
X007203Y006083D01*
X007265Y006025D02*
X005726Y006025D01*
X005726Y005968D02*
X005667Y005968D01*
X005667Y006025D02*
X005279Y006025D01*
X005279Y005968D02*
X005392Y005968D01*
X005392Y005910D02*
X005279Y005910D01*
X005253Y005853D02*
X005392Y005853D01*
X005403Y005795D02*
X005212Y005795D01*
X005667Y005795D02*
X005726Y005795D01*
X005726Y005853D02*
X005667Y005853D01*
X005667Y005910D02*
X005726Y005910D01*
X005667Y006045D02*
X005392Y006045D01*
X005392Y006218D01*
X005396Y006229D01*
X005405Y006238D01*
X005415Y006242D01*
X005667Y006242D01*
X005667Y006045D01*
X005667Y006083D02*
X005726Y006083D01*
X005726Y006140D02*
X005667Y006140D01*
X005667Y006198D02*
X005726Y006198D01*
X005997Y006371D02*
X005279Y006371D01*
X005248Y006428D02*
X005969Y006428D01*
X005951Y006486D02*
X004833Y006486D01*
X004775Y006543D02*
X005936Y006543D01*
X005888Y006601D02*
X004717Y006601D01*
X004660Y006658D02*
X005888Y006658D01*
X005888Y006716D02*
X004602Y006716D01*
X004545Y006774D02*
X005732Y006774D01*
X005701Y006831D02*
X004487Y006831D01*
X004430Y006889D02*
X005152Y006889D01*
X005152Y006860D02*
X005156Y006849D01*
X005164Y006841D01*
X005175Y006837D01*
X005368Y006837D01*
X005368Y007033D01*
X005427Y007033D01*
X005427Y006837D01*
X005620Y006837D01*
X005631Y006841D01*
X005639Y006849D01*
X005644Y006860D01*
X005644Y007033D01*
X005427Y007033D01*
X005427Y007093D01*
X005368Y007093D01*
X005368Y007289D01*
X005175Y007289D01*
X005164Y007285D01*
X005156Y007277D01*
X005152Y007266D01*
X005152Y007093D01*
X005368Y007093D01*
X005368Y007033D01*
X005152Y007033D01*
X005152Y006860D01*
X005152Y006946D02*
X004372Y006946D01*
X004315Y007004D02*
X005152Y007004D01*
X005152Y007119D02*
X004199Y007119D01*
X004142Y007176D02*
X005152Y007176D01*
X005152Y007234D02*
X003488Y007234D01*
X003546Y007292D02*
X005701Y007292D01*
X005701Y007234D02*
X005644Y007234D01*
X005644Y007266D02*
X005639Y007277D01*
X005631Y007285D01*
X005620Y007289D01*
X005427Y007289D01*
X005427Y007093D01*
X005644Y007093D01*
X005644Y007266D01*
X005644Y007176D02*
X005701Y007176D01*
X005701Y007119D02*
X005644Y007119D01*
X005701Y007061D02*
X005427Y007061D01*
X005427Y007004D02*
X005368Y007004D01*
X005368Y007061D02*
X004257Y007061D01*
X004283Y007407D02*
X003615Y007407D01*
X003639Y007464D02*
X004211Y007464D01*
X004153Y007522D02*
X003642Y007522D01*
X003642Y007579D02*
X004127Y007579D01*
X004103Y007637D02*
X003636Y007637D01*
X003612Y007694D02*
X004091Y007694D01*
X004091Y007752D02*
X003589Y007752D01*
X003539Y007810D02*
X004091Y007810D01*
X004110Y007867D02*
X003482Y007867D01*
X003353Y007925D02*
X004134Y007925D01*
X004169Y007982D02*
X001356Y007982D01*
X001389Y008040D02*
X004227Y008040D01*
X004632Y008097D02*
X005701Y008097D01*
X005701Y008155D02*
X005644Y008155D01*
X005644Y008212D02*
X005701Y008212D01*
X005701Y008270D02*
X005644Y008270D01*
X005427Y008270D02*
X005368Y008270D01*
X005368Y008212D02*
X005427Y008212D01*
X005427Y008155D02*
X005368Y008155D01*
X005152Y008155D02*
X004662Y008155D01*
X004689Y008212D02*
X005152Y008212D01*
X005152Y008270D02*
X004689Y008270D01*
X004726Y008040D02*
X005729Y008040D01*
X005743Y007982D02*
X004784Y007982D01*
X004819Y007925D02*
X005701Y007925D01*
X005701Y007867D02*
X005644Y007867D01*
X005644Y007884D02*
X005639Y007895D01*
X005631Y007903D01*
X005620Y007907D01*
X005427Y007907D01*
X005427Y007711D01*
X005368Y007711D01*
X005368Y007907D01*
X005175Y007907D01*
X005164Y007903D01*
X005156Y007895D01*
X005152Y007884D01*
X005152Y007711D01*
X005368Y007711D01*
X005368Y007652D01*
X005152Y007652D01*
X005152Y007478D01*
X005156Y007468D01*
X005164Y007459D01*
X005175Y007455D01*
X005368Y007455D01*
X005368Y007652D01*
X005427Y007652D01*
X005427Y007711D01*
X005644Y007711D01*
X005644Y007884D01*
X005644Y007810D02*
X005701Y007810D01*
X005701Y007752D02*
X005644Y007752D01*
X005701Y007694D02*
X005427Y007694D01*
X005427Y007652D02*
X005644Y007652D01*
X005644Y007478D01*
X005639Y007468D01*
X005631Y007459D01*
X005620Y007455D01*
X005427Y007455D01*
X005427Y007652D01*
X005427Y007637D02*
X005368Y007637D01*
X005368Y007694D02*
X004862Y007694D01*
X004862Y007752D02*
X005152Y007752D01*
X005152Y007810D02*
X004862Y007810D01*
X004843Y007867D02*
X005152Y007867D01*
X005368Y007867D02*
X005427Y007867D01*
X005427Y007810D02*
X005368Y007810D01*
X005368Y007752D02*
X005427Y007752D01*
X005427Y007579D02*
X005368Y007579D01*
X005368Y007522D02*
X005427Y007522D01*
X005427Y007464D02*
X005368Y007464D01*
X005159Y007464D02*
X004742Y007464D01*
X004800Y007522D02*
X005152Y007522D01*
X005152Y007579D02*
X004826Y007579D01*
X004849Y007637D02*
X005152Y007637D01*
X004670Y007407D02*
X005717Y007407D01*
X005728Y007349D02*
X003591Y007349D01*
X003024Y007234D02*
X002279Y007234D01*
X002029Y007234D02*
X001752Y007234D01*
X001752Y007292D02*
X002966Y007292D01*
X002920Y007349D02*
X001752Y007349D01*
X001728Y007407D02*
X002897Y007407D01*
X002873Y007464D02*
X001704Y007464D01*
X001662Y007522D02*
X002870Y007522D01*
X002870Y007579D02*
X001604Y007579D01*
X001492Y007637D02*
X002875Y007637D01*
X002899Y007694D02*
X001148Y007694D01*
X001079Y007637D02*
X001240Y007637D01*
X001216Y007752D02*
X002923Y007752D01*
X002973Y007810D02*
X001256Y007810D01*
X001289Y007867D02*
X003030Y007867D01*
X003159Y007925D02*
X001322Y007925D01*
X001394Y008049D02*
X001394Y008049D01*
X001403Y008097D02*
X001522Y008097D01*
X001464Y008155D02*
X001413Y008155D01*
X001423Y008212D02*
X001437Y008212D01*
X001433Y008270D02*
X001437Y008270D01*
X001429Y008500D02*
X001437Y008500D01*
X001437Y008558D02*
X001419Y008558D01*
X001409Y008615D02*
X001437Y008615D01*
X001437Y008673D02*
X001399Y008673D01*
X001376Y008730D02*
X001437Y008730D01*
X001437Y008788D02*
X001343Y008788D01*
X001310Y008846D02*
X001437Y008846D01*
X001437Y008903D02*
X001276Y008903D01*
X001243Y008961D02*
X001437Y008961D01*
X001437Y009018D02*
X001190Y009018D01*
X001229Y008986D02*
X001229Y008986D01*
X001121Y009076D02*
X001437Y009076D01*
X001437Y009133D02*
X001053Y009133D01*
X000984Y009191D02*
X001437Y009191D01*
X001437Y009248D02*
X000837Y009248D01*
X000679Y009306D02*
X001437Y009306D01*
X001437Y009364D02*
X000650Y009364D01*
X000650Y009421D02*
X001437Y009421D01*
X001437Y009479D02*
X000650Y009479D01*
X000650Y009536D02*
X001486Y009536D01*
X000650Y009594D02*
X004150Y009594D01*
X004207Y009651D02*
X000650Y009651D01*
X000650Y009709D02*
X004265Y009709D01*
X004323Y009766D02*
X000650Y009766D01*
X000650Y009824D02*
X004380Y009824D01*
X004438Y009882D02*
X000650Y009882D01*
X000650Y009939D02*
X004495Y009939D01*
X004553Y009997D02*
X000650Y009997D01*
X000650Y011666D02*
X010577Y011666D01*
X010577Y011781D02*
X004612Y011781D01*
X004669Y011838D02*
X010577Y011838D01*
X010577Y011896D02*
X008016Y011896D01*
X007944Y011866D02*
X008108Y011934D01*
X008233Y012059D01*
X008301Y012223D01*
X008301Y012400D01*
X008233Y012563D01*
X008108Y012688D01*
X007944Y012756D01*
X007767Y012756D01*
X007604Y012688D01*
X007479Y012563D01*
X007411Y012400D01*
X007411Y012223D01*
X007479Y012059D01*
X007604Y011934D01*
X007767Y011866D01*
X007944Y011866D01*
X008127Y011954D02*
X010748Y011954D01*
X010744Y012011D02*
X008185Y012011D01*
X008237Y012069D02*
X010744Y012069D01*
X010577Y012126D02*
X008261Y012126D01*
X008285Y012184D02*
X010577Y012184D01*
X010577Y012241D02*
X008301Y012241D01*
X008301Y012299D02*
X010793Y012299D01*
X010793Y012344D02*
X010577Y012344D01*
X010577Y012518D01*
X010581Y012529D01*
X010590Y012537D01*
X010600Y012541D01*
X010793Y012541D01*
X010793Y012344D01*
X010793Y012356D02*
X010852Y012356D01*
X010852Y012299D02*
X011126Y012299D01*
X011126Y012356D02*
X011069Y012356D01*
X011069Y012414D02*
X011126Y012414D01*
X011126Y012241D02*
X011069Y012241D01*
X010852Y012414D02*
X010793Y012414D01*
X010793Y012472D02*
X010852Y012472D01*
X010852Y012529D02*
X010793Y012529D01*
X010582Y012529D02*
X008247Y012529D01*
X008271Y012472D02*
X010577Y012472D01*
X010577Y012414D02*
X008295Y012414D01*
X008301Y012356D02*
X010577Y012356D01*
X011139Y012587D02*
X008209Y012587D01*
X008152Y012644D02*
X011160Y012644D01*
X011126Y012702D02*
X008075Y012702D01*
X007637Y012702D02*
X004798Y012702D01*
X004822Y012644D02*
X007560Y012644D01*
X007502Y012587D02*
X004846Y012587D01*
X004847Y012529D02*
X007465Y012529D01*
X007441Y012472D02*
X004847Y012472D01*
X004830Y012414D02*
X007417Y012414D01*
X007411Y012356D02*
X004806Y012356D01*
X004761Y012299D02*
X007411Y012299D01*
X007411Y012241D02*
X004701Y012241D01*
X004699Y012184D02*
X007427Y012184D01*
X007451Y012126D02*
X004699Y012126D01*
X004699Y012069D02*
X007475Y012069D01*
X007527Y012011D02*
X004699Y012011D01*
X004699Y011954D02*
X007584Y011954D01*
X007696Y011896D02*
X004699Y011896D01*
X004743Y012759D02*
X010577Y012759D01*
X010577Y012817D02*
X004657Y012817D01*
X003466Y013392D02*
X001971Y013392D01*
X002022Y013450D02*
X003416Y013450D01*
X003416Y013508D02*
X002022Y013508D01*
X002022Y013565D02*
X003416Y013565D01*
X003416Y013623D02*
X002022Y013623D01*
X002022Y013680D02*
X003416Y013680D01*
X003416Y013738D02*
X002022Y013738D01*
X002022Y013795D02*
X003416Y013795D01*
X003416Y013853D02*
X002022Y013853D01*
X001978Y013910D02*
X003459Y013910D01*
X000650Y012932D02*
X010793Y012932D01*
X010793Y012990D02*
X010852Y012990D01*
X010852Y013047D02*
X010793Y013047D01*
X010793Y013105D02*
X010852Y013105D01*
X010852Y013162D02*
X010793Y013162D01*
X010793Y012874D02*
X010852Y012874D01*
X010852Y012817D02*
X010793Y012817D01*
X010793Y012759D02*
X010852Y012759D01*
X011069Y012759D02*
X011126Y012759D01*
X011126Y012817D02*
X011069Y012817D01*
X011069Y012874D02*
X011126Y012874D01*
X011107Y013277D02*
X011208Y013277D01*
X011777Y013277D02*
X011991Y013277D01*
X011945Y013220D02*
X011834Y013220D01*
X011858Y013162D02*
X011945Y013162D01*
X011945Y013105D02*
X011858Y013105D01*
X011858Y013047D02*
X011945Y013047D01*
X011945Y012990D02*
X011858Y012990D01*
X011858Y012932D02*
X011945Y012932D01*
X011945Y012874D02*
X011858Y012874D01*
X011858Y012817D02*
X011945Y012817D01*
X011945Y012759D02*
X011858Y012759D01*
X011858Y012702D02*
X011945Y012702D01*
X011975Y012644D02*
X011824Y012644D01*
X011845Y012587D02*
X012112Y012587D01*
X012112Y012529D02*
X011858Y012529D01*
X011858Y012472D02*
X012088Y012472D01*
X012033Y012414D02*
X011858Y012414D01*
X011858Y012356D02*
X012009Y012356D01*
X011985Y012299D02*
X011858Y012299D01*
X011858Y012241D02*
X011984Y012241D01*
X011984Y012184D02*
X011858Y012184D01*
X011858Y012126D02*
X012001Y012126D01*
X012025Y012069D02*
X011858Y012069D01*
X011813Y012011D02*
X012070Y012011D01*
X012130Y011954D02*
X011858Y011954D01*
X011858Y011896D02*
X012230Y011896D01*
X012211Y011838D02*
X011962Y011838D01*
X012019Y011781D02*
X012211Y011781D01*
X012221Y011723D02*
X012077Y011723D01*
X012134Y011666D02*
X012245Y011666D01*
X012295Y011608D02*
X012192Y011608D01*
X012249Y011551D02*
X012309Y011551D01*
X012307Y011493D02*
X012309Y011493D01*
X012488Y011209D02*
X012488Y011780D01*
X012469Y011799D01*
X012665Y011996D01*
X012665Y012311D01*
X012921Y012567D01*
X012921Y012965D01*
X013100Y012587D02*
X013869Y012587D01*
X013856Y012644D02*
X013926Y012644D01*
X013898Y012702D02*
X013984Y012702D01*
X014042Y012759D02*
X013898Y012759D01*
X013898Y012817D02*
X014099Y012817D01*
X014140Y012874D02*
X013898Y012874D01*
X013898Y012932D02*
X014140Y012932D01*
X014140Y012990D02*
X013898Y012990D01*
X013898Y013047D02*
X014140Y013047D01*
X014140Y013105D02*
X013898Y013105D01*
X013898Y013162D02*
X014140Y013162D01*
X014140Y013220D02*
X013898Y013220D01*
X013863Y013277D02*
X014140Y013277D01*
X014112Y013335D02*
X011834Y013335D01*
X011839Y013392D02*
X012068Y013392D01*
X012069Y013389D02*
X012078Y013380D01*
X012089Y013376D01*
X012262Y013376D01*
X012262Y013593D01*
X012065Y013593D01*
X012065Y013400D01*
X012069Y013389D01*
X012065Y013450D02*
X011839Y013450D01*
X011839Y013508D02*
X012065Y013508D01*
X012065Y013565D02*
X011839Y013565D01*
X011839Y013623D02*
X012262Y013623D01*
X012262Y013652D02*
X012262Y013593D01*
X012321Y013593D01*
X012321Y013652D01*
X012262Y013652D01*
X012262Y013868D01*
X012089Y013868D01*
X012078Y013864D01*
X012069Y013855D01*
X012065Y013844D01*
X012065Y013652D01*
X012262Y013652D01*
X012262Y013680D02*
X012321Y013680D01*
X012321Y013652D02*
X012321Y013868D01*
X012494Y013868D01*
X012505Y013864D01*
X012513Y013855D01*
X012518Y013844D01*
X012518Y013652D01*
X012321Y013652D01*
X012321Y013623D02*
X012892Y013623D01*
X012892Y013604D02*
X012695Y013604D01*
X012695Y013411D01*
X012699Y013401D01*
X012708Y013392D01*
X012719Y013388D01*
X012892Y013388D01*
X012892Y013604D01*
X012951Y013604D01*
X012951Y013388D01*
X013124Y013388D01*
X013135Y013392D01*
X013143Y013401D01*
X013148Y013411D01*
X013148Y013604D01*
X012951Y013604D01*
X012951Y013663D01*
X013148Y013663D01*
X013148Y013856D01*
X013143Y013867D01*
X013135Y013875D01*
X013124Y013880D01*
X012951Y013880D01*
X012951Y013663D01*
X012892Y013663D01*
X012892Y013604D01*
X012892Y013565D02*
X012951Y013565D01*
X012951Y013508D02*
X012892Y013508D01*
X012892Y013450D02*
X012951Y013450D01*
X012951Y013392D02*
X012892Y013392D01*
X012708Y013392D02*
X012515Y013392D01*
X012513Y013389D02*
X012518Y013400D01*
X012518Y013593D01*
X012321Y013593D01*
X012321Y013376D01*
X012494Y013376D01*
X012505Y013380D01*
X012513Y013389D01*
X012518Y013450D02*
X012695Y013450D01*
X012695Y013508D02*
X012518Y013508D01*
X012518Y013565D02*
X012695Y013565D01*
X012695Y013663D02*
X012892Y013663D01*
X012892Y013880D01*
X012719Y013880D01*
X012708Y013875D01*
X012699Y013867D01*
X012695Y013856D01*
X012695Y013663D01*
X012695Y013680D02*
X012518Y013680D01*
X012518Y013738D02*
X012695Y013738D01*
X012695Y013795D02*
X012518Y013795D01*
X012514Y013853D02*
X012695Y013853D01*
X012892Y013853D02*
X012951Y013853D01*
X012951Y013795D02*
X012892Y013795D01*
X012892Y013738D02*
X012951Y013738D01*
X012951Y013680D02*
X012892Y013680D01*
X012951Y013623D02*
X013522Y013623D01*
X013522Y013604D02*
X013325Y013604D01*
X013325Y013411D01*
X013329Y013401D01*
X013338Y013392D01*
X013348Y013388D01*
X013522Y013388D01*
X013522Y013604D01*
X013581Y013604D01*
X013581Y013388D01*
X013754Y013388D01*
X013765Y013392D01*
X013773Y013401D01*
X013778Y013411D01*
X013778Y013604D01*
X013581Y013604D01*
X013581Y013663D01*
X013778Y013663D01*
X013778Y013856D01*
X013773Y013867D01*
X013765Y013875D01*
X013754Y013880D01*
X013581Y013880D01*
X013581Y013663D01*
X013522Y013663D01*
X013522Y013604D01*
X013522Y013565D02*
X013581Y013565D01*
X013581Y013508D02*
X013522Y013508D01*
X013522Y013450D02*
X013581Y013450D01*
X013581Y013392D02*
X013522Y013392D01*
X013337Y013392D02*
X013135Y013392D01*
X013148Y013450D02*
X013325Y013450D01*
X013325Y013508D02*
X013148Y013508D01*
X013148Y013565D02*
X013325Y013565D01*
X013325Y013663D02*
X013522Y013663D01*
X013522Y013880D01*
X013348Y013880D01*
X013338Y013875D01*
X013329Y013867D01*
X013325Y013856D01*
X013325Y013663D01*
X013325Y013680D02*
X013148Y013680D01*
X013148Y013738D02*
X013325Y013738D01*
X013325Y013795D02*
X013148Y013795D01*
X013148Y013853D02*
X013325Y013853D01*
X013522Y013853D02*
X013581Y013853D01*
X013581Y013795D02*
X013522Y013795D01*
X013522Y013738D02*
X013581Y013738D01*
X013581Y013680D02*
X013522Y013680D01*
X013551Y013634D02*
X013831Y013634D01*
X014083Y013886D01*
X014142Y013680D02*
X013778Y013680D01*
X013778Y013738D02*
X014238Y013738D01*
X014400Y013738D02*
X016069Y013738D01*
X016069Y013795D02*
X013778Y013795D01*
X013778Y013853D02*
X016069Y013853D01*
X016069Y013852D02*
X016069Y013660D01*
X016266Y013660D01*
X016266Y013876D01*
X016093Y013876D01*
X016082Y013872D01*
X016073Y013863D01*
X016069Y013852D01*
X016069Y013680D02*
X014495Y013680D01*
X014544Y013623D02*
X016266Y013623D01*
X016266Y013600D02*
X016069Y013600D01*
X016069Y013408D01*
X016073Y013397D01*
X016082Y013388D01*
X016093Y013384D01*
X016266Y013384D01*
X016266Y013600D01*
X016325Y013600D01*
X016325Y013384D01*
X016498Y013384D01*
X016509Y013388D01*
X016517Y013397D01*
X016522Y013408D01*
X016522Y013600D01*
X016325Y013600D01*
X016325Y013660D01*
X016266Y013660D01*
X016266Y013600D01*
X016266Y013565D02*
X016325Y013565D01*
X016325Y013508D02*
X016266Y013508D01*
X016266Y013450D02*
X016325Y013450D01*
X016325Y013392D02*
X016266Y013392D01*
X016078Y013392D02*
X014901Y013392D01*
X014959Y013335D02*
X016533Y013335D01*
X016513Y013392D02*
X016590Y013392D01*
X016618Y013450D02*
X016522Y013450D01*
X016522Y013508D02*
X016618Y013508D01*
X016618Y013565D02*
X016522Y013565D01*
X016522Y013660D02*
X016522Y013852D01*
X016517Y013863D01*
X016509Y013872D01*
X016498Y013876D01*
X016325Y013876D01*
X016325Y013660D01*
X016522Y013660D01*
X016522Y013680D02*
X016618Y013680D01*
X016618Y013623D02*
X016325Y013623D01*
X016325Y013680D02*
X016266Y013680D01*
X016266Y013738D02*
X016325Y013738D01*
X016325Y013795D02*
X016266Y013795D01*
X016266Y013853D02*
X016325Y013853D01*
X016522Y013853D02*
X016618Y013853D01*
X016620Y013910D02*
X011825Y013910D01*
X011839Y013853D02*
X012068Y013853D01*
X012065Y013795D02*
X011839Y013795D01*
X011839Y013738D02*
X012065Y013738D01*
X012065Y013680D02*
X011839Y013680D01*
X011767Y013968D02*
X016678Y013968D01*
X016618Y013795D02*
X016522Y013795D01*
X016522Y013738D02*
X016618Y013738D01*
X016069Y013565D02*
X014568Y013565D01*
X014577Y013508D02*
X016069Y013508D01*
X016069Y013450D02*
X014577Y013450D01*
X014557Y013392D02*
X014603Y013392D01*
X014545Y013335D02*
X014526Y013335D01*
X014514Y013277D02*
X014498Y013277D01*
X014358Y013453D02*
X014319Y013492D01*
X014319Y012783D01*
X012870Y011335D01*
X012870Y009787D01*
X012713Y009787D02*
X012705Y009795D01*
X012705Y011642D01*
X013020Y011957D01*
X013252Y012069D02*
X013351Y012069D01*
X013408Y012126D02*
X013215Y012126D01*
X013145Y012184D02*
X013466Y012184D01*
X013524Y012241D02*
X012849Y012241D01*
X012844Y012184D02*
X012894Y012184D01*
X012906Y012299D02*
X013581Y012299D01*
X013639Y012356D02*
X012964Y012356D01*
X013022Y012414D02*
X013696Y012414D01*
X013754Y012472D02*
X013079Y012472D01*
X013100Y012529D02*
X013811Y012529D01*
X014201Y012272D02*
X013028Y011098D01*
X013028Y009787D01*
X013185Y009787D02*
X013185Y010823D01*
X014752Y012390D01*
X014752Y013177D01*
X014990Y013277D02*
X016475Y013277D01*
X016418Y013220D02*
X015010Y013220D01*
X015010Y013162D02*
X016360Y013162D01*
X016302Y013105D02*
X015001Y013105D01*
X014977Y013047D02*
X016245Y013047D01*
X016187Y012990D02*
X015540Y012990D01*
X015598Y012932D02*
X016130Y012932D01*
X016086Y012874D02*
X015623Y012874D01*
X015640Y012817D02*
X016086Y012817D01*
X016048Y012759D02*
X015932Y012759D01*
X015989Y012702D02*
X015991Y012702D01*
X015382Y012783D02*
X013343Y010744D01*
X013343Y009787D01*
X013500Y009787D02*
X013500Y010626D01*
X014555Y011681D01*
X014752Y011681D01*
X014909Y011366D02*
X014476Y011366D01*
X013657Y010547D01*
X013657Y009787D01*
X013815Y009787D02*
X013815Y010508D01*
X014516Y011209D01*
X014988Y011209D01*
X015579Y011799D01*
X016720Y011799D01*
X016917Y011996D01*
X016917Y012429D01*
X017311Y012823D01*
X017547Y012823D01*
X017567Y012843D01*
X018004Y012843D01*
X018004Y013157D02*
X017724Y013157D01*
X017587Y013295D01*
X017232Y013295D01*
X016642Y012705D01*
X016642Y012154D01*
X016484Y011996D01*
X015539Y011996D01*
X014909Y011366D01*
X015067Y011051D02*
X014594Y011051D01*
X013965Y010421D01*
X013965Y009795D01*
X013972Y009787D01*
X014130Y009787D02*
X014130Y010390D01*
X014634Y010894D01*
X015146Y010894D01*
X015579Y011327D01*
X015539Y011524D02*
X016996Y011524D01*
X017075Y011602D01*
X017193Y011602D01*
X017193Y012311D01*
X017409Y012528D01*
X018004Y012528D01*
X017984Y013137D02*
X017992Y013139D01*
X017998Y013143D01*
X018002Y013149D01*
X018004Y013157D01*
X017587Y013295D02*
X017587Y013571D01*
X017744Y013728D01*
X017610Y013853D02*
X017311Y013853D01*
X017309Y013910D02*
X017667Y013910D01*
X017725Y013968D02*
X017252Y013968D01*
X017311Y013795D02*
X017558Y013795D01*
X017500Y013738D02*
X017311Y013738D01*
X017311Y013680D02*
X017443Y013680D01*
X017408Y013623D02*
X017311Y013623D01*
X017311Y013565D02*
X017408Y013565D01*
X017408Y013508D02*
X017311Y013508D01*
X018774Y013508D02*
X019557Y013508D01*
X019499Y013565D02*
X018774Y013565D01*
X018774Y013623D02*
X019441Y013623D01*
X019614Y013450D02*
X018774Y013450D01*
X018774Y013392D02*
X019672Y013392D01*
X019729Y013335D02*
X018774Y013335D01*
X018774Y013277D02*
X019787Y013277D01*
X019844Y013220D02*
X018774Y013220D01*
X018774Y013162D02*
X019902Y013162D01*
X019959Y013105D02*
X018774Y013105D01*
X018774Y013047D02*
X020017Y013047D01*
X020075Y012990D02*
X018774Y012990D01*
X018774Y012932D02*
X020132Y012932D01*
X020470Y013335D02*
X020529Y013335D01*
X020529Y013392D02*
X020470Y013392D01*
X020470Y013450D02*
X020529Y013450D01*
X020529Y013508D02*
X020470Y013508D01*
X020470Y013565D02*
X020529Y013565D01*
X020195Y013565D02*
X020017Y013565D01*
X020074Y013508D02*
X020195Y013508D01*
X020195Y013450D02*
X020132Y013450D01*
X020189Y013392D02*
X020195Y013392D01*
X020195Y013623D02*
X019959Y013623D01*
X019786Y013795D02*
X020195Y013795D01*
X020195Y013853D02*
X019729Y013853D01*
X019671Y013910D02*
X020195Y013910D01*
X020195Y013968D02*
X019614Y013968D01*
X020195Y014026D02*
X010207Y014026D01*
X010333Y013968D02*
X010548Y013968D01*
X010490Y013910D02*
X010391Y013910D01*
X010440Y013853D02*
X010476Y013853D01*
X011098Y013968D02*
X011217Y013968D01*
X011160Y013910D02*
X011155Y013910D01*
X012262Y013853D02*
X012321Y013853D01*
X012321Y013795D02*
X012262Y013795D01*
X012262Y013738D02*
X012321Y013738D01*
X012321Y013565D02*
X012262Y013565D01*
X012262Y013508D02*
X012321Y013508D01*
X012321Y013450D02*
X012262Y013450D01*
X012262Y013392D02*
X012321Y013392D01*
X012592Y013277D02*
X012609Y013277D01*
X013233Y013277D02*
X013239Y013277D01*
X013581Y013623D02*
X014094Y013623D01*
X014070Y013565D02*
X013778Y013565D01*
X013778Y013508D02*
X014061Y013508D01*
X014061Y013450D02*
X013778Y013450D01*
X013765Y013392D02*
X014081Y013392D01*
X014931Y012990D02*
X015223Y012990D01*
X015166Y012932D02*
X014931Y012932D01*
X014931Y012874D02*
X015141Y012874D01*
X015124Y012817D02*
X014931Y012817D01*
X014931Y012759D02*
X015104Y012759D01*
X015047Y012702D02*
X014931Y012702D01*
X014931Y012644D02*
X014989Y012644D01*
X014932Y012587D02*
X014931Y012587D01*
X013247Y012644D02*
X013226Y012644D01*
X013276Y012011D02*
X013293Y012011D01*
X015067Y011051D02*
X015539Y011524D01*
X015692Y010911D02*
X015938Y010911D01*
X016131Y010718D01*
X015499Y010718D01*
X015692Y010911D01*
X015641Y010860D02*
X015989Y010860D01*
X016047Y010802D02*
X015583Y010802D01*
X015526Y010745D02*
X016104Y010745D01*
X016790Y010232D02*
X016935Y010377D01*
X016949Y010391D01*
X016936Y010423D01*
X016873Y010360D01*
X014826Y010360D01*
X014698Y010232D01*
X016790Y010232D01*
X016842Y010284D02*
X014750Y010284D01*
X014808Y010342D02*
X016900Y010342D01*
X016913Y010400D02*
X016945Y010400D01*
X017114Y010303D02*
X016957Y010146D01*
X016957Y009795D01*
X016965Y009787D01*
X017153Y009766D02*
X017366Y009766D01*
X017354Y009754D02*
X017389Y009789D01*
X017484Y009829D01*
X017488Y009829D01*
X017441Y009848D01*
X017368Y009921D01*
X017329Y010016D01*
X017329Y010118D01*
X017331Y010124D01*
X017188Y010124D01*
X017153Y010089D01*
X017153Y009664D01*
X017243Y009754D01*
X017354Y009754D01*
X017473Y009824D02*
X017153Y009824D01*
X017153Y009882D02*
X017407Y009882D01*
X017361Y009939D02*
X017153Y009939D01*
X017153Y009997D02*
X017337Y009997D01*
X017329Y010054D02*
X017153Y010054D01*
X017176Y010112D02*
X017329Y010112D01*
X017114Y010303D02*
X018374Y010303D01*
X018535Y010142D01*
X018657Y010142D01*
X019484Y009479D02*
X021341Y009479D01*
X021346Y009421D02*
X019426Y009421D01*
X019369Y009364D02*
X021370Y009364D01*
X021408Y009306D02*
X019311Y009306D01*
X019254Y009248D02*
X021479Y009248D01*
X021726Y009248D02*
X022679Y009248D01*
X022622Y009306D02*
X021797Y009306D01*
X021835Y009364D02*
X022564Y009364D01*
X022507Y009421D02*
X021858Y009421D01*
X021860Y009479D02*
X022449Y009479D01*
X022392Y009536D02*
X021857Y009536D01*
X021833Y009594D02*
X022334Y009594D01*
X022277Y009651D02*
X021792Y009651D01*
X021715Y009709D02*
X022219Y009709D01*
X022161Y009766D02*
X021571Y009766D01*
X021514Y009824D02*
X022104Y009824D01*
X022046Y009882D02*
X021456Y009882D01*
X021398Y009939D02*
X021989Y009939D01*
X021931Y009997D02*
X021341Y009997D01*
X021283Y010054D02*
X021874Y010054D01*
X021816Y010112D02*
X021226Y010112D01*
X021168Y010169D02*
X021759Y010169D01*
X021701Y010227D02*
X021111Y010227D01*
X021053Y010284D02*
X021643Y010284D01*
X021586Y010342D02*
X020996Y010342D01*
X020938Y010400D02*
X021528Y010400D01*
X021471Y010457D02*
X020880Y010457D01*
X020823Y010515D02*
X021413Y010515D01*
X021356Y010572D02*
X020765Y010572D01*
X020708Y010630D02*
X021298Y010630D01*
X021241Y010687D02*
X020650Y010687D01*
X020593Y010745D02*
X021183Y010745D01*
X021125Y010802D02*
X020535Y010802D01*
X020478Y010860D02*
X021068Y010860D01*
X021010Y010918D02*
X020085Y010918D01*
X020028Y010975D02*
X020953Y010975D01*
X021586Y011320D02*
X021592Y011320D01*
X021644Y011263D02*
X021649Y011263D01*
X021701Y011205D02*
X021707Y011205D01*
X021759Y011148D02*
X021764Y011148D01*
X021817Y011090D02*
X021822Y011090D01*
X021874Y011033D02*
X021879Y011033D01*
X021932Y010975D02*
X021937Y010975D01*
X021989Y010918D02*
X021995Y010918D01*
X022047Y010860D02*
X022052Y010860D01*
X022104Y010802D02*
X022110Y010802D01*
X022162Y010745D02*
X022167Y010745D01*
X022219Y010687D02*
X022225Y010687D01*
X022277Y010630D02*
X022282Y010630D01*
X022335Y010572D02*
X022340Y010572D01*
X022392Y010515D02*
X022397Y010515D01*
X022450Y010457D02*
X022455Y010457D01*
X022507Y010400D02*
X022513Y010400D01*
X022565Y010342D02*
X022570Y010342D01*
X022622Y010284D02*
X022628Y010284D01*
X022680Y010227D02*
X022685Y010227D01*
X022737Y010169D02*
X022743Y010169D01*
X022795Y010112D02*
X022800Y010112D01*
X022853Y010054D02*
X024744Y010054D01*
X024746Y009997D02*
X022910Y009997D01*
X022968Y009939D02*
X024782Y009939D01*
X024793Y009882D02*
X023025Y009882D01*
X023083Y009824D02*
X024817Y009824D01*
X024865Y009766D02*
X023140Y009766D01*
X023198Y009709D02*
X023613Y009709D01*
X023553Y009651D02*
X023255Y009651D01*
X023313Y009594D02*
X023517Y009594D01*
X023494Y009536D02*
X023371Y009536D01*
X023428Y009479D02*
X023492Y009479D01*
X023486Y009421D02*
X023495Y009421D01*
X023907Y009709D02*
X024957Y009709D01*
X025143Y009709D02*
X025431Y009709D01*
X025431Y009766D02*
X025235Y009766D01*
X025283Y009824D02*
X025431Y009824D01*
X025431Y009882D02*
X025307Y009882D01*
X025318Y009939D02*
X025431Y009939D01*
X025431Y009997D02*
X025318Y009997D01*
X025301Y010054D02*
X025431Y010054D01*
X025277Y010112D02*
X025202Y010187D01*
X025122Y010227D02*
X025431Y010227D01*
X025431Y010284D02*
X025122Y010284D01*
X025122Y010342D02*
X025431Y010342D01*
X025431Y010400D02*
X025122Y010400D01*
X025112Y010457D02*
X025431Y010457D01*
X025431Y010515D02*
X025112Y010515D01*
X025112Y010572D02*
X025431Y010572D01*
X025431Y010630D02*
X025112Y010630D01*
X025112Y010687D02*
X025431Y010687D01*
X025431Y010745D02*
X025112Y010745D01*
X025112Y010802D02*
X025431Y010802D01*
X025431Y010860D02*
X025112Y010860D01*
X025112Y010918D02*
X025431Y010918D01*
X025431Y010975D02*
X025112Y010975D01*
X025112Y011033D02*
X025431Y011033D01*
X025431Y011090D02*
X025112Y011090D01*
X025112Y011148D02*
X025431Y011148D01*
X025468Y011205D02*
X025112Y011205D01*
X025112Y011263D02*
X025526Y011263D01*
X025496Y011320D02*
X025583Y011320D01*
X025575Y011378D02*
X025641Y011378D01*
X025619Y011436D02*
X025698Y011436D01*
X025711Y011493D02*
X025643Y011493D01*
X025650Y011551D02*
X025711Y011551D01*
X025711Y011608D02*
X025650Y011608D01*
X025629Y011666D02*
X025711Y011666D01*
X025711Y011723D02*
X025600Y011723D01*
X025618Y011781D02*
X025711Y011781D01*
X025711Y011838D02*
X025673Y011838D01*
X025673Y011896D02*
X025711Y011896D01*
X025711Y011954D02*
X025673Y011954D01*
X025673Y012011D02*
X025690Y012011D01*
X025673Y012028D02*
X025673Y012028D01*
X025382Y012177D02*
X025382Y011563D01*
X025135Y011666D02*
X025112Y011666D01*
X025112Y011723D02*
X025164Y011723D01*
X025114Y011608D02*
X025112Y011608D01*
X025112Y011551D02*
X025114Y011551D01*
X025112Y011493D02*
X025121Y011493D01*
X025112Y011436D02*
X025145Y011436D01*
X025112Y011378D02*
X025188Y011378D01*
X025112Y011320D02*
X025268Y011320D01*
X024754Y011320D02*
X023996Y011320D01*
X023996Y011378D02*
X024754Y011378D01*
X024754Y011436D02*
X023989Y011436D01*
X023965Y011493D02*
X024754Y011493D01*
X024754Y011551D02*
X023922Y011551D01*
X023897Y011608D02*
X024754Y011608D01*
X024754Y011666D02*
X023839Y011666D01*
X023789Y011723D02*
X024754Y011723D01*
X024681Y011781D02*
X024319Y011781D01*
X024374Y011838D02*
X024626Y011838D01*
X024626Y011896D02*
X024374Y011896D01*
X024470Y011954D02*
X024529Y011954D01*
X024529Y012011D02*
X024470Y012011D01*
X024470Y012069D02*
X024529Y012069D01*
X024529Y012126D02*
X024470Y012126D01*
X024470Y012184D02*
X024529Y012184D01*
X024529Y012241D02*
X024470Y012241D01*
X024476Y012248D02*
X024476Y011248D01*
X024754Y011263D02*
X023975Y011263D01*
X023946Y011205D02*
X024754Y011205D01*
X024754Y011148D02*
X023888Y011148D01*
X023728Y011366D02*
X023728Y011524D01*
X023610Y011642D01*
X023610Y012248D01*
X023634Y012272D01*
X024067Y012193D02*
X024067Y012799D01*
X024043Y012823D01*
X023799Y012932D02*
X023012Y012932D01*
X023035Y012874D02*
X023776Y012874D01*
X023776Y012817D02*
X023051Y012817D01*
X023051Y012759D02*
X023780Y012759D01*
X023831Y012990D02*
X022956Y012990D01*
X022846Y013047D02*
X023889Y013047D01*
X023400Y012702D02*
X023039Y012702D01*
X023015Y012644D02*
X023342Y012644D01*
X023201Y012193D02*
X023201Y011539D01*
X023217Y011524D01*
X023392Y011320D02*
X023461Y011320D01*
X023461Y011378D02*
X023446Y011378D01*
X023481Y011263D02*
X023286Y011263D01*
X023147Y011263D02*
X022156Y011263D01*
X022209Y011320D02*
X022098Y011320D01*
X022134Y011378D02*
X022041Y011378D01*
X022092Y011436D02*
X021983Y011436D01*
X021926Y011493D02*
X022068Y011493D01*
X022062Y011551D02*
X021868Y011551D01*
X021831Y011608D02*
X022062Y011608D01*
X022084Y011666D02*
X021826Y011666D01*
X021803Y011723D02*
X022115Y011723D01*
X022082Y011781D02*
X021763Y011781D01*
X021692Y011838D02*
X022028Y011838D01*
X022028Y011896D02*
X019573Y011896D01*
X019577Y011954D02*
X022028Y011954D01*
X022028Y012011D02*
X019575Y012011D01*
X019552Y012069D02*
X022028Y012069D01*
X022028Y012126D02*
X019514Y012126D01*
X019444Y012184D02*
X022028Y012184D01*
X022028Y012241D02*
X018686Y012241D01*
X018686Y012184D02*
X019193Y012184D01*
X019209Y011723D02*
X018850Y011723D01*
X018850Y011666D02*
X021300Y011666D01*
X021323Y011723D02*
X019429Y011723D01*
X019508Y011781D02*
X021363Y011781D01*
X021433Y011838D02*
X019549Y011838D01*
X019268Y011608D02*
X018850Y011608D01*
X018850Y011551D02*
X019211Y011551D01*
X019153Y011493D02*
X018812Y011493D01*
X018662Y011378D02*
X019038Y011378D01*
X018981Y011320D02*
X018696Y011320D01*
X018720Y011263D02*
X018805Y011263D01*
X018747Y011205D02*
X018720Y011205D01*
X018604Y011436D02*
X019096Y011436D01*
X018705Y012299D02*
X022028Y012299D01*
X022028Y012356D02*
X018763Y012356D01*
X018774Y012414D02*
X022028Y012414D01*
X022028Y012472D02*
X018774Y012472D01*
X018774Y012529D02*
X022028Y012529D01*
X022533Y012932D02*
X022555Y012932D01*
X022533Y012990D02*
X022611Y012990D01*
X022533Y013047D02*
X022720Y013047D01*
X022094Y013450D02*
X021504Y013450D01*
X021562Y013508D02*
X022037Y013508D01*
X024476Y012248D02*
X024500Y012272D01*
X024933Y012193D02*
X024933Y010327D01*
X024870Y010264D01*
X022902Y010264D01*
X021563Y011602D01*
X022213Y011205D02*
X023511Y011205D01*
X023568Y011148D02*
X022271Y011148D01*
X022328Y011090D02*
X024754Y011090D01*
X024754Y011033D02*
X022386Y011033D01*
X022443Y010975D02*
X024754Y010975D01*
X024754Y010918D02*
X022501Y010918D01*
X022559Y010860D02*
X024754Y010860D01*
X024754Y010802D02*
X022616Y010802D01*
X022674Y010745D02*
X024754Y010745D01*
X024754Y010687D02*
X022731Y010687D01*
X022789Y010630D02*
X024754Y010630D01*
X024754Y010572D02*
X022846Y010572D01*
X022904Y010515D02*
X024754Y010515D01*
X024754Y010457D02*
X022961Y010457D01*
X023041Y011320D02*
X022451Y011320D01*
X022526Y011378D02*
X022987Y011378D01*
X022963Y011436D02*
X022568Y011436D01*
X022592Y011493D02*
X022949Y011493D01*
X022949Y011551D02*
X022598Y011551D01*
X023789Y011781D02*
X023815Y011781D01*
X025366Y012193D02*
X025382Y012177D01*
X025673Y012356D02*
X025698Y012356D01*
X025673Y012414D02*
X025765Y012414D01*
X025673Y012472D02*
X026140Y012472D01*
X026112Y012529D02*
X025673Y012529D01*
X025637Y012587D02*
X026092Y012587D01*
X026035Y012414D02*
X026171Y012414D01*
X026171Y012356D02*
X026102Y012356D01*
X026140Y012299D02*
X026171Y012299D01*
X026164Y012241D02*
X026171Y012241D01*
X026168Y012184D02*
X026171Y012184D01*
X026167Y012126D02*
X026171Y012126D01*
X026171Y012069D02*
X026144Y012069D01*
X026171Y012011D02*
X026110Y012011D01*
X026089Y011954D02*
X026171Y011954D01*
X026171Y011896D02*
X026089Y011896D01*
X026089Y011838D02*
X026171Y011838D01*
X026171Y011781D02*
X026089Y011781D01*
X026089Y011723D02*
X026171Y011723D01*
X026171Y011666D02*
X026089Y011666D01*
X026089Y011608D02*
X026171Y011608D01*
X026171Y011551D02*
X026089Y011551D01*
X026089Y011493D02*
X026171Y011493D01*
X026171Y011436D02*
X026089Y011436D01*
X026089Y011378D02*
X026171Y011378D01*
X026153Y011320D02*
X026089Y011320D01*
X026096Y011263D02*
X026060Y011263D01*
X026038Y011205D02*
X026002Y011205D01*
X025981Y011148D02*
X025945Y011148D01*
X025923Y011090D02*
X025887Y011090D01*
X025865Y011033D02*
X025830Y011033D01*
X025431Y009651D02*
X023967Y009651D01*
X024003Y009594D02*
X025431Y009594D01*
X025431Y009536D02*
X024026Y009536D01*
X024029Y009479D02*
X025431Y009479D01*
X025431Y009421D02*
X024039Y009421D01*
X024039Y009364D02*
X025431Y009364D01*
X025431Y009306D02*
X024039Y009306D01*
X024039Y009248D02*
X025431Y009248D01*
X025431Y009191D02*
X024039Y009191D01*
X024039Y009133D02*
X025431Y009133D01*
X025431Y009076D02*
X024039Y009076D01*
X024039Y009018D02*
X025431Y009018D01*
X025431Y008961D02*
X024039Y008961D01*
X024039Y008903D02*
X025431Y008903D01*
X025431Y008846D02*
X024039Y008846D01*
X024039Y008788D02*
X025431Y008788D01*
X025431Y008730D02*
X024039Y008730D01*
X024039Y008673D02*
X025431Y008673D01*
X025431Y008615D02*
X024039Y008615D01*
X024039Y008558D02*
X024626Y008558D01*
X024568Y008500D02*
X024039Y008500D01*
X024039Y008443D02*
X024543Y008443D01*
X024543Y008385D02*
X024039Y008385D01*
X024039Y008328D02*
X024543Y008328D01*
X024543Y008270D02*
X024039Y008270D01*
X024039Y008212D02*
X024543Y008212D01*
X024543Y008155D02*
X024039Y008155D01*
X024039Y008097D02*
X024543Y008097D01*
X024543Y008040D02*
X024039Y008040D01*
X024039Y007982D02*
X024543Y007982D01*
X024543Y007925D02*
X024039Y007925D01*
X024039Y007867D02*
X024543Y007867D01*
X024543Y007810D02*
X024039Y007810D01*
X024039Y007752D02*
X024592Y007752D01*
X024228Y007637D02*
X024039Y007637D01*
X024039Y007579D02*
X024089Y007579D01*
X023234Y006831D02*
X023035Y006831D01*
X023101Y006774D02*
X023234Y006774D01*
X023234Y006716D02*
X023139Y006716D01*
X023162Y006658D02*
X023234Y006658D01*
X023234Y006601D02*
X023165Y006601D01*
X023164Y006543D02*
X023234Y006543D01*
X023234Y006486D02*
X023141Y006486D01*
X023106Y006428D02*
X023234Y006428D01*
X023234Y006371D02*
X023047Y006371D01*
X023234Y006313D02*
X022745Y006313D01*
X022687Y006256D02*
X023234Y006256D01*
X023234Y006198D02*
X018961Y006198D01*
X019018Y006140D02*
X023234Y006140D01*
X023234Y006083D02*
X019076Y006083D01*
X019112Y006025D02*
X019501Y006025D01*
X019502Y006026D02*
X019491Y006021D01*
X019483Y006013D01*
X019478Y006002D01*
X019478Y005809D01*
X019675Y005809D01*
X019675Y006026D01*
X019502Y006026D01*
X019478Y005968D02*
X019112Y005968D01*
X019112Y005910D02*
X019478Y005910D01*
X019478Y005853D02*
X019112Y005853D01*
X019112Y005795D02*
X019675Y005795D01*
X019675Y005738D02*
X019734Y005738D01*
X019734Y005680D02*
X019675Y005680D01*
X019675Y005622D02*
X019734Y005622D01*
X019734Y005565D02*
X019675Y005565D01*
X019478Y005565D02*
X019112Y005565D01*
X019112Y005622D02*
X019478Y005622D01*
X019478Y005680D02*
X019112Y005680D01*
X019112Y005738D02*
X019478Y005738D01*
X019675Y005853D02*
X019734Y005853D01*
X019734Y005910D02*
X019675Y005910D01*
X019675Y005968D02*
X019734Y005968D01*
X019734Y006025D02*
X019675Y006025D01*
X019908Y006025D02*
X023234Y006025D01*
X023234Y005968D02*
X019931Y005968D01*
X019931Y005910D02*
X023234Y005910D01*
X022124Y006256D02*
X021998Y006256D01*
X022056Y006313D02*
X022066Y006313D01*
X021435Y006256D02*
X021294Y006256D01*
X021351Y006313D02*
X021377Y006313D01*
X021370Y006371D02*
X021358Y006371D01*
X021358Y006831D02*
X021370Y006831D01*
X021382Y006889D02*
X021346Y006889D01*
X021289Y006946D02*
X021439Y006946D01*
X021503Y007026D02*
X021514Y007022D01*
X021687Y007022D01*
X021687Y007238D01*
X021746Y007238D01*
X021746Y007022D01*
X021919Y007022D01*
X021930Y007026D01*
X021938Y007034D01*
X021943Y007045D01*
X021943Y007238D01*
X021746Y007238D01*
X021746Y007297D01*
X021943Y007297D01*
X021943Y007490D01*
X021938Y007501D01*
X021930Y007509D01*
X021919Y007514D01*
X021746Y007514D01*
X021746Y007297D01*
X021687Y007297D01*
X021687Y007238D01*
X021490Y007238D01*
X021490Y007045D01*
X021495Y007034D01*
X021503Y007026D01*
X021490Y007061D02*
X021238Y007061D01*
X021238Y007119D02*
X021490Y007119D01*
X021490Y007176D02*
X021238Y007176D01*
X021238Y007234D02*
X021490Y007234D01*
X021490Y007297D02*
X021687Y007297D01*
X021687Y007514D01*
X021514Y007514D01*
X021503Y007509D01*
X021495Y007501D01*
X021490Y007490D01*
X021490Y007297D01*
X021490Y007349D02*
X021238Y007349D01*
X021238Y007297D02*
X021041Y007297D01*
X021041Y007514D01*
X021215Y007514D01*
X021225Y007509D01*
X021234Y007501D01*
X021238Y007490D01*
X021238Y007297D01*
X021238Y007407D02*
X021490Y007407D01*
X021490Y007464D02*
X021238Y007464D01*
X021041Y007464D02*
X020982Y007464D01*
X020982Y007407D02*
X021041Y007407D01*
X021041Y007349D02*
X020982Y007349D01*
X021041Y007292D02*
X021687Y007292D01*
X021687Y007349D02*
X021746Y007349D01*
X021746Y007292D02*
X022376Y007292D01*
X022376Y007349D02*
X022435Y007349D01*
X022435Y007407D02*
X022376Y007407D01*
X022376Y007464D02*
X022435Y007464D01*
X022435Y007234D02*
X022376Y007234D01*
X022376Y007176D02*
X022435Y007176D01*
X022435Y007119D02*
X022376Y007119D01*
X022376Y007061D02*
X022435Y007061D01*
X022179Y007061D02*
X021943Y007061D01*
X021943Y007119D02*
X022179Y007119D01*
X022179Y007176D02*
X021943Y007176D01*
X021943Y007234D02*
X022179Y007234D01*
X022179Y007349D02*
X021943Y007349D01*
X021943Y007407D02*
X022179Y007407D01*
X022179Y007464D02*
X021943Y007464D01*
X021746Y007464D02*
X021687Y007464D01*
X021687Y007407D02*
X021746Y007407D01*
X021746Y007234D02*
X021687Y007234D01*
X021687Y007176D02*
X021746Y007176D01*
X021746Y007119D02*
X021687Y007119D01*
X021687Y007061D02*
X021746Y007061D01*
X021994Y006946D02*
X022128Y006946D01*
X022071Y006889D02*
X022051Y006889D01*
X021041Y007061D02*
X020982Y007061D01*
X020982Y007119D02*
X021041Y007119D01*
X021041Y007176D02*
X020982Y007176D01*
X020982Y007234D02*
X021041Y007234D01*
X020735Y006946D02*
X020675Y006946D01*
X020224Y006774D02*
X018850Y006774D01*
X018803Y006821D02*
X018406Y007217D01*
X018455Y007238D01*
X018447Y007176D02*
X020206Y007176D01*
X020155Y007119D02*
X018504Y007119D01*
X018562Y007061D02*
X020131Y007061D01*
X020120Y007004D02*
X018620Y007004D01*
X018677Y006946D02*
X020120Y006946D01*
X020139Y006889D02*
X018735Y006889D01*
X018792Y006831D02*
X020167Y006831D01*
X018907Y006716D02*
X018803Y006821D01*
X018728Y006642D02*
X018728Y006327D01*
X018720Y006319D01*
X018720Y006185D01*
X018933Y005972D01*
X018933Y004783D01*
X019004Y004713D01*
X018634Y005083D01*
X017575Y005083D01*
X018020Y004874D02*
X018589Y004874D01*
X018647Y004817D02*
X018020Y004817D01*
X018020Y004759D02*
X018704Y004759D01*
X018746Y004702D02*
X018020Y004702D01*
X017997Y004644D02*
X018753Y004644D01*
X018777Y004586D02*
X018163Y004586D01*
X018161Y004610D02*
X018571Y004201D01*
X020106Y004201D01*
X020697Y004791D01*
X020643Y004446D02*
X020632Y004442D01*
X020623Y004433D01*
X020619Y004422D01*
X020619Y004230D01*
X020816Y004230D01*
X020816Y004446D01*
X020643Y004446D01*
X020619Y004414D02*
X018317Y004414D01*
X018317Y004356D02*
X020619Y004356D01*
X020619Y004299D02*
X018317Y004299D01*
X018317Y004241D02*
X020619Y004241D01*
X020619Y004170D02*
X020619Y003978D01*
X020623Y003967D01*
X020632Y003958D01*
X020643Y003954D01*
X020816Y003954D01*
X020816Y004170D01*
X020875Y004170D01*
X020875Y003954D01*
X021048Y003954D01*
X021059Y003958D01*
X021067Y003967D01*
X021072Y003978D01*
X021072Y004170D01*
X020875Y004170D01*
X020875Y004230D01*
X020816Y004230D01*
X020816Y004170D01*
X020619Y004170D01*
X020619Y004126D02*
X018317Y004126D01*
X018317Y004184D02*
X020816Y004184D01*
X020816Y004241D02*
X020875Y004241D01*
X020875Y004230D02*
X020875Y004446D01*
X021048Y004446D01*
X021059Y004442D01*
X021067Y004433D01*
X021072Y004422D01*
X021072Y004230D01*
X020875Y004230D01*
X020875Y004184D02*
X021168Y004184D01*
X021168Y004241D02*
X021072Y004241D01*
X021072Y004299D02*
X021168Y004299D01*
X021168Y004356D02*
X021072Y004356D01*
X021072Y004414D02*
X021168Y004414D01*
X021168Y004471D02*
X019095Y004471D01*
X019185Y004529D02*
X021219Y004529D01*
X020875Y004414D02*
X020816Y004414D01*
X020816Y004356D02*
X020875Y004356D01*
X020875Y004299D02*
X020816Y004299D01*
X020816Y004126D02*
X020875Y004126D01*
X020875Y004068D02*
X020816Y004068D01*
X020816Y004011D02*
X020875Y004011D01*
X021072Y004011D02*
X021168Y004011D01*
X021168Y004068D02*
X021072Y004068D01*
X021072Y004126D02*
X021168Y004126D01*
X021168Y003953D02*
X018317Y003953D01*
X018317Y003896D02*
X019902Y003896D01*
X019845Y003838D02*
X018317Y003838D01*
X018317Y003781D02*
X018971Y003781D01*
X018992Y003789D02*
X018897Y003750D01*
X018825Y003678D01*
X018786Y003583D01*
X018786Y003480D01*
X018825Y003385D01*
X018897Y003313D01*
X018992Y003274D01*
X019095Y003274D01*
X019189Y003313D01*
X019262Y003385D01*
X019301Y003480D01*
X019301Y003583D01*
X019262Y003678D01*
X019189Y003750D01*
X019095Y003789D01*
X018992Y003789D01*
X019115Y003781D02*
X019787Y003781D01*
X019730Y003723D02*
X019216Y003723D01*
X019267Y003666D02*
X019672Y003666D01*
X019615Y003608D02*
X019291Y003608D01*
X019301Y003550D02*
X019557Y003550D01*
X019500Y003493D02*
X019301Y003493D01*
X019283Y003435D02*
X019442Y003435D01*
X019384Y003378D02*
X019254Y003378D01*
X019197Y003320D02*
X019327Y003320D01*
X019269Y003263D02*
X018317Y003263D01*
X018317Y003320D02*
X018890Y003320D01*
X018832Y003378D02*
X018317Y003378D01*
X018317Y003435D02*
X018804Y003435D01*
X018786Y003493D02*
X018317Y003493D01*
X018317Y003550D02*
X018786Y003550D01*
X018796Y003608D02*
X018317Y003608D01*
X018317Y003666D02*
X018820Y003666D01*
X018870Y003723D02*
X018317Y003723D01*
X018317Y004011D02*
X020619Y004011D01*
X020619Y004068D02*
X018317Y004068D01*
X018571Y004201D02*
X018571Y003413D01*
X018317Y003205D02*
X019212Y003205D01*
X019225Y003218D02*
X019225Y003218D01*
X019154Y003148D02*
X018362Y003148D01*
X018419Y003090D02*
X019120Y003090D01*
X019120Y003032D02*
X018477Y003032D01*
X018534Y002975D02*
X019120Y002975D01*
X019120Y002917D02*
X018592Y002917D01*
X018649Y002860D02*
X019120Y002860D01*
X019120Y002802D02*
X018707Y002802D01*
X018764Y002745D02*
X019120Y002745D01*
X019120Y002687D02*
X018822Y002687D01*
X018880Y002630D02*
X019120Y002630D01*
X019120Y002572D02*
X018937Y002572D01*
X018995Y002514D02*
X019120Y002514D01*
X019120Y002457D02*
X019052Y002457D01*
X019110Y002399D02*
X019120Y002399D01*
X018807Y002114D02*
X017575Y003346D01*
X016791Y003090D02*
X016628Y003090D01*
X016642Y003059D02*
X016642Y003677D01*
X016650Y003685D01*
X016492Y003685D02*
X016484Y003677D01*
X016663Y003205D02*
X016676Y003205D01*
X016629Y003148D02*
X016733Y003148D01*
X018807Y002114D02*
X018807Y001071D01*
X018827Y001051D01*
X018591Y001051D02*
X018571Y001071D01*
X018118Y001051D02*
X018098Y001071D01*
X019535Y001051D02*
X019535Y002843D01*
X018913Y004471D02*
X018278Y004471D01*
X018220Y004529D02*
X018823Y004529D01*
X018161Y004610D02*
X017575Y004610D01*
X020051Y005335D02*
X020751Y005335D01*
X020808Y005392D02*
X020048Y005392D01*
X018720Y006185D02*
X017575Y006185D01*
X018728Y006642D02*
X017925Y007445D01*
X017575Y007445D01*
X018733Y007752D02*
X022347Y007752D01*
X022299Y007810D02*
X018788Y007810D01*
X018812Y007867D02*
X022299Y007867D01*
X022299Y007925D02*
X018827Y007925D01*
X018827Y007982D02*
X022299Y007982D01*
X022299Y008040D02*
X018814Y008040D01*
X018790Y008097D02*
X022299Y008097D01*
X022299Y008155D02*
X018840Y008155D01*
X018867Y008212D02*
X019145Y008212D01*
X019469Y008212D02*
X022299Y008212D01*
X022299Y008270D02*
X019526Y008270D01*
X019555Y008328D02*
X022299Y008328D01*
X022299Y008385D02*
X019575Y008385D01*
X019575Y008443D02*
X022299Y008443D01*
X022324Y008500D02*
X019567Y008500D01*
X019544Y008558D02*
X022382Y008558D01*
X022852Y009076D02*
X019240Y009076D01*
X019240Y009133D02*
X022795Y009133D01*
X022737Y009191D02*
X019224Y009191D01*
X019302Y009018D02*
X022910Y009018D01*
X022967Y008961D02*
X019371Y008961D01*
X019409Y008903D02*
X023025Y008903D01*
X023082Y008846D02*
X019433Y008846D01*
X019437Y008788D02*
X023140Y008788D01*
X023197Y008730D02*
X019437Y008730D01*
X019418Y008673D02*
X023234Y008673D01*
X023234Y008615D02*
X019499Y008615D01*
X019541Y009536D02*
X021284Y009536D01*
X021226Y009594D02*
X019599Y009594D01*
X020023Y009651D02*
X021169Y009651D01*
X021111Y009709D02*
X020080Y009709D01*
X020094Y009766D02*
X021054Y009766D01*
X020996Y009824D02*
X020094Y009824D01*
X020094Y009882D02*
X020938Y009882D01*
X020881Y009939D02*
X020094Y009939D01*
X020094Y009997D02*
X020823Y009997D01*
X020766Y010054D02*
X020094Y010054D01*
X020094Y010112D02*
X020708Y010112D01*
X020651Y010169D02*
X020094Y010169D01*
X020094Y010227D02*
X020593Y010227D01*
X020536Y010284D02*
X020049Y010284D01*
X020044Y010342D02*
X020478Y010342D01*
X020420Y010400D02*
X020094Y010400D01*
X020094Y010457D02*
X020363Y010457D01*
X017198Y009709D02*
X017153Y009709D01*
X012713Y009787D02*
X012713Y008972D01*
X012547Y008807D01*
X012547Y007941D01*
X012626Y007862D01*
X012626Y005264D01*
X013335Y004555D01*
X014555Y004555D01*
X014760Y004350D01*
X014760Y003685D01*
X014752Y003677D01*
X014445Y003685D02*
X014437Y003677D01*
X014581Y004184D02*
X011907Y004184D01*
X011917Y004241D02*
X014581Y004241D01*
X014558Y004299D02*
X011917Y004299D01*
X011917Y004356D02*
X014501Y004356D01*
X013223Y004414D02*
X011917Y004414D01*
X011917Y004471D02*
X013165Y004471D01*
X013108Y004529D02*
X011917Y004529D01*
X011917Y004586D02*
X013050Y004586D01*
X012993Y004644D02*
X011917Y004644D01*
X011917Y004702D02*
X012935Y004702D01*
X012877Y004759D02*
X011917Y004759D01*
X011917Y004817D02*
X012820Y004817D01*
X012762Y004874D02*
X011917Y004874D01*
X011917Y004932D02*
X012705Y004932D01*
X012647Y004989D02*
X011917Y004989D01*
X011917Y005047D02*
X012590Y005047D01*
X012532Y005104D02*
X011917Y005104D01*
X011917Y005162D02*
X012475Y005162D01*
X012447Y005220D02*
X011917Y005220D01*
X011917Y005277D02*
X012447Y005277D01*
X012447Y005335D02*
X011917Y005335D01*
X011917Y005392D02*
X012447Y005392D01*
X012447Y005450D02*
X011917Y005450D01*
X011917Y005507D02*
X012447Y005507D01*
X012447Y005565D02*
X011917Y005565D01*
X011917Y005622D02*
X012447Y005622D01*
X012447Y005680D02*
X011917Y005680D01*
X011917Y005738D02*
X012447Y005738D01*
X012447Y005795D02*
X011917Y005795D01*
X011878Y005853D02*
X012447Y005853D01*
X012447Y005910D02*
X011901Y005910D01*
X011917Y005968D02*
X012447Y005968D01*
X012447Y006025D02*
X011917Y006025D01*
X011917Y006083D02*
X012447Y006083D01*
X012447Y006140D02*
X011917Y006140D01*
X011917Y006198D02*
X012447Y006198D01*
X012447Y006256D02*
X011917Y006256D01*
X011917Y006313D02*
X012447Y006313D01*
X012447Y006371D02*
X012214Y006371D01*
X012272Y006428D02*
X012447Y006428D01*
X012447Y006486D02*
X012418Y006486D01*
X012311Y006720D02*
X012091Y006500D01*
X011472Y006500D01*
X011472Y006343D02*
X011035Y006343D01*
X010854Y006524D01*
X010264Y006524D01*
X010402Y006366D02*
X010344Y006309D01*
X009954Y006309D01*
X009778Y006484D01*
X009752Y006484D01*
X009942Y006658D02*
X010041Y006658D01*
X010045Y006670D02*
X010006Y006575D01*
X010006Y006545D01*
X009971Y006630D01*
X009898Y006703D01*
X009803Y006742D01*
X009716Y006742D01*
X009921Y006947D01*
X010403Y006948D01*
X010400Y006945D01*
X010360Y006850D01*
X010360Y006763D01*
X010315Y006781D01*
X010213Y006781D01*
X010118Y006742D01*
X010045Y006670D01*
X010092Y006716D02*
X009866Y006716D01*
X009988Y006720D02*
X010264Y006996D01*
X010854Y006996D01*
X011035Y006815D01*
X011472Y006815D01*
X011472Y006972D02*
X012248Y006972D01*
X012390Y007114D01*
X012350Y007311D02*
X012272Y007311D01*
X012091Y007130D01*
X011472Y007130D01*
X009846Y007126D01*
X009920Y006946D02*
X010401Y006946D01*
X010376Y006889D02*
X009862Y006889D01*
X009805Y006831D02*
X010360Y006831D01*
X010360Y006774D02*
X010334Y006774D01*
X010193Y006774D02*
X009747Y006774D01*
X009983Y006601D02*
X010017Y006601D01*
X010402Y006366D02*
X010795Y006366D01*
X010976Y006185D01*
X011472Y006185D01*
X011472Y006028D02*
X010906Y006028D01*
X010744Y006189D01*
X010421Y006189D01*
X010382Y006150D01*
X009890Y006150D01*
X009772Y006031D01*
X007512Y006031D01*
X007394Y006150D01*
X007047Y006476D01*
X007413Y006486D02*
X007687Y006486D01*
X007687Y006447D02*
X007746Y006447D01*
X007746Y006506D01*
X007746Y006543D02*
X007687Y006543D01*
X007687Y006601D02*
X007746Y006601D01*
X007746Y006658D02*
X007687Y006658D01*
X007687Y006447D02*
X007687Y006250D01*
X007548Y006250D01*
X007571Y006229D01*
X007571Y006226D01*
X007586Y006211D01*
X008854Y006211D01*
X008839Y006225D01*
X008839Y006743D01*
X008926Y006831D01*
X009298Y006831D01*
X008869Y006774D02*
X007375Y006774D01*
X007413Y006716D02*
X008839Y006716D01*
X008839Y006658D02*
X008781Y006658D01*
X008781Y006601D02*
X008839Y006601D01*
X008839Y006543D02*
X008781Y006543D01*
X008781Y006428D02*
X008839Y006428D01*
X008839Y006371D02*
X008781Y006371D01*
X008781Y006313D02*
X008839Y006313D01*
X008839Y006256D02*
X007951Y006256D01*
X007950Y006254D02*
X007958Y006263D01*
X007963Y006274D01*
X007963Y006447D01*
X007746Y006447D01*
X007746Y006250D01*
X007939Y006250D01*
X007950Y006254D01*
X007963Y006313D02*
X008289Y006313D01*
X008289Y006371D02*
X007963Y006371D01*
X007963Y006428D02*
X008289Y006428D01*
X008289Y006543D02*
X007963Y006543D01*
X007963Y006601D02*
X008289Y006601D01*
X008289Y006658D02*
X007963Y006658D01*
X007746Y006428D02*
X007687Y006428D01*
X007687Y006371D02*
X007746Y006371D01*
X007746Y006313D02*
X007687Y006313D01*
X007687Y006256D02*
X007746Y006256D01*
X007470Y006371D02*
X007420Y006371D01*
X007413Y006428D02*
X007470Y006428D01*
X007470Y006543D02*
X007413Y006543D01*
X007413Y006601D02*
X007470Y006601D01*
X007470Y006658D02*
X007413Y006658D01*
X007114Y006996D02*
X007051Y007059D01*
X007051Y007441D01*
X007045Y007959D02*
X007045Y008156D01*
X007104Y008156D01*
X007104Y008215D01*
X007321Y008215D01*
X007321Y008355D01*
X007321Y008328D02*
X007348Y008328D01*
X007321Y008270D02*
X007378Y008270D01*
X007378Y008212D02*
X007104Y008212D01*
X007104Y008156D02*
X007321Y008156D01*
X007321Y007982D01*
X007378Y007982D01*
X007321Y007982D02*
X007316Y007971D01*
X007308Y007963D01*
X007297Y007959D01*
X007104Y007959D01*
X007104Y008156D01*
X007104Y008155D02*
X007045Y008155D01*
X007045Y008212D02*
X006433Y008212D01*
X006829Y007982D02*
X006833Y007971D01*
X006842Y007963D01*
X006852Y007959D01*
X007045Y007959D01*
X007045Y007982D02*
X007104Y007982D01*
X007104Y008040D02*
X007045Y008040D01*
X007045Y008097D02*
X007104Y008097D01*
X007104Y008270D02*
X007045Y008270D01*
X007045Y008328D02*
X007104Y008328D01*
X007104Y008385D02*
X007045Y008385D01*
X007321Y008155D02*
X007378Y008155D01*
X007378Y008097D02*
X007321Y008097D01*
X007321Y008040D02*
X007378Y008040D01*
X007744Y008185D02*
X007280Y008650D01*
X006681Y008650D01*
X006445Y008886D01*
X006012Y008886D01*
X006346Y008673D02*
X006405Y008673D01*
X006403Y008615D02*
X006462Y008615D01*
X006433Y008558D02*
X006520Y008558D01*
X006577Y008500D02*
X006433Y008500D01*
X006875Y009053D02*
X006474Y009454D01*
X006474Y009946D01*
X006387Y010033D01*
X005938Y010033D01*
X005973Y010069D01*
X007585Y010069D01*
X007585Y010033D01*
X007456Y010033D01*
X007368Y009946D01*
X007368Y009243D01*
X007456Y009156D01*
X008080Y009156D01*
X008167Y009243D01*
X008167Y009946D01*
X008080Y010033D01*
X007951Y010033D01*
X007951Y010245D01*
X007868Y010328D01*
X007761Y010435D01*
X007761Y010435D01*
X007673Y010523D01*
X007673Y010534D01*
X008704Y010534D01*
X010503Y008734D01*
X009543Y008732D01*
X009465Y008732D01*
X009465Y008732D01*
X009465Y008732D01*
X009453Y008720D01*
X009096Y008720D01*
X009008Y008633D01*
X009008Y008543D01*
X008992Y008543D01*
X008992Y008633D01*
X008904Y008720D01*
X008487Y008720D01*
X008155Y009053D01*
X006875Y009053D01*
X006852Y009076D02*
X008419Y009076D01*
X008419Y009053D02*
X008616Y009053D01*
X008616Y008994D01*
X008419Y008994D01*
X008419Y008801D01*
X008424Y008790D01*
X008432Y008782D01*
X008443Y008778D01*
X008616Y008778D01*
X008616Y008994D01*
X008675Y008994D01*
X008675Y008778D01*
X008848Y008778D01*
X008859Y008782D01*
X008868Y008790D01*
X008872Y008801D01*
X008872Y008994D01*
X008675Y008994D01*
X008675Y009053D01*
X008616Y009053D01*
X008616Y009270D01*
X008443Y009270D01*
X008432Y009265D01*
X008424Y009257D01*
X008419Y009246D01*
X008419Y009053D01*
X008419Y009133D02*
X006795Y009133D01*
X006737Y009191D02*
X007421Y009191D01*
X007368Y009248D02*
X006680Y009248D01*
X006622Y009306D02*
X007368Y009306D01*
X007368Y009364D02*
X006565Y009364D01*
X006507Y009421D02*
X007368Y009421D01*
X007368Y009479D02*
X006474Y009479D01*
X006474Y009536D02*
X007368Y009536D01*
X007368Y009594D02*
X006474Y009594D01*
X006474Y009651D02*
X007368Y009651D01*
X007368Y009709D02*
X006474Y009709D01*
X006474Y009766D02*
X007368Y009766D01*
X007368Y009824D02*
X006474Y009824D01*
X006474Y009882D02*
X007368Y009882D01*
X007368Y009939D02*
X006474Y009939D01*
X006423Y009997D02*
X007419Y009997D01*
X007585Y010054D02*
X005959Y010054D01*
X005291Y009646D02*
X005291Y009606D01*
X005539Y009358D01*
X006884Y010457D02*
X006941Y010457D01*
X006941Y010515D02*
X006884Y010515D01*
X006884Y010572D02*
X006941Y010572D01*
X006941Y010630D02*
X006667Y010630D01*
X006667Y010687D02*
X006608Y010687D01*
X006608Y010630D02*
X005703Y010630D01*
X006608Y010745D02*
X006667Y010745D01*
X006667Y010802D02*
X006608Y010802D01*
X006884Y010802D02*
X006941Y010802D01*
X006941Y010745D02*
X006884Y010745D01*
X006884Y010687D02*
X006941Y010687D01*
X007681Y010515D02*
X008723Y010515D01*
X008780Y010457D02*
X007739Y010457D01*
X007796Y010400D02*
X008838Y010400D01*
X008895Y010342D02*
X007854Y010342D01*
X007868Y010328D02*
X007868Y010328D01*
X007911Y010284D02*
X008953Y010284D01*
X009010Y010227D02*
X007951Y010227D01*
X007951Y010169D02*
X009068Y010169D01*
X009126Y010112D02*
X007951Y010112D01*
X007951Y010054D02*
X009183Y010054D01*
X009241Y009997D02*
X008116Y009997D01*
X008167Y009939D02*
X009298Y009939D01*
X009356Y009882D02*
X008167Y009882D01*
X008167Y009824D02*
X009413Y009824D01*
X009471Y009766D02*
X008167Y009766D01*
X008167Y009709D02*
X009528Y009709D01*
X009586Y009651D02*
X008167Y009651D01*
X008167Y009594D02*
X009644Y009594D01*
X009701Y009536D02*
X008167Y009536D01*
X008167Y009479D02*
X009759Y009479D01*
X009816Y009421D02*
X008167Y009421D01*
X008167Y009364D02*
X009874Y009364D01*
X009931Y009306D02*
X008167Y009306D01*
X008167Y009248D02*
X008420Y009248D01*
X008419Y009191D02*
X008115Y009191D01*
X008189Y009018D02*
X008616Y009018D01*
X008616Y008961D02*
X008675Y008961D01*
X008675Y009018D02*
X009325Y009018D01*
X009325Y008994D02*
X009128Y008994D01*
X009128Y008801D01*
X009132Y008790D01*
X009141Y008782D01*
X009152Y008778D01*
X009325Y008778D01*
X009325Y008994D01*
X009384Y008994D01*
X009384Y009053D01*
X009581Y009053D01*
X009581Y009246D01*
X009576Y009257D01*
X009568Y009265D01*
X009557Y009270D01*
X009384Y009270D01*
X009384Y009053D01*
X009325Y009053D01*
X009325Y008994D01*
X009325Y008961D02*
X009384Y008961D01*
X009384Y008994D02*
X009384Y008778D01*
X009557Y008778D01*
X009568Y008782D01*
X009576Y008790D01*
X009581Y008801D01*
X009581Y008994D01*
X009384Y008994D01*
X009384Y009018D02*
X010219Y009018D01*
X010277Y008961D02*
X009581Y008961D01*
X009581Y008903D02*
X010334Y008903D01*
X010392Y008846D02*
X009581Y008846D01*
X009574Y008788D02*
X010449Y008788D01*
X010162Y009076D02*
X009581Y009076D01*
X009581Y009133D02*
X010104Y009133D01*
X010046Y009191D02*
X009581Y009191D01*
X009580Y009248D02*
X009989Y009248D01*
X009384Y009248D02*
X009325Y009248D01*
X009325Y009270D02*
X009152Y009270D01*
X009141Y009265D01*
X009132Y009257D01*
X009128Y009246D01*
X009128Y009053D01*
X009325Y009053D01*
X009325Y009270D01*
X009325Y009191D02*
X009384Y009191D01*
X009384Y009133D02*
X009325Y009133D01*
X009325Y009076D02*
X009384Y009076D01*
X009384Y008903D02*
X009325Y008903D01*
X009325Y008846D02*
X009384Y008846D01*
X009384Y008788D02*
X009325Y008788D01*
X009463Y008730D02*
X008477Y008730D01*
X008426Y008788D02*
X008420Y008788D01*
X008419Y008846D02*
X008362Y008846D01*
X008305Y008903D02*
X008419Y008903D01*
X008419Y008961D02*
X008247Y008961D01*
X008616Y008903D02*
X008675Y008903D01*
X008675Y008846D02*
X008616Y008846D01*
X008616Y008788D02*
X008675Y008788D01*
X008865Y008788D02*
X009135Y008788D01*
X009128Y008846D02*
X008872Y008846D01*
X008872Y008903D02*
X009128Y008903D01*
X009128Y008961D02*
X008872Y008961D01*
X008872Y009053D02*
X008872Y009246D01*
X008868Y009257D01*
X008859Y009265D01*
X008848Y009270D01*
X008675Y009270D01*
X008675Y009053D01*
X008872Y009053D01*
X008872Y009076D02*
X009128Y009076D01*
X009128Y009133D02*
X008872Y009133D01*
X008872Y009191D02*
X009128Y009191D01*
X009129Y009248D02*
X008871Y009248D01*
X008675Y009248D02*
X008616Y009248D01*
X008616Y009191D02*
X008675Y009191D01*
X008675Y009133D02*
X008616Y009133D01*
X008616Y009076D02*
X008675Y009076D01*
X008952Y008673D02*
X009048Y008673D01*
X009008Y008615D02*
X008992Y008615D01*
X008992Y008558D02*
X009008Y008558D01*
X010186Y008041D02*
X010340Y008195D01*
X011028Y008197D01*
X011028Y007981D01*
X010994Y008015D01*
X010889Y008120D01*
X010386Y008120D01*
X010308Y008041D01*
X010259Y008041D01*
X010186Y008041D01*
X010242Y008097D02*
X010364Y008097D01*
X010343Y008138D02*
X010894Y008138D01*
X011114Y007917D01*
X011472Y007917D01*
X011472Y007760D02*
X010996Y007760D01*
X010815Y007941D01*
X010461Y007941D01*
X010382Y007862D01*
X010185Y007862D01*
X009909Y007587D01*
X009909Y007469D01*
X009909Y007508D01*
X009713Y007637D02*
X009486Y007637D01*
X009486Y007579D02*
X009676Y007579D01*
X009652Y007522D02*
X009486Y007522D01*
X009270Y007522D02*
X009211Y007522D01*
X009211Y007579D02*
X009270Y007579D01*
X009270Y007637D02*
X009211Y007637D01*
X009211Y007349D02*
X009270Y007349D01*
X009270Y007292D02*
X009211Y007292D01*
X009211Y007234D02*
X009270Y007234D01*
X008565Y006658D02*
X008506Y006658D01*
X008506Y006601D02*
X008565Y006601D01*
X008565Y006428D02*
X008506Y006428D01*
X008506Y006371D02*
X008565Y006371D01*
X008565Y006313D02*
X008506Y006313D01*
X009241Y005620D02*
X009676Y005185D01*
X009988Y005185D01*
X010146Y005343D01*
X010776Y005343D01*
X010831Y005398D01*
X011472Y005398D01*
X011472Y005555D02*
X010791Y005555D01*
X010697Y005461D01*
X010539Y005461D01*
X010421Y005579D01*
X010067Y005579D01*
X009870Y005382D01*
X009875Y005640D02*
X009819Y005640D01*
X009764Y005617D01*
X009764Y005852D01*
X009846Y005852D01*
X009951Y005957D01*
X009964Y005971D01*
X010456Y005971D01*
X010495Y006010D01*
X010670Y006010D01*
X010731Y005949D01*
X010669Y005974D01*
X010567Y005974D01*
X010472Y005935D01*
X010400Y005863D01*
X010360Y005768D01*
X010360Y005758D01*
X009993Y005758D01*
X009888Y005653D01*
X009888Y005653D01*
X009875Y005640D01*
X009915Y005680D02*
X009764Y005680D01*
X009764Y005738D02*
X009973Y005738D01*
X009846Y005853D02*
X010395Y005853D01*
X010372Y005795D02*
X009764Y005795D01*
X009764Y005622D02*
X009777Y005622D01*
X009904Y005910D02*
X010447Y005910D01*
X010453Y005957D02*
X010776Y005957D01*
X010866Y005866D01*
X011469Y005866D01*
X011472Y005870D01*
X011469Y005717D02*
X010618Y005717D01*
X010551Y005968D02*
X009961Y005968D01*
X010685Y005968D02*
X010712Y005968D01*
X010760Y006657D02*
X010618Y006799D01*
X010760Y006657D02*
X011472Y006657D01*
X011472Y007287D02*
X010327Y007287D01*
X010224Y007390D01*
X010539Y007508D02*
X010602Y007445D01*
X011472Y007445D01*
X011472Y007602D02*
X010839Y007602D01*
X010697Y007744D01*
X010969Y008040D02*
X011028Y008040D01*
X011028Y008097D02*
X010912Y008097D01*
X011028Y008155D02*
X010299Y008155D01*
X011027Y007982D02*
X011028Y007982D01*
X011472Y008232D02*
X011933Y008232D01*
X012035Y008335D01*
X012035Y008650D01*
X011980Y008705D01*
X011472Y008705D01*
X011028Y009085D02*
X010367Y009746D01*
X011023Y009746D01*
X011289Y009479D01*
X011289Y009366D01*
X011115Y009366D01*
X011028Y009278D01*
X011028Y009085D01*
X011028Y009133D02*
X010980Y009133D01*
X011028Y009191D02*
X010922Y009191D01*
X010865Y009248D02*
X011028Y009248D01*
X011055Y009306D02*
X010807Y009306D01*
X010750Y009364D02*
X011113Y009364D01*
X011289Y009421D02*
X010692Y009421D01*
X010634Y009479D02*
X011289Y009479D01*
X011233Y009536D02*
X010577Y009536D01*
X010519Y009594D02*
X011175Y009594D01*
X011117Y009651D02*
X010462Y009651D01*
X010404Y009709D02*
X011060Y009709D01*
X011405Y009882D02*
X011775Y009882D01*
X011717Y009939D02*
X011347Y009939D01*
X011290Y009997D02*
X011660Y009997D01*
X011602Y010054D02*
X011232Y010054D01*
X011179Y010112D02*
X011175Y010112D01*
X011126Y010169D02*
X010373Y010169D01*
X010315Y010227D02*
X010577Y010227D01*
X010577Y010221D02*
X010581Y010210D01*
X010590Y010201D01*
X010600Y010197D01*
X010793Y010197D01*
X010793Y010394D01*
X010577Y010394D01*
X010577Y010221D01*
X010577Y010284D02*
X010258Y010284D01*
X010200Y010342D02*
X010577Y010342D01*
X010577Y010453D02*
X010793Y010453D01*
X010793Y010394D01*
X010852Y010394D01*
X010852Y010197D01*
X011045Y010197D01*
X011056Y010201D01*
X011064Y010210D01*
X011069Y010221D01*
X011069Y010394D01*
X010852Y010394D01*
X010852Y010453D01*
X010793Y010453D01*
X010793Y010650D01*
X010600Y010650D01*
X010590Y010645D01*
X010581Y010637D01*
X010577Y010626D01*
X010577Y010453D01*
X010577Y010457D02*
X010085Y010457D01*
X010028Y010515D02*
X010577Y010515D01*
X010577Y010572D02*
X009970Y010572D01*
X009913Y010630D02*
X010578Y010630D01*
X010793Y010630D02*
X010852Y010630D01*
X010852Y010650D02*
X011045Y010650D01*
X011056Y010645D01*
X011064Y010637D01*
X011069Y010626D01*
X011069Y010453D01*
X010852Y010453D01*
X010852Y010650D01*
X010852Y010572D02*
X010793Y010572D01*
X010793Y010515D02*
X010852Y010515D01*
X010852Y010457D02*
X010793Y010457D01*
X010793Y010400D02*
X010143Y010400D01*
X009855Y010687D02*
X011131Y010687D01*
X011126Y010630D02*
X011067Y010630D01*
X011069Y010572D02*
X011126Y010572D01*
X011126Y010515D02*
X011069Y010515D01*
X011069Y010457D02*
X011126Y010457D01*
X011126Y010400D02*
X010852Y010400D01*
X010852Y010342D02*
X010793Y010342D01*
X010793Y010284D02*
X010852Y010284D01*
X010852Y010227D02*
X010793Y010227D01*
X011069Y010227D02*
X011126Y010227D01*
X011126Y010284D02*
X011069Y010284D01*
X011069Y010342D02*
X011126Y010342D01*
X011189Y010745D02*
X009797Y010745D01*
X011069Y011148D02*
X011126Y011148D01*
X011126Y011205D02*
X011069Y011205D01*
X011069Y011263D02*
X011126Y011263D01*
X011126Y011781D02*
X011069Y011781D01*
X011069Y011838D02*
X011126Y011838D01*
X011462Y009824D02*
X011833Y009824D01*
X011890Y009766D02*
X011520Y009766D01*
X011577Y009709D02*
X011894Y009709D01*
X011894Y009651D02*
X011635Y009651D01*
X011655Y009594D02*
X011894Y009594D01*
X011894Y009536D02*
X011655Y009536D01*
X011655Y009479D02*
X011894Y009479D01*
X011903Y009421D02*
X011655Y009421D01*
X011832Y009364D02*
X011904Y009364D01*
X011904Y009306D02*
X011890Y009306D01*
X012083Y009193D02*
X012429Y008846D01*
X012429Y007390D01*
X012350Y007311D01*
X012083Y009193D02*
X012083Y009787D01*
X006067Y007063D02*
X006067Y006665D01*
X006209Y006524D01*
X005701Y006889D02*
X005644Y006889D01*
X005644Y006946D02*
X005701Y006946D01*
X005701Y007004D02*
X005644Y007004D01*
X005427Y006946D02*
X005368Y006946D01*
X005368Y006889D02*
X005427Y006889D01*
X005427Y007119D02*
X005368Y007119D01*
X005368Y007176D02*
X005427Y007176D01*
X005427Y007234D02*
X005368Y007234D01*
X005636Y007464D02*
X005701Y007464D01*
X005701Y007522D02*
X005644Y007522D01*
X005644Y007579D02*
X005701Y007579D01*
X005701Y007637D02*
X005644Y007637D01*
X004241Y006543D02*
X001634Y006543D01*
X001634Y006486D02*
X004298Y006486D01*
X004252Y006428D02*
X004356Y006428D01*
X004413Y006371D02*
X004287Y006371D01*
X004287Y006313D02*
X004471Y006313D01*
X004529Y006256D02*
X004287Y006256D01*
X004287Y006198D02*
X004547Y006198D01*
X004547Y006140D02*
X004287Y006140D01*
X004287Y006083D02*
X004547Y006083D01*
X004547Y006025D02*
X004287Y006025D01*
X004287Y005968D02*
X004547Y005968D01*
X004547Y005910D02*
X004287Y005910D01*
X004263Y005853D02*
X004574Y005853D01*
X004615Y005795D02*
X004216Y005795D01*
X004273Y005738D02*
X004558Y005738D01*
X004547Y005680D02*
X004287Y005680D01*
X004287Y005622D02*
X004304Y005622D01*
X004452Y005622D02*
X004547Y005622D01*
X005279Y005392D02*
X005392Y005392D01*
X005392Y005335D02*
X005279Y005335D01*
X006070Y004874D02*
X006996Y004874D01*
X006996Y004817D02*
X006114Y004817D01*
X006114Y004759D02*
X006996Y004759D01*
X006996Y004702D02*
X006114Y004702D01*
X006114Y004644D02*
X006996Y004644D01*
X006996Y004586D02*
X006114Y004586D01*
X006114Y004529D02*
X006203Y004529D01*
X006146Y004471D02*
X006114Y004471D01*
X006114Y004414D02*
X006130Y004414D01*
X006130Y004356D02*
X006114Y004356D01*
X006101Y004299D02*
X006130Y004299D01*
X006130Y004241D02*
X006043Y004241D01*
X006130Y004184D02*
X001319Y004184D01*
X001319Y004241D02*
X002969Y004241D01*
X002913Y004299D02*
X001486Y004299D01*
X001585Y004356D02*
X002913Y004356D01*
X002913Y004414D02*
X001637Y004414D01*
X001660Y004471D02*
X002913Y004471D01*
X002913Y004529D02*
X001673Y004529D01*
X001673Y004586D02*
X002913Y004586D01*
X002913Y004644D02*
X001669Y004644D01*
X001726Y004702D02*
X002913Y004702D01*
X002913Y004759D02*
X001784Y004759D01*
X001842Y004817D02*
X002913Y004817D01*
X002934Y004874D02*
X001899Y004874D01*
X001900Y004932D02*
X002992Y004932D01*
X003077Y004989D02*
X001900Y004989D01*
X001900Y005047D02*
X003077Y005047D01*
X003077Y005104D02*
X001900Y005104D01*
X001900Y005162D02*
X002943Y005162D01*
X002895Y005220D02*
X001900Y005220D01*
X001900Y005277D02*
X002057Y005277D01*
X002057Y005250D02*
X002062Y005239D01*
X002070Y005231D01*
X002081Y005226D01*
X002274Y005226D01*
X002274Y005423D01*
X002333Y005423D01*
X002333Y005482D01*
X002549Y005482D01*
X002549Y005655D01*
X002545Y005666D01*
X002536Y005675D01*
X002526Y005679D01*
X002333Y005679D01*
X002333Y005482D01*
X002274Y005482D01*
X002274Y005679D01*
X002081Y005679D01*
X002070Y005675D01*
X002062Y005666D01*
X002057Y005655D01*
X002057Y005482D01*
X002274Y005482D01*
X002274Y005423D01*
X002057Y005423D01*
X002057Y005250D01*
X002057Y005335D02*
X001900Y005335D01*
X001900Y005392D02*
X002057Y005392D01*
X002057Y005507D02*
X001900Y005507D01*
X001900Y005450D02*
X002274Y005450D01*
X002274Y005507D02*
X002333Y005507D01*
X002333Y005450D02*
X002895Y005450D01*
X002895Y005507D02*
X002549Y005507D01*
X002549Y005565D02*
X002895Y005565D01*
X002895Y005622D02*
X002549Y005622D01*
X002601Y005795D02*
X002962Y005795D01*
X002922Y005853D02*
X002659Y005853D01*
X002669Y005910D02*
X002895Y005910D01*
X002904Y005738D02*
X001900Y005738D01*
X001900Y005795D02*
X002005Y005795D01*
X001948Y005853D02*
X001933Y005853D01*
X001900Y005680D02*
X002895Y005680D01*
X002895Y005392D02*
X002549Y005392D01*
X002549Y005423D02*
X002549Y005250D01*
X002545Y005239D01*
X002536Y005231D01*
X002526Y005226D01*
X002333Y005226D01*
X002333Y005423D01*
X002549Y005423D01*
X002549Y005335D02*
X002895Y005335D01*
X002895Y005277D02*
X002549Y005277D01*
X002333Y005277D02*
X002274Y005277D01*
X002274Y005335D02*
X002333Y005335D01*
X002333Y005392D02*
X002274Y005392D01*
X002274Y005565D02*
X002333Y005565D01*
X002333Y005622D02*
X002274Y005622D01*
X002057Y005622D02*
X001900Y005622D01*
X001900Y005565D02*
X002057Y005565D01*
X001720Y005894D02*
X001720Y004949D01*
X001406Y004634D01*
X001406Y004555D01*
X001325Y004299D02*
X001319Y004299D01*
X001319Y004126D02*
X003033Y004126D01*
X003033Y004128D02*
X003033Y003935D01*
X003230Y003935D01*
X003230Y003876D01*
X003033Y003876D01*
X003033Y003683D01*
X003038Y003672D01*
X003046Y003664D01*
X003057Y003659D01*
X003230Y003659D01*
X003230Y003876D01*
X003289Y003876D01*
X003289Y003659D01*
X003463Y003659D01*
X003473Y003664D01*
X003482Y003672D01*
X003486Y003683D01*
X003486Y003876D01*
X003289Y003876D01*
X003289Y003935D01*
X003230Y003935D01*
X003230Y004152D01*
X003057Y004152D01*
X003046Y004147D01*
X003038Y004139D01*
X003033Y004128D01*
X003033Y004068D02*
X001319Y004068D01*
X001319Y004011D02*
X003033Y004011D01*
X003033Y003953D02*
X001319Y003953D01*
X001319Y003896D02*
X003230Y003896D01*
X003260Y003906D02*
X003264Y003902D01*
X003917Y003902D01*
X004913Y003902D01*
X004913Y003243D01*
X004868Y003197D01*
X004887Y003205D02*
X006729Y003205D01*
X006787Y003148D02*
X005025Y003148D01*
X005025Y003177D02*
X005025Y003093D01*
X005021Y003082D01*
X005012Y003073D01*
X005002Y003069D01*
X004887Y003069D01*
X004887Y003177D01*
X004848Y003177D01*
X004848Y003069D01*
X004734Y003069D01*
X004723Y003073D01*
X004715Y003082D01*
X004710Y003093D01*
X004710Y003177D01*
X004848Y003177D01*
X004848Y003217D01*
X004848Y003325D01*
X004734Y003325D01*
X004723Y003320D01*
X004653Y003320D01*
X004653Y003263D02*
X004710Y003263D01*
X004710Y003301D02*
X004710Y003217D01*
X004848Y003217D01*
X004887Y003217D01*
X004887Y003325D01*
X005002Y003325D01*
X005012Y003320D01*
X005021Y003312D01*
X005025Y003301D01*
X005025Y003217D01*
X004887Y003217D01*
X004887Y003177D01*
X005025Y003177D01*
X005025Y003263D02*
X006671Y003263D01*
X006614Y003320D02*
X005012Y003320D01*
X004887Y003320D02*
X004848Y003320D01*
X004848Y003263D02*
X004887Y003263D01*
X004848Y003205D02*
X004653Y003205D01*
X004653Y003148D02*
X004710Y003148D01*
X004711Y003090D02*
X004653Y003090D01*
X004653Y003032D02*
X006902Y003032D01*
X006959Y002975D02*
X005025Y002975D01*
X005024Y003090D02*
X006844Y003090D01*
X006327Y003185D02*
X006327Y002705D01*
X006327Y003185D02*
X005689Y003823D01*
X004992Y003823D01*
X004913Y003902D01*
X004884Y003896D02*
X003947Y003896D01*
X003947Y003872D02*
X003947Y003931D01*
X004144Y003931D01*
X004144Y004124D01*
X004139Y004135D01*
X004131Y004143D01*
X004120Y004148D01*
X003947Y004148D01*
X003947Y003931D01*
X003888Y003931D01*
X003888Y004148D01*
X003715Y004148D01*
X003704Y004143D01*
X003695Y004135D01*
X003691Y004124D01*
X003691Y003931D01*
X003888Y003931D01*
X003888Y003872D01*
X003947Y003872D01*
X004144Y003872D01*
X004144Y003679D01*
X004139Y003668D01*
X004131Y003660D01*
X004120Y003656D01*
X003947Y003656D01*
X003947Y003872D01*
X003947Y003838D02*
X003888Y003838D01*
X003888Y003872D02*
X003888Y003656D01*
X003715Y003656D01*
X003704Y003660D01*
X003695Y003668D01*
X003691Y003679D01*
X003691Y003872D01*
X003888Y003872D01*
X003888Y003896D02*
X003289Y003896D01*
X003289Y003935D02*
X003486Y003935D01*
X003486Y004128D01*
X003482Y004139D01*
X003473Y004147D01*
X003463Y004152D01*
X003289Y004152D01*
X003289Y003935D01*
X003289Y003953D02*
X003230Y003953D01*
X003230Y004011D02*
X003289Y004011D01*
X003289Y004068D02*
X003230Y004068D01*
X003230Y004126D02*
X003289Y004126D01*
X003486Y004126D02*
X003692Y004126D01*
X003691Y004068D02*
X003486Y004068D01*
X003486Y004011D02*
X003691Y004011D01*
X003691Y003953D02*
X003486Y003953D01*
X003486Y003838D02*
X003691Y003838D01*
X003691Y003781D02*
X003486Y003781D01*
X003486Y003723D02*
X003691Y003723D01*
X003698Y003666D02*
X003475Y003666D01*
X003289Y003666D02*
X003230Y003666D01*
X003230Y003723D02*
X003289Y003723D01*
X003289Y003781D02*
X003230Y003781D01*
X003230Y003838D02*
X003289Y003838D01*
X003033Y003838D02*
X001319Y003838D01*
X001319Y003781D02*
X003033Y003781D01*
X003033Y003723D02*
X001522Y003723D01*
X001580Y003666D02*
X003045Y003666D01*
X002855Y003435D02*
X004176Y003435D01*
X004119Y003378D02*
X003617Y003378D01*
X003453Y003177D02*
X004356Y003177D01*
X004376Y003197D01*
X004633Y003378D02*
X006556Y003378D01*
X006499Y003435D02*
X004575Y003435D01*
X004715Y003312D02*
X004710Y003301D01*
X004715Y003312D02*
X004723Y003320D01*
X004848Y003148D02*
X004887Y003148D01*
X004887Y003090D02*
X004848Y003090D01*
X004848Y002975D02*
X004887Y002975D01*
X004887Y002917D02*
X004848Y002917D01*
X004848Y002862D02*
X004710Y002862D01*
X004710Y002778D01*
X004715Y002767D01*
X004723Y002758D01*
X004734Y002754D01*
X004848Y002754D01*
X004848Y002862D01*
X004848Y002860D02*
X004887Y002860D01*
X004887Y002802D02*
X004848Y002802D01*
X004848Y002687D02*
X004887Y002687D01*
X004887Y002630D02*
X004848Y002630D01*
X004710Y002514D02*
X004653Y002514D01*
X004653Y002457D02*
X004713Y002457D01*
X004710Y002802D02*
X004653Y002802D01*
X004653Y002860D02*
X004710Y002860D01*
X004710Y002917D02*
X004653Y002917D01*
X004653Y002975D02*
X004710Y002975D01*
X004376Y002882D02*
X004356Y002862D01*
X003374Y002862D01*
X002675Y002862D01*
X002656Y002882D01*
X002675Y003177D02*
X003453Y003177D01*
X003289Y003378D02*
X002912Y003378D01*
X002675Y003177D02*
X002656Y003197D01*
X002456Y003435D02*
X002363Y003435D01*
X002121Y003493D02*
X006441Y003493D01*
X006384Y003550D02*
X002063Y003550D01*
X002005Y003608D02*
X005390Y003608D01*
X005388Y003609D02*
X005397Y003601D01*
X005408Y003596D01*
X005659Y003596D01*
X005659Y003793D01*
X005384Y003793D01*
X005384Y003620D01*
X005388Y003609D01*
X005384Y003666D02*
X004136Y003666D01*
X004144Y003723D02*
X004667Y003723D01*
X004667Y003699D02*
X004672Y003688D01*
X004680Y003680D01*
X004691Y003675D01*
X004884Y003675D01*
X004884Y003872D01*
X004943Y003872D01*
X004943Y003931D01*
X005159Y003931D01*
X005159Y004104D01*
X005155Y004115D01*
X005147Y004123D01*
X005136Y004128D01*
X004943Y004128D01*
X004943Y003931D01*
X004884Y003931D01*
X004884Y004128D01*
X004691Y004128D01*
X004680Y004123D01*
X004672Y004115D01*
X004667Y004104D01*
X004667Y003931D01*
X004884Y003931D01*
X004884Y003872D01*
X004667Y003872D01*
X004667Y003699D01*
X004667Y003781D02*
X004144Y003781D01*
X004144Y003838D02*
X004667Y003838D01*
X004667Y003953D02*
X004144Y003953D01*
X004144Y004011D02*
X004667Y004011D01*
X004667Y004068D02*
X004144Y004068D01*
X004143Y004126D02*
X004686Y004126D01*
X004618Y004241D02*
X004212Y004241D01*
X004264Y004299D02*
X004561Y004299D01*
X004547Y004356D02*
X004540Y004356D01*
X004884Y004126D02*
X004943Y004126D01*
X004943Y004068D02*
X004884Y004068D01*
X004884Y004011D02*
X004943Y004011D01*
X004943Y003953D02*
X004884Y003953D01*
X004943Y003896D02*
X005384Y003896D01*
X005384Y003852D02*
X005659Y003852D01*
X005659Y003793D01*
X005719Y003793D01*
X005719Y003852D01*
X005994Y003852D01*
X005994Y004026D01*
X005990Y004036D01*
X005981Y004045D01*
X005970Y004049D01*
X005719Y004049D01*
X005719Y003852D01*
X005659Y003852D01*
X005659Y004049D01*
X005408Y004049D01*
X005397Y004045D01*
X005388Y004036D01*
X005384Y004026D01*
X005384Y003852D01*
X005384Y003781D02*
X005159Y003781D01*
X005159Y003838D02*
X005659Y003838D01*
X005659Y003781D02*
X005719Y003781D01*
X005719Y003793D02*
X005719Y003596D01*
X005970Y003596D01*
X005981Y003601D01*
X005990Y003609D01*
X005994Y003620D01*
X005994Y003793D01*
X005719Y003793D01*
X005719Y003838D02*
X006372Y003838D01*
X006372Y003781D02*
X005994Y003781D01*
X005994Y003723D02*
X006372Y003723D01*
X006372Y003666D02*
X005994Y003666D01*
X005988Y003608D02*
X006372Y003608D01*
X006172Y003896D02*
X005994Y003896D01*
X005994Y003953D02*
X006130Y003953D01*
X006130Y004011D02*
X005994Y004011D01*
X006130Y004068D02*
X005159Y004068D01*
X005159Y004011D02*
X005384Y004011D01*
X005384Y003953D02*
X005159Y003953D01*
X005159Y003872D02*
X005159Y003699D01*
X005155Y003688D01*
X005147Y003680D01*
X005136Y003675D01*
X004943Y003675D01*
X004943Y003872D01*
X005159Y003872D01*
X005159Y003723D02*
X005384Y003723D01*
X005659Y003723D02*
X005719Y003723D01*
X005719Y003666D02*
X005659Y003666D01*
X005659Y003608D02*
X005719Y003608D01*
X005719Y003896D02*
X005659Y003896D01*
X005659Y003953D02*
X005719Y003953D01*
X005719Y004011D02*
X005659Y004011D01*
X005335Y004241D02*
X005208Y004241D01*
X005266Y004299D02*
X005277Y004299D01*
X005141Y004126D02*
X006130Y004126D01*
X006738Y003723D02*
X007039Y003723D01*
X007039Y003666D02*
X006786Y003666D01*
X007255Y003896D02*
X007314Y003896D01*
X007314Y003953D02*
X007255Y003953D01*
X007255Y004011D02*
X007314Y004011D01*
X007264Y004126D02*
X006980Y004126D01*
X006980Y004184D02*
X007207Y004184D01*
X007149Y004241D02*
X006980Y004241D01*
X006980Y004299D02*
X007092Y004299D01*
X007034Y004356D02*
X006980Y004356D01*
X006980Y004414D02*
X006996Y004414D01*
X006996Y004471D02*
X006965Y004471D01*
X006996Y004529D02*
X006907Y004529D01*
X004943Y003838D02*
X004884Y003838D01*
X004884Y003781D02*
X004943Y003781D01*
X004943Y003723D02*
X004884Y003723D01*
X003947Y003723D02*
X003888Y003723D01*
X003888Y003666D02*
X003947Y003666D01*
X003947Y003781D02*
X003888Y003781D01*
X003888Y003953D02*
X003947Y003953D01*
X003947Y004011D02*
X003888Y004011D01*
X003888Y004068D02*
X003947Y004068D01*
X003947Y004126D02*
X003888Y004126D01*
X003622Y004241D02*
X003551Y004241D01*
X002163Y003197D02*
X001927Y003433D01*
X001351Y003433D01*
X000801Y003320D02*
X000650Y003320D01*
X000650Y003263D02*
X000801Y003263D01*
X000817Y003205D02*
X000650Y003205D01*
X000650Y003148D02*
X000801Y003148D01*
X000801Y003090D02*
X000650Y003090D01*
X000650Y003032D02*
X000801Y003032D01*
X000801Y002975D02*
X000650Y002975D01*
X000650Y002917D02*
X000801Y002917D01*
X000801Y002860D02*
X000650Y002860D01*
X000650Y002802D02*
X000801Y002802D01*
X000805Y002745D02*
X000650Y002745D01*
X000650Y002687D02*
X000801Y002687D01*
X000801Y002630D02*
X000650Y002630D01*
X000650Y002572D02*
X000801Y002572D01*
X000801Y002514D02*
X000650Y002514D01*
X000650Y002457D02*
X000801Y002457D01*
X000801Y002399D02*
X000650Y002399D01*
X000650Y002342D02*
X000801Y002342D01*
X000801Y002284D02*
X000650Y002284D01*
X000650Y002227D02*
X000801Y002227D01*
X000801Y002169D02*
X000650Y002169D01*
X000650Y002112D02*
X000801Y002112D01*
X000801Y002054D02*
X000650Y002054D01*
X001351Y002024D02*
X001579Y002252D01*
X002163Y002252D01*
X002093Y002496D02*
X002163Y002567D01*
X002093Y002496D02*
X001351Y002496D01*
X001351Y002961D02*
X002085Y002961D01*
X002163Y002882D01*
X002656Y002567D02*
X002675Y002587D01*
X003689Y002587D01*
X004356Y002587D01*
X004376Y002567D01*
X004376Y002252D02*
X004356Y002232D01*
X003177Y002232D01*
X002675Y002232D01*
X002656Y002252D01*
X002705Y001760D02*
X001878Y001760D01*
X001799Y001839D01*
X001583Y001051D02*
X001209Y001051D01*
X001051Y000894D01*
X003945Y001051D02*
X003945Y001819D01*
X003965Y001839D01*
X005362Y001858D02*
X005362Y001051D01*
X005835Y001051D02*
X005854Y001051D01*
X005854Y001878D01*
X005666Y002054D02*
X005570Y002054D01*
X005492Y002112D02*
X005745Y002112D01*
X005382Y001878D02*
X005362Y001858D01*
X000785Y003378D02*
X000650Y003378D01*
X000650Y003435D02*
X000784Y003435D01*
X000784Y003493D02*
X000650Y003493D01*
X000650Y003550D02*
X000784Y003550D01*
X000784Y003608D02*
X000650Y003608D01*
X000650Y003666D02*
X000784Y003666D01*
X000784Y003723D02*
X000650Y003723D01*
X000650Y003781D02*
X000784Y003781D01*
X000784Y003838D02*
X000650Y003838D01*
X000650Y003896D02*
X000784Y003896D01*
X000784Y003953D02*
X000650Y003953D01*
X000650Y004011D02*
X000784Y004011D01*
X000784Y004068D02*
X000650Y004068D01*
X000650Y004126D02*
X000784Y004126D01*
X000784Y004184D02*
X000650Y004184D01*
X000650Y004241D02*
X000784Y004241D01*
X000784Y004299D02*
X000650Y004299D01*
X000650Y004356D02*
X000784Y004356D01*
X000784Y004414D02*
X000650Y004414D01*
X000650Y004471D02*
X000784Y004471D01*
X000784Y004529D02*
X000650Y004529D01*
X000650Y004586D02*
X000784Y004586D01*
X000784Y004644D02*
X000650Y004644D01*
X000650Y004702D02*
X000784Y004702D01*
X000784Y004759D02*
X000650Y004759D01*
X000650Y004817D02*
X000784Y004817D01*
X000784Y004874D02*
X000650Y004874D01*
X000650Y004932D02*
X000784Y004932D01*
X000784Y004989D02*
X000650Y004989D01*
X000650Y005047D02*
X000784Y005047D01*
X000784Y005104D02*
X000650Y005104D01*
X000650Y005162D02*
X000784Y005162D01*
X000784Y005220D02*
X000650Y005220D01*
X000650Y005277D02*
X000800Y005277D01*
X000823Y005335D02*
X000650Y005335D01*
X000650Y005392D02*
X000880Y005392D01*
X000937Y005450D02*
X000650Y005450D01*
X000650Y005507D02*
X000995Y005507D01*
X001053Y005565D02*
X000650Y005565D01*
X000650Y005622D02*
X001099Y005622D01*
X001099Y005680D02*
X000650Y005680D01*
X000650Y005738D02*
X001099Y005738D01*
X001099Y005795D02*
X000650Y005795D01*
X000650Y005853D02*
X001099Y005853D01*
X001099Y005910D02*
X000650Y005910D01*
X000650Y005968D02*
X001099Y005968D01*
X001099Y006025D02*
X000650Y006025D01*
X000650Y006083D02*
X001099Y006083D01*
X001099Y006140D02*
X000650Y006140D01*
X000650Y006198D02*
X001099Y006198D01*
X001099Y006256D02*
X000650Y006256D01*
X000650Y006313D02*
X001099Y006313D01*
X001099Y006371D02*
X000650Y006371D01*
X000650Y006428D02*
X001099Y006428D01*
X001099Y006486D02*
X000650Y006486D01*
X000650Y006543D02*
X001099Y006543D01*
X001099Y006601D02*
X000650Y006601D01*
X000650Y006658D02*
X001099Y006658D01*
X001099Y006716D02*
X000650Y006716D01*
X000650Y006774D02*
X001099Y006774D01*
X001099Y006831D02*
X000650Y006831D01*
X000650Y006889D02*
X001099Y006889D01*
X001099Y006946D02*
X000650Y006946D01*
X000650Y007004D02*
X001089Y007004D01*
X001036Y007061D02*
X000650Y007061D01*
X000650Y007119D02*
X001012Y007119D01*
X000988Y007176D02*
X000650Y007176D01*
X000650Y007234D02*
X000980Y007234D01*
X000980Y007292D02*
X000650Y007292D01*
X000650Y007349D02*
X000981Y007349D01*
X001005Y007407D02*
X000650Y007407D01*
X000740Y007464D02*
X001028Y007464D01*
X001071Y007522D02*
X000898Y007522D01*
X000976Y007550D02*
X000976Y007550D01*
X001011Y007579D02*
X001128Y007579D01*
X001744Y007176D02*
X001955Y007176D01*
X001915Y007119D02*
X001720Y007119D01*
X001697Y007061D02*
X001891Y007061D01*
X001886Y007004D02*
X001644Y007004D01*
X001634Y006946D02*
X001886Y006946D01*
X001908Y006889D02*
X001634Y006889D01*
X001634Y006831D02*
X001940Y006831D01*
X001998Y006774D02*
X001634Y006774D01*
X001634Y006716D02*
X004068Y006716D01*
X004011Y006774D02*
X002310Y006774D01*
X002622Y006428D02*
X002925Y006428D01*
X002895Y006371D02*
X002669Y006371D01*
X002303Y006122D02*
X002272Y006091D01*
X001917Y006091D01*
X001720Y005894D01*
X001656Y006083D02*
X001634Y006083D01*
X001634Y006140D02*
X001714Y006140D01*
X001772Y006198D02*
X001634Y006198D01*
X001634Y006256D02*
X001829Y006256D01*
X001937Y006313D02*
X001634Y006313D01*
X001634Y006371D02*
X001937Y006371D01*
X001984Y006428D02*
X001634Y006428D01*
X001634Y006601D02*
X004183Y006601D01*
X004126Y006658D02*
X001634Y006658D01*
X005279Y006198D02*
X005392Y006198D01*
X005392Y006140D02*
X005279Y006140D01*
X005279Y006083D02*
X005392Y006083D01*
X011849Y004126D02*
X011978Y004126D01*
X012398Y003685D02*
X012390Y003677D01*
X012555Y003685D02*
X012555Y002988D01*
X012154Y002587D01*
X011996Y002587D01*
X011957Y001071D02*
X011976Y001051D01*
X012213Y001051D02*
X012240Y001079D01*
X011504Y001051D02*
X011484Y001071D01*
X015283Y001051D02*
X015303Y001071D01*
X021766Y005335D02*
X021854Y005335D01*
X026099Y006946D02*
X026378Y006946D01*
X026334Y006889D02*
X026138Y006889D01*
X026196Y006831D02*
X026310Y006831D01*
X026302Y006774D02*
X026254Y006774D01*
X023234Y008558D02*
X023224Y008558D01*
X025648Y012932D02*
X025707Y012932D01*
X025707Y012990D02*
X025648Y012990D01*
X025648Y013047D02*
X025707Y013047D01*
X025707Y013105D02*
X025648Y013105D01*
X025648Y013162D02*
X025707Y013162D01*
X025707Y013220D02*
X025648Y013220D01*
X025648Y013277D02*
X025707Y013277D01*
X025982Y013277D02*
X027000Y013277D01*
X027000Y013220D02*
X025982Y013220D01*
X025982Y013162D02*
X027000Y013162D01*
X027000Y013105D02*
X025982Y013105D01*
X025982Y013047D02*
X027000Y013047D01*
X027000Y012990D02*
X025982Y012990D01*
X025981Y012932D02*
X027000Y012932D01*
D31*
X001051Y000894D03*
X003177Y002232D03*
X003689Y002587D03*
X003374Y002862D03*
X003453Y003177D03*
X003965Y001839D03*
X004437Y001839D03*
X004870Y001878D03*
X005382Y001878D03*
X005854Y001878D03*
X006327Y001839D03*
X007705Y001878D03*
X008217Y001799D03*
X008650Y001720D03*
X009161Y001878D03*
X009398Y002154D03*
X009594Y001878D03*
X010106Y001878D03*
X011996Y002587D03*
X011917Y002862D03*
X011996Y003138D03*
X011327Y003413D03*
X011551Y003693D03*
X012429Y002547D03*
X012941Y002469D03*
X015043Y001686D03*
X015185Y003059D03*
X017390Y002705D03*
X017508Y002311D03*
X017902Y002154D03*
X018571Y003413D03*
X019043Y003531D03*
X019004Y004713D03*
X020697Y004791D03*
X021248Y005579D03*
X020303Y005736D03*
X020378Y006984D03*
X020224Y007665D03*
X019909Y009398D03*
X021602Y009476D03*
X017890Y009591D03*
X017535Y009571D03*
X017587Y010067D03*
X017193Y009949D03*
X015736Y010303D03*
X015657Y010815D03*
X013020Y011957D03*
X012469Y011799D03*
X014752Y013177D03*
X014319Y013492D03*
X014083Y013886D03*
X015382Y012783D03*
X019319Y011957D03*
X012390Y007114D03*
X012311Y006720D03*
X010618Y006799D03*
X010264Y006524D03*
X009988Y006720D03*
X009752Y006484D03*
X010453Y005957D03*
X010618Y005717D03*
X009870Y005382D03*
X007114Y006996D03*
X006209Y006524D03*
X005638Y006496D03*
X004378Y005374D03*
X004390Y004571D03*
X008768Y003413D03*
X009831Y003413D03*
X010224Y007390D03*
X009909Y007469D03*
X010539Y007508D03*
X010697Y007744D03*
X010343Y008138D03*
X006012Y008886D03*
X005539Y009358D03*
X009594Y012941D03*
X019870Y001878D03*
D32*
X010823Y011083D02*
X010823Y011703D01*
X011492Y011703D02*
X011492Y012315D01*
X011492Y012937D01*
X011492Y013618D01*
X012291Y013622D02*
X012921Y013622D01*
X012921Y013634D01*
X013551Y013634D01*
X010823Y012937D02*
X010823Y012315D01*
X001051Y002024D02*
X001051Y001347D01*
X001346Y001051D01*
D33*
X001051Y003433D02*
X001051Y003433D01*
X012311Y012232D02*
X012311Y012933D01*
X012291Y012953D01*
X010823Y013618D02*
X010138Y013618D01*
X010106Y013650D01*
X020854Y009122D02*
X020854Y007425D01*
X021012Y007268D01*
X020303Y005736D02*
X019748Y005736D01*
X019705Y005780D01*
D34*
X020579Y002862D03*
X023335Y002469D03*
X025146Y003256D03*
X012311Y012232D03*
X004520Y012520D03*
D35*
X004080Y012080D01*
X004057Y012080D01*
X014083Y013886D02*
X016040Y013886D01*
X016295Y013630D01*
X016965Y013630D02*
X016965Y013485D01*
X016285Y012805D01*
X016285Y012470D01*
X016325Y012509D01*
X015695Y012470D02*
X015382Y012783D01*
X015382Y012783D01*
X019705Y005110D02*
X021464Y005110D01*
X021515Y005060D01*
X022105Y005060D02*
X022105Y004791D01*
X021515Y004200D01*
X020845Y004200D02*
X020845Y004643D01*
X020697Y004791D01*
D36*
X001366Y005500D02*
X001366Y007272D01*
X001366Y005500D02*
X001051Y005185D01*
X001051Y003433D01*
D37*
X001366Y007272D03*
X003256Y007547D03*
X004476Y007744D03*
X010106Y013650D03*
D38*
X001819Y001051D02*
X001583Y001051D01*
X001346Y001051D01*
D39*
X004062Y013650D02*
X010106Y013650D01*
X010060Y013650D01*
X004062Y013650D02*
X004057Y013655D01*
D40*
X018657Y010142D03*
M02*
