G75*
G70*
%OFA0B0*%
%FSLAX24Y24*%
%IPPOS*%
%LPD*%
%AMOC8*
5,1,8,0,0,1.08239X$1,22.5*
%
%ADD10C,0.0236*%
%ADD11C,0.0217*%
%ADD12C,0.0059*%
%ADD13C,0.0067*%
%ADD14C,0.0354*%
%ADD15C,0.0160*%
%ADD16C,0.0472*%
%ADD17C,0.0276*%
%ADD18C,0.0079*%
%ADD19C,0.0100*%
D10*
X001799Y001839D03*
X003492Y001878D03*
X001406Y004555D03*
X002154Y006996D03*
X008740Y009780D03*
X010087Y011012D03*
X010854Y009642D03*
X013126Y008547D03*
X013500Y008587D03*
X013854Y008528D03*
X014228Y008528D03*
X015547Y007602D03*
X015252Y007386D03*
X014917Y007228D03*
X014671Y006972D03*
X014307Y006913D03*
X014248Y006559D03*
X013874Y006559D03*
X013264Y005713D03*
X012929Y005594D03*
X014642Y005555D03*
X015449Y005240D03*
X015823Y005673D03*
X016138Y005880D03*
X016433Y005654D03*
X016728Y005870D03*
X017043Y005673D03*
X017043Y006224D03*
X018165Y005713D03*
X018461Y005909D03*
X018579Y005358D03*
X016453Y007209D03*
X016768Y007406D03*
X017083Y007602D03*
X016463Y007986D03*
X016118Y007878D03*
X015902Y007593D03*
X015961Y007209D03*
X018215Y007848D03*
X018559Y007957D03*
X018618Y008311D03*
X018264Y008508D03*
X018972Y009098D03*
X019169Y008783D03*
X019307Y008429D03*
X018303Y007465D03*
X020854Y009122D03*
X018965Y009831D03*
X019094Y010626D03*
X018453Y011209D03*
X017193Y011602D03*
X017177Y010539D03*
X014752Y011681D03*
X014201Y012272D03*
X017547Y012823D03*
X021406Y012823D03*
X022783Y012783D03*
X024043Y012823D03*
X025382Y011563D03*
X025900Y012180D03*
X026360Y012630D03*
X024476Y011248D03*
X023728Y011366D03*
X023217Y011524D03*
X022330Y011560D03*
X021563Y011602D03*
X023760Y009480D03*
X024871Y008729D03*
X025050Y009960D03*
X026570Y006760D03*
X025990Y005860D03*
X022898Y006598D03*
X026530Y002820D03*
X009075Y007008D03*
D11*
X009909Y007469D03*
X010224Y007390D03*
X010539Y007508D03*
X010697Y007744D03*
X010343Y008138D03*
X012390Y007114D03*
X012311Y006720D03*
X010618Y006799D03*
X010264Y006524D03*
X009988Y006720D03*
X009752Y006484D03*
X010453Y005957D03*
X010618Y005717D03*
X009870Y005382D03*
X011551Y003693D03*
X011327Y003413D03*
X011996Y003138D03*
X011917Y002862D03*
X011996Y002587D03*
X012429Y002547D03*
X012941Y002469D03*
X015043Y001686D03*
X015185Y003059D03*
X017390Y002705D03*
X017508Y002311D03*
X017902Y002154D03*
X018571Y003413D03*
X019043Y003531D03*
X019004Y004713D03*
X020697Y004791D03*
X021248Y005579D03*
X020303Y005736D03*
X020378Y006984D03*
X020224Y007665D03*
X019909Y009398D03*
X021602Y009476D03*
X017890Y009591D03*
X017535Y009571D03*
X017587Y010067D03*
X017193Y009949D03*
X015736Y010303D03*
X015657Y010815D03*
X013020Y011957D03*
X012469Y011799D03*
X014752Y013177D03*
X014319Y013492D03*
X014083Y013886D03*
X015382Y012783D03*
X019319Y011957D03*
X009594Y012941D03*
X005539Y009358D03*
X006012Y008886D03*
X007114Y006996D03*
X006209Y006524D03*
X005638Y006496D03*
X004378Y005374D03*
X004390Y004571D03*
X003453Y003177D03*
X003374Y002862D03*
X003689Y002587D03*
X003177Y002232D03*
X003965Y001839D03*
X004437Y001839D03*
X004870Y001878D03*
X005382Y001878D03*
X005854Y001878D03*
X006327Y001839D03*
X007705Y001878D03*
X008217Y001799D03*
X008650Y001720D03*
X009161Y001878D03*
X009398Y002154D03*
X009594Y001878D03*
X010106Y001878D03*
X009831Y003413D03*
X008768Y003413D03*
X001051Y000894D03*
X019870Y001878D03*
D12*
X000650Y000650D02*
X000650Y007437D01*
X000665Y007437D01*
X000976Y007550D01*
X001229Y007762D01*
X001229Y007762D01*
X001229Y007762D01*
X001394Y008049D01*
X001451Y008374D01*
X001394Y008699D01*
X001394Y008699D01*
X001229Y008986D01*
X000976Y009198D01*
X000976Y009198D01*
X000665Y009311D01*
X000650Y009311D01*
X000650Y014130D01*
X027000Y014130D01*
X027000Y009311D01*
X026949Y009311D01*
X026638Y009198D01*
X026385Y008986D01*
X026385Y008986D01*
X026385Y008986D01*
X026220Y008699D01*
X026163Y008374D01*
X026220Y008049D01*
X026220Y008049D01*
X026385Y007762D01*
X026385Y007762D01*
X026638Y007550D01*
X026949Y007437D01*
X026965Y007437D01*
X026965Y000650D01*
X011966Y000650D01*
X012018Y000701D01*
X013750Y002434D01*
X013750Y006086D01*
X013671Y006165D01*
X013671Y006383D01*
X013722Y006332D01*
X013821Y006291D01*
X013927Y006291D01*
X014026Y006332D01*
X014061Y006368D01*
X014096Y006332D01*
X014195Y006291D01*
X014301Y006291D01*
X014400Y006332D01*
X014475Y006407D01*
X014516Y006506D01*
X014516Y006612D01*
X014477Y006705D01*
X014519Y006747D01*
X014520Y006746D01*
X014618Y006705D01*
X014724Y006705D01*
X014823Y006746D01*
X014898Y006821D01*
X014939Y006919D01*
X014939Y006961D01*
X014971Y006961D01*
X015069Y007001D01*
X015144Y007077D01*
X015167Y007131D01*
X015199Y007118D01*
X015305Y007118D01*
X015404Y007159D01*
X015479Y007234D01*
X015520Y007333D01*
X015520Y007335D01*
X015600Y007335D01*
X015699Y007375D01*
X015719Y007396D01*
X015745Y007371D01*
X015734Y007360D01*
X015693Y007262D01*
X015693Y007155D01*
X015734Y007057D01*
X015809Y006982D01*
X015907Y006941D01*
X016014Y006941D01*
X016112Y006982D01*
X016188Y007057D01*
X016207Y007103D01*
X016226Y007057D01*
X016301Y006982D01*
X016400Y006941D01*
X016506Y006941D01*
X016604Y006982D01*
X016680Y007057D01*
X016713Y007138D01*
X016714Y007138D01*
X016821Y007138D01*
X016919Y007179D01*
X016995Y007254D01*
X017028Y007335D01*
X017029Y007335D01*
X017136Y007335D01*
X017234Y007375D01*
X017310Y007451D01*
X017350Y007549D01*
X017350Y007656D01*
X017310Y007754D01*
X017234Y007829D01*
X017136Y007870D01*
X017029Y007870D01*
X016931Y007829D01*
X016856Y007754D01*
X016822Y007673D01*
X016821Y007673D01*
X016714Y007673D01*
X016616Y007632D01*
X016541Y007557D01*
X016507Y007476D01*
X016506Y007476D01*
X016400Y007476D01*
X016301Y007436D01*
X016226Y007360D01*
X016207Y007314D01*
X016188Y007360D01*
X016118Y007430D01*
X016128Y007441D01*
X016169Y007539D01*
X016169Y007610D01*
X016171Y007610D01*
X016270Y007651D01*
X016345Y007726D01*
X016352Y007742D01*
X016409Y007719D01*
X016516Y007719D01*
X016614Y007759D01*
X016689Y007835D01*
X016730Y007933D01*
X016730Y008039D01*
X016689Y008138D01*
X016614Y008213D01*
X016516Y008254D01*
X016409Y008254D01*
X016311Y008213D01*
X016236Y008138D01*
X016229Y008122D01*
X016171Y008146D01*
X016065Y008146D01*
X015967Y008105D01*
X015891Y008030D01*
X015850Y007931D01*
X015850Y007860D01*
X015848Y007860D01*
X015750Y007819D01*
X015729Y007799D01*
X015699Y007829D01*
X015600Y007870D01*
X015494Y007870D01*
X015396Y007829D01*
X015320Y007754D01*
X015280Y007656D01*
X015280Y007653D01*
X015199Y007653D01*
X015100Y007613D01*
X015025Y007537D01*
X015002Y007483D01*
X014971Y007496D01*
X014864Y007496D01*
X014766Y007455D01*
X014690Y007380D01*
X014650Y007282D01*
X014650Y007240D01*
X014618Y007240D01*
X014520Y007199D01*
X014460Y007139D01*
X014459Y007140D01*
X014360Y007181D01*
X014254Y007181D01*
X014155Y007140D01*
X014080Y007065D01*
X014039Y006967D01*
X014039Y006860D01*
X014078Y006767D01*
X014061Y006751D01*
X014026Y006786D01*
X013927Y006827D01*
X013821Y006827D01*
X013722Y006786D01*
X013662Y006725D01*
X013566Y006821D01*
X012884Y007503D01*
X012884Y007503D01*
X012779Y007608D01*
X012079Y007608D01*
X011938Y007466D01*
X010797Y007466D01*
X010797Y007507D01*
X010843Y007526D01*
X010915Y007598D01*
X010955Y007693D01*
X010955Y007795D01*
X010915Y007890D01*
X010843Y007963D01*
X010837Y007965D01*
X010837Y008330D01*
X010679Y008488D01*
X010574Y008592D01*
X008064Y008592D01*
X006410Y006939D01*
X006305Y006834D01*
X006305Y006763D01*
X006260Y006781D01*
X006157Y006781D01*
X006063Y006742D01*
X005990Y006670D01*
X005951Y006575D01*
X005951Y006472D01*
X005990Y006378D01*
X006063Y006305D01*
X006139Y006274D01*
X005308Y005443D01*
X005285Y005420D01*
X005285Y006489D01*
X011401Y012604D01*
X015196Y012604D01*
X015236Y012565D01*
X015331Y012526D01*
X015433Y012526D01*
X015528Y012565D01*
X015600Y012637D01*
X015640Y012732D01*
X015640Y012835D01*
X015600Y012929D01*
X015528Y013002D01*
X015433Y013041D01*
X015331Y013041D01*
X015236Y013002D01*
X015196Y012963D01*
X014902Y012963D01*
X014971Y013031D01*
X015010Y013126D01*
X015010Y013228D01*
X014971Y013323D01*
X014898Y013396D01*
X014803Y013435D01*
X014701Y013435D01*
X014606Y013396D01*
X014566Y013356D01*
X014542Y013356D01*
X014577Y013441D01*
X014577Y013543D01*
X014537Y013638D01*
X014465Y013711D01*
X014370Y013750D01*
X014268Y013750D01*
X014173Y013711D01*
X014133Y013671D01*
X011449Y013671D01*
X004638Y006860D01*
X004534Y006755D01*
X004534Y005583D01*
X004524Y005593D01*
X004429Y005632D01*
X004327Y005632D01*
X004232Y005593D01*
X004159Y005520D01*
X004120Y005425D01*
X004120Y005323D01*
X004159Y005228D01*
X004232Y005155D01*
X004327Y005116D01*
X004429Y005116D01*
X004524Y005155D01*
X004534Y005165D01*
X004534Y004790D01*
X004441Y004829D01*
X004338Y004829D01*
X004244Y004789D01*
X004171Y004717D01*
X004132Y004622D01*
X004132Y004520D01*
X004171Y004425D01*
X004244Y004352D01*
X004338Y004313D01*
X004441Y004313D01*
X004534Y004351D01*
X004534Y003566D01*
X003890Y002923D01*
X003791Y002823D01*
X003740Y002844D01*
X003638Y002844D01*
X003632Y002842D01*
X003632Y002913D01*
X003609Y002969D01*
X003671Y003031D01*
X003711Y003126D01*
X003711Y003228D01*
X003671Y003323D01*
X003599Y003396D01*
X003504Y003435D01*
X003401Y003435D01*
X003307Y003396D01*
X003234Y003323D01*
X003195Y003228D01*
X003195Y003126D01*
X003218Y003071D01*
X003155Y003008D01*
X003116Y002913D01*
X003116Y002811D01*
X003155Y002716D01*
X003228Y002644D01*
X003323Y002604D01*
X003425Y002604D01*
X003431Y002607D01*
X003431Y002535D01*
X003470Y002441D01*
X003543Y002368D01*
X003638Y002329D01*
X003740Y002329D01*
X003786Y002348D01*
X003786Y002024D01*
X003746Y001985D01*
X003742Y001974D01*
X003719Y002030D01*
X003644Y002105D01*
X003545Y002146D01*
X003439Y002146D01*
X003416Y002136D01*
X003435Y002181D01*
X003435Y002284D01*
X003786Y002284D01*
X003786Y002227D02*
X003435Y002227D01*
X003435Y002284D02*
X003396Y002378D01*
X003323Y002451D01*
X003228Y002490D01*
X003126Y002490D01*
X003031Y002451D01*
X002959Y002378D01*
X002920Y002284D01*
X001909Y003295D01*
X001909Y006485D01*
X002153Y006728D01*
X002207Y006728D01*
X002305Y006769D01*
X002380Y006844D01*
X002421Y006943D01*
X002421Y007049D01*
X002380Y007148D01*
X002353Y007175D01*
X002353Y010071D01*
X004475Y012193D01*
X004585Y012193D01*
X004705Y012243D01*
X004797Y012335D01*
X004847Y012455D01*
X004847Y012585D01*
X004797Y012705D01*
X004705Y012797D01*
X004585Y012847D01*
X004455Y012847D01*
X004335Y012797D01*
X004243Y012705D01*
X004193Y012585D01*
X004193Y012475D01*
X002071Y010353D01*
X001954Y010236D01*
X001954Y007175D01*
X001927Y007148D01*
X001886Y007049D01*
X001886Y006996D01*
X001642Y006752D01*
X001532Y006641D01*
X001532Y004793D01*
X001459Y004823D01*
X001352Y004823D01*
X001254Y004782D01*
X001179Y004707D01*
X001138Y004608D01*
X001138Y004502D01*
X001179Y004404D01*
X001187Y004395D01*
X001187Y002631D01*
X001620Y002197D01*
X001620Y002038D01*
X001572Y001990D01*
X001532Y001892D01*
X001532Y001785D01*
X001572Y001687D01*
X001648Y001612D01*
X001746Y001571D01*
X001852Y001571D01*
X001951Y001612D01*
X002026Y001687D01*
X002067Y001785D01*
X002067Y001892D01*
X002026Y001990D01*
X001978Y002038D01*
X001978Y002346D01*
X001873Y002451D01*
X001545Y002779D01*
X001545Y003125D01*
X002870Y001800D01*
X002981Y001689D01*
X003303Y001689D01*
X003341Y001651D01*
X003439Y001610D01*
X003545Y001610D01*
X003644Y001651D01*
X003787Y001651D01*
X003819Y001620D02*
X003746Y001693D01*
X003726Y001742D01*
X003719Y001726D01*
X003644Y001651D01*
X003701Y001709D02*
X003739Y001709D01*
X003819Y001620D02*
X003913Y001581D01*
X004016Y001581D01*
X004111Y001620D01*
X004183Y001693D01*
X004201Y001735D01*
X004218Y001693D01*
X004291Y001620D01*
X004386Y001581D01*
X004488Y001581D01*
X004583Y001620D01*
X004656Y001693D01*
X004666Y001718D01*
X004724Y001659D01*
X004819Y001620D01*
X004921Y001620D01*
X005016Y001659D01*
X005089Y001732D01*
X005126Y001822D01*
X005163Y001732D01*
X005236Y001659D01*
X005331Y001620D01*
X005433Y001620D01*
X005528Y001659D01*
X005600Y001732D01*
X005618Y001775D01*
X005636Y001732D01*
X005708Y001659D01*
X005803Y001620D01*
X005906Y001620D01*
X006000Y001659D01*
X006073Y001732D01*
X006112Y001827D01*
X006112Y001929D01*
X006073Y002024D01*
X006033Y002063D01*
X006033Y005347D01*
X008369Y007683D01*
X009760Y007683D01*
X009691Y007615D01*
X009652Y007520D01*
X009652Y007417D01*
X009691Y007322D01*
X009763Y007250D01*
X009858Y007211D01*
X009961Y007211D01*
X010016Y007234D01*
X010074Y007175D01*
X009638Y007175D01*
X009245Y006781D01*
X009140Y006677D01*
X009140Y002897D01*
X008575Y002333D01*
X008471Y002228D01*
X008471Y001906D01*
X008457Y001892D01*
X008435Y001945D01*
X008363Y002018D01*
X008268Y002057D01*
X008165Y002057D01*
X008071Y002018D01*
X007998Y001945D01*
X007963Y001860D01*
X007963Y001929D01*
X007923Y002024D01*
X007851Y002096D01*
X007756Y002136D01*
X007653Y002136D01*
X007559Y002096D01*
X007486Y002024D01*
X007447Y001929D01*
X007447Y001827D01*
X007486Y001732D01*
X007526Y001692D01*
X007526Y000997D01*
X007631Y000892D01*
X007873Y000650D01*
X007244Y000650D01*
X007244Y001971D01*
X007151Y002132D01*
X006990Y002224D01*
X006805Y002224D01*
X006644Y002132D01*
X006644Y002132D01*
X006644Y002132D01*
X006551Y001971D01*
X006551Y000650D01*
X001135Y000650D01*
X001197Y000675D01*
X001270Y000748D01*
X001309Y000842D01*
X001309Y000945D01*
X001270Y001040D01*
X001197Y001112D01*
X001102Y001151D01*
X001000Y001151D01*
X000905Y001112D01*
X000833Y001040D01*
X000793Y000945D01*
X000793Y000842D01*
X000833Y000748D01*
X000905Y000675D01*
X000967Y000650D01*
X000650Y000650D01*
X000650Y000673D02*
X000911Y000673D01*
X000850Y000730D02*
X000650Y000730D01*
X000650Y000788D02*
X000816Y000788D01*
X000793Y000845D02*
X000650Y000845D01*
X000650Y000903D02*
X000793Y000903D01*
X000800Y000960D02*
X000650Y000960D01*
X000650Y001018D02*
X000824Y001018D01*
X000868Y001076D02*
X000650Y001076D01*
X000650Y001133D02*
X000956Y001133D01*
X001147Y001133D02*
X006551Y001133D01*
X006551Y001076D02*
X001234Y001076D01*
X001279Y001018D02*
X006551Y001018D01*
X006551Y000960D02*
X001303Y000960D01*
X001309Y000903D02*
X006551Y000903D01*
X006551Y000845D02*
X001309Y000845D01*
X001286Y000788D02*
X006551Y000788D01*
X006551Y000730D02*
X001252Y000730D01*
X001191Y000673D02*
X006551Y000673D01*
X006551Y001191D02*
X000650Y001191D01*
X000650Y001248D02*
X006551Y001248D01*
X006551Y001306D02*
X000650Y001306D01*
X000650Y001363D02*
X006551Y001363D01*
X006551Y001421D02*
X000650Y001421D01*
X000650Y001478D02*
X006551Y001478D01*
X006551Y001536D02*
X000650Y001536D01*
X000650Y001594D02*
X001691Y001594D01*
X001608Y001651D02*
X000650Y001651D01*
X000650Y001709D02*
X001563Y001709D01*
X001539Y001766D02*
X000650Y001766D01*
X000650Y001824D02*
X001532Y001824D01*
X001532Y001881D02*
X000650Y001881D01*
X000650Y001939D02*
X001551Y001939D01*
X001579Y001996D02*
X000650Y001996D01*
X000650Y002054D02*
X001620Y002054D01*
X001620Y002112D02*
X000650Y002112D01*
X000650Y002169D02*
X001620Y002169D01*
X001591Y002227D02*
X000650Y002227D01*
X000650Y002284D02*
X001533Y002284D01*
X001476Y002342D02*
X000650Y002342D01*
X000650Y002399D02*
X001418Y002399D01*
X001361Y002457D02*
X000650Y002457D01*
X000650Y002514D02*
X001303Y002514D01*
X001246Y002572D02*
X000650Y002572D01*
X000650Y002630D02*
X001188Y002630D01*
X001187Y002687D02*
X000650Y002687D01*
X000650Y002745D02*
X001187Y002745D01*
X001187Y002802D02*
X000650Y002802D01*
X000650Y002860D02*
X001187Y002860D01*
X001187Y002917D02*
X000650Y002917D01*
X000650Y002975D02*
X001187Y002975D01*
X001187Y003032D02*
X000650Y003032D01*
X000650Y003090D02*
X001187Y003090D01*
X001187Y003148D02*
X000650Y003148D01*
X000650Y003205D02*
X001187Y003205D01*
X001187Y003263D02*
X000650Y003263D01*
X000650Y003320D02*
X001187Y003320D01*
X001187Y003378D02*
X000650Y003378D01*
X000650Y003435D02*
X001187Y003435D01*
X001187Y003493D02*
X000650Y003493D01*
X000650Y003550D02*
X001187Y003550D01*
X001187Y003608D02*
X000650Y003608D01*
X000650Y003666D02*
X001187Y003666D01*
X001187Y003723D02*
X000650Y003723D01*
X000650Y003781D02*
X001187Y003781D01*
X001187Y003838D02*
X000650Y003838D01*
X000650Y003896D02*
X001187Y003896D01*
X001187Y003953D02*
X000650Y003953D01*
X000650Y004011D02*
X001187Y004011D01*
X001187Y004068D02*
X000650Y004068D01*
X000650Y004126D02*
X001187Y004126D01*
X001187Y004184D02*
X000650Y004184D01*
X000650Y004241D02*
X001187Y004241D01*
X001187Y004299D02*
X000650Y004299D01*
X000650Y004356D02*
X001187Y004356D01*
X001174Y004414D02*
X000650Y004414D01*
X000650Y004471D02*
X001151Y004471D01*
X001138Y004529D02*
X000650Y004529D01*
X000650Y004586D02*
X001138Y004586D01*
X001153Y004644D02*
X000650Y004644D01*
X000650Y004702D02*
X001176Y004702D01*
X001231Y004759D02*
X000650Y004759D01*
X000650Y004817D02*
X001338Y004817D01*
X001473Y004817D02*
X001532Y004817D01*
X001532Y004874D02*
X000650Y004874D01*
X000650Y004932D02*
X001532Y004932D01*
X001532Y004989D02*
X000650Y004989D01*
X000650Y005047D02*
X001532Y005047D01*
X001532Y005104D02*
X000650Y005104D01*
X000650Y005162D02*
X001532Y005162D01*
X001532Y005220D02*
X000650Y005220D01*
X000650Y005277D02*
X001532Y005277D01*
X001532Y005335D02*
X000650Y005335D01*
X000650Y005392D02*
X001532Y005392D01*
X001532Y005450D02*
X000650Y005450D01*
X000650Y005507D02*
X001532Y005507D01*
X001532Y005565D02*
X000650Y005565D01*
X000650Y005622D02*
X001532Y005622D01*
X001532Y005680D02*
X000650Y005680D01*
X000650Y005738D02*
X001532Y005738D01*
X001532Y005795D02*
X000650Y005795D01*
X000650Y005853D02*
X001532Y005853D01*
X001532Y005910D02*
X000650Y005910D01*
X000650Y005968D02*
X001532Y005968D01*
X001532Y006025D02*
X000650Y006025D01*
X000650Y006083D02*
X001532Y006083D01*
X001532Y006140D02*
X000650Y006140D01*
X000650Y006198D02*
X001532Y006198D01*
X001532Y006256D02*
X000650Y006256D01*
X000650Y006313D02*
X001532Y006313D01*
X001532Y006371D02*
X000650Y006371D01*
X000650Y006428D02*
X001532Y006428D01*
X001532Y006486D02*
X000650Y006486D01*
X000650Y006543D02*
X001532Y006543D01*
X001532Y006601D02*
X000650Y006601D01*
X000650Y006658D02*
X001549Y006658D01*
X001606Y006716D02*
X000650Y006716D01*
X000650Y006774D02*
X001664Y006774D01*
X001721Y006831D02*
X000650Y006831D01*
X000650Y006889D02*
X001283Y006889D01*
X001289Y006886D02*
X001443Y006886D01*
X001585Y006945D01*
X001693Y007053D01*
X001752Y007195D01*
X001752Y007348D01*
X001693Y007490D01*
X001585Y007599D01*
X001443Y007657D01*
X001289Y007657D01*
X001148Y007599D01*
X001039Y007490D01*
X000980Y007348D01*
X000980Y007195D01*
X001039Y007053D01*
X001148Y006945D01*
X001289Y006886D01*
X001146Y006946D02*
X000650Y006946D01*
X000650Y007004D02*
X001089Y007004D01*
X001036Y007061D02*
X000650Y007061D01*
X000650Y007119D02*
X001012Y007119D01*
X000988Y007176D02*
X000650Y007176D01*
X000650Y007234D02*
X000980Y007234D01*
X000980Y007292D02*
X000650Y007292D01*
X000650Y007349D02*
X000981Y007349D01*
X001005Y007407D02*
X000650Y007407D01*
X000740Y007464D02*
X001028Y007464D01*
X001071Y007522D02*
X000898Y007522D01*
X000976Y007550D02*
X000976Y007550D01*
X001011Y007579D02*
X001128Y007579D01*
X001079Y007637D02*
X001240Y007637D01*
X001148Y007694D02*
X001954Y007694D01*
X001954Y007637D02*
X001492Y007637D01*
X001604Y007579D02*
X001954Y007579D01*
X001954Y007522D02*
X001662Y007522D01*
X001704Y007464D02*
X001954Y007464D01*
X001954Y007407D02*
X001728Y007407D01*
X001752Y007349D02*
X001954Y007349D01*
X001954Y007292D02*
X001752Y007292D01*
X001752Y007234D02*
X001954Y007234D01*
X001954Y007176D02*
X001744Y007176D01*
X001720Y007119D02*
X001915Y007119D01*
X001891Y007061D02*
X001697Y007061D01*
X001644Y007004D02*
X001886Y007004D01*
X001837Y006946D02*
X001586Y006946D01*
X001449Y006889D02*
X001779Y006889D01*
X002141Y006716D02*
X004534Y006716D01*
X004534Y006658D02*
X002083Y006658D01*
X002025Y006601D02*
X004534Y006601D01*
X004534Y006543D02*
X001968Y006543D01*
X001910Y006486D02*
X004534Y006486D01*
X004534Y006428D02*
X001909Y006428D01*
X001909Y006371D02*
X004534Y006371D01*
X004534Y006313D02*
X001909Y006313D01*
X001909Y006256D02*
X004534Y006256D01*
X004534Y006198D02*
X001909Y006198D01*
X001909Y006140D02*
X004534Y006140D01*
X004534Y006083D02*
X001909Y006083D01*
X001909Y006025D02*
X004534Y006025D01*
X004534Y005968D02*
X001909Y005968D01*
X001909Y005910D02*
X004534Y005910D01*
X004534Y005853D02*
X001909Y005853D01*
X001909Y005795D02*
X004534Y005795D01*
X004534Y005738D02*
X001909Y005738D01*
X001909Y005680D02*
X004534Y005680D01*
X004534Y005622D02*
X004452Y005622D01*
X004304Y005622D02*
X001909Y005622D01*
X001909Y005565D02*
X004204Y005565D01*
X004154Y005507D02*
X001909Y005507D01*
X001909Y005450D02*
X004130Y005450D01*
X004120Y005392D02*
X001909Y005392D01*
X001909Y005335D02*
X004120Y005335D01*
X004139Y005277D02*
X001909Y005277D01*
X001909Y005220D02*
X004168Y005220D01*
X004225Y005162D02*
X001909Y005162D01*
X001909Y005104D02*
X004534Y005104D01*
X004534Y005047D02*
X001909Y005047D01*
X001909Y004989D02*
X004534Y004989D01*
X004534Y004932D02*
X001909Y004932D01*
X001909Y004874D02*
X004534Y004874D01*
X004534Y004817D02*
X004470Y004817D01*
X004309Y004817D02*
X001909Y004817D01*
X001909Y004759D02*
X004213Y004759D01*
X004165Y004702D02*
X001909Y004702D01*
X001909Y004644D02*
X004141Y004644D01*
X004132Y004586D02*
X001909Y004586D01*
X001909Y004529D02*
X004132Y004529D01*
X004152Y004471D02*
X001909Y004471D01*
X001909Y004414D02*
X004182Y004414D01*
X004240Y004356D02*
X001909Y004356D01*
X001909Y004299D02*
X004534Y004299D01*
X004534Y004241D02*
X001909Y004241D01*
X001909Y004184D02*
X004534Y004184D01*
X004534Y004126D02*
X001909Y004126D01*
X001909Y004068D02*
X004534Y004068D01*
X004534Y004011D02*
X001909Y004011D01*
X001909Y003953D02*
X004534Y003953D01*
X004534Y003896D02*
X001909Y003896D01*
X001909Y003838D02*
X004534Y003838D01*
X004534Y003781D02*
X001909Y003781D01*
X001909Y003723D02*
X004534Y003723D01*
X004534Y003666D02*
X001909Y003666D01*
X001909Y003608D02*
X004534Y003608D01*
X004518Y003550D02*
X001909Y003550D01*
X001909Y003493D02*
X004460Y003493D01*
X004403Y003435D02*
X001909Y003435D01*
X001909Y003378D02*
X003289Y003378D01*
X003233Y003320D02*
X001909Y003320D01*
X001941Y003263D02*
X003209Y003263D01*
X003195Y003205D02*
X001999Y003205D01*
X002057Y003148D02*
X003195Y003148D01*
X003210Y003090D02*
X002114Y003090D01*
X002172Y003032D02*
X003180Y003032D01*
X003142Y002975D02*
X002229Y002975D01*
X002287Y002917D02*
X003118Y002917D01*
X003116Y002860D02*
X002344Y002860D01*
X002402Y002802D02*
X003120Y002802D01*
X003144Y002745D02*
X002459Y002745D01*
X002517Y002687D02*
X003185Y002687D01*
X003262Y002630D02*
X002575Y002630D01*
X002632Y002572D02*
X003431Y002572D01*
X003440Y002514D02*
X002690Y002514D01*
X002747Y002457D02*
X003046Y002457D01*
X002980Y002399D02*
X002805Y002399D01*
X002862Y002342D02*
X002943Y002342D01*
X002501Y002169D02*
X001978Y002169D01*
X001978Y002112D02*
X002558Y002112D01*
X002616Y002054D02*
X001978Y002054D01*
X002020Y001996D02*
X002673Y001996D01*
X002731Y001939D02*
X002047Y001939D01*
X002067Y001881D02*
X002789Y001881D01*
X002846Y001824D02*
X002067Y001824D01*
X002059Y001766D02*
X002904Y001766D01*
X002961Y001709D02*
X002035Y001709D01*
X001990Y001651D02*
X003340Y001651D01*
X003733Y001996D02*
X003758Y001996D01*
X003786Y002054D02*
X003695Y002054D01*
X003628Y002112D02*
X003786Y002112D01*
X003786Y002169D02*
X003430Y002169D01*
X003411Y002342D02*
X003606Y002342D01*
X003512Y002399D02*
X003375Y002399D01*
X003309Y002457D02*
X003464Y002457D01*
X003772Y002342D02*
X003786Y002342D01*
X003965Y002744D02*
X003965Y001839D01*
X004142Y001651D02*
X004260Y001651D01*
X004212Y001709D02*
X004190Y001709D01*
X004047Y001594D02*
X004355Y001594D01*
X004519Y001594D02*
X006551Y001594D01*
X006551Y001651D02*
X005980Y001651D01*
X006050Y001709D02*
X006551Y001709D01*
X006551Y001766D02*
X006087Y001766D01*
X006111Y001824D02*
X006551Y001824D01*
X006551Y001881D02*
X006112Y001881D01*
X006108Y001939D02*
X006551Y001939D01*
X006566Y001996D02*
X006084Y001996D01*
X006043Y002054D02*
X006599Y002054D01*
X006633Y002112D02*
X006033Y002112D01*
X006033Y002169D02*
X006709Y002169D01*
X007086Y002169D02*
X008471Y002169D01*
X008471Y002112D02*
X007814Y002112D01*
X007893Y002054D02*
X008158Y002054D01*
X008275Y002054D02*
X008471Y002054D01*
X008471Y001996D02*
X008384Y001996D01*
X008438Y001939D02*
X008471Y001939D01*
X008650Y002154D02*
X008650Y001720D01*
X008830Y001536D02*
X008982Y001536D01*
X008982Y001489D02*
X009087Y001384D01*
X009241Y001230D01*
X008527Y001230D01*
X008396Y001362D01*
X008396Y001614D01*
X008409Y001627D01*
X008431Y001574D01*
X008504Y001502D01*
X008598Y001463D01*
X008701Y001463D01*
X008796Y001502D01*
X008868Y001574D01*
X008907Y001669D01*
X008907Y001772D01*
X008868Y001867D01*
X008829Y001906D01*
X008829Y002079D01*
X009498Y002749D01*
X009498Y006424D01*
X009533Y006338D01*
X009606Y006266D01*
X009701Y006226D01*
X009757Y006226D01*
X009770Y006213D01*
X009875Y006108D01*
X010623Y006108D01*
X010715Y006016D01*
X010715Y005956D01*
X010669Y005974D01*
X010567Y005974D01*
X010472Y005935D01*
X010400Y005863D01*
X010360Y005768D01*
X010360Y005665D01*
X010400Y005571D01*
X010472Y005498D01*
X010567Y005459D01*
X010669Y005459D01*
X010715Y005477D01*
X010715Y002740D01*
X010111Y002136D01*
X010055Y002136D01*
X009960Y002096D01*
X009888Y002024D01*
X009850Y001934D01*
X009813Y002024D01*
X009741Y002096D01*
X009655Y002132D01*
X009655Y002205D01*
X009616Y002300D01*
X009544Y002372D01*
X009449Y002411D01*
X009346Y002411D01*
X009252Y002372D01*
X009179Y002300D01*
X009140Y002205D01*
X009140Y002136D01*
X009110Y002136D01*
X009015Y002096D01*
X008943Y002024D01*
X008904Y001929D01*
X008904Y001827D01*
X008943Y001732D01*
X008982Y001692D01*
X008982Y001489D01*
X008993Y001478D02*
X008739Y001478D01*
X008560Y001478D02*
X008396Y001478D01*
X008396Y001421D02*
X009050Y001421D01*
X009108Y001363D02*
X008396Y001363D01*
X008451Y001306D02*
X009165Y001306D01*
X009223Y001248D02*
X008509Y001248D01*
X008453Y001051D02*
X008217Y001287D01*
X008217Y001799D01*
X007972Y001881D02*
X007963Y001881D01*
X007959Y001939D02*
X007995Y001939D01*
X008049Y001996D02*
X007935Y001996D01*
X007705Y001878D02*
X007705Y001071D01*
X008000Y000776D01*
X011839Y000776D01*
X013571Y002508D01*
X013571Y006012D01*
X013492Y006091D01*
X013492Y006642D01*
X012705Y007429D01*
X012154Y007429D01*
X012012Y007287D01*
X010327Y007287D01*
X010224Y007390D01*
X010073Y007176D02*
X007863Y007176D01*
X007805Y007119D02*
X009582Y007119D01*
X009525Y007061D02*
X007748Y007061D01*
X007690Y007004D02*
X009467Y007004D01*
X009410Y006946D02*
X007632Y006946D01*
X007575Y006889D02*
X009352Y006889D01*
X009294Y006831D02*
X007517Y006831D01*
X007460Y006774D02*
X009237Y006774D01*
X009179Y006716D02*
X007402Y006716D01*
X007345Y006658D02*
X009140Y006658D01*
X009140Y006601D02*
X007287Y006601D01*
X007230Y006543D02*
X009140Y006543D01*
X009140Y006486D02*
X007172Y006486D01*
X007114Y006428D02*
X009140Y006428D01*
X009140Y006371D02*
X007057Y006371D01*
X006999Y006313D02*
X009140Y006313D01*
X009140Y006256D02*
X006942Y006256D01*
X006884Y006198D02*
X009140Y006198D01*
X009140Y006140D02*
X006827Y006140D01*
X006769Y006083D02*
X009140Y006083D01*
X009140Y006025D02*
X006712Y006025D01*
X006654Y005968D02*
X009140Y005968D01*
X009140Y005910D02*
X006596Y005910D01*
X006539Y005853D02*
X009140Y005853D01*
X009140Y005795D02*
X006481Y005795D01*
X006424Y005738D02*
X009140Y005738D01*
X009140Y005680D02*
X006366Y005680D01*
X006309Y005622D02*
X009140Y005622D01*
X009140Y005565D02*
X006251Y005565D01*
X006194Y005507D02*
X009140Y005507D01*
X009140Y005450D02*
X006136Y005450D01*
X006078Y005392D02*
X009140Y005392D01*
X009140Y005335D02*
X006033Y005335D01*
X006033Y005277D02*
X009140Y005277D01*
X009140Y005220D02*
X006033Y005220D01*
X006033Y005162D02*
X009140Y005162D01*
X009140Y005104D02*
X006033Y005104D01*
X006033Y005047D02*
X009140Y005047D01*
X009140Y004989D02*
X006033Y004989D01*
X006033Y004932D02*
X009140Y004932D01*
X009140Y004874D02*
X006033Y004874D01*
X006033Y004817D02*
X009140Y004817D01*
X009140Y004759D02*
X006033Y004759D01*
X006033Y004702D02*
X009140Y004702D01*
X009140Y004644D02*
X006033Y004644D01*
X006033Y004586D02*
X009140Y004586D01*
X009140Y004529D02*
X006033Y004529D01*
X006033Y004471D02*
X009140Y004471D01*
X009140Y004414D02*
X006033Y004414D01*
X006033Y004356D02*
X009140Y004356D01*
X009140Y004299D02*
X006033Y004299D01*
X006033Y004241D02*
X009140Y004241D01*
X009140Y004184D02*
X006033Y004184D01*
X006033Y004126D02*
X009140Y004126D01*
X009140Y004068D02*
X006033Y004068D01*
X006033Y004011D02*
X009140Y004011D01*
X009140Y003953D02*
X006033Y003953D01*
X006033Y003896D02*
X009140Y003896D01*
X009140Y003838D02*
X006033Y003838D01*
X006033Y003781D02*
X009140Y003781D01*
X009140Y003723D02*
X006033Y003723D01*
X006033Y003666D02*
X009140Y003666D01*
X009140Y003608D02*
X006033Y003608D01*
X006033Y003550D02*
X009140Y003550D01*
X009140Y003493D02*
X006033Y003493D01*
X006033Y003435D02*
X009140Y003435D01*
X009140Y003378D02*
X006033Y003378D01*
X006033Y003320D02*
X009140Y003320D01*
X009140Y003263D02*
X006033Y003263D01*
X006033Y003205D02*
X009140Y003205D01*
X009140Y003148D02*
X006033Y003148D01*
X006033Y003090D02*
X009140Y003090D01*
X009140Y003032D02*
X006033Y003032D01*
X006033Y002975D02*
X009140Y002975D01*
X009140Y002917D02*
X006033Y002917D01*
X006033Y002860D02*
X009103Y002860D01*
X009045Y002802D02*
X006033Y002802D01*
X006033Y002745D02*
X008988Y002745D01*
X008930Y002687D02*
X006033Y002687D01*
X006033Y002630D02*
X008872Y002630D01*
X008815Y002572D02*
X006033Y002572D01*
X006033Y002514D02*
X008757Y002514D01*
X008700Y002457D02*
X006033Y002457D01*
X006033Y002399D02*
X008642Y002399D01*
X008585Y002342D02*
X006033Y002342D01*
X006033Y002284D02*
X008527Y002284D01*
X008471Y002227D02*
X006033Y002227D01*
X005854Y001878D02*
X005854Y005421D01*
X008295Y007862D01*
X010185Y007862D01*
X010539Y007508D01*
X010697Y007744D02*
X010657Y007783D01*
X010657Y008256D01*
X010500Y008413D01*
X008138Y008413D01*
X006484Y006760D01*
X006484Y006366D01*
X005382Y005264D01*
X005382Y001878D01*
X005615Y001766D02*
X005622Y001766D01*
X005659Y001709D02*
X005577Y001709D01*
X005508Y001651D02*
X005728Y001651D01*
X005256Y001651D02*
X004996Y001651D01*
X005065Y001709D02*
X005187Y001709D01*
X005149Y001766D02*
X005103Y001766D01*
X004870Y001878D02*
X004870Y002823D01*
X005106Y003059D01*
X005106Y006563D01*
X011327Y012783D01*
X015382Y012783D01*
X015623Y012874D02*
X017280Y012874D01*
X017280Y012876D02*
X017280Y012770D01*
X017320Y012671D01*
X017396Y012596D01*
X017494Y012555D01*
X017600Y012555D01*
X017699Y012596D01*
X017774Y012671D01*
X017815Y012770D01*
X017815Y012876D01*
X017774Y012974D01*
X017699Y013050D01*
X017600Y013090D01*
X017494Y013090D01*
X017396Y013050D01*
X017320Y012974D01*
X017280Y012876D01*
X017280Y012817D02*
X015640Y012817D01*
X015640Y012759D02*
X017284Y012759D01*
X017308Y012702D02*
X015627Y012702D01*
X015603Y012644D02*
X017347Y012644D01*
X017418Y012587D02*
X015550Y012587D01*
X015441Y012529D02*
X022698Y012529D01*
X022730Y012516D02*
X022632Y012557D01*
X022557Y012632D01*
X022516Y012730D01*
X022516Y012837D01*
X022557Y012935D01*
X022632Y013010D01*
X022730Y013051D01*
X022837Y013051D01*
X022935Y013010D01*
X023010Y012935D01*
X023051Y012837D01*
X023051Y012730D01*
X023010Y012632D01*
X022935Y012557D01*
X022837Y012516D01*
X022730Y012516D01*
X022869Y012529D02*
X026112Y012529D01*
X026092Y012577D02*
X026133Y012478D01*
X026208Y012403D01*
X026307Y012362D01*
X026413Y012362D01*
X026512Y012403D01*
X026587Y012478D01*
X026628Y012577D01*
X026628Y012683D01*
X026587Y012782D01*
X026512Y012857D01*
X026413Y012898D01*
X026307Y012898D01*
X026208Y012857D01*
X026133Y012782D01*
X026092Y012683D01*
X026092Y012577D01*
X026092Y012587D02*
X024172Y012587D01*
X024195Y012596D02*
X024270Y012671D01*
X024311Y012770D01*
X024311Y012876D01*
X024270Y012974D01*
X024195Y013050D01*
X024097Y013090D01*
X023990Y013090D01*
X023892Y013050D01*
X023816Y012974D01*
X023776Y012876D01*
X023776Y012770D01*
X023816Y012671D01*
X023892Y012596D01*
X023990Y012555D01*
X024097Y012555D01*
X024195Y012596D01*
X024243Y012644D02*
X026092Y012644D01*
X026100Y012702D02*
X024283Y012702D01*
X024307Y012759D02*
X026124Y012759D01*
X026168Y012817D02*
X024311Y012817D01*
X024311Y012874D02*
X026251Y012874D01*
X026469Y012874D02*
X027000Y012874D01*
X027000Y012817D02*
X026552Y012817D01*
X026596Y012759D02*
X027000Y012759D01*
X027000Y012702D02*
X026620Y012702D01*
X026628Y012644D02*
X027000Y012644D01*
X027000Y012587D02*
X026628Y012587D01*
X026608Y012529D02*
X027000Y012529D01*
X027000Y012472D02*
X026580Y012472D01*
X026522Y012414D02*
X027000Y012414D01*
X027000Y012356D02*
X026102Y012356D01*
X026127Y012332D02*
X026052Y012407D01*
X025953Y012448D01*
X025847Y012448D01*
X025748Y012407D01*
X025673Y012332D01*
X025632Y012233D01*
X025632Y012127D01*
X025673Y012028D01*
X025748Y011953D01*
X025847Y011912D01*
X025953Y011912D01*
X026052Y011953D01*
X026127Y012028D01*
X026168Y012127D01*
X026168Y012233D01*
X026127Y012332D01*
X026140Y012299D02*
X027000Y012299D01*
X027000Y012241D02*
X026164Y012241D01*
X026168Y012184D02*
X027000Y012184D01*
X027000Y012126D02*
X026167Y012126D01*
X026144Y012069D02*
X027000Y012069D01*
X027000Y012011D02*
X026110Y012011D01*
X026052Y011954D02*
X027000Y011954D01*
X027000Y011896D02*
X023396Y011896D01*
X023396Y011952D02*
X023291Y012057D01*
X023054Y012293D01*
X021528Y012293D01*
X021423Y012188D01*
X020977Y011742D01*
X019469Y011742D01*
X019537Y011811D01*
X019577Y011905D01*
X019577Y012008D01*
X019537Y012103D01*
X019465Y012175D01*
X019370Y012214D01*
X019268Y012214D01*
X019173Y012175D01*
X019100Y012103D01*
X019061Y012008D01*
X019061Y011905D01*
X019100Y011811D01*
X019169Y011742D01*
X018733Y011742D01*
X018467Y011476D01*
X018400Y011476D01*
X018301Y011436D01*
X018226Y011360D01*
X018185Y011262D01*
X018185Y011155D01*
X018226Y011057D01*
X018301Y010982D01*
X018400Y010941D01*
X018506Y010941D01*
X018604Y010982D01*
X018680Y011057D01*
X018720Y011155D01*
X018720Y011223D01*
X018881Y011384D01*
X021125Y011384D01*
X021295Y011554D01*
X021295Y011549D01*
X021336Y011451D01*
X021411Y011375D01*
X021510Y011335D01*
X021616Y011335D01*
X021715Y011375D01*
X021790Y011451D01*
X021831Y011549D01*
X021831Y011656D01*
X021790Y011754D01*
X021715Y011829D01*
X021616Y011870D01*
X021611Y011870D01*
X021677Y011935D01*
X022906Y011935D01*
X023037Y011804D01*
X023037Y011723D01*
X022990Y011675D01*
X022949Y011577D01*
X022949Y011470D01*
X022990Y011372D01*
X023028Y011334D01*
X023028Y010605D01*
X023138Y010495D01*
X023422Y010211D01*
X023912Y010211D01*
X025121Y009002D01*
X025121Y006462D01*
X025232Y006351D01*
X025722Y005860D01*
X025722Y005807D01*
X025763Y005708D01*
X025838Y005633D01*
X025937Y005592D01*
X026043Y005592D01*
X026142Y005633D01*
X026217Y005708D01*
X026258Y005807D01*
X026258Y005913D01*
X026217Y006012D01*
X026142Y006087D01*
X026043Y006128D01*
X025990Y006128D01*
X025499Y006618D01*
X025499Y006844D01*
X025602Y006741D01*
X026481Y005862D01*
X026481Y003088D01*
X026477Y003088D01*
X026378Y003047D01*
X026303Y002972D01*
X026262Y002873D01*
X026262Y002767D01*
X026303Y002668D01*
X026378Y002593D01*
X026477Y002552D01*
X026583Y002552D01*
X026682Y002593D01*
X026757Y002668D01*
X026798Y002767D01*
X026798Y002820D01*
X026859Y002882D01*
X026859Y006018D01*
X025869Y007008D01*
X025869Y010288D01*
X025571Y010586D01*
X025571Y011373D01*
X025609Y011411D01*
X025650Y011510D01*
X025650Y011616D01*
X025609Y011715D01*
X025533Y011790D01*
X025435Y011831D01*
X025329Y011831D01*
X025230Y011790D01*
X025155Y011715D01*
X025114Y011616D01*
X025114Y011510D01*
X025155Y011411D01*
X025193Y011373D01*
X025193Y010430D01*
X025304Y010319D01*
X025491Y010132D01*
X025491Y009166D01*
X024942Y009715D01*
X024997Y009692D01*
X025103Y009692D01*
X025202Y009733D01*
X025277Y009808D01*
X025318Y009907D01*
X025318Y010013D01*
X025277Y010112D01*
X025491Y010112D01*
X025491Y010054D02*
X025301Y010054D01*
X025318Y009997D02*
X025491Y009997D01*
X025491Y009939D02*
X025318Y009939D01*
X025307Y009882D02*
X025491Y009882D01*
X025491Y009824D02*
X025283Y009824D01*
X025235Y009766D02*
X025491Y009766D01*
X025491Y009709D02*
X025143Y009709D01*
X025063Y009594D02*
X025491Y009594D01*
X025491Y009651D02*
X025006Y009651D01*
X024957Y009709D02*
X024948Y009709D01*
X024805Y009852D02*
X024179Y010478D01*
X024068Y010589D01*
X023578Y010589D01*
X023405Y010762D01*
X023405Y011334D01*
X023443Y011372D01*
X023461Y011414D01*
X023461Y011313D01*
X023501Y011215D01*
X023577Y011139D01*
X023675Y011099D01*
X023782Y011099D01*
X023880Y011139D01*
X023955Y011215D01*
X023996Y011313D01*
X023996Y011419D01*
X023955Y011518D01*
X023880Y011593D01*
X023782Y011634D01*
X023675Y011634D01*
X023577Y011593D01*
X023501Y011518D01*
X023484Y011476D01*
X023484Y011577D01*
X023443Y011675D01*
X023396Y011723D01*
X023396Y011952D01*
X023394Y011954D02*
X025748Y011954D01*
X025690Y012011D02*
X023337Y012011D01*
X023279Y012069D02*
X025656Y012069D01*
X025633Y012126D02*
X023222Y012126D01*
X023164Y012184D02*
X025632Y012184D01*
X025636Y012241D02*
X023106Y012241D01*
X022980Y012114D02*
X023217Y011878D01*
X023217Y011524D01*
X023471Y011608D02*
X023613Y011608D01*
X023534Y011551D02*
X023484Y011551D01*
X023484Y011493D02*
X023491Y011493D01*
X023461Y011378D02*
X023446Y011378D01*
X023461Y011320D02*
X023405Y011320D01*
X023405Y011263D02*
X023481Y011263D01*
X023511Y011205D02*
X023405Y011205D01*
X023405Y011148D02*
X023568Y011148D01*
X023405Y011090D02*
X025193Y011090D01*
X025193Y011033D02*
X023405Y011033D01*
X023405Y010975D02*
X025193Y010975D01*
X025193Y010918D02*
X023405Y010918D01*
X023405Y010860D02*
X025193Y010860D01*
X025193Y010802D02*
X023405Y010802D01*
X023422Y010745D02*
X025193Y010745D01*
X025193Y010687D02*
X023480Y010687D01*
X023537Y010630D02*
X025193Y010630D01*
X025193Y010572D02*
X024085Y010572D01*
X024143Y010515D02*
X025193Y010515D01*
X025193Y010457D02*
X024200Y010457D01*
X024258Y010400D02*
X025223Y010400D01*
X025281Y010342D02*
X024315Y010342D01*
X024373Y010284D02*
X025338Y010284D01*
X025396Y010227D02*
X025105Y010227D01*
X025103Y010228D02*
X024997Y010228D01*
X024898Y010187D01*
X024823Y010112D01*
X024545Y010112D01*
X024488Y010169D02*
X024881Y010169D01*
X024823Y010112D02*
X024782Y010013D01*
X024782Y009907D01*
X024805Y009852D01*
X024793Y009882D02*
X024776Y009882D01*
X024782Y009939D02*
X024718Y009939D01*
X024661Y009997D02*
X024782Y009997D01*
X024799Y010054D02*
X024603Y010054D01*
X024430Y010227D02*
X024995Y010227D01*
X025103Y010228D02*
X025202Y010187D01*
X025277Y010112D01*
X025219Y010169D02*
X025454Y010169D01*
X025700Y010457D02*
X027000Y010457D01*
X027000Y010400D02*
X025758Y010400D01*
X025815Y010342D02*
X027000Y010342D01*
X027000Y010284D02*
X025869Y010284D01*
X025869Y010227D02*
X027000Y010227D01*
X027000Y010169D02*
X025869Y010169D01*
X025869Y010112D02*
X027000Y010112D01*
X027000Y010054D02*
X025869Y010054D01*
X025869Y009997D02*
X027000Y009997D01*
X027000Y009939D02*
X025869Y009939D01*
X025869Y009882D02*
X027000Y009882D01*
X027000Y009824D02*
X025869Y009824D01*
X025869Y009766D02*
X027000Y009766D01*
X027000Y009709D02*
X025869Y009709D01*
X025869Y009651D02*
X027000Y009651D01*
X027000Y009594D02*
X025869Y009594D01*
X025869Y009536D02*
X027000Y009536D01*
X027000Y009479D02*
X025869Y009479D01*
X025869Y009421D02*
X027000Y009421D01*
X027000Y009364D02*
X025869Y009364D01*
X025869Y009306D02*
X026935Y009306D01*
X026777Y009248D02*
X025869Y009248D01*
X025869Y009191D02*
X026630Y009191D01*
X026638Y009198D02*
X026638Y009198D01*
X026561Y009133D02*
X025869Y009133D01*
X025869Y009076D02*
X026493Y009076D01*
X026424Y009018D02*
X025869Y009018D01*
X025869Y008961D02*
X026371Y008961D01*
X026338Y008903D02*
X025869Y008903D01*
X025869Y008846D02*
X026305Y008846D01*
X026271Y008788D02*
X025869Y008788D01*
X025869Y008730D02*
X026238Y008730D01*
X026220Y008699D02*
X026220Y008699D01*
X026215Y008673D02*
X025869Y008673D01*
X025869Y008615D02*
X026205Y008615D01*
X026195Y008558D02*
X025869Y008558D01*
X025869Y008500D02*
X026185Y008500D01*
X026175Y008443D02*
X025869Y008443D01*
X025869Y008385D02*
X026165Y008385D01*
X026163Y008374D02*
X026163Y008374D01*
X026171Y008328D02*
X025869Y008328D01*
X025869Y008270D02*
X026181Y008270D01*
X026191Y008212D02*
X025869Y008212D01*
X025869Y008155D02*
X026201Y008155D01*
X026212Y008097D02*
X025869Y008097D01*
X025869Y008040D02*
X026225Y008040D01*
X026259Y007982D02*
X025869Y007982D01*
X025869Y007925D02*
X026292Y007925D01*
X026325Y007867D02*
X025869Y007867D01*
X025869Y007810D02*
X026358Y007810D01*
X026398Y007752D02*
X025869Y007752D01*
X025869Y007694D02*
X026466Y007694D01*
X026535Y007637D02*
X025869Y007637D01*
X025869Y007579D02*
X026604Y007579D01*
X026638Y007550D02*
X026638Y007550D01*
X026716Y007522D02*
X025869Y007522D01*
X025869Y007464D02*
X026874Y007464D01*
X026965Y007407D02*
X025869Y007407D01*
X025869Y007349D02*
X026965Y007349D01*
X026965Y007292D02*
X025869Y007292D01*
X025869Y007234D02*
X026965Y007234D01*
X026965Y007176D02*
X025869Y007176D01*
X025869Y007119D02*
X026965Y007119D01*
X026965Y007061D02*
X025869Y007061D01*
X025873Y007004D02*
X026459Y007004D01*
X026418Y006987D02*
X026517Y007028D01*
X026623Y007028D01*
X026722Y006987D01*
X026797Y006912D01*
X026838Y006813D01*
X026838Y006707D01*
X026797Y006608D01*
X026722Y006533D01*
X026623Y006492D01*
X026517Y006492D01*
X026418Y006533D01*
X026343Y006608D01*
X026302Y006707D01*
X026302Y006813D01*
X026343Y006912D01*
X026418Y006987D01*
X026378Y006946D02*
X025931Y006946D01*
X025988Y006889D02*
X026334Y006889D01*
X026310Y006831D02*
X026046Y006831D01*
X026104Y006774D02*
X026302Y006774D01*
X026302Y006716D02*
X026161Y006716D01*
X026219Y006658D02*
X026322Y006658D01*
X026351Y006601D02*
X026276Y006601D01*
X026334Y006543D02*
X026408Y006543D01*
X026391Y006486D02*
X026965Y006486D01*
X026965Y006543D02*
X026732Y006543D01*
X026789Y006601D02*
X026965Y006601D01*
X026965Y006658D02*
X026818Y006658D01*
X026838Y006716D02*
X026965Y006716D01*
X026965Y006774D02*
X026838Y006774D01*
X026830Y006831D02*
X026965Y006831D01*
X026965Y006889D02*
X026806Y006889D01*
X026762Y006946D02*
X026965Y006946D01*
X026965Y007004D02*
X026681Y007004D01*
X025800Y006543D02*
X025574Y006543D01*
X025631Y006486D02*
X025857Y006486D01*
X025915Y006428D02*
X025689Y006428D01*
X025746Y006371D02*
X025972Y006371D01*
X026030Y006313D02*
X025804Y006313D01*
X025862Y006256D02*
X026087Y006256D01*
X026145Y006198D02*
X025919Y006198D01*
X025977Y006140D02*
X026202Y006140D01*
X026146Y006083D02*
X026260Y006083D01*
X026203Y006025D02*
X026318Y006025D01*
X026375Y005968D02*
X026235Y005968D01*
X026258Y005910D02*
X026433Y005910D01*
X026481Y005853D02*
X026258Y005853D01*
X026253Y005795D02*
X026481Y005795D01*
X026481Y005738D02*
X026229Y005738D01*
X026188Y005680D02*
X026481Y005680D01*
X026481Y005622D02*
X026116Y005622D01*
X025864Y005622D02*
X021506Y005622D01*
X021506Y005630D02*
X021467Y005725D01*
X021394Y005797D01*
X021299Y005837D01*
X021197Y005837D01*
X021102Y005797D01*
X021029Y005725D01*
X020990Y005630D01*
X020990Y005527D01*
X021029Y005433D01*
X021102Y005360D01*
X021197Y005321D01*
X021299Y005321D01*
X021394Y005360D01*
X021467Y005433D01*
X021506Y005527D01*
X021506Y005630D01*
X021485Y005680D02*
X025792Y005680D01*
X025751Y005738D02*
X021454Y005738D01*
X021396Y005795D02*
X025727Y005795D01*
X025722Y005853D02*
X018727Y005853D01*
X018728Y005856D02*
X018688Y005758D01*
X018612Y005683D01*
X018514Y005642D01*
X018426Y005642D01*
X018392Y005561D01*
X018317Y005486D01*
X018219Y005445D01*
X018112Y005445D01*
X018014Y005486D01*
X017938Y005561D01*
X017898Y005659D01*
X017898Y005766D01*
X017938Y005864D01*
X018014Y005939D01*
X018112Y005980D01*
X018200Y005980D01*
X018234Y006061D01*
X018309Y006136D01*
X018407Y006177D01*
X018514Y006177D01*
X018612Y006136D01*
X018688Y006061D01*
X018728Y005963D01*
X018728Y005856D01*
X018728Y005910D02*
X025673Y005910D01*
X025615Y005968D02*
X018726Y005968D01*
X018702Y006025D02*
X025558Y006025D01*
X025500Y006083D02*
X018666Y006083D01*
X018602Y006140D02*
X025442Y006140D01*
X025385Y006198D02*
X017311Y006198D01*
X017311Y006171D02*
X017311Y006278D01*
X017270Y006376D01*
X017195Y006451D01*
X017097Y006492D01*
X016990Y006492D01*
X016892Y006451D01*
X016816Y006376D01*
X016776Y006278D01*
X016776Y006171D01*
X016791Y006134D01*
X016782Y006138D01*
X016675Y006138D01*
X016577Y006097D01*
X016501Y006022D01*
X016461Y005923D01*
X016461Y005921D01*
X016405Y005921D01*
X016405Y005933D01*
X016365Y006031D01*
X016289Y006106D01*
X016191Y006147D01*
X016085Y006147D01*
X015986Y006106D01*
X015911Y006031D01*
X015874Y005941D01*
X015770Y005941D01*
X015671Y005900D01*
X015596Y005825D01*
X015555Y005726D01*
X015555Y005620D01*
X015596Y005522D01*
X015671Y005446D01*
X015770Y005406D01*
X015876Y005406D01*
X015974Y005446D01*
X016050Y005522D01*
X016087Y005612D01*
X016165Y005612D01*
X016165Y005600D01*
X016206Y005502D01*
X016281Y005427D01*
X016380Y005386D01*
X016486Y005386D01*
X016585Y005427D01*
X016660Y005502D01*
X016701Y005600D01*
X016701Y005602D01*
X016782Y005602D01*
X016783Y005603D01*
X016816Y005522D01*
X016892Y005446D01*
X016990Y005406D01*
X017097Y005406D01*
X017195Y005446D01*
X017270Y005522D01*
X017311Y005620D01*
X017311Y005726D01*
X017270Y005825D01*
X017195Y005900D01*
X017097Y005941D01*
X016990Y005941D01*
X016989Y005940D01*
X016980Y005961D01*
X016990Y005957D01*
X017097Y005957D01*
X017195Y005998D01*
X017270Y006073D01*
X017311Y006171D01*
X017298Y006140D02*
X018319Y006140D01*
X018256Y006083D02*
X017274Y006083D01*
X017223Y006025D02*
X018219Y006025D01*
X018082Y005968D02*
X017123Y005968D01*
X017171Y005910D02*
X017984Y005910D01*
X017934Y005853D02*
X017242Y005853D01*
X017283Y005795D02*
X017910Y005795D01*
X017898Y005738D02*
X017306Y005738D01*
X017311Y005680D02*
X017898Y005680D01*
X017913Y005622D02*
X017311Y005622D01*
X017288Y005565D02*
X017937Y005565D01*
X017992Y005507D02*
X017256Y005507D01*
X017198Y005450D02*
X018101Y005450D01*
X018230Y005450D02*
X018327Y005450D01*
X018311Y005412D02*
X018311Y005305D01*
X018352Y005207D01*
X018427Y005131D01*
X018526Y005091D01*
X018632Y005091D01*
X018730Y005131D01*
X018806Y005207D01*
X018846Y005305D01*
X018846Y005412D01*
X018806Y005510D01*
X018730Y005585D01*
X018632Y005626D01*
X018526Y005626D01*
X018427Y005585D01*
X018352Y005510D01*
X018311Y005412D01*
X018311Y005392D02*
X016502Y005392D01*
X016608Y005450D02*
X016888Y005450D01*
X016831Y005507D02*
X016662Y005507D01*
X016686Y005565D02*
X016799Y005565D01*
X016365Y005392D02*
X015675Y005392D01*
X015676Y005392D02*
X015600Y005467D01*
X015502Y005508D01*
X015396Y005508D01*
X015297Y005467D01*
X015222Y005392D01*
X015181Y005293D01*
X015181Y005187D01*
X015222Y005089D01*
X015297Y005013D01*
X015396Y004973D01*
X015502Y004973D01*
X015600Y005013D01*
X015676Y005089D01*
X015716Y005187D01*
X015716Y005293D01*
X015676Y005392D01*
X015668Y005450D02*
X015618Y005450D01*
X015610Y005507D02*
X015503Y005507D01*
X015578Y005565D02*
X014909Y005565D01*
X014909Y005608D02*
X014869Y005707D01*
X014793Y005782D01*
X014695Y005823D01*
X014588Y005823D01*
X014490Y005782D01*
X014415Y005707D01*
X014374Y005608D01*
X014374Y005502D01*
X014415Y005404D01*
X014490Y005328D01*
X014588Y005287D01*
X014695Y005287D01*
X014793Y005328D01*
X014869Y005404D01*
X014909Y005502D01*
X014909Y005608D01*
X014904Y005622D02*
X015555Y005622D01*
X015555Y005680D02*
X014880Y005680D01*
X014838Y005738D02*
X015560Y005738D01*
X015584Y005795D02*
X014762Y005795D01*
X014522Y005795D02*
X013750Y005795D01*
X013750Y005738D02*
X014446Y005738D01*
X014404Y005680D02*
X013750Y005680D01*
X013750Y005622D02*
X014380Y005622D01*
X014374Y005565D02*
X013750Y005565D01*
X013750Y005507D02*
X014374Y005507D01*
X014396Y005450D02*
X013750Y005450D01*
X013750Y005392D02*
X014426Y005392D01*
X014484Y005335D02*
X013750Y005335D01*
X013750Y005277D02*
X015181Y005277D01*
X015181Y005220D02*
X013750Y005220D01*
X013750Y005162D02*
X015192Y005162D01*
X015215Y005104D02*
X013750Y005104D01*
X013750Y005047D02*
X015264Y005047D01*
X015355Y004989D02*
X013750Y004989D01*
X013750Y004932D02*
X018859Y004932D01*
X018858Y004931D02*
X018785Y004859D01*
X018746Y004764D01*
X018746Y004661D01*
X018785Y004567D01*
X018858Y004494D01*
X018953Y004455D01*
X019055Y004455D01*
X019150Y004494D01*
X019222Y004567D01*
X019262Y004661D01*
X019262Y004764D01*
X019222Y004859D01*
X019150Y004931D01*
X019055Y004970D01*
X018953Y004970D01*
X018858Y004931D01*
X018801Y004874D02*
X013750Y004874D01*
X013750Y004817D02*
X018768Y004817D01*
X018746Y004759D02*
X013750Y004759D01*
X013750Y004702D02*
X018746Y004702D01*
X018753Y004644D02*
X013750Y004644D01*
X013750Y004586D02*
X018777Y004586D01*
X018823Y004529D02*
X013750Y004529D01*
X013750Y004471D02*
X018913Y004471D01*
X019095Y004471D02*
X026481Y004471D01*
X026481Y004414D02*
X013750Y004414D01*
X013750Y004356D02*
X026481Y004356D01*
X026481Y004299D02*
X013750Y004299D01*
X013750Y004241D02*
X026481Y004241D01*
X026481Y004184D02*
X013750Y004184D01*
X013750Y004126D02*
X026481Y004126D01*
X026481Y004068D02*
X013750Y004068D01*
X013750Y004011D02*
X026481Y004011D01*
X026481Y003953D02*
X013750Y003953D01*
X013750Y003896D02*
X026481Y003896D01*
X026481Y003838D02*
X013750Y003838D01*
X013750Y003781D02*
X018971Y003781D01*
X018992Y003789D02*
X018897Y003750D01*
X018825Y003678D01*
X018786Y003583D01*
X018786Y003480D01*
X018825Y003385D01*
X018897Y003313D01*
X018992Y003274D01*
X019095Y003274D01*
X019189Y003313D01*
X019262Y003385D01*
X019301Y003480D01*
X019301Y003583D01*
X019262Y003678D01*
X019189Y003750D01*
X019095Y003789D01*
X018992Y003789D01*
X019115Y003781D02*
X026481Y003781D01*
X026481Y003723D02*
X019216Y003723D01*
X019267Y003666D02*
X026481Y003666D01*
X026481Y003608D02*
X019291Y003608D01*
X019301Y003550D02*
X025003Y003550D01*
X024961Y003533D02*
X024869Y003441D01*
X024819Y003321D01*
X024819Y003191D01*
X024869Y003071D01*
X024961Y002979D01*
X025081Y002929D01*
X025211Y002929D01*
X025331Y002979D01*
X025423Y003071D01*
X025472Y003191D01*
X025472Y003321D01*
X025423Y003441D01*
X025331Y003533D01*
X025211Y003583D01*
X025081Y003583D01*
X024961Y003533D01*
X024921Y003493D02*
X019301Y003493D01*
X019283Y003435D02*
X024866Y003435D01*
X024843Y003378D02*
X019254Y003378D01*
X019197Y003320D02*
X024819Y003320D01*
X024819Y003263D02*
X015346Y003263D01*
X015331Y003278D02*
X015404Y003205D01*
X015443Y003110D01*
X015443Y003008D01*
X015404Y002913D01*
X015331Y002841D01*
X015236Y002801D01*
X015134Y002801D01*
X015039Y002841D01*
X014966Y002913D01*
X014927Y003008D01*
X014927Y003110D01*
X014966Y003205D01*
X015039Y003278D01*
X015134Y003317D01*
X015236Y003317D01*
X015331Y003278D01*
X015404Y003205D02*
X024819Y003205D01*
X024837Y003148D02*
X020744Y003148D01*
X020764Y003139D02*
X020644Y003189D01*
X020514Y003189D01*
X020394Y003139D01*
X020302Y003047D01*
X020252Y002927D01*
X020252Y002797D01*
X020302Y002677D01*
X020394Y002585D01*
X020514Y002536D01*
X020644Y002536D01*
X020764Y002585D01*
X020856Y002677D01*
X020905Y002797D01*
X020905Y002927D01*
X020856Y003047D01*
X020764Y003139D01*
X020813Y003090D02*
X024861Y003090D01*
X024907Y003032D02*
X020862Y003032D01*
X020886Y002975D02*
X024970Y002975D01*
X025321Y002975D02*
X026306Y002975D01*
X026281Y002917D02*
X020905Y002917D01*
X020905Y002860D02*
X026262Y002860D01*
X026262Y002802D02*
X020905Y002802D01*
X020884Y002745D02*
X026272Y002745D01*
X026295Y002687D02*
X020860Y002687D01*
X020808Y002630D02*
X026342Y002630D01*
X026429Y002572D02*
X020732Y002572D01*
X020426Y002572D02*
X017614Y002572D01*
X017608Y002559D02*
X017648Y002653D01*
X017648Y002756D01*
X017608Y002851D01*
X017536Y002923D01*
X017441Y002963D01*
X017338Y002963D01*
X017244Y002923D01*
X017171Y002851D01*
X017132Y002756D01*
X017132Y002653D01*
X017171Y002559D01*
X017244Y002486D01*
X017338Y002447D01*
X017441Y002447D01*
X017536Y002486D01*
X017608Y002559D01*
X017564Y002514D02*
X026965Y002514D01*
X026965Y002457D02*
X017465Y002457D01*
X017314Y002457D02*
X013750Y002457D01*
X013750Y002514D02*
X017215Y002514D01*
X017166Y002572D02*
X013750Y002572D01*
X013750Y002630D02*
X017142Y002630D01*
X017132Y002687D02*
X013750Y002687D01*
X013750Y002745D02*
X017132Y002745D01*
X017151Y002802D02*
X015239Y002802D01*
X015131Y002802D02*
X013750Y002802D01*
X013750Y002860D02*
X015020Y002860D01*
X014965Y002917D02*
X013750Y002917D01*
X013750Y002975D02*
X014941Y002975D01*
X014927Y003032D02*
X013750Y003032D01*
X013750Y003090D02*
X014927Y003090D01*
X014943Y003148D02*
X013750Y003148D01*
X013750Y003205D02*
X014967Y003205D01*
X015024Y003263D02*
X013750Y003263D01*
X013750Y003320D02*
X018890Y003320D01*
X018832Y003378D02*
X013750Y003378D01*
X013750Y003435D02*
X018804Y003435D01*
X018786Y003493D02*
X013750Y003493D01*
X013750Y003550D02*
X018786Y003550D01*
X018796Y003608D02*
X013750Y003608D01*
X013750Y003666D02*
X018820Y003666D01*
X018870Y003723D02*
X013750Y003723D01*
X012705Y003138D02*
X012705Y002311D01*
X011445Y001051D01*
X008453Y001051D01*
X007850Y000673D02*
X007244Y000673D01*
X007244Y000730D02*
X007792Y000730D01*
X007735Y000788D02*
X007244Y000788D01*
X007244Y000845D02*
X007677Y000845D01*
X007619Y000903D02*
X007244Y000903D01*
X007244Y000960D02*
X007562Y000960D01*
X007526Y001018D02*
X007244Y001018D01*
X007244Y001076D02*
X007526Y001076D01*
X007526Y001133D02*
X007244Y001133D01*
X007244Y001191D02*
X007526Y001191D01*
X007526Y001248D02*
X007244Y001248D01*
X007244Y001306D02*
X007526Y001306D01*
X007526Y001363D02*
X007244Y001363D01*
X007244Y001421D02*
X007526Y001421D01*
X007526Y001478D02*
X007244Y001478D01*
X007244Y001536D02*
X007526Y001536D01*
X007526Y001594D02*
X007244Y001594D01*
X007244Y001651D02*
X007526Y001651D01*
X007509Y001709D02*
X007244Y001709D01*
X007244Y001766D02*
X007472Y001766D01*
X007448Y001824D02*
X007244Y001824D01*
X007244Y001881D02*
X007447Y001881D01*
X007451Y001939D02*
X007244Y001939D01*
X007229Y001996D02*
X007475Y001996D01*
X007516Y002054D02*
X007196Y002054D01*
X007163Y002112D02*
X007595Y002112D01*
X007151Y002132D02*
X007151Y002132D01*
X007151Y002132D01*
X007429Y002941D02*
X006327Y001839D01*
X004744Y001651D02*
X004614Y001651D01*
X004662Y001709D02*
X004675Y001709D01*
X004437Y001839D02*
X004437Y002862D01*
X004909Y003335D01*
X004909Y006602D01*
X011484Y013177D01*
X014752Y013177D01*
X014929Y012990D02*
X015223Y012990D01*
X015001Y013105D02*
X027000Y013105D01*
X027000Y013162D02*
X015010Y013162D01*
X015010Y013220D02*
X027000Y013220D01*
X027000Y013277D02*
X014990Y013277D01*
X014959Y013335D02*
X027000Y013335D01*
X027000Y013392D02*
X014901Y013392D01*
X014603Y013392D02*
X014557Y013392D01*
X014577Y013450D02*
X027000Y013450D01*
X027000Y013508D02*
X014577Y013508D01*
X014568Y013565D02*
X027000Y013565D01*
X027000Y013623D02*
X014544Y013623D01*
X014495Y013680D02*
X027000Y013680D01*
X027000Y013738D02*
X014400Y013738D01*
X014238Y013738D02*
X010487Y013738D01*
X010492Y013726D02*
X010433Y013868D01*
X010325Y013977D01*
X010183Y014035D01*
X010030Y014035D01*
X009888Y013977D01*
X009779Y013868D01*
X009721Y013726D01*
X009721Y013573D01*
X009779Y013431D01*
X009888Y013323D01*
X010030Y013264D01*
X010183Y013264D01*
X010325Y013323D01*
X010433Y013431D01*
X010492Y013573D01*
X010492Y013726D01*
X010492Y013680D02*
X014142Y013680D01*
X014083Y013886D02*
X014083Y013925D01*
X013925Y014083D01*
X009516Y014083D01*
X009358Y013925D01*
X009358Y013177D01*
X009594Y012941D01*
X009876Y013335D02*
X000650Y013335D01*
X000650Y013392D02*
X009818Y013392D01*
X009771Y013450D02*
X000650Y013450D01*
X000650Y013508D02*
X009748Y013508D01*
X009724Y013565D02*
X000650Y013565D01*
X000650Y013623D02*
X009721Y013623D01*
X009721Y013680D02*
X000650Y013680D01*
X000650Y013738D02*
X009725Y013738D01*
X009749Y013795D02*
X000650Y013795D01*
X000650Y013853D02*
X009773Y013853D01*
X009822Y013910D02*
X000650Y013910D01*
X000650Y013968D02*
X009879Y013968D01*
X010006Y014026D02*
X000650Y014026D01*
X000650Y014083D02*
X027000Y014083D01*
X027000Y014026D02*
X010207Y014026D01*
X010333Y013968D02*
X027000Y013968D01*
X027000Y013910D02*
X010391Y013910D01*
X010440Y013853D02*
X027000Y013853D01*
X027000Y013795D02*
X010463Y013795D01*
X010492Y013623D02*
X011401Y013623D01*
X011343Y013565D02*
X010489Y013565D01*
X010465Y013508D02*
X011286Y013508D01*
X011228Y013450D02*
X010441Y013450D01*
X010395Y013392D02*
X011171Y013392D01*
X011113Y013335D02*
X010337Y013335D01*
X010215Y013277D02*
X011056Y013277D01*
X010998Y013220D02*
X000650Y013220D01*
X000650Y013277D02*
X009997Y013277D01*
X010653Y012874D02*
X000650Y012874D01*
X000650Y012817D02*
X004383Y012817D01*
X004297Y012759D02*
X000650Y012759D01*
X000650Y012702D02*
X004242Y012702D01*
X004218Y012644D02*
X000650Y012644D01*
X000650Y012587D02*
X004194Y012587D01*
X004193Y012529D02*
X000650Y012529D01*
X000650Y012472D02*
X004189Y012472D01*
X004132Y012414D02*
X000650Y012414D01*
X000650Y012356D02*
X004074Y012356D01*
X004017Y012299D02*
X000650Y012299D01*
X000650Y012241D02*
X003959Y012241D01*
X003902Y012184D02*
X000650Y012184D01*
X000650Y012126D02*
X003844Y012126D01*
X003786Y012069D02*
X000650Y012069D01*
X000650Y012011D02*
X003729Y012011D01*
X003671Y011954D02*
X000650Y011954D01*
X000650Y011896D02*
X003614Y011896D01*
X003556Y011838D02*
X000650Y011838D01*
X000650Y011781D02*
X003499Y011781D01*
X003441Y011723D02*
X000650Y011723D01*
X000650Y011666D02*
X003384Y011666D01*
X003326Y011608D02*
X000650Y011608D01*
X000650Y011551D02*
X003268Y011551D01*
X003211Y011493D02*
X000650Y011493D01*
X000650Y011436D02*
X003153Y011436D01*
X003096Y011378D02*
X000650Y011378D01*
X000650Y011320D02*
X003038Y011320D01*
X002981Y011263D02*
X000650Y011263D01*
X000650Y011205D02*
X002923Y011205D01*
X002866Y011148D02*
X000650Y011148D01*
X000650Y011090D02*
X002808Y011090D01*
X002750Y011033D02*
X000650Y011033D01*
X000650Y010975D02*
X002693Y010975D01*
X002635Y010918D02*
X000650Y010918D01*
X000650Y010860D02*
X002578Y010860D01*
X002520Y010802D02*
X000650Y010802D01*
X000650Y010745D02*
X002463Y010745D01*
X002405Y010687D02*
X000650Y010687D01*
X000650Y010630D02*
X002348Y010630D01*
X002290Y010572D02*
X000650Y010572D01*
X000650Y010515D02*
X002232Y010515D01*
X002175Y010457D02*
X000650Y010457D01*
X000650Y010400D02*
X002117Y010400D01*
X002060Y010342D02*
X000650Y010342D01*
X000650Y010284D02*
X002002Y010284D01*
X001954Y010227D02*
X000650Y010227D01*
X000650Y010169D02*
X001954Y010169D01*
X001954Y010112D02*
X000650Y010112D01*
X000650Y010054D02*
X001954Y010054D01*
X001954Y009997D02*
X000650Y009997D01*
X000650Y009939D02*
X001954Y009939D01*
X001954Y009882D02*
X000650Y009882D01*
X000650Y009824D02*
X001954Y009824D01*
X001954Y009766D02*
X000650Y009766D01*
X000650Y009709D02*
X001954Y009709D01*
X001954Y009651D02*
X000650Y009651D01*
X000650Y009594D02*
X001954Y009594D01*
X001954Y009536D02*
X000650Y009536D01*
X000650Y009479D02*
X001954Y009479D01*
X001954Y009421D02*
X000650Y009421D01*
X000650Y009364D02*
X001954Y009364D01*
X001954Y009306D02*
X000679Y009306D01*
X000837Y009248D02*
X001954Y009248D01*
X001954Y009191D02*
X000984Y009191D01*
X001053Y009133D02*
X001954Y009133D01*
X001954Y009076D02*
X001121Y009076D01*
X001190Y009018D02*
X001954Y009018D01*
X001954Y008961D02*
X001243Y008961D01*
X001229Y008986D02*
X001229Y008986D01*
X001276Y008903D02*
X001954Y008903D01*
X001954Y008846D02*
X001310Y008846D01*
X001343Y008788D02*
X001954Y008788D01*
X001954Y008730D02*
X001376Y008730D01*
X001399Y008673D02*
X001954Y008673D01*
X001954Y008615D02*
X001409Y008615D01*
X001419Y008558D02*
X001954Y008558D01*
X001954Y008500D02*
X001429Y008500D01*
X001439Y008443D02*
X001954Y008443D01*
X001954Y008385D02*
X001449Y008385D01*
X001451Y008374D02*
X001451Y008374D01*
X001443Y008328D02*
X001954Y008328D01*
X001954Y008270D02*
X001433Y008270D01*
X001423Y008212D02*
X001954Y008212D01*
X001954Y008155D02*
X001413Y008155D01*
X001403Y008097D02*
X001954Y008097D01*
X001954Y008040D02*
X001389Y008040D01*
X001394Y008049D02*
X001394Y008049D01*
X001356Y007982D02*
X001954Y007982D01*
X001954Y007925D02*
X001322Y007925D01*
X001289Y007867D02*
X001954Y007867D01*
X001954Y007810D02*
X001256Y007810D01*
X001216Y007752D02*
X001954Y007752D01*
X002353Y007752D02*
X002923Y007752D01*
X002929Y007766D02*
X002870Y007624D01*
X002870Y007471D01*
X002929Y007329D01*
X003037Y007220D01*
X003179Y007161D01*
X003333Y007161D01*
X003474Y007220D01*
X003583Y007329D01*
X003642Y007471D01*
X003642Y007624D01*
X003583Y007766D01*
X003474Y007874D01*
X003333Y007933D01*
X003179Y007933D01*
X003037Y007874D01*
X002929Y007766D01*
X002973Y007810D02*
X002353Y007810D01*
X002353Y007867D02*
X003030Y007867D01*
X003159Y007925D02*
X002353Y007925D01*
X002353Y007982D02*
X004169Y007982D01*
X004149Y007963D02*
X004258Y008071D01*
X004400Y008130D01*
X004553Y008130D01*
X004695Y008071D01*
X004803Y007963D01*
X004862Y007821D01*
X004862Y007667D01*
X004803Y007526D01*
X004695Y007417D01*
X004553Y007358D01*
X004400Y007358D01*
X004258Y007417D01*
X004149Y007526D01*
X004091Y007667D01*
X004091Y007821D01*
X004149Y007963D01*
X004134Y007925D02*
X003353Y007925D01*
X003482Y007867D02*
X004110Y007867D01*
X004091Y007810D02*
X003539Y007810D01*
X003589Y007752D02*
X004091Y007752D01*
X004091Y007694D02*
X003612Y007694D01*
X003636Y007637D02*
X004103Y007637D01*
X004127Y007579D02*
X003642Y007579D01*
X003642Y007522D02*
X004153Y007522D01*
X004211Y007464D02*
X003639Y007464D01*
X003615Y007407D02*
X004283Y007407D01*
X004670Y007407D02*
X005185Y007407D01*
X005242Y007464D02*
X004742Y007464D01*
X004800Y007522D02*
X005300Y007522D01*
X005358Y007579D02*
X004826Y007579D01*
X004849Y007637D02*
X005415Y007637D01*
X005473Y007694D02*
X004862Y007694D01*
X004862Y007752D02*
X005530Y007752D01*
X005588Y007810D02*
X004862Y007810D01*
X004843Y007867D02*
X005645Y007867D01*
X005703Y007925D02*
X004819Y007925D01*
X004784Y007982D02*
X005760Y007982D01*
X005818Y008040D02*
X004726Y008040D01*
X004632Y008097D02*
X005876Y008097D01*
X005933Y008155D02*
X002353Y008155D01*
X002353Y008212D02*
X005991Y008212D01*
X006048Y008270D02*
X002353Y008270D01*
X002353Y008328D02*
X006106Y008328D01*
X006163Y008385D02*
X002353Y008385D01*
X002353Y008443D02*
X006221Y008443D01*
X006278Y008500D02*
X002353Y008500D01*
X002353Y008558D02*
X006336Y008558D01*
X006394Y008615D02*
X002353Y008615D01*
X002353Y008673D02*
X005860Y008673D01*
X005866Y008667D02*
X005961Y008628D01*
X006063Y008628D01*
X006158Y008667D01*
X006230Y008740D01*
X006270Y008835D01*
X006270Y008937D01*
X006230Y009032D01*
X006158Y009104D01*
X006063Y009144D01*
X005961Y009144D01*
X005866Y009104D01*
X005793Y009032D01*
X005754Y008937D01*
X005754Y008835D01*
X005793Y008740D01*
X005866Y008667D01*
X005803Y008730D02*
X002353Y008730D01*
X002353Y008788D02*
X005773Y008788D01*
X005754Y008846D02*
X002353Y008846D01*
X002353Y008903D02*
X005754Y008903D01*
X005764Y008961D02*
X002353Y008961D01*
X002353Y009018D02*
X005788Y009018D01*
X005837Y009076D02*
X002353Y009076D01*
X002353Y009133D02*
X005409Y009133D01*
X005393Y009140D02*
X005488Y009100D01*
X005591Y009100D01*
X005685Y009140D01*
X005758Y009212D01*
X005797Y009307D01*
X005797Y009410D01*
X005758Y009504D01*
X005685Y009577D01*
X005591Y009616D01*
X005488Y009616D01*
X005393Y009577D01*
X005321Y009504D01*
X005282Y009410D01*
X005282Y009307D01*
X005321Y009212D01*
X005393Y009140D01*
X005342Y009191D02*
X002353Y009191D01*
X002353Y009248D02*
X005306Y009248D01*
X005282Y009306D02*
X002353Y009306D01*
X002353Y009364D02*
X005282Y009364D01*
X005286Y009421D02*
X002353Y009421D01*
X002353Y009479D02*
X005310Y009479D01*
X005353Y009536D02*
X002353Y009536D01*
X002353Y009594D02*
X005434Y009594D01*
X005645Y009594D02*
X007372Y009594D01*
X007430Y009651D02*
X002353Y009651D01*
X002353Y009709D02*
X007487Y009709D01*
X007545Y009766D02*
X002353Y009766D01*
X002353Y009824D02*
X007602Y009824D01*
X007660Y009882D02*
X002353Y009882D01*
X002353Y009939D02*
X007717Y009939D01*
X007775Y009997D02*
X002353Y009997D01*
X002353Y010054D02*
X007832Y010054D01*
X007890Y010112D02*
X002394Y010112D01*
X002451Y010169D02*
X007948Y010169D01*
X008005Y010227D02*
X002509Y010227D01*
X002567Y010284D02*
X008063Y010284D01*
X008120Y010342D02*
X002624Y010342D01*
X002682Y010400D02*
X008178Y010400D01*
X008235Y010457D02*
X002739Y010457D01*
X002797Y010515D02*
X008293Y010515D01*
X008350Y010572D02*
X002854Y010572D01*
X002912Y010630D02*
X008408Y010630D01*
X008466Y010687D02*
X002969Y010687D01*
X003027Y010745D02*
X008523Y010745D01*
X008581Y010802D02*
X003085Y010802D01*
X003142Y010860D02*
X008638Y010860D01*
X008696Y010918D02*
X003200Y010918D01*
X003257Y010975D02*
X008753Y010975D01*
X008811Y011033D02*
X003315Y011033D01*
X003372Y011090D02*
X008868Y011090D01*
X008926Y011148D02*
X003430Y011148D01*
X003487Y011205D02*
X008984Y011205D01*
X009041Y011263D02*
X003545Y011263D01*
X003603Y011320D02*
X009099Y011320D01*
X009156Y011378D02*
X003660Y011378D01*
X003718Y011436D02*
X009214Y011436D01*
X009271Y011493D02*
X003775Y011493D01*
X003833Y011551D02*
X009329Y011551D01*
X009386Y011608D02*
X003890Y011608D01*
X003948Y011666D02*
X009444Y011666D01*
X009502Y011723D02*
X004005Y011723D01*
X004063Y011781D02*
X009559Y011781D01*
X009617Y011838D02*
X004121Y011838D01*
X004178Y011896D02*
X009674Y011896D01*
X009732Y011954D02*
X004236Y011954D01*
X004293Y012011D02*
X009789Y012011D01*
X009847Y012069D02*
X004351Y012069D01*
X004408Y012126D02*
X009904Y012126D01*
X009962Y012184D02*
X004466Y012184D01*
X004701Y012241D02*
X010020Y012241D01*
X010077Y012299D02*
X004761Y012299D01*
X004806Y012356D02*
X010135Y012356D01*
X010192Y012414D02*
X004830Y012414D01*
X004847Y012472D02*
X010250Y012472D01*
X010307Y012529D02*
X004847Y012529D01*
X004846Y012587D02*
X010365Y012587D01*
X010422Y012644D02*
X004822Y012644D01*
X004798Y012702D02*
X010480Y012702D01*
X010538Y012759D02*
X004743Y012759D01*
X004657Y012817D02*
X010595Y012817D01*
X010710Y012932D02*
X000650Y012932D01*
X000650Y012990D02*
X010768Y012990D01*
X010825Y013047D02*
X000650Y013047D01*
X000650Y013105D02*
X010883Y013105D01*
X010940Y013162D02*
X000650Y013162D01*
X005726Y009536D02*
X007314Y009536D01*
X007257Y009479D02*
X005769Y009479D01*
X005792Y009421D02*
X007199Y009421D01*
X007142Y009364D02*
X005797Y009364D01*
X005797Y009306D02*
X007084Y009306D01*
X007027Y009248D02*
X005773Y009248D01*
X005737Y009191D02*
X006969Y009191D01*
X006912Y009133D02*
X006088Y009133D01*
X006186Y009076D02*
X006854Y009076D01*
X006796Y009018D02*
X006236Y009018D01*
X006260Y008961D02*
X006739Y008961D01*
X006681Y008903D02*
X006270Y008903D01*
X006270Y008846D02*
X006624Y008846D01*
X006566Y008788D02*
X006250Y008788D01*
X006221Y008730D02*
X006509Y008730D01*
X006451Y008673D02*
X006163Y008673D01*
X005936Y009133D02*
X005670Y009133D01*
X006951Y008155D02*
X007626Y008155D01*
X007684Y008212D02*
X007009Y008212D01*
X007067Y008270D02*
X007741Y008270D01*
X007799Y008328D02*
X007124Y008328D01*
X007182Y008385D02*
X007856Y008385D01*
X007914Y008443D02*
X007239Y008443D01*
X007297Y008500D02*
X007971Y008500D01*
X008029Y008558D02*
X007354Y008558D01*
X007412Y008615D02*
X012864Y008615D01*
X012858Y008600D02*
X012858Y008494D01*
X012899Y008396D01*
X012974Y008320D01*
X013073Y008280D01*
X013179Y008280D01*
X013278Y008320D01*
X013333Y008375D01*
X013348Y008360D01*
X013447Y008319D01*
X013553Y008319D01*
X013646Y008357D01*
X013703Y008301D01*
X013801Y008260D01*
X013908Y008260D01*
X014006Y008301D01*
X014041Y008336D01*
X014077Y008301D01*
X014175Y008260D01*
X014282Y008260D01*
X014380Y008301D01*
X014455Y008376D01*
X014496Y008474D01*
X014496Y008581D01*
X014455Y008679D01*
X014380Y008754D01*
X014282Y008795D01*
X014175Y008795D01*
X014077Y008754D01*
X014041Y008719D01*
X014006Y008754D01*
X013908Y008795D01*
X013801Y008795D01*
X013708Y008757D01*
X013652Y008814D01*
X013553Y008854D01*
X013447Y008854D01*
X013348Y008814D01*
X013293Y008758D01*
X013278Y008774D01*
X013179Y008815D01*
X013073Y008815D01*
X012974Y008774D01*
X012899Y008699D01*
X012858Y008600D01*
X012858Y008558D02*
X010609Y008558D01*
X010666Y008500D02*
X012858Y008500D01*
X012880Y008443D02*
X010724Y008443D01*
X010782Y008385D02*
X012910Y008385D01*
X012967Y008328D02*
X010837Y008328D01*
X010837Y008270D02*
X013777Y008270D01*
X013676Y008328D02*
X013574Y008328D01*
X013426Y008328D02*
X013285Y008328D01*
X012888Y008673D02*
X007469Y008673D01*
X007527Y008730D02*
X012931Y008730D01*
X013008Y008788D02*
X007585Y008788D01*
X007642Y008846D02*
X013426Y008846D01*
X013323Y008788D02*
X013244Y008788D01*
X013574Y008846D02*
X018884Y008846D01*
X018902Y008838D02*
X018821Y008872D01*
X018746Y008947D01*
X018705Y009045D01*
X018705Y009152D01*
X018746Y009250D01*
X018821Y009325D01*
X018919Y009366D01*
X019026Y009366D01*
X019124Y009325D01*
X019199Y009250D01*
X019240Y009152D01*
X019240Y009045D01*
X019240Y009044D01*
X019321Y009010D01*
X019396Y008935D01*
X019437Y008837D01*
X019437Y008730D01*
X019414Y008675D01*
X019459Y008656D01*
X019534Y008581D01*
X019575Y008482D01*
X019575Y008376D01*
X019534Y008278D01*
X019459Y008202D01*
X019360Y008161D01*
X019254Y008161D01*
X019155Y008202D01*
X019080Y008278D01*
X019039Y008376D01*
X019039Y008482D01*
X019062Y008538D01*
X019018Y008557D01*
X018942Y008632D01*
X018902Y008730D01*
X018902Y008837D01*
X018902Y008838D01*
X018902Y008788D02*
X014299Y008788D01*
X014404Y008730D02*
X018108Y008730D01*
X018112Y008735D02*
X018037Y008659D01*
X017996Y008561D01*
X017996Y008455D01*
X018037Y008356D01*
X018112Y008281D01*
X018211Y008240D01*
X018317Y008240D01*
X018352Y008255D01*
X018389Y008165D01*
X018332Y008108D01*
X018325Y008092D01*
X018268Y008116D01*
X018161Y008116D01*
X018063Y008075D01*
X017988Y008000D01*
X017947Y007902D01*
X017947Y007795D01*
X017988Y007697D01*
X018063Y007622D01*
X018076Y007616D01*
X018036Y007518D01*
X018036Y007411D01*
X018076Y007313D01*
X018152Y007238D01*
X018250Y007197D01*
X018356Y007197D01*
X018455Y007238D01*
X018530Y007313D01*
X018571Y007411D01*
X018571Y007518D01*
X018530Y007616D01*
X018455Y007691D01*
X018442Y007697D01*
X018448Y007713D01*
X018506Y007689D01*
X018612Y007689D01*
X018711Y007730D01*
X018786Y007805D01*
X018827Y007903D01*
X018827Y008010D01*
X018788Y008103D01*
X018845Y008159D01*
X018886Y008258D01*
X018886Y008364D01*
X018845Y008463D01*
X018770Y008538D01*
X018671Y008579D01*
X018565Y008579D01*
X018530Y008564D01*
X018491Y008659D01*
X018415Y008735D01*
X018317Y008776D01*
X018211Y008776D01*
X018112Y008735D01*
X018050Y008673D02*
X014458Y008673D01*
X014482Y008615D02*
X018019Y008615D01*
X017996Y008558D02*
X014496Y008558D01*
X014496Y008500D02*
X017996Y008500D01*
X018001Y008443D02*
X014483Y008443D01*
X014459Y008385D02*
X018025Y008385D01*
X018066Y008328D02*
X014407Y008328D01*
X014306Y008270D02*
X018139Y008270D01*
X018116Y008097D02*
X016706Y008097D01*
X016730Y008040D02*
X018027Y008040D01*
X017980Y007982D02*
X016730Y007982D01*
X016727Y007925D02*
X017956Y007925D01*
X017947Y007867D02*
X017143Y007867D01*
X017022Y007867D02*
X016703Y007867D01*
X016664Y007810D02*
X016911Y007810D01*
X016855Y007752D02*
X016596Y007752D01*
X016627Y007637D02*
X016235Y007637D01*
X016169Y007579D02*
X016563Y007579D01*
X016526Y007522D02*
X016162Y007522D01*
X016138Y007464D02*
X016370Y007464D01*
X016272Y007407D02*
X016141Y007407D01*
X016192Y007349D02*
X016221Y007349D01*
X016224Y007061D02*
X016189Y007061D01*
X016134Y007004D02*
X016279Y007004D01*
X016387Y006946D02*
X016026Y006946D01*
X015895Y006946D02*
X014939Y006946D01*
X014926Y006889D02*
X020139Y006889D01*
X020120Y006933D02*
X020159Y006838D01*
X020232Y006766D01*
X020327Y006726D01*
X020429Y006726D01*
X020524Y006766D01*
X020596Y006838D01*
X020636Y006933D01*
X020636Y007036D01*
X020596Y007130D01*
X020524Y007203D01*
X020429Y007242D01*
X020327Y007242D01*
X020232Y007203D01*
X020159Y007130D01*
X020120Y007036D01*
X020120Y006933D01*
X020120Y006946D02*
X016518Y006946D01*
X016626Y007004D02*
X020120Y007004D01*
X020131Y007061D02*
X016681Y007061D01*
X016705Y007119D02*
X020155Y007119D01*
X020206Y007176D02*
X016914Y007176D01*
X016975Y007234D02*
X018160Y007234D01*
X018098Y007292D02*
X017010Y007292D01*
X017171Y007349D02*
X018061Y007349D01*
X018037Y007407D02*
X017265Y007407D01*
X017315Y007464D02*
X018036Y007464D01*
X018037Y007522D02*
X017339Y007522D01*
X017350Y007579D02*
X018061Y007579D01*
X018048Y007637D02*
X017350Y007637D01*
X017334Y007694D02*
X017990Y007694D01*
X017965Y007752D02*
X017310Y007752D01*
X017254Y007810D02*
X017947Y007810D01*
X018313Y008097D02*
X018328Y008097D01*
X018379Y008155D02*
X016672Y008155D01*
X016615Y008212D02*
X018369Y008212D01*
X018790Y008097D02*
X025121Y008097D01*
X025121Y008040D02*
X018814Y008040D01*
X018827Y007982D02*
X025121Y007982D01*
X025121Y007925D02*
X018827Y007925D01*
X018812Y007867D02*
X025121Y007867D01*
X025121Y007810D02*
X018788Y007810D01*
X018733Y007752D02*
X025121Y007752D01*
X025121Y007694D02*
X018625Y007694D01*
X018509Y007637D02*
X025121Y007637D01*
X025121Y007579D02*
X018545Y007579D01*
X018569Y007522D02*
X025121Y007522D01*
X025121Y007464D02*
X018571Y007464D01*
X018569Y007407D02*
X025121Y007407D01*
X025121Y007349D02*
X018545Y007349D01*
X018509Y007292D02*
X025121Y007292D01*
X025121Y007234D02*
X020449Y007234D01*
X020550Y007176D02*
X025121Y007176D01*
X025121Y007119D02*
X020601Y007119D01*
X020625Y007061D02*
X025121Y007061D01*
X025121Y007004D02*
X020636Y007004D01*
X020636Y006946D02*
X025121Y006946D01*
X025121Y006889D02*
X020617Y006889D01*
X020589Y006831D02*
X022760Y006831D01*
X022746Y006825D02*
X022671Y006750D01*
X022630Y006652D01*
X022630Y006545D01*
X022671Y006447D01*
X022746Y006372D01*
X022844Y006331D01*
X022951Y006331D01*
X023049Y006372D01*
X023125Y006447D01*
X023165Y006545D01*
X023165Y006652D01*
X023125Y006750D01*
X023049Y006825D01*
X022951Y006866D01*
X022844Y006866D01*
X022746Y006825D01*
X022694Y006774D02*
X020532Y006774D01*
X020224Y006774D02*
X014851Y006774D01*
X014902Y006831D02*
X020167Y006831D01*
X020307Y007234D02*
X018446Y007234D01*
X018448Y007694D02*
X018493Y007694D01*
X018840Y008155D02*
X025121Y008155D01*
X025121Y008212D02*
X019469Y008212D01*
X019526Y008270D02*
X025121Y008270D01*
X025121Y008328D02*
X019555Y008328D01*
X019575Y008385D02*
X025121Y008385D01*
X025121Y008443D02*
X019575Y008443D01*
X019567Y008500D02*
X025121Y008500D01*
X025121Y008558D02*
X019544Y008558D01*
X019499Y008615D02*
X025121Y008615D01*
X025121Y008673D02*
X019418Y008673D01*
X019437Y008730D02*
X025121Y008730D01*
X025121Y008788D02*
X019437Y008788D01*
X019433Y008846D02*
X025121Y008846D01*
X025121Y008903D02*
X019409Y008903D01*
X019371Y008961D02*
X025121Y008961D01*
X025105Y009018D02*
X019302Y009018D01*
X019240Y009076D02*
X025047Y009076D01*
X024990Y009133D02*
X019240Y009133D01*
X019224Y009191D02*
X024932Y009191D01*
X024874Y009248D02*
X023900Y009248D01*
X023912Y009253D02*
X023987Y009328D01*
X024028Y009427D01*
X024028Y009533D01*
X023987Y009632D01*
X023912Y009707D01*
X023813Y009748D01*
X023760Y009748D01*
X022519Y010988D01*
X022519Y011370D01*
X022557Y011408D01*
X022598Y011507D01*
X022598Y011613D01*
X022557Y011712D01*
X022482Y011787D01*
X022383Y011828D01*
X022277Y011828D01*
X022178Y011787D01*
X022103Y011712D01*
X022062Y011613D01*
X022062Y011507D01*
X022103Y011408D01*
X022141Y011370D01*
X022141Y010832D01*
X022252Y010721D01*
X023492Y009480D01*
X023492Y009427D01*
X023533Y009328D01*
X023608Y009253D01*
X023707Y009212D01*
X023813Y009212D01*
X023912Y009253D01*
X023964Y009306D02*
X024817Y009306D01*
X024759Y009364D02*
X024001Y009364D01*
X024025Y009421D02*
X024702Y009421D01*
X024644Y009479D02*
X024028Y009479D01*
X024026Y009536D02*
X024587Y009536D01*
X024529Y009594D02*
X024003Y009594D01*
X023967Y009651D02*
X024472Y009651D01*
X024414Y009709D02*
X023907Y009709D01*
X023741Y009766D02*
X024356Y009766D01*
X024299Y009824D02*
X023683Y009824D01*
X023626Y009882D02*
X024241Y009882D01*
X024184Y009939D02*
X023568Y009939D01*
X023511Y009997D02*
X024126Y009997D01*
X024069Y010054D02*
X023453Y010054D01*
X023395Y010112D02*
X024011Y010112D01*
X023954Y010169D02*
X023338Y010169D01*
X023280Y010227D02*
X023406Y010227D01*
X023348Y010284D02*
X023223Y010284D01*
X023165Y010342D02*
X023291Y010342D01*
X023233Y010400D02*
X023108Y010400D01*
X023050Y010457D02*
X023176Y010457D01*
X023118Y010515D02*
X022993Y010515D01*
X022935Y010572D02*
X023061Y010572D01*
X023028Y010630D02*
X022877Y010630D01*
X022820Y010687D02*
X023028Y010687D01*
X023028Y010745D02*
X022762Y010745D01*
X022705Y010802D02*
X023028Y010802D01*
X023028Y010860D02*
X022647Y010860D01*
X022590Y010918D02*
X023028Y010918D01*
X023028Y010975D02*
X022532Y010975D01*
X022519Y011033D02*
X023028Y011033D01*
X023028Y011090D02*
X022519Y011090D01*
X022519Y011148D02*
X023028Y011148D01*
X023028Y011205D02*
X022519Y011205D01*
X022519Y011263D02*
X023028Y011263D01*
X023028Y011320D02*
X022519Y011320D01*
X022526Y011378D02*
X022987Y011378D01*
X022963Y011436D02*
X022568Y011436D01*
X022592Y011493D02*
X022949Y011493D01*
X022949Y011551D02*
X022598Y011551D01*
X022598Y011608D02*
X022962Y011608D01*
X022986Y011666D02*
X022576Y011666D01*
X022545Y011723D02*
X023037Y011723D01*
X023037Y011781D02*
X022488Y011781D01*
X022945Y011896D02*
X021637Y011896D01*
X021692Y011838D02*
X023003Y011838D01*
X023396Y011838D02*
X027000Y011838D01*
X027000Y011781D02*
X025543Y011781D01*
X025600Y011723D02*
X027000Y011723D01*
X027000Y011666D02*
X025629Y011666D01*
X025650Y011608D02*
X027000Y011608D01*
X027000Y011551D02*
X025650Y011551D01*
X025643Y011493D02*
X027000Y011493D01*
X027000Y011436D02*
X025619Y011436D01*
X025575Y011378D02*
X027000Y011378D01*
X027000Y011320D02*
X025571Y011320D01*
X025571Y011263D02*
X027000Y011263D01*
X027000Y011205D02*
X025571Y011205D01*
X025571Y011148D02*
X027000Y011148D01*
X027000Y011090D02*
X025571Y011090D01*
X025571Y011033D02*
X027000Y011033D01*
X027000Y010975D02*
X025571Y010975D01*
X025571Y010918D02*
X027000Y010918D01*
X027000Y010860D02*
X025571Y010860D01*
X025571Y010802D02*
X027000Y010802D01*
X027000Y010745D02*
X025571Y010745D01*
X025571Y010687D02*
X027000Y010687D01*
X027000Y010630D02*
X025571Y010630D01*
X025585Y010572D02*
X027000Y010572D01*
X027000Y010515D02*
X025643Y010515D01*
X025193Y011148D02*
X023888Y011148D01*
X023946Y011205D02*
X025193Y011205D01*
X025193Y011263D02*
X023975Y011263D01*
X023996Y011320D02*
X025193Y011320D01*
X025188Y011378D02*
X023996Y011378D01*
X023989Y011436D02*
X025145Y011436D01*
X025121Y011493D02*
X023965Y011493D01*
X023922Y011551D02*
X025114Y011551D01*
X025114Y011608D02*
X023843Y011608D01*
X023447Y011666D02*
X025135Y011666D01*
X025164Y011723D02*
X023396Y011723D01*
X023396Y011781D02*
X025221Y011781D01*
X025660Y012299D02*
X014468Y012299D01*
X014468Y012325D02*
X014428Y012423D01*
X014352Y012499D01*
X014254Y012539D01*
X014148Y012539D01*
X014049Y012499D01*
X013974Y012423D01*
X013933Y012325D01*
X013933Y012218D01*
X013974Y012120D01*
X014049Y012045D01*
X014148Y012004D01*
X014254Y012004D01*
X014352Y012045D01*
X014428Y012120D01*
X014468Y012218D01*
X014468Y012325D01*
X014455Y012356D02*
X025698Y012356D01*
X025765Y012414D02*
X014432Y012414D01*
X014379Y012472D02*
X026140Y012472D01*
X026198Y012414D02*
X026035Y012414D01*
X027000Y012932D02*
X024288Y012932D01*
X024255Y012990D02*
X027000Y012990D01*
X027000Y013047D02*
X024198Y013047D01*
X023889Y013047D02*
X022846Y013047D01*
X022956Y012990D02*
X023831Y012990D01*
X023799Y012932D02*
X023012Y012932D01*
X023035Y012874D02*
X023776Y012874D01*
X023776Y012817D02*
X023051Y012817D01*
X023051Y012759D02*
X023780Y012759D01*
X023804Y012702D02*
X023039Y012702D01*
X023015Y012644D02*
X023843Y012644D01*
X023914Y012587D02*
X022965Y012587D01*
X022602Y012587D02*
X021535Y012587D01*
X021557Y012596D02*
X021632Y012671D01*
X021673Y012770D01*
X021673Y012876D01*
X021632Y012974D01*
X021557Y013050D01*
X021459Y013090D01*
X021352Y013090D01*
X021254Y013050D01*
X021179Y012974D01*
X021138Y012876D01*
X021138Y012770D01*
X021179Y012671D01*
X021254Y012596D01*
X021352Y012555D01*
X021459Y012555D01*
X021557Y012596D01*
X021605Y012644D02*
X022551Y012644D01*
X022528Y012702D02*
X021645Y012702D01*
X021669Y012759D02*
X022516Y012759D01*
X022516Y012817D02*
X021673Y012817D01*
X021673Y012874D02*
X022531Y012874D01*
X022555Y012932D02*
X021650Y012932D01*
X021617Y012990D02*
X022611Y012990D01*
X022720Y013047D02*
X021560Y013047D01*
X021251Y013047D02*
X017702Y013047D01*
X017759Y012990D02*
X021194Y012990D01*
X021161Y012932D02*
X017792Y012932D01*
X017815Y012874D02*
X021138Y012874D01*
X021138Y012817D02*
X017815Y012817D01*
X017811Y012759D02*
X021142Y012759D01*
X021166Y012702D02*
X017787Y012702D01*
X017747Y012644D02*
X021206Y012644D01*
X021276Y012587D02*
X017676Y012587D01*
X017303Y012932D02*
X015598Y012932D01*
X015540Y012990D02*
X017335Y012990D01*
X017393Y013047D02*
X014977Y013047D01*
X014319Y013492D02*
X011524Y013492D01*
X004713Y006681D01*
X004713Y003492D01*
X003965Y002744D01*
X003827Y002860D02*
X003632Y002860D01*
X003630Y002917D02*
X003885Y002917D01*
X003942Y002975D02*
X003615Y002975D01*
X003672Y003032D02*
X004000Y003032D01*
X004057Y003090D02*
X003696Y003090D01*
X003711Y003148D02*
X004115Y003148D01*
X004172Y003205D02*
X003711Y003205D01*
X003696Y003263D02*
X004230Y003263D01*
X004287Y003320D02*
X003673Y003320D01*
X003617Y003378D02*
X004345Y003378D01*
X002443Y002227D02*
X001978Y002227D01*
X001978Y002284D02*
X002386Y002284D01*
X002328Y002342D02*
X001978Y002342D01*
X001925Y002399D02*
X002271Y002399D01*
X002213Y002457D02*
X001867Y002457D01*
X001810Y002514D02*
X002155Y002514D01*
X002098Y002572D02*
X001752Y002572D01*
X001695Y002630D02*
X002040Y002630D01*
X001983Y002687D02*
X001637Y002687D01*
X001579Y002745D02*
X001925Y002745D01*
X001868Y002802D02*
X001545Y002802D01*
X001545Y002860D02*
X001810Y002860D01*
X001753Y002917D02*
X001545Y002917D01*
X001545Y002975D02*
X001695Y002975D01*
X001637Y003032D02*
X001545Y003032D01*
X001545Y003090D02*
X001580Y003090D01*
X001366Y002705D02*
X001799Y002272D01*
X001799Y001839D01*
X001907Y001594D02*
X003882Y001594D01*
X001366Y002705D02*
X001366Y004516D01*
X001406Y004555D01*
X004530Y005162D02*
X004534Y005162D01*
X005285Y005450D02*
X005315Y005450D01*
X005285Y005507D02*
X005372Y005507D01*
X005430Y005565D02*
X005285Y005565D01*
X005285Y005622D02*
X005487Y005622D01*
X005545Y005680D02*
X005285Y005680D01*
X005285Y005738D02*
X005602Y005738D01*
X005660Y005795D02*
X005285Y005795D01*
X005285Y005853D02*
X005718Y005853D01*
X005775Y005910D02*
X005285Y005910D01*
X005285Y005968D02*
X005833Y005968D01*
X005890Y006025D02*
X005285Y006025D01*
X005285Y006083D02*
X005948Y006083D01*
X006005Y006140D02*
X005285Y006140D01*
X005285Y006198D02*
X006063Y006198D01*
X006120Y006256D02*
X005285Y006256D01*
X005285Y006313D02*
X006055Y006313D01*
X005997Y006371D02*
X005285Y006371D01*
X005285Y006428D02*
X005969Y006428D01*
X005951Y006486D02*
X005285Y006486D01*
X005340Y006543D02*
X005951Y006543D01*
X005962Y006601D02*
X005397Y006601D01*
X005455Y006658D02*
X005985Y006658D01*
X006036Y006716D02*
X005513Y006716D01*
X005570Y006774D02*
X006138Y006774D01*
X006279Y006774D02*
X006305Y006774D01*
X006305Y006831D02*
X005628Y006831D01*
X005685Y006889D02*
X006360Y006889D01*
X006417Y006946D02*
X005743Y006946D01*
X005800Y007004D02*
X006475Y007004D01*
X006532Y007061D02*
X005858Y007061D01*
X005915Y007119D02*
X006590Y007119D01*
X006648Y007176D02*
X005973Y007176D01*
X006031Y007234D02*
X006705Y007234D01*
X006763Y007292D02*
X006088Y007292D01*
X006146Y007349D02*
X006820Y007349D01*
X006878Y007407D02*
X006203Y007407D01*
X006261Y007464D02*
X006935Y007464D01*
X006993Y007522D02*
X006318Y007522D01*
X006376Y007579D02*
X007050Y007579D01*
X007108Y007637D02*
X006433Y007637D01*
X006491Y007694D02*
X007166Y007694D01*
X007223Y007752D02*
X006549Y007752D01*
X006606Y007810D02*
X007281Y007810D01*
X007338Y007867D02*
X006664Y007867D01*
X006721Y007925D02*
X007396Y007925D01*
X007453Y007982D02*
X006779Y007982D01*
X006836Y008040D02*
X007511Y008040D01*
X007568Y008097D02*
X006894Y008097D01*
X007499Y007522D02*
X007702Y007522D01*
X007759Y007579D02*
X007557Y007579D01*
X007614Y007637D02*
X007817Y007637D01*
X007874Y007694D02*
X007672Y007694D01*
X007730Y007752D02*
X007932Y007752D01*
X007989Y007810D02*
X007787Y007810D01*
X007845Y007867D02*
X008047Y007867D01*
X008104Y007925D02*
X007902Y007925D01*
X007960Y007982D02*
X008162Y007982D01*
X008220Y008040D02*
X008017Y008040D01*
X008075Y008097D02*
X010478Y008097D01*
X010478Y008040D02*
X010261Y008040D01*
X010259Y008041D02*
X008221Y008041D01*
X007327Y007147D01*
X007260Y007215D01*
X007212Y007235D01*
X008212Y008234D01*
X010426Y008234D01*
X010478Y008182D01*
X010478Y007890D01*
X010458Y007842D01*
X010364Y007936D01*
X010259Y008041D01*
X010264Y008059D02*
X010185Y008059D01*
X010264Y008059D02*
X010343Y008138D01*
X010448Y008212D02*
X008190Y008212D01*
X008132Y008155D02*
X010478Y008155D01*
X010478Y007982D02*
X010318Y007982D01*
X010376Y007925D02*
X010478Y007925D01*
X010478Y007890D02*
X010478Y007890D01*
X010469Y007867D02*
X010433Y007867D01*
X010837Y007982D02*
X015872Y007982D01*
X015850Y007925D02*
X010881Y007925D01*
X010925Y007867D02*
X015487Y007867D01*
X015608Y007867D02*
X015850Y007867D01*
X015740Y007810D02*
X015719Y007810D01*
X015901Y008040D02*
X010837Y008040D01*
X010837Y008097D02*
X015959Y008097D01*
X016253Y008155D02*
X010837Y008155D01*
X010837Y008212D02*
X016310Y008212D01*
X016313Y007694D02*
X016831Y007694D01*
X015729Y007349D02*
X015635Y007349D01*
X015705Y007292D02*
X015503Y007292D01*
X015479Y007234D02*
X015693Y007234D01*
X015693Y007176D02*
X015421Y007176D01*
X015307Y007119D02*
X015708Y007119D01*
X015732Y007061D02*
X015129Y007061D01*
X015162Y007119D02*
X015197Y007119D01*
X015071Y007004D02*
X015787Y007004D01*
X015159Y007637D02*
X010931Y007637D01*
X010955Y007694D02*
X015296Y007694D01*
X015320Y007752D02*
X010955Y007752D01*
X010949Y007810D02*
X015376Y007810D01*
X015067Y007579D02*
X012808Y007579D01*
X012865Y007522D02*
X015019Y007522D01*
X014787Y007464D02*
X012923Y007464D01*
X012980Y007407D02*
X014717Y007407D01*
X014678Y007349D02*
X013038Y007349D01*
X013096Y007292D02*
X014654Y007292D01*
X014603Y007234D02*
X013153Y007234D01*
X013211Y007176D02*
X014243Y007176D01*
X014134Y007119D02*
X013268Y007119D01*
X013326Y007061D02*
X014079Y007061D01*
X014055Y007004D02*
X013383Y007004D01*
X013441Y006946D02*
X014039Y006946D01*
X014039Y006889D02*
X013498Y006889D01*
X013556Y006831D02*
X014051Y006831D01*
X014038Y006774D02*
X014075Y006774D01*
X013710Y006774D02*
X013614Y006774D01*
X013671Y006371D02*
X013684Y006371D01*
X013671Y006313D02*
X013768Y006313D01*
X013671Y006256D02*
X016776Y006256D01*
X016776Y006198D02*
X013671Y006198D01*
X013695Y006140D02*
X016068Y006140D01*
X015963Y006083D02*
X013750Y006083D01*
X013750Y006025D02*
X015908Y006025D01*
X015885Y005968D02*
X013750Y005968D01*
X013750Y005910D02*
X015696Y005910D01*
X015624Y005853D02*
X013750Y005853D01*
X013980Y006313D02*
X014142Y006313D01*
X014354Y006313D02*
X016790Y006313D01*
X016814Y006371D02*
X014438Y006371D01*
X014484Y006428D02*
X016869Y006428D01*
X016975Y006486D02*
X014507Y006486D01*
X014516Y006543D02*
X022631Y006543D01*
X022630Y006601D02*
X014516Y006601D01*
X014497Y006658D02*
X022633Y006658D01*
X022657Y006716D02*
X014751Y006716D01*
X014591Y006716D02*
X014488Y006716D01*
X014497Y007176D02*
X014371Y007176D01*
X014151Y008270D02*
X013932Y008270D01*
X014033Y008328D02*
X014050Y008328D01*
X014030Y008730D02*
X014053Y008730D01*
X014158Y008788D02*
X013925Y008788D01*
X013784Y008788D02*
X013677Y008788D01*
X015075Y009642D02*
X010854Y009642D01*
X010807Y009594D01*
X010539Y009594D01*
X009196Y010400D02*
X016945Y010400D01*
X016950Y010388D02*
X017026Y010312D01*
X017124Y010272D01*
X017230Y010272D01*
X017329Y010312D01*
X017404Y010388D01*
X017445Y010486D01*
X017445Y010593D01*
X017404Y010691D01*
X017329Y010766D01*
X017230Y010807D01*
X017124Y010807D01*
X017026Y010766D01*
X016950Y010691D01*
X016910Y010593D01*
X016910Y010486D01*
X016950Y010388D01*
X016996Y010342D02*
X009138Y010342D01*
X009081Y010284D02*
X017093Y010284D01*
X017261Y010284D02*
X017440Y010284D01*
X017441Y010285D02*
X017368Y010213D01*
X017329Y010118D01*
X017329Y010016D01*
X017368Y009921D01*
X017441Y009848D01*
X017488Y009829D01*
X017484Y009829D01*
X017389Y009789D01*
X017317Y009717D01*
X017278Y009622D01*
X017278Y009520D01*
X017317Y009425D01*
X017389Y009352D01*
X017484Y009313D01*
X017587Y009313D01*
X017681Y009352D01*
X017722Y009393D01*
X017744Y009372D01*
X017838Y009333D01*
X017941Y009333D01*
X018036Y009372D01*
X018108Y009445D01*
X018148Y009539D01*
X018148Y009642D01*
X018108Y009737D01*
X018036Y009809D01*
X017941Y009848D01*
X017838Y009848D01*
X017744Y009809D01*
X017703Y009768D01*
X017681Y009789D01*
X017634Y009809D01*
X017638Y009809D01*
X017733Y009848D01*
X017805Y009921D01*
X017844Y010016D01*
X017844Y010118D01*
X017805Y010213D01*
X017733Y010285D01*
X017638Y010325D01*
X017535Y010325D01*
X017441Y010285D01*
X017382Y010227D02*
X009023Y010227D01*
X008966Y010169D02*
X017350Y010169D01*
X017329Y010112D02*
X008908Y010112D01*
X008851Y010054D02*
X017329Y010054D01*
X017337Y009997D02*
X008793Y009997D01*
X008736Y009939D02*
X017361Y009939D01*
X017407Y009882D02*
X008678Y009882D01*
X008620Y009824D02*
X017473Y009824D01*
X017366Y009766D02*
X008563Y009766D01*
X008505Y009709D02*
X017314Y009709D01*
X017290Y009651D02*
X008448Y009651D01*
X008390Y009594D02*
X017278Y009594D01*
X017278Y009536D02*
X008333Y009536D01*
X008275Y009479D02*
X017295Y009479D01*
X017321Y009421D02*
X008218Y009421D01*
X008160Y009364D02*
X017378Y009364D01*
X017193Y009555D02*
X017679Y009069D01*
X018106Y009069D01*
X018435Y009398D01*
X019909Y009398D01*
X019200Y009248D02*
X021479Y009248D01*
X021456Y009258D02*
X021551Y009219D01*
X021654Y009219D01*
X021748Y009258D01*
X021821Y009330D01*
X021860Y009425D01*
X021860Y009528D01*
X021821Y009622D01*
X021748Y009695D01*
X021654Y009734D01*
X021551Y009734D01*
X021456Y009695D01*
X021384Y009622D01*
X021345Y009528D01*
X021345Y009425D01*
X021384Y009330D01*
X021456Y009258D01*
X021408Y009306D02*
X019143Y009306D01*
X019032Y009364D02*
X021370Y009364D01*
X021346Y009421D02*
X018085Y009421D01*
X018122Y009479D02*
X021345Y009479D01*
X021348Y009536D02*
X018146Y009536D01*
X018148Y009594D02*
X018837Y009594D01*
X018813Y009604D02*
X018911Y009563D01*
X019018Y009563D01*
X019116Y009604D01*
X019191Y009679D01*
X019232Y009777D01*
X019232Y009884D01*
X019191Y009982D01*
X019116Y010058D01*
X019018Y010098D01*
X018945Y010098D01*
X018945Y010199D01*
X018901Y010304D01*
X018820Y010385D01*
X018715Y010429D01*
X018600Y010429D01*
X018495Y010385D01*
X018414Y010304D01*
X018370Y010199D01*
X018370Y010085D01*
X018414Y009979D01*
X018495Y009898D01*
X018600Y009854D01*
X018697Y009854D01*
X018697Y009777D01*
X018738Y009679D01*
X018813Y009604D01*
X018765Y009651D02*
X018144Y009651D01*
X018120Y009709D02*
X018725Y009709D01*
X018702Y009766D02*
X018078Y009766D01*
X018000Y009824D02*
X018697Y009824D01*
X018535Y009882D02*
X017766Y009882D01*
X017780Y009824D02*
X017674Y009824D01*
X017813Y009939D02*
X018454Y009939D01*
X018407Y009997D02*
X017837Y009997D01*
X017844Y010054D02*
X018383Y010054D01*
X018370Y010112D02*
X017844Y010112D01*
X017823Y010169D02*
X018370Y010169D01*
X018382Y010227D02*
X017791Y010227D01*
X017734Y010284D02*
X018406Y010284D01*
X018451Y010342D02*
X017358Y010342D01*
X017409Y010400D02*
X018529Y010400D01*
X018786Y010400D02*
X018942Y010400D01*
X018943Y010399D02*
X019041Y010358D01*
X019148Y010358D01*
X019246Y010399D01*
X019321Y010474D01*
X019362Y010573D01*
X019362Y010679D01*
X019321Y010778D01*
X019246Y010853D01*
X019148Y010894D01*
X019041Y010894D01*
X018943Y010853D01*
X018868Y010778D01*
X018827Y010679D01*
X018827Y010573D01*
X018868Y010474D01*
X018943Y010399D01*
X018885Y010457D02*
X017433Y010457D01*
X017445Y010515D02*
X018851Y010515D01*
X018827Y010572D02*
X017445Y010572D01*
X017429Y010630D02*
X018827Y010630D01*
X018830Y010687D02*
X017406Y010687D01*
X017350Y010745D02*
X018854Y010745D01*
X018892Y010802D02*
X017241Y010802D01*
X017113Y010802D02*
X009599Y010802D01*
X009541Y010745D02*
X017004Y010745D01*
X016949Y010687D02*
X009484Y010687D01*
X009426Y010630D02*
X016925Y010630D01*
X016910Y010572D02*
X009369Y010572D01*
X009311Y010515D02*
X016910Y010515D01*
X016922Y010457D02*
X009254Y010457D01*
X009656Y010860D02*
X018960Y010860D01*
X019229Y010860D02*
X022141Y010860D01*
X022141Y010918D02*
X009714Y010918D01*
X009772Y010975D02*
X018317Y010975D01*
X018250Y011033D02*
X009829Y011033D01*
X009887Y011090D02*
X018212Y011090D01*
X018188Y011148D02*
X009944Y011148D01*
X010002Y011205D02*
X018185Y011205D01*
X018186Y011263D02*
X010059Y011263D01*
X010117Y011320D02*
X018209Y011320D01*
X018244Y011378D02*
X017347Y011378D01*
X017345Y011375D02*
X017420Y011451D01*
X017461Y011549D01*
X017461Y011656D01*
X017420Y011754D01*
X017345Y011829D01*
X017246Y011870D01*
X017140Y011870D01*
X017041Y011829D01*
X016966Y011754D01*
X016925Y011656D01*
X016925Y011549D01*
X016966Y011451D01*
X017041Y011375D01*
X017140Y011335D01*
X017246Y011335D01*
X017345Y011375D01*
X017405Y011436D02*
X018301Y011436D01*
X018484Y011493D02*
X017437Y011493D01*
X017461Y011551D02*
X018542Y011551D01*
X018599Y011608D02*
X017461Y011608D01*
X017456Y011666D02*
X018657Y011666D01*
X018714Y011723D02*
X017433Y011723D01*
X017393Y011781D02*
X019130Y011781D01*
X019089Y011838D02*
X017322Y011838D01*
X017063Y011838D02*
X014973Y011838D01*
X014979Y011833D02*
X014904Y011908D01*
X014805Y011949D01*
X014699Y011949D01*
X014600Y011908D01*
X014525Y011833D01*
X014484Y011734D01*
X014484Y011628D01*
X014525Y011529D01*
X014600Y011454D01*
X014699Y011413D01*
X014805Y011413D01*
X014904Y011454D01*
X014979Y011529D01*
X015020Y011628D01*
X015020Y011734D01*
X014979Y011833D01*
X015000Y011781D02*
X016993Y011781D01*
X016953Y011723D02*
X015020Y011723D01*
X015020Y011666D02*
X016929Y011666D01*
X016925Y011608D02*
X015011Y011608D01*
X014988Y011551D02*
X016925Y011551D01*
X016948Y011493D02*
X014942Y011493D01*
X014858Y011436D02*
X016981Y011436D01*
X017039Y011378D02*
X010174Y011378D01*
X010232Y011436D02*
X014645Y011436D01*
X014561Y011493D02*
X010290Y011493D01*
X010347Y011551D02*
X012395Y011551D01*
X012417Y011541D02*
X012520Y011541D01*
X012615Y011581D01*
X012687Y011653D01*
X012726Y011748D01*
X012726Y011850D01*
X012687Y011945D01*
X012615Y012018D01*
X012575Y012034D01*
X012588Y012047D01*
X012638Y012167D01*
X012638Y012297D01*
X012588Y012417D01*
X012496Y012509D01*
X012376Y012559D01*
X012246Y012559D01*
X012126Y012509D01*
X012034Y012417D01*
X011984Y012297D01*
X011984Y012167D01*
X012034Y012047D01*
X012126Y011955D01*
X012235Y011910D01*
X012211Y011850D01*
X012211Y011748D01*
X012250Y011653D01*
X012322Y011581D01*
X012417Y011541D01*
X012542Y011551D02*
X014516Y011551D01*
X014492Y011608D02*
X012642Y011608D01*
X012692Y011666D02*
X014484Y011666D01*
X014484Y011723D02*
X013130Y011723D01*
X013166Y011738D02*
X013071Y011699D01*
X012968Y011699D01*
X012874Y011738D01*
X012801Y011811D01*
X012762Y011905D01*
X012762Y012008D01*
X012801Y012103D01*
X012874Y012175D01*
X012968Y012214D01*
X013071Y012214D01*
X013166Y012175D01*
X013238Y012103D01*
X013277Y012008D01*
X013277Y011905D01*
X013238Y011811D01*
X013166Y011738D01*
X013208Y011781D02*
X014504Y011781D01*
X014531Y011838D02*
X013250Y011838D01*
X013274Y011896D02*
X014588Y011896D01*
X014376Y012069D02*
X019086Y012069D01*
X019062Y012011D02*
X014271Y012011D01*
X014131Y012011D02*
X013276Y012011D01*
X013277Y011954D02*
X019061Y011954D01*
X019065Y011896D02*
X014916Y011896D01*
X014430Y012126D02*
X019124Y012126D01*
X019193Y012184D02*
X014454Y012184D01*
X014468Y012241D02*
X021476Y012241D01*
X021423Y012188D02*
X021423Y012188D01*
X021419Y012184D02*
X019444Y012184D01*
X019514Y012126D02*
X021361Y012126D01*
X021304Y012069D02*
X019552Y012069D01*
X019575Y012011D02*
X021246Y012011D01*
X021188Y011954D02*
X019577Y011954D01*
X019573Y011896D02*
X021131Y011896D01*
X021073Y011838D02*
X019549Y011838D01*
X019508Y011781D02*
X021016Y011781D01*
X021051Y011563D02*
X021602Y012114D01*
X022980Y012114D01*
X022172Y011781D02*
X021763Y011781D01*
X021803Y011723D02*
X022115Y011723D01*
X022084Y011666D02*
X021826Y011666D01*
X021831Y011608D02*
X022062Y011608D01*
X022062Y011551D02*
X021831Y011551D01*
X021807Y011493D02*
X022068Y011493D01*
X022092Y011436D02*
X021775Y011436D01*
X021717Y011378D02*
X022134Y011378D01*
X022141Y011320D02*
X018818Y011320D01*
X018760Y011263D02*
X022141Y011263D01*
X022141Y011205D02*
X018720Y011205D01*
X018717Y011148D02*
X022141Y011148D01*
X022141Y011090D02*
X018693Y011090D01*
X018655Y011033D02*
X022141Y011033D01*
X022141Y010975D02*
X018588Y010975D01*
X018453Y011209D02*
X018807Y011563D01*
X021051Y011563D01*
X021177Y011436D02*
X021351Y011436D01*
X021319Y011493D02*
X021234Y011493D01*
X021292Y011551D02*
X021295Y011551D01*
X021409Y011378D02*
X018875Y011378D01*
X019297Y010802D02*
X022170Y010802D01*
X022228Y010745D02*
X019335Y010745D01*
X019359Y010687D02*
X022286Y010687D01*
X022343Y010630D02*
X019362Y010630D01*
X019362Y010572D02*
X022401Y010572D01*
X022458Y010515D02*
X019338Y010515D01*
X019304Y010457D02*
X022516Y010457D01*
X022573Y010400D02*
X019247Y010400D01*
X018909Y010284D02*
X022688Y010284D01*
X022631Y010342D02*
X018864Y010342D01*
X018933Y010227D02*
X022746Y010227D01*
X022804Y010169D02*
X018945Y010169D01*
X018945Y010112D02*
X022861Y010112D01*
X022919Y010054D02*
X019120Y010054D01*
X019177Y009997D02*
X022976Y009997D01*
X023034Y009939D02*
X019209Y009939D01*
X019232Y009882D02*
X023091Y009882D01*
X023149Y009824D02*
X019232Y009824D01*
X019228Y009766D02*
X023206Y009766D01*
X023264Y009709D02*
X021715Y009709D01*
X021792Y009651D02*
X023322Y009651D01*
X023379Y009594D02*
X021833Y009594D01*
X021857Y009536D02*
X023437Y009536D01*
X023492Y009479D02*
X021860Y009479D01*
X021858Y009421D02*
X023495Y009421D01*
X023519Y009364D02*
X021835Y009364D01*
X021797Y009306D02*
X023556Y009306D01*
X023620Y009248D02*
X021726Y009248D01*
X021372Y009594D02*
X019092Y009594D01*
X019164Y009651D02*
X021413Y009651D01*
X021490Y009709D02*
X019204Y009709D01*
X018913Y009364D02*
X018015Y009364D01*
X017764Y009364D02*
X017693Y009364D01*
X017193Y009555D02*
X017193Y009949D01*
X017035Y009949D01*
X016681Y010303D01*
X015736Y010303D01*
X015736Y010736D01*
X015657Y010815D01*
X015736Y010303D02*
X015075Y009642D01*
X012295Y011608D02*
X010405Y011608D01*
X010462Y011666D02*
X012245Y011666D01*
X012221Y011723D02*
X010520Y011723D01*
X010577Y011781D02*
X012211Y011781D01*
X012211Y011838D02*
X010635Y011838D01*
X010692Y011896D02*
X012230Y011896D01*
X012130Y011954D02*
X010750Y011954D01*
X010808Y012011D02*
X012070Y012011D01*
X012025Y012069D02*
X010865Y012069D01*
X010923Y012126D02*
X012001Y012126D01*
X011984Y012184D02*
X010980Y012184D01*
X011038Y012241D02*
X011984Y012241D01*
X011985Y012299D02*
X011095Y012299D01*
X011153Y012356D02*
X012009Y012356D01*
X012033Y012414D02*
X011210Y012414D01*
X011268Y012472D02*
X012088Y012472D01*
X012174Y012529D02*
X011326Y012529D01*
X011383Y012587D02*
X015214Y012587D01*
X015322Y012529D02*
X014279Y012529D01*
X014123Y012529D02*
X012448Y012529D01*
X012534Y012472D02*
X014022Y012472D01*
X013970Y012414D02*
X012589Y012414D01*
X012613Y012356D02*
X013946Y012356D01*
X013933Y012299D02*
X012637Y012299D01*
X012638Y012241D02*
X013933Y012241D01*
X013948Y012184D02*
X013145Y012184D01*
X013215Y012126D02*
X013971Y012126D01*
X014025Y012069D02*
X013252Y012069D01*
X012894Y012184D02*
X012638Y012184D01*
X012621Y012126D02*
X012825Y012126D01*
X012787Y012069D02*
X012597Y012069D01*
X012621Y012011D02*
X012763Y012011D01*
X012762Y011954D02*
X012679Y011954D01*
X012707Y011896D02*
X012766Y011896D01*
X012790Y011838D02*
X012726Y011838D01*
X012726Y011781D02*
X012831Y011781D01*
X012910Y011723D02*
X012716Y011723D01*
X008103Y009306D02*
X018801Y009306D01*
X018745Y009248D02*
X008045Y009248D01*
X007987Y009191D02*
X018721Y009191D01*
X018705Y009133D02*
X007930Y009133D01*
X007872Y009076D02*
X018705Y009076D01*
X018716Y009018D02*
X007815Y009018D01*
X007757Y008961D02*
X018740Y008961D01*
X018789Y008903D02*
X007700Y008903D01*
X008323Y007637D02*
X009713Y007637D01*
X009676Y007579D02*
X008266Y007579D01*
X008208Y007522D02*
X009652Y007522D01*
X009652Y007464D02*
X008150Y007464D01*
X008093Y007407D02*
X009656Y007407D01*
X009680Y007349D02*
X008035Y007349D01*
X007978Y007292D02*
X009722Y007292D01*
X009802Y007234D02*
X007920Y007234D01*
X007644Y007464D02*
X007442Y007464D01*
X007384Y007407D02*
X007586Y007407D01*
X007529Y007349D02*
X007327Y007349D01*
X007269Y007292D02*
X007471Y007292D01*
X007414Y007234D02*
X007213Y007234D01*
X007298Y007176D02*
X007356Y007176D01*
X005850Y006480D02*
X005835Y006496D01*
X005638Y006496D01*
X004724Y006946D02*
X002421Y006946D01*
X002421Y007004D02*
X004782Y007004D01*
X004840Y007061D02*
X002416Y007061D01*
X002392Y007119D02*
X004897Y007119D01*
X004955Y007176D02*
X003369Y007176D01*
X003488Y007234D02*
X005012Y007234D01*
X005070Y007292D02*
X003546Y007292D01*
X003591Y007349D02*
X005127Y007349D01*
X004667Y006889D02*
X002399Y006889D01*
X002367Y006831D02*
X004609Y006831D01*
X004552Y006774D02*
X002310Y006774D01*
X002353Y007176D02*
X003143Y007176D01*
X003024Y007234D02*
X002353Y007234D01*
X002353Y007292D02*
X002966Y007292D01*
X002920Y007349D02*
X002353Y007349D01*
X002353Y007407D02*
X002897Y007407D01*
X002873Y007464D02*
X002353Y007464D01*
X002353Y007522D02*
X002870Y007522D01*
X002870Y007579D02*
X002353Y007579D01*
X002353Y007637D02*
X002875Y007637D01*
X002899Y007694D02*
X002353Y007694D01*
X002353Y008040D02*
X004227Y008040D01*
X004321Y008097D02*
X002353Y008097D01*
X009319Y006602D02*
X009319Y002823D01*
X008650Y002154D01*
X008829Y002054D02*
X008973Y002054D01*
X008931Y001996D02*
X008829Y001996D01*
X008829Y001939D02*
X008908Y001939D01*
X008904Y001881D02*
X008853Y001881D01*
X008886Y001824D02*
X008905Y001824D01*
X008907Y001766D02*
X008929Y001766D01*
X008907Y001709D02*
X008966Y001709D01*
X008982Y001651D02*
X008900Y001651D01*
X008876Y001594D02*
X008982Y001594D01*
X009161Y001563D02*
X009161Y001878D01*
X009052Y002112D02*
X008861Y002112D01*
X008918Y002169D02*
X009140Y002169D01*
X009149Y002227D02*
X008976Y002227D01*
X009034Y002284D02*
X009173Y002284D01*
X009221Y002342D02*
X009091Y002342D01*
X009149Y002399D02*
X009317Y002399D01*
X009206Y002457D02*
X010432Y002457D01*
X010490Y002514D02*
X009264Y002514D01*
X009321Y002572D02*
X010547Y002572D01*
X010605Y002630D02*
X009379Y002630D01*
X009436Y002687D02*
X010662Y002687D01*
X010715Y002745D02*
X009494Y002745D01*
X009498Y002802D02*
X010715Y002802D01*
X010715Y002860D02*
X009498Y002860D01*
X009498Y002917D02*
X010715Y002917D01*
X010715Y002975D02*
X009498Y002975D01*
X009498Y003032D02*
X010715Y003032D01*
X010715Y003090D02*
X009498Y003090D01*
X009498Y003148D02*
X010715Y003148D01*
X010715Y003205D02*
X009987Y003205D01*
X009977Y003195D02*
X010049Y003267D01*
X010089Y003362D01*
X010089Y003465D01*
X010049Y003559D01*
X009977Y003632D01*
X009882Y003671D01*
X009779Y003671D01*
X009685Y003632D01*
X009612Y003559D01*
X009573Y003465D01*
X009573Y003362D01*
X009612Y003267D01*
X009685Y003195D01*
X009779Y003156D01*
X009882Y003156D01*
X009977Y003195D01*
X010045Y003263D02*
X010715Y003263D01*
X010715Y003320D02*
X010071Y003320D01*
X010089Y003378D02*
X010715Y003378D01*
X010715Y003435D02*
X010089Y003435D01*
X010077Y003493D02*
X010715Y003493D01*
X010715Y003550D02*
X010053Y003550D01*
X010001Y003608D02*
X010715Y003608D01*
X010715Y003666D02*
X009896Y003666D01*
X009766Y003666D02*
X009498Y003666D01*
X009498Y003723D02*
X010715Y003723D01*
X010715Y003781D02*
X009498Y003781D01*
X009498Y003838D02*
X010715Y003838D01*
X010715Y003896D02*
X009498Y003896D01*
X009498Y003953D02*
X010715Y003953D01*
X010715Y004011D02*
X009498Y004011D01*
X009498Y004068D02*
X010715Y004068D01*
X010715Y004126D02*
X009498Y004126D01*
X009498Y004184D02*
X010715Y004184D01*
X010715Y004241D02*
X009498Y004241D01*
X009498Y004299D02*
X010715Y004299D01*
X010715Y004356D02*
X009498Y004356D01*
X009498Y004414D02*
X010715Y004414D01*
X010715Y004471D02*
X009498Y004471D01*
X009498Y004529D02*
X010715Y004529D01*
X010715Y004586D02*
X009498Y004586D01*
X009498Y004644D02*
X010715Y004644D01*
X010715Y004702D02*
X009498Y004702D01*
X009498Y004759D02*
X010715Y004759D01*
X010715Y004817D02*
X009498Y004817D01*
X009498Y004874D02*
X010715Y004874D01*
X010715Y004932D02*
X009498Y004932D01*
X009498Y004989D02*
X010715Y004989D01*
X010715Y005047D02*
X009498Y005047D01*
X009498Y005104D02*
X010715Y005104D01*
X010715Y005162D02*
X010013Y005162D01*
X010016Y005163D02*
X010089Y005236D01*
X010128Y005331D01*
X010128Y005433D01*
X010089Y005528D01*
X010016Y005600D01*
X009921Y005640D01*
X009819Y005640D01*
X009724Y005600D01*
X009652Y005528D01*
X009612Y005433D01*
X009612Y005331D01*
X009652Y005236D01*
X009724Y005163D01*
X009819Y005124D01*
X009921Y005124D01*
X010016Y005163D01*
X010072Y005220D02*
X010715Y005220D01*
X010715Y005277D02*
X010106Y005277D01*
X010128Y005335D02*
X010715Y005335D01*
X010715Y005392D02*
X010128Y005392D01*
X010121Y005450D02*
X010715Y005450D01*
X010463Y005507D02*
X010097Y005507D01*
X010052Y005565D02*
X010405Y005565D01*
X010378Y005622D02*
X009963Y005622D01*
X009777Y005622D02*
X009498Y005622D01*
X009498Y005565D02*
X009688Y005565D01*
X009643Y005507D02*
X009498Y005507D01*
X009498Y005450D02*
X009619Y005450D01*
X009612Y005392D02*
X009498Y005392D01*
X009498Y005335D02*
X009612Y005335D01*
X009634Y005277D02*
X009498Y005277D01*
X009498Y005220D02*
X009668Y005220D01*
X009727Y005162D02*
X009498Y005162D01*
X009498Y005680D02*
X010360Y005680D01*
X010360Y005738D02*
X009498Y005738D01*
X009498Y005795D02*
X010372Y005795D01*
X010395Y005853D02*
X009498Y005853D01*
X009498Y005910D02*
X010447Y005910D01*
X010453Y005957D02*
X010390Y005957D01*
X010382Y005949D01*
X010323Y005949D01*
X010551Y005968D02*
X009498Y005968D01*
X009498Y006025D02*
X010706Y006025D01*
X010715Y005968D02*
X010685Y005968D01*
X010648Y006083D02*
X009498Y006083D01*
X009498Y006140D02*
X009843Y006140D01*
X009785Y006198D02*
X009498Y006198D01*
X009498Y006256D02*
X009630Y006256D01*
X009559Y006313D02*
X009498Y006313D01*
X009498Y006371D02*
X009520Y006371D01*
X009752Y006484D02*
X009949Y006287D01*
X010697Y006287D01*
X010894Y006091D01*
X010894Y002665D01*
X010106Y001878D01*
X009918Y002054D02*
X009783Y002054D01*
X009824Y001996D02*
X009876Y001996D01*
X009853Y001939D02*
X009848Y001939D01*
X009704Y002112D02*
X009997Y002112D01*
X010144Y002169D02*
X009655Y002169D01*
X009646Y002227D02*
X010202Y002227D01*
X010259Y002284D02*
X009623Y002284D01*
X009574Y002342D02*
X010317Y002342D01*
X010374Y002399D02*
X009478Y002399D01*
X009594Y001878D02*
X009870Y001602D01*
X010539Y001602D01*
X011051Y002114D01*
X011051Y006248D01*
X010776Y006524D01*
X010264Y006524D01*
X010360Y006763D02*
X010315Y006781D01*
X010213Y006781D01*
X010118Y006742D01*
X010045Y006670D01*
X010006Y006575D01*
X010006Y006545D01*
X009971Y006630D01*
X009898Y006703D01*
X009803Y006742D01*
X009712Y006742D01*
X009787Y006817D01*
X010347Y006817D01*
X010360Y006804D01*
X010360Y006763D01*
X010360Y006774D02*
X010334Y006774D01*
X010193Y006774D02*
X009743Y006774D01*
X009866Y006716D02*
X010092Y006716D01*
X010041Y006658D02*
X009942Y006658D01*
X009983Y006601D02*
X010017Y006601D01*
X009713Y006996D02*
X009319Y006602D01*
X009713Y006996D02*
X010421Y006996D01*
X010618Y006799D01*
X010855Y006697D02*
X010876Y006748D01*
X010876Y006850D01*
X010837Y006945D01*
X010764Y007018D01*
X010669Y007057D01*
X010614Y007057D01*
X010600Y007070D01*
X010562Y007108D01*
X012086Y007108D01*
X012132Y007154D01*
X012132Y007063D01*
X012171Y006968D01*
X012190Y006949D01*
X012165Y006939D01*
X012092Y006867D01*
X012053Y006772D01*
X012053Y006669D01*
X012092Y006574D01*
X012132Y006535D01*
X012132Y003921D01*
X011778Y003567D01*
X011809Y003642D01*
X011809Y003744D01*
X011770Y003839D01*
X011697Y003911D01*
X011602Y003951D01*
X011500Y003951D01*
X011405Y003911D01*
X011333Y003839D01*
X011293Y003744D01*
X011293Y003642D01*
X011333Y003547D01*
X011405Y003474D01*
X011500Y003435D01*
X011602Y003435D01*
X011678Y003466D01*
X011230Y003019D01*
X011230Y006322D01*
X011125Y006427D01*
X010955Y006598D01*
X010855Y006697D01*
X010863Y006716D02*
X012053Y006716D01*
X012054Y006774D02*
X010876Y006774D01*
X010876Y006831D02*
X012078Y006831D01*
X012115Y006889D02*
X010860Y006889D01*
X010836Y006946D02*
X012182Y006946D01*
X012156Y007004D02*
X010778Y007004D01*
X010609Y007061D02*
X012133Y007061D01*
X012132Y007119D02*
X012096Y007119D01*
X012390Y007114D02*
X012429Y007114D01*
X012547Y006996D01*
X012547Y003295D01*
X012705Y003138D01*
X011934Y003723D02*
X011809Y003723D01*
X011809Y003666D02*
X011877Y003666D01*
X011819Y003608D02*
X011795Y003608D01*
X011794Y003781D02*
X011992Y003781D01*
X012050Y003838D02*
X011770Y003838D01*
X011713Y003896D02*
X012107Y003896D01*
X012132Y003953D02*
X011230Y003953D01*
X011230Y003896D02*
X011389Y003896D01*
X011332Y003838D02*
X011230Y003838D01*
X011230Y003781D02*
X011308Y003781D01*
X011293Y003723D02*
X011230Y003723D01*
X011230Y003666D02*
X011293Y003666D01*
X011307Y003608D02*
X011230Y003608D01*
X011230Y003550D02*
X011331Y003550D01*
X011387Y003493D02*
X011230Y003493D01*
X011230Y003435D02*
X011499Y003435D01*
X011603Y003435D02*
X011647Y003435D01*
X011589Y003378D02*
X011230Y003378D01*
X011248Y003335D02*
X011169Y003335D01*
X011230Y003320D02*
X011532Y003320D01*
X011474Y003263D02*
X011230Y003263D01*
X011230Y003205D02*
X011416Y003205D01*
X011359Y003148D02*
X011230Y003148D01*
X011230Y003090D02*
X011301Y003090D01*
X011244Y003032D02*
X011230Y003032D01*
X011248Y002783D02*
X011248Y001642D01*
X010815Y001209D01*
X009516Y001209D01*
X009161Y001563D01*
X008470Y001536D02*
X008396Y001536D01*
X008396Y001594D02*
X008423Y001594D01*
X008059Y002941D02*
X007429Y002941D01*
X008059Y002941D02*
X008531Y003413D01*
X008768Y003413D01*
X009498Y003435D02*
X009573Y003435D01*
X009573Y003378D02*
X009498Y003378D01*
X009498Y003320D02*
X009590Y003320D01*
X009617Y003263D02*
X009498Y003263D01*
X009498Y003205D02*
X009674Y003205D01*
X009585Y003493D02*
X009498Y003493D01*
X009498Y003550D02*
X009608Y003550D01*
X009661Y003608D02*
X009498Y003608D01*
X011248Y003335D02*
X011327Y003413D01*
X011248Y002783D02*
X012311Y003846D01*
X012311Y006720D01*
X012124Y006543D02*
X011009Y006543D01*
X010955Y006598D02*
X010955Y006598D01*
X010952Y006601D02*
X012082Y006601D01*
X012058Y006658D02*
X010894Y006658D01*
X011067Y006486D02*
X012132Y006486D01*
X012132Y006428D02*
X011124Y006428D01*
X011125Y006427D02*
X011125Y006427D01*
X011182Y006371D02*
X012132Y006371D01*
X012132Y006313D02*
X011230Y006313D01*
X011230Y006256D02*
X012132Y006256D01*
X012132Y006198D02*
X011230Y006198D01*
X011230Y006140D02*
X012132Y006140D01*
X012132Y006083D02*
X011230Y006083D01*
X011230Y006025D02*
X012132Y006025D01*
X012132Y005968D02*
X011230Y005968D01*
X011230Y005910D02*
X012132Y005910D01*
X012132Y005853D02*
X011230Y005853D01*
X011230Y005795D02*
X012132Y005795D01*
X012132Y005738D02*
X011230Y005738D01*
X011230Y005680D02*
X012132Y005680D01*
X012132Y005622D02*
X011230Y005622D01*
X011230Y005565D02*
X012132Y005565D01*
X012132Y005507D02*
X011230Y005507D01*
X011230Y005450D02*
X012132Y005450D01*
X012132Y005392D02*
X011230Y005392D01*
X011230Y005335D02*
X012132Y005335D01*
X012132Y005277D02*
X011230Y005277D01*
X011230Y005220D02*
X012132Y005220D01*
X012132Y005162D02*
X011230Y005162D01*
X011230Y005104D02*
X012132Y005104D01*
X012132Y005047D02*
X011230Y005047D01*
X011230Y004989D02*
X012132Y004989D01*
X012132Y004932D02*
X011230Y004932D01*
X011230Y004874D02*
X012132Y004874D01*
X012132Y004817D02*
X011230Y004817D01*
X011230Y004759D02*
X012132Y004759D01*
X012132Y004702D02*
X011230Y004702D01*
X011230Y004644D02*
X012132Y004644D01*
X012132Y004586D02*
X011230Y004586D01*
X011230Y004529D02*
X012132Y004529D01*
X012132Y004471D02*
X011230Y004471D01*
X011230Y004414D02*
X012132Y004414D01*
X012132Y004356D02*
X011230Y004356D01*
X011230Y004299D02*
X012132Y004299D01*
X012132Y004241D02*
X011230Y004241D01*
X011230Y004184D02*
X012132Y004184D01*
X012132Y004126D02*
X011230Y004126D01*
X011230Y004068D02*
X012132Y004068D01*
X012132Y004011D02*
X011230Y004011D01*
X013600Y002284D02*
X017677Y002284D01*
X017683Y002300D02*
X017644Y002205D01*
X017644Y002102D01*
X017683Y002008D01*
X017756Y001935D01*
X017850Y001896D01*
X017953Y001896D01*
X018048Y001935D01*
X018120Y002008D01*
X018159Y002102D01*
X018159Y002205D01*
X018120Y002300D01*
X018048Y002372D01*
X017953Y002411D01*
X017850Y002411D01*
X017756Y002372D01*
X017683Y002300D01*
X017725Y002342D02*
X013658Y002342D01*
X013716Y002399D02*
X017821Y002399D01*
X017982Y002399D02*
X026965Y002399D01*
X026965Y002342D02*
X018078Y002342D01*
X018126Y002284D02*
X026965Y002284D01*
X026965Y002227D02*
X018150Y002227D01*
X018159Y002169D02*
X026965Y002169D01*
X026965Y002112D02*
X019980Y002112D01*
X020016Y002096D02*
X019921Y002136D01*
X019819Y002136D01*
X019724Y002096D01*
X019652Y002024D01*
X019612Y001929D01*
X019612Y001827D01*
X019652Y001732D01*
X019724Y001659D01*
X019819Y001620D01*
X019921Y001620D01*
X020016Y001659D01*
X020089Y001732D01*
X020128Y001827D01*
X020128Y001929D01*
X020089Y002024D01*
X020016Y002096D01*
X020059Y002054D02*
X026965Y002054D01*
X026965Y001996D02*
X020100Y001996D01*
X020124Y001939D02*
X026965Y001939D01*
X026965Y001881D02*
X020128Y001881D01*
X020127Y001824D02*
X026965Y001824D01*
X026965Y001766D02*
X020103Y001766D01*
X020065Y001709D02*
X026965Y001709D01*
X026965Y001651D02*
X019996Y001651D01*
X019744Y001651D02*
X015301Y001651D01*
X015301Y001634D02*
X015262Y001540D01*
X015189Y001467D01*
X015094Y001428D01*
X014992Y001428D01*
X014897Y001467D01*
X014825Y001540D01*
X014785Y001634D01*
X014785Y001737D01*
X014825Y001832D01*
X014897Y001904D01*
X014992Y001943D01*
X015094Y001943D01*
X015189Y001904D01*
X015262Y001832D01*
X015301Y001737D01*
X015301Y001634D01*
X015284Y001594D02*
X026965Y001594D01*
X026965Y001536D02*
X015258Y001536D01*
X015200Y001478D02*
X026965Y001478D01*
X026965Y001421D02*
X012737Y001421D01*
X012795Y001478D02*
X014886Y001478D01*
X014828Y001536D02*
X012852Y001536D01*
X012910Y001594D02*
X014802Y001594D01*
X014785Y001651D02*
X012967Y001651D01*
X013025Y001709D02*
X014785Y001709D01*
X014797Y001766D02*
X013082Y001766D01*
X013140Y001824D02*
X014821Y001824D01*
X014874Y001881D02*
X013198Y001881D01*
X013255Y001939D02*
X014981Y001939D01*
X015105Y001939D02*
X017752Y001939D01*
X017694Y001996D02*
X013313Y001996D01*
X013370Y002054D02*
X017664Y002054D01*
X017644Y002112D02*
X013428Y002112D01*
X013485Y002169D02*
X017644Y002169D01*
X017653Y002227D02*
X013543Y002227D01*
X012680Y001363D02*
X026965Y001363D01*
X026965Y001306D02*
X012622Y001306D01*
X012564Y001248D02*
X026965Y001248D01*
X026965Y001191D02*
X012507Y001191D01*
X012449Y001133D02*
X026965Y001133D01*
X026965Y001076D02*
X012392Y001076D01*
X012334Y001018D02*
X026965Y001018D01*
X026965Y000960D02*
X012277Y000960D01*
X012219Y000903D02*
X026965Y000903D01*
X026965Y000845D02*
X012162Y000845D01*
X012104Y000788D02*
X026965Y000788D01*
X026965Y000730D02*
X012046Y000730D01*
X011989Y000673D02*
X026965Y000673D01*
X026965Y002572D02*
X026631Y002572D01*
X026718Y002630D02*
X026965Y002630D01*
X026965Y002687D02*
X026765Y002687D01*
X026788Y002745D02*
X026965Y002745D01*
X026965Y002802D02*
X026798Y002802D01*
X026837Y002860D02*
X026965Y002860D01*
X026965Y002917D02*
X026859Y002917D01*
X026859Y002975D02*
X026965Y002975D01*
X026965Y003032D02*
X026859Y003032D01*
X026859Y003090D02*
X026965Y003090D01*
X026965Y003148D02*
X026859Y003148D01*
X026859Y003205D02*
X026965Y003205D01*
X026965Y003263D02*
X026859Y003263D01*
X026859Y003320D02*
X026965Y003320D01*
X026965Y003378D02*
X026859Y003378D01*
X026859Y003435D02*
X026965Y003435D01*
X026965Y003493D02*
X026859Y003493D01*
X026859Y003550D02*
X026965Y003550D01*
X026965Y003608D02*
X026859Y003608D01*
X026859Y003666D02*
X026965Y003666D01*
X026965Y003723D02*
X026859Y003723D01*
X026859Y003781D02*
X026965Y003781D01*
X026965Y003838D02*
X026859Y003838D01*
X026859Y003896D02*
X026965Y003896D01*
X026965Y003953D02*
X026859Y003953D01*
X026859Y004011D02*
X026965Y004011D01*
X026965Y004068D02*
X026859Y004068D01*
X026859Y004126D02*
X026965Y004126D01*
X026965Y004184D02*
X026859Y004184D01*
X026859Y004241D02*
X026965Y004241D01*
X026965Y004299D02*
X026859Y004299D01*
X026859Y004356D02*
X026965Y004356D01*
X026965Y004414D02*
X026859Y004414D01*
X026859Y004471D02*
X026965Y004471D01*
X026965Y004529D02*
X026859Y004529D01*
X026859Y004586D02*
X026965Y004586D01*
X026965Y004644D02*
X026859Y004644D01*
X026859Y004702D02*
X026965Y004702D01*
X026965Y004759D02*
X026859Y004759D01*
X026859Y004817D02*
X026965Y004817D01*
X026965Y004874D02*
X026859Y004874D01*
X026859Y004932D02*
X026965Y004932D01*
X026965Y004989D02*
X026859Y004989D01*
X026859Y005047D02*
X026965Y005047D01*
X026965Y005104D02*
X026859Y005104D01*
X026859Y005162D02*
X026965Y005162D01*
X026965Y005220D02*
X026859Y005220D01*
X026859Y005277D02*
X026965Y005277D01*
X026965Y005335D02*
X026859Y005335D01*
X026859Y005392D02*
X026965Y005392D01*
X026965Y005450D02*
X026859Y005450D01*
X026859Y005507D02*
X026965Y005507D01*
X026965Y005565D02*
X026859Y005565D01*
X026859Y005622D02*
X026965Y005622D01*
X026965Y005680D02*
X026859Y005680D01*
X026859Y005738D02*
X026965Y005738D01*
X026965Y005795D02*
X026859Y005795D01*
X026859Y005853D02*
X026965Y005853D01*
X026965Y005910D02*
X026859Y005910D01*
X026859Y005968D02*
X026965Y005968D01*
X026965Y006025D02*
X026852Y006025D01*
X026794Y006083D02*
X026965Y006083D01*
X026965Y006140D02*
X026737Y006140D01*
X026679Y006198D02*
X026965Y006198D01*
X026965Y006256D02*
X026622Y006256D01*
X026564Y006313D02*
X026965Y006313D01*
X026965Y006371D02*
X026506Y006371D01*
X026449Y006428D02*
X026965Y006428D01*
X025742Y006601D02*
X025516Y006601D01*
X025499Y006658D02*
X025684Y006658D01*
X025627Y006716D02*
X025499Y006716D01*
X025499Y006774D02*
X025569Y006774D01*
X025512Y006831D02*
X025499Y006831D01*
X025121Y006831D02*
X023035Y006831D01*
X023101Y006774D02*
X025121Y006774D01*
X025121Y006716D02*
X023139Y006716D01*
X023162Y006658D02*
X025121Y006658D01*
X025121Y006601D02*
X023165Y006601D01*
X023164Y006543D02*
X025121Y006543D01*
X025121Y006486D02*
X023141Y006486D01*
X023106Y006428D02*
X025155Y006428D01*
X025212Y006371D02*
X023047Y006371D01*
X022748Y006371D02*
X017272Y006371D01*
X017296Y006313D02*
X025270Y006313D01*
X025327Y006256D02*
X017311Y006256D01*
X017218Y006428D02*
X022689Y006428D01*
X022655Y006486D02*
X017112Y006486D01*
X016788Y006140D02*
X016207Y006140D01*
X016313Y006083D02*
X016563Y006083D01*
X016505Y006025D02*
X016367Y006025D01*
X016391Y005968D02*
X016479Y005968D01*
X016180Y005565D02*
X016068Y005565D01*
X016035Y005507D02*
X016204Y005507D01*
X016258Y005450D02*
X015978Y005450D01*
X015699Y005335D02*
X018311Y005335D01*
X018323Y005277D02*
X015716Y005277D01*
X015716Y005220D02*
X018347Y005220D01*
X018397Y005162D02*
X015706Y005162D01*
X015682Y005104D02*
X018492Y005104D01*
X018665Y005104D02*
X026481Y005104D01*
X026481Y005047D02*
X015634Y005047D01*
X015543Y004989D02*
X026481Y004989D01*
X026481Y004932D02*
X019148Y004932D01*
X019207Y004874D02*
X026481Y004874D01*
X026481Y004817D02*
X019240Y004817D01*
X019262Y004759D02*
X026481Y004759D01*
X026481Y004702D02*
X019262Y004702D01*
X019255Y004644D02*
X026481Y004644D01*
X026481Y004586D02*
X019231Y004586D01*
X019185Y004529D02*
X026481Y004529D01*
X026481Y005162D02*
X018761Y005162D01*
X018811Y005220D02*
X026481Y005220D01*
X026481Y005277D02*
X018835Y005277D01*
X018846Y005335D02*
X021164Y005335D01*
X021070Y005392D02*
X018846Y005392D01*
X018831Y005450D02*
X021022Y005450D01*
X020999Y005507D02*
X018807Y005507D01*
X018751Y005565D02*
X020990Y005565D01*
X020990Y005622D02*
X018640Y005622D01*
X018606Y005680D02*
X021011Y005680D01*
X021042Y005738D02*
X018667Y005738D01*
X018703Y005795D02*
X021100Y005795D01*
X021506Y005565D02*
X026481Y005565D01*
X026481Y005507D02*
X021497Y005507D01*
X021474Y005450D02*
X026481Y005450D01*
X026481Y005392D02*
X021426Y005392D01*
X021332Y005335D02*
X026481Y005335D01*
X026481Y003550D02*
X025288Y003550D01*
X025371Y003493D02*
X026481Y003493D01*
X026481Y003435D02*
X025425Y003435D01*
X025449Y003378D02*
X026481Y003378D01*
X026481Y003320D02*
X025472Y003320D01*
X025472Y003263D02*
X026481Y003263D01*
X026481Y003205D02*
X025472Y003205D01*
X025454Y003148D02*
X026481Y003148D01*
X026481Y003090D02*
X025431Y003090D01*
X025384Y003032D02*
X026364Y003032D01*
X020776Y004319D02*
X020697Y004398D01*
X020697Y004791D01*
X018517Y005622D02*
X018418Y005622D01*
X018407Y005565D02*
X018394Y005565D01*
X018351Y005507D02*
X018339Y005507D01*
X015394Y005507D02*
X014909Y005507D01*
X014888Y005450D02*
X015280Y005450D01*
X015222Y005392D02*
X014857Y005392D01*
X014800Y005335D02*
X015198Y005335D01*
X015427Y003148D02*
X020414Y003148D01*
X020345Y003090D02*
X015443Y003090D01*
X015443Y003032D02*
X020296Y003032D01*
X020272Y002975D02*
X015429Y002975D01*
X015405Y002917D02*
X017238Y002917D01*
X017180Y002860D02*
X015350Y002860D01*
X015212Y001881D02*
X019612Y001881D01*
X019613Y001824D02*
X015265Y001824D01*
X015289Y001766D02*
X019637Y001766D01*
X019675Y001709D02*
X015301Y001709D01*
X017638Y002630D02*
X020349Y002630D01*
X020298Y002687D02*
X017648Y002687D01*
X017648Y002745D02*
X020274Y002745D01*
X020252Y002802D02*
X017628Y002802D01*
X017599Y002860D02*
X020252Y002860D01*
X020252Y002917D02*
X017542Y002917D01*
X018159Y002112D02*
X019760Y002112D01*
X019682Y002054D02*
X018139Y002054D01*
X018109Y001996D02*
X019640Y001996D01*
X019616Y001939D02*
X018051Y001939D01*
X012050Y007579D02*
X010897Y007579D01*
X010834Y007522D02*
X011993Y007522D01*
X018420Y008730D02*
X018902Y008730D01*
X018925Y008673D02*
X018477Y008673D01*
X018509Y008615D02*
X018959Y008615D01*
X019017Y008558D02*
X018722Y008558D01*
X018807Y008500D02*
X019047Y008500D01*
X019039Y008443D02*
X018853Y008443D01*
X018877Y008385D02*
X019039Y008385D01*
X019059Y008328D02*
X018886Y008328D01*
X018886Y008270D02*
X019088Y008270D01*
X019145Y008212D02*
X018867Y008212D01*
X025121Y009536D02*
X025491Y009536D01*
X025491Y009479D02*
X025179Y009479D01*
X025236Y009421D02*
X025491Y009421D01*
X025491Y009364D02*
X025294Y009364D01*
X025351Y009306D02*
X025491Y009306D01*
X025491Y009248D02*
X025409Y009248D01*
X025466Y009191D02*
X025491Y009191D01*
D13*
X024871Y008729D02*
X024478Y009122D01*
X020854Y009122D01*
D14*
X012311Y012232D03*
X004520Y012520D03*
X020579Y002862D03*
X023335Y002469D03*
X025146Y003256D03*
D15*
X023335Y002469D02*
X022154Y002469D01*
X020776Y003846D01*
X020776Y004319D01*
D16*
X010106Y013650D03*
X004476Y007744D03*
X003256Y007547D03*
X001366Y007272D03*
D17*
X018657Y010142D03*
D18*
X022330Y010910D02*
X022330Y011560D01*
X023217Y011524D02*
X023217Y010683D01*
X023500Y010400D01*
X023990Y010400D01*
X025310Y009080D01*
X025310Y006540D01*
X025990Y005860D01*
X026670Y005940D02*
X025680Y006930D01*
X025680Y010210D01*
X025382Y010508D01*
X025382Y011563D01*
X023760Y009480D02*
X022330Y010910D01*
X026670Y005940D02*
X026670Y002960D01*
X026530Y002820D01*
X003492Y001878D02*
X003059Y001878D01*
X001720Y003217D01*
X001720Y006563D01*
X002154Y006996D01*
D19*
X002154Y010154D01*
X004520Y012520D01*
M02*
