G75*
G70*
%OFA0B0*%
%FSLAX24Y24*%
%IPPOS*%
%LPD*%
%AMOC8*
5,1,8,0,0,1.08239X$1,22.5*
%
%ADD10R,0.0394X0.0433*%
%ADD11R,0.0433X0.0394*%
%ADD12R,0.0157X0.0551*%
%ADD13R,0.0177X0.0906*%
D10*
X008768Y005299D03*
X008768Y005969D03*
X015854Y003366D03*
X015854Y002697D03*
X019681Y005102D03*
X019681Y005772D03*
X019681Y006992D03*
X019681Y007661D03*
X020126Y010008D03*
X020126Y010677D03*
X022413Y010677D03*
X023248Y010677D03*
X023248Y010008D03*
X022413Y010008D03*
D11*
X021604Y010009D03*
X020865Y010008D03*
X020865Y010677D03*
X021604Y010678D03*
X015803Y009807D03*
X015134Y009807D03*
X013155Y010035D03*
X013155Y010704D03*
X019417Y004236D03*
X020087Y004236D03*
X017772Y003335D03*
X017102Y003335D03*
X014464Y003342D03*
X013498Y003383D03*
X013498Y002713D03*
X014464Y002672D03*
D12*
X014524Y004404D03*
X014780Y004404D03*
X015035Y004404D03*
X015291Y004404D03*
X015547Y004404D03*
X015803Y004404D03*
X016059Y004404D03*
X016315Y004404D03*
X016571Y004404D03*
X016827Y004404D03*
X017083Y004404D03*
X017339Y004404D03*
X017594Y004404D03*
X017850Y004404D03*
X018106Y004404D03*
X018362Y004404D03*
X018618Y004404D03*
X014268Y004404D03*
X014012Y004404D03*
X013756Y004404D03*
X013500Y004404D03*
X013244Y004404D03*
X012988Y004404D03*
X012732Y004404D03*
X012476Y004404D03*
X012220Y004404D03*
X011965Y004404D03*
X011709Y004404D03*
X011453Y004404D03*
X011197Y004404D03*
X010941Y004404D03*
X010685Y004404D03*
X010429Y004404D03*
X010429Y009069D03*
X010685Y009069D03*
X010941Y009069D03*
X011197Y009069D03*
X011453Y009069D03*
X011709Y009069D03*
X011965Y009069D03*
X012220Y009069D03*
X012476Y009069D03*
X012732Y009069D03*
X012988Y009069D03*
X013244Y009069D03*
X013500Y009069D03*
X013756Y009069D03*
X014012Y009069D03*
X014268Y009069D03*
X014524Y009069D03*
X014780Y009069D03*
X015035Y009069D03*
X015291Y009069D03*
X015547Y009069D03*
X015803Y009069D03*
X016059Y009069D03*
X016315Y009069D03*
X016571Y009069D03*
X016827Y009069D03*
X017083Y009069D03*
X017339Y009069D03*
X017594Y009069D03*
X017850Y009069D03*
X018106Y009069D03*
X018362Y009069D03*
X018618Y009069D03*
D13*
X001346Y001051D03*
X001583Y001051D03*
X001819Y001051D03*
X002055Y001051D03*
X002291Y001051D03*
X002528Y001051D03*
X002764Y001051D03*
X003000Y001051D03*
X003236Y001051D03*
X003472Y001051D03*
X003709Y001051D03*
X003945Y001051D03*
X004181Y001051D03*
X004417Y001051D03*
X004654Y001051D03*
X004890Y001051D03*
X005126Y001051D03*
X005362Y001051D03*
X005598Y001051D03*
X005835Y001051D03*
X007488Y001051D03*
X007724Y001051D03*
X007961Y001051D03*
X008197Y001051D03*
X008433Y001051D03*
X008669Y001051D03*
X008906Y001051D03*
X009142Y001051D03*
X009378Y001051D03*
X009614Y001051D03*
X009850Y001051D03*
X010087Y001051D03*
X010323Y001051D03*
X010559Y001051D03*
X010795Y001051D03*
X011031Y001051D03*
X011268Y001051D03*
X011504Y001051D03*
X011740Y001051D03*
X011976Y001051D03*
X012213Y001051D03*
X012449Y001051D03*
X012685Y001051D03*
X012921Y001051D03*
X013157Y001051D03*
X013394Y001051D03*
X013630Y001051D03*
X013866Y001051D03*
X014102Y001051D03*
X014339Y001051D03*
X014575Y001051D03*
X014811Y001051D03*
X015047Y001051D03*
X015283Y001051D03*
X015520Y001051D03*
X015756Y001051D03*
X015992Y001051D03*
X016228Y001051D03*
X016465Y001051D03*
X016701Y001051D03*
X016937Y001051D03*
X017173Y001051D03*
X017409Y001051D03*
X017646Y001051D03*
X017882Y001051D03*
X018118Y001051D03*
X018354Y001051D03*
X018591Y001051D03*
X018827Y001051D03*
X019063Y001051D03*
X019299Y001051D03*
X019535Y001051D03*
X019772Y001051D03*
X020008Y001051D03*
X020244Y001051D03*
X020480Y001051D03*
X020717Y001051D03*
X020953Y001051D03*
X021189Y001051D03*
X021425Y001051D03*
X021661Y001051D03*
X021898Y001051D03*
X022134Y001051D03*
X022370Y001051D03*
X022606Y001051D03*
X022843Y001051D03*
X023079Y001051D03*
X023315Y001051D03*
X023551Y001051D03*
X023787Y001051D03*
X024024Y001051D03*
X024260Y001051D03*
X024496Y001051D03*
X024732Y001051D03*
X024969Y001051D03*
X025205Y001051D03*
X025441Y001051D03*
X025677Y001051D03*
X025913Y001051D03*
X026150Y001051D03*
M02*
