%
M48
M72
T01C0.0098
T02C0.0118
T03C0.0157
T04C0.0236
T05C0.0315
%
T01
X1051Y894
X3177Y2232
X3689Y2587
X3374Y2862
X3453Y3177
X3965Y1839
X4437Y1839
X4870Y1878
X5382Y1878
X5854Y1878
X6327Y1839
X7705Y1878
X8217Y1799
X8650Y1720
X9161Y1878
X9398Y2154
X9594Y1878
X10106Y1878
X11996Y2587
X11917Y2862
X11996Y3138
X11327Y3413
X11551Y3693
X12429Y2547
X12941Y2469
X15043Y1686
X15185Y3059
X17390Y2705
X17508Y2311
X17902Y2154
X18571Y3413
X19043Y3531
X19004Y4713
X20697Y4791
X21248Y5579
X20303Y5736
X20378Y6984
X20224Y7665
X19909Y9398
X21602Y9476
X17890Y9591
X17535Y9571
X17587Y10067
X17193Y9949
X15736Y10303
X15657Y10815
X13020Y11957
X12469Y11799
X14752Y13177
X14319Y13492
X14083Y13886
X15382Y12783
X19319Y11957
X12390Y7114
X12311Y6720
X10618Y6799
X10264Y6524
X9988Y6720
X9752Y6484
X10453Y5957
X10618Y5717
X9870Y5382
X7114Y6996
X6209Y6524
X5638Y6496
X4378Y5374
X4390Y4571
X8768Y3413
X9831Y3413
X10224Y7390
X9909Y7469
X10539Y7508
X10697Y7744
X10343Y8138
X6012Y8886
X5539Y9358
X9594Y12941
X19870Y1878
T02
X18579Y5358
X18165Y5713
X18461Y5909
X17043Y5673
X16728Y5870
X16433Y5654
X16138Y5880
X15823Y5673
X15449Y5240
X14642Y5555
X13264Y5713
X12929Y5594
X13874Y6559
X14248Y6559
X14307Y6913
X14671Y6972
X14917Y7228
X15252Y7386
X15547Y7602
X15902Y7593
X16118Y7878
X16463Y7986
X17083Y7602
X16768Y7406
X16453Y7209
X15961Y7209
X17043Y6224
X18303Y7465
X18215Y7848
X18559Y7957
X18618Y8311
X18264Y8508
X18972Y9098
X19169Y8783
X19307Y8429
X20854Y9122
X18965Y9831
X19094Y10626
X18453Y11209
X17193Y11602
X17177Y10539
X14752Y11681
X14201Y12272
X17547Y12823
X21406Y12823
X22783Y12783
X24043Y12823
X25382Y11563
X25900Y12180
X26360Y12630
X24476Y11248
X23728Y11366
X23217Y11524
X22330Y11560
X21563Y11602
X23760Y9480
X24871Y8729
X25050Y9960
X26570Y6760
X25990Y5860
X22898Y6598
X26530Y2820
X14228Y8528
X13854Y8528
X13500Y8587
X13126Y8547
X10854Y9642
X10087Y11012
X8740Y9780
X9075Y7008
X2154Y6996
X1406Y4555
X1799Y1839
X3492Y1878
T03
X18657Y10142
T04
X12311Y12232
X4520Y12520
X20579Y2862
X23335Y2469
X25146Y3256
T05
X10106Y13650
X4476Y7744
X3256Y7547
X1366Y7272
M30
