G75*
G70*
%OFA0B0*%
%FSLAX24Y24*%
%IPPOS*%
%LPD*%
%AMOC8*
5,1,8,0,0,1.08239X$1,22.5*
%
%ADD10R,0.0474X0.0513*%
%ADD11R,0.0513X0.0474*%
%ADD12R,0.0237X0.0631*%
%ADD13R,0.0257X0.0986*%
%ADD14C,0.0500*%
%ADD15C,0.0671*%
%ADD16C,0.0552*%
D10*
X008768Y005299D03*
X008768Y005969D03*
X015854Y003366D03*
X015854Y002697D03*
X019681Y005102D03*
X019681Y005772D03*
X019681Y006992D03*
X019681Y007661D03*
X020126Y010008D03*
X020126Y010677D03*
X022413Y010677D03*
X023248Y010677D03*
X023248Y010008D03*
X022413Y010008D03*
D11*
X021604Y010009D03*
X020865Y010008D03*
X020865Y010677D03*
X021604Y010678D03*
X015803Y009807D03*
X015134Y009807D03*
X013155Y010035D03*
X013155Y010704D03*
X019417Y004236D03*
X020087Y004236D03*
X017772Y003335D03*
X017102Y003335D03*
X014464Y003342D03*
X013498Y003383D03*
X013498Y002713D03*
X014464Y002672D03*
D12*
X014524Y004404D03*
X014780Y004404D03*
X015035Y004404D03*
X015291Y004404D03*
X015547Y004404D03*
X015803Y004404D03*
X016059Y004404D03*
X016315Y004404D03*
X016571Y004404D03*
X016827Y004404D03*
X017083Y004404D03*
X017339Y004404D03*
X017594Y004404D03*
X017850Y004404D03*
X018106Y004404D03*
X018362Y004404D03*
X018618Y004404D03*
X014268Y004404D03*
X014012Y004404D03*
X013756Y004404D03*
X013500Y004404D03*
X013244Y004404D03*
X012988Y004404D03*
X012732Y004404D03*
X012476Y004404D03*
X012220Y004404D03*
X011965Y004404D03*
X011709Y004404D03*
X011453Y004404D03*
X011197Y004404D03*
X010941Y004404D03*
X010685Y004404D03*
X010429Y004404D03*
X010429Y009069D03*
X010685Y009069D03*
X010941Y009069D03*
X011197Y009069D03*
X011453Y009069D03*
X011709Y009069D03*
X011965Y009069D03*
X012220Y009069D03*
X012476Y009069D03*
X012732Y009069D03*
X012988Y009069D03*
X013244Y009069D03*
X013500Y009069D03*
X013756Y009069D03*
X014012Y009069D03*
X014268Y009069D03*
X014524Y009069D03*
X014780Y009069D03*
X015035Y009069D03*
X015291Y009069D03*
X015547Y009069D03*
X015803Y009069D03*
X016059Y009069D03*
X016315Y009069D03*
X016571Y009069D03*
X016827Y009069D03*
X017083Y009069D03*
X017339Y009069D03*
X017594Y009069D03*
X017850Y009069D03*
X018106Y009069D03*
X018362Y009069D03*
X018618Y009069D03*
D13*
X001346Y001051D03*
X001583Y001051D03*
X001819Y001051D03*
X002055Y001051D03*
X002291Y001051D03*
X002528Y001051D03*
X002764Y001051D03*
X003000Y001051D03*
X003236Y001051D03*
X003472Y001051D03*
X003709Y001051D03*
X003945Y001051D03*
X004181Y001051D03*
X004417Y001051D03*
X004654Y001051D03*
X004890Y001051D03*
X005126Y001051D03*
X005362Y001051D03*
X005598Y001051D03*
X005835Y001051D03*
X007488Y001051D03*
X007724Y001051D03*
X007961Y001051D03*
X008197Y001051D03*
X008433Y001051D03*
X008669Y001051D03*
X008906Y001051D03*
X009142Y001051D03*
X009378Y001051D03*
X009614Y001051D03*
X009850Y001051D03*
X010087Y001051D03*
X010323Y001051D03*
X010559Y001051D03*
X010795Y001051D03*
X011031Y001051D03*
X011268Y001051D03*
X011504Y001051D03*
X011740Y001051D03*
X011976Y001051D03*
X012213Y001051D03*
X012449Y001051D03*
X012685Y001051D03*
X012921Y001051D03*
X013157Y001051D03*
X013394Y001051D03*
X013630Y001051D03*
X013866Y001051D03*
X014102Y001051D03*
X014339Y001051D03*
X014575Y001051D03*
X014811Y001051D03*
X015047Y001051D03*
X015283Y001051D03*
X015520Y001051D03*
X015756Y001051D03*
X015992Y001051D03*
X016228Y001051D03*
X016465Y001051D03*
X016701Y001051D03*
X016937Y001051D03*
X017173Y001051D03*
X017409Y001051D03*
X017646Y001051D03*
X017882Y001051D03*
X018118Y001051D03*
X018354Y001051D03*
X018591Y001051D03*
X018827Y001051D03*
X019063Y001051D03*
X019299Y001051D03*
X019535Y001051D03*
X019772Y001051D03*
X020008Y001051D03*
X020244Y001051D03*
X020480Y001051D03*
X020717Y001051D03*
X020953Y001051D03*
X021189Y001051D03*
X021425Y001051D03*
X021661Y001051D03*
X021898Y001051D03*
X022134Y001051D03*
X022370Y001051D03*
X022606Y001051D03*
X022843Y001051D03*
X023079Y001051D03*
X023315Y001051D03*
X023551Y001051D03*
X023787Y001051D03*
X024024Y001051D03*
X024260Y001051D03*
X024496Y001051D03*
X024732Y001051D03*
X024969Y001051D03*
X025205Y001051D03*
X025441Y001051D03*
X025677Y001051D03*
X025913Y001051D03*
X026150Y001051D03*
D14*
X023963Y004437D02*
X023965Y004474D01*
X023971Y004511D01*
X023980Y004547D01*
X023994Y004582D01*
X024011Y004615D01*
X024031Y004646D01*
X024054Y004675D01*
X024081Y004702D01*
X024110Y004725D01*
X024141Y004745D01*
X024174Y004762D01*
X024209Y004776D01*
X024245Y004785D01*
X024282Y004791D01*
X024319Y004793D01*
X024356Y004791D01*
X024393Y004785D01*
X024429Y004776D01*
X024464Y004762D01*
X024497Y004745D01*
X024528Y004725D01*
X024557Y004702D01*
X024584Y004675D01*
X024607Y004646D01*
X024627Y004615D01*
X024644Y004582D01*
X024658Y004547D01*
X024667Y004511D01*
X024673Y004474D01*
X024675Y004437D01*
X024673Y004400D01*
X024667Y004363D01*
X024658Y004327D01*
X024644Y004292D01*
X024627Y004259D01*
X024607Y004228D01*
X024584Y004199D01*
X024557Y004172D01*
X024528Y004149D01*
X024497Y004129D01*
X024464Y004112D01*
X024429Y004098D01*
X024393Y004089D01*
X024356Y004083D01*
X024319Y004081D01*
X024282Y004083D01*
X024245Y004089D01*
X024209Y004098D01*
X024174Y004112D01*
X024141Y004129D01*
X024110Y004149D01*
X024081Y004172D01*
X024054Y004199D01*
X024031Y004228D01*
X024011Y004259D01*
X023994Y004292D01*
X023980Y004327D01*
X023971Y004363D01*
X023965Y004400D01*
X023963Y004437D01*
X023963Y007587D02*
X023965Y007624D01*
X023971Y007661D01*
X023980Y007697D01*
X023994Y007732D01*
X024011Y007765D01*
X024031Y007796D01*
X024054Y007825D01*
X024081Y007852D01*
X024110Y007875D01*
X024141Y007895D01*
X024174Y007912D01*
X024209Y007926D01*
X024245Y007935D01*
X024282Y007941D01*
X024319Y007943D01*
X024356Y007941D01*
X024393Y007935D01*
X024429Y007926D01*
X024464Y007912D01*
X024497Y007895D01*
X024528Y007875D01*
X024557Y007852D01*
X024584Y007825D01*
X024607Y007796D01*
X024627Y007765D01*
X024644Y007732D01*
X024658Y007697D01*
X024667Y007661D01*
X024673Y007624D01*
X024675Y007587D01*
X024673Y007550D01*
X024667Y007513D01*
X024658Y007477D01*
X024644Y007442D01*
X024627Y007409D01*
X024607Y007378D01*
X024584Y007349D01*
X024557Y007322D01*
X024528Y007299D01*
X024497Y007279D01*
X024464Y007262D01*
X024429Y007248D01*
X024393Y007239D01*
X024356Y007233D01*
X024319Y007231D01*
X024282Y007233D01*
X024245Y007239D01*
X024209Y007248D01*
X024174Y007262D01*
X024141Y007279D01*
X024110Y007299D01*
X024081Y007322D01*
X024054Y007349D01*
X024031Y007378D01*
X024011Y007409D01*
X023994Y007442D01*
X023980Y007477D01*
X023971Y007513D01*
X023965Y007550D01*
X023963Y007587D01*
X007500Y012311D02*
X007502Y012348D01*
X007508Y012385D01*
X007517Y012421D01*
X007531Y012456D01*
X007548Y012489D01*
X007568Y012520D01*
X007591Y012549D01*
X007618Y012576D01*
X007647Y012599D01*
X007678Y012619D01*
X007711Y012636D01*
X007746Y012650D01*
X007782Y012659D01*
X007819Y012665D01*
X007856Y012667D01*
X007893Y012665D01*
X007930Y012659D01*
X007966Y012650D01*
X008001Y012636D01*
X008034Y012619D01*
X008065Y012599D01*
X008094Y012576D01*
X008121Y012549D01*
X008144Y012520D01*
X008164Y012489D01*
X008181Y012456D01*
X008195Y012421D01*
X008204Y012385D01*
X008210Y012348D01*
X008212Y012311D01*
X008210Y012274D01*
X008204Y012237D01*
X008195Y012201D01*
X008181Y012166D01*
X008164Y012133D01*
X008144Y012102D01*
X008121Y012073D01*
X008094Y012046D01*
X008065Y012023D01*
X008034Y012003D01*
X008001Y011986D01*
X007966Y011972D01*
X007930Y011963D01*
X007893Y011957D01*
X007856Y011955D01*
X007819Y011957D01*
X007782Y011963D01*
X007746Y011972D01*
X007711Y011986D01*
X007678Y012003D01*
X007647Y012023D01*
X007618Y012046D01*
X007591Y012073D01*
X007568Y012102D01*
X007548Y012133D01*
X007531Y012166D01*
X007517Y012201D01*
X007508Y012237D01*
X007502Y012274D01*
X007500Y012311D01*
D15*
X007856Y012311D03*
X024319Y007587D03*
X024319Y004437D03*
D16*
X010106Y013650D03*
X004476Y007744D03*
X003256Y007547D03*
X001366Y007272D03*
M02*
