G75*
G70*
%OFA0B0*%
%FSLAX24Y24*%
%IPPOS*%
%LPD*%
%AMOC8*
5,1,8,0,0,1.08239X$1,22.5*
%
%ADD10R,0.0394X0.0433*%
%ADD11R,0.0433X0.0394*%
%ADD12R,0.0157X0.0551*%
%ADD13R,0.0177X0.0906*%
%ADD14C,0.0591*%
%ADD15C,0.0157*%
%ADD16C,0.0197*%
%ADD17C,0.0236*%
%ADD18C,0.0067*%
%ADD19C,0.0217*%
%ADD20C,0.0059*%
%ADD21C,0.0098*%
%ADD22C,0.0160*%
%ADD23C,0.0354*%
%ADD24C,0.0472*%
%ADD25C,0.0120*%
%ADD26C,0.0240*%
%ADD27C,0.0079*%
%ADD28C,0.0276*%
D10*
X008768Y005299D03*
X008768Y005969D03*
X015854Y003366D03*
X015854Y002697D03*
X019681Y005102D03*
X019681Y005772D03*
X019681Y006992D03*
X019681Y007661D03*
X020126Y010008D03*
X020126Y010677D03*
X022413Y010677D03*
X023248Y010677D03*
X023248Y010008D03*
X022413Y010008D03*
D11*
X021604Y010009D03*
X020865Y010008D03*
X020865Y010677D03*
X021604Y010678D03*
X015803Y009807D03*
X015134Y009807D03*
X013155Y010035D03*
X013155Y010704D03*
X019417Y004236D03*
X020087Y004236D03*
X017772Y003335D03*
X017102Y003335D03*
X014464Y003342D03*
X013498Y003383D03*
X013498Y002713D03*
X014464Y002672D03*
D12*
X014524Y004404D03*
X014780Y004404D03*
X015035Y004404D03*
X015291Y004404D03*
X015547Y004404D03*
X015803Y004404D03*
X016059Y004404D03*
X016315Y004404D03*
X016571Y004404D03*
X016827Y004404D03*
X017083Y004404D03*
X017339Y004404D03*
X017594Y004404D03*
X017850Y004404D03*
X018106Y004404D03*
X018362Y004404D03*
X018618Y004404D03*
X014268Y004404D03*
X014012Y004404D03*
X013756Y004404D03*
X013500Y004404D03*
X013244Y004404D03*
X012988Y004404D03*
X012732Y004404D03*
X012476Y004404D03*
X012220Y004404D03*
X011965Y004404D03*
X011709Y004404D03*
X011453Y004404D03*
X011197Y004404D03*
X010941Y004404D03*
X010685Y004404D03*
X010429Y004404D03*
X010429Y009069D03*
X010685Y009069D03*
X010941Y009069D03*
X011197Y009069D03*
X011453Y009069D03*
X011709Y009069D03*
X011965Y009069D03*
X012220Y009069D03*
X012476Y009069D03*
X012732Y009069D03*
X012988Y009069D03*
X013244Y009069D03*
X013500Y009069D03*
X013756Y009069D03*
X014012Y009069D03*
X014268Y009069D03*
X014524Y009069D03*
X014780Y009069D03*
X015035Y009069D03*
X015291Y009069D03*
X015547Y009069D03*
X015803Y009069D03*
X016059Y009069D03*
X016315Y009069D03*
X016571Y009069D03*
X016827Y009069D03*
X017083Y009069D03*
X017339Y009069D03*
X017594Y009069D03*
X017850Y009069D03*
X018106Y009069D03*
X018362Y009069D03*
X018618Y009069D03*
D13*
X018591Y001051D03*
X018827Y001051D03*
X019063Y001051D03*
X019299Y001051D03*
X019535Y001051D03*
X019772Y001051D03*
X020008Y001051D03*
X020244Y001051D03*
X020480Y001051D03*
X020717Y001051D03*
X020953Y001051D03*
X021189Y001051D03*
X021425Y001051D03*
X021661Y001051D03*
X021898Y001051D03*
X022134Y001051D03*
X022370Y001051D03*
X022606Y001051D03*
X022843Y001051D03*
X023079Y001051D03*
X023315Y001051D03*
X023551Y001051D03*
X023787Y001051D03*
X024024Y001051D03*
X024260Y001051D03*
X024496Y001051D03*
X024732Y001051D03*
X024969Y001051D03*
X025205Y001051D03*
X025441Y001051D03*
X025677Y001051D03*
X025913Y001051D03*
X026150Y001051D03*
X018354Y001051D03*
X018118Y001051D03*
X017882Y001051D03*
X017646Y001051D03*
X017409Y001051D03*
X017173Y001051D03*
X016937Y001051D03*
X016701Y001051D03*
X016465Y001051D03*
X016228Y001051D03*
X015992Y001051D03*
X015756Y001051D03*
X015520Y001051D03*
X015283Y001051D03*
X015047Y001051D03*
X014811Y001051D03*
X014575Y001051D03*
X014339Y001051D03*
X014102Y001051D03*
X013866Y001051D03*
X013630Y001051D03*
X013394Y001051D03*
X013157Y001051D03*
X012921Y001051D03*
X012685Y001051D03*
X012449Y001051D03*
X012213Y001051D03*
X011976Y001051D03*
X011740Y001051D03*
X011504Y001051D03*
X011268Y001051D03*
X011031Y001051D03*
X010795Y001051D03*
X010559Y001051D03*
X010323Y001051D03*
X010087Y001051D03*
X009850Y001051D03*
X009614Y001051D03*
X009378Y001051D03*
X009142Y001051D03*
X008906Y001051D03*
X008669Y001051D03*
X008433Y001051D03*
X008197Y001051D03*
X007961Y001051D03*
X007724Y001051D03*
X007488Y001051D03*
X005835Y001051D03*
X005598Y001051D03*
X005362Y001051D03*
X005126Y001051D03*
X004890Y001051D03*
X004654Y001051D03*
X004417Y001051D03*
X004181Y001051D03*
X003945Y001051D03*
X003709Y001051D03*
X003472Y001051D03*
X003236Y001051D03*
X003000Y001051D03*
X002764Y001051D03*
X002528Y001051D03*
X002291Y001051D03*
X002055Y001051D03*
X001819Y001051D03*
X001583Y001051D03*
X001346Y001051D03*
D14*
X007856Y012311D03*
X024319Y007587D03*
X024319Y004437D03*
D15*
X015035Y009069D02*
X015035Y009807D01*
D16*
X015134Y009807D01*
X015203Y009891D01*
D17*
X017177Y010539D03*
X018453Y011209D03*
X019094Y010626D03*
X018965Y009831D03*
X018972Y009098D03*
X019169Y008783D03*
X019307Y008429D03*
X018618Y008311D03*
X018264Y008508D03*
X018559Y007957D03*
X018215Y007848D03*
X018303Y007465D03*
X017083Y007602D03*
X016768Y007406D03*
X016453Y007209D03*
X015961Y007209D03*
X015902Y007593D03*
X015547Y007602D03*
X015252Y007386D03*
X014917Y007228D03*
X014671Y006972D03*
X014307Y006913D03*
X014248Y006559D03*
X013874Y006559D03*
X013264Y005713D03*
X012929Y005594D03*
X014642Y005555D03*
X015449Y005240D03*
X015823Y005673D03*
X016138Y005880D03*
X016433Y005654D03*
X016728Y005870D03*
X017043Y005673D03*
X017043Y006224D03*
X018165Y005713D03*
X018461Y005909D03*
X018579Y005358D03*
X016118Y007878D03*
X016463Y007986D03*
X014228Y008528D03*
X013854Y008528D03*
X013500Y008587D03*
X013126Y008547D03*
X010854Y009642D03*
X010087Y011012D03*
X008740Y009780D03*
X009075Y007008D03*
X002154Y006996D03*
X001406Y004555D03*
X001799Y001839D03*
X003492Y001878D03*
X014752Y011681D03*
X014201Y012272D03*
X017193Y011602D03*
X017547Y012823D03*
X021406Y012823D03*
X022783Y012783D03*
X024043Y012823D03*
X025382Y011563D03*
X025900Y012180D03*
X026360Y012630D03*
X024476Y011248D03*
X023728Y011366D03*
X023217Y011524D03*
X022330Y011560D03*
X021563Y011602D03*
X023760Y009480D03*
X024871Y008729D03*
X025050Y009960D03*
X020854Y009122D03*
X022898Y006598D03*
X025990Y005860D03*
X026570Y006760D03*
X026530Y002820D03*
D18*
X018362Y004404D02*
X018362Y005142D01*
X018579Y005358D01*
X018461Y005634D02*
X017850Y005024D01*
X017850Y004404D01*
X017594Y004404D02*
X017594Y005142D01*
X018165Y005713D01*
X018461Y005634D02*
X018461Y005909D01*
X018224Y006539D02*
X019209Y007524D01*
X019209Y008114D01*
X019307Y008213D01*
X019307Y008429D01*
X019051Y008665D02*
X019169Y008783D01*
X019051Y008665D02*
X019051Y007602D01*
X018146Y006697D01*
X015941Y006697D01*
X015232Y005988D01*
X014209Y005988D01*
X012988Y004768D01*
X012988Y004404D01*
X012732Y004404D02*
X012732Y004748D01*
X014130Y006146D01*
X015154Y006146D01*
X015862Y006854D01*
X018067Y006854D01*
X018894Y007681D01*
X018894Y009020D01*
X018972Y009098D01*
X018362Y009069D02*
X018362Y008774D01*
X018618Y008518D01*
X018618Y008311D01*
X018283Y008232D02*
X017909Y008232D01*
X017594Y008547D01*
X017594Y009069D01*
X017850Y009069D02*
X017850Y008685D01*
X017988Y008547D01*
X018224Y008547D01*
X018264Y008508D01*
X018283Y008232D02*
X018559Y007957D01*
X018215Y007848D02*
X017939Y007848D01*
X017083Y008705D01*
X017083Y009069D01*
X016827Y009069D02*
X016827Y008724D01*
X018087Y007465D01*
X018303Y007465D01*
X017083Y007602D02*
X017083Y008232D01*
X016669Y008646D01*
X016394Y008646D01*
X016315Y008724D01*
X016276Y008488D02*
X016059Y008705D01*
X016059Y009069D01*
X015547Y009069D02*
X015547Y008626D01*
X015843Y008331D01*
X016512Y008331D01*
X016728Y008114D01*
X016728Y007839D01*
X016453Y007563D01*
X016453Y007209D01*
X016768Y007406D02*
X016768Y007661D01*
X016886Y007780D01*
X016886Y008193D01*
X016591Y008488D01*
X016276Y008488D01*
X016276Y008173D02*
X016463Y007986D01*
X016276Y008173D02*
X015173Y008173D01*
X015114Y008114D01*
X012949Y008114D01*
X012476Y008587D01*
X012083Y008587D01*
X011965Y008705D01*
X011965Y009069D01*
X012220Y009069D02*
X012220Y011122D01*
X012484Y011386D01*
X017551Y011386D01*
X018657Y010280D01*
X018657Y010142D01*
X018303Y010004D02*
X018303Y010370D01*
X017425Y011248D01*
X012583Y011248D01*
X012476Y011142D01*
X012476Y009069D01*
X012988Y009069D02*
X012988Y008793D01*
X012870Y008675D01*
X012870Y008429D01*
X013028Y008272D01*
X013598Y008272D01*
X013854Y008528D01*
X014228Y008528D02*
X014622Y008528D01*
X014780Y008685D01*
X014780Y009069D01*
X014268Y009069D02*
X014268Y009709D01*
X015098Y010539D01*
X017177Y010539D01*
X017622Y010811D02*
X017831Y010602D01*
X017831Y009925D01*
X017535Y009630D01*
X017535Y009571D01*
X017890Y009591D02*
X018303Y010004D01*
X020126Y010008D02*
X020865Y010008D01*
X021602Y010007D02*
X021602Y009476D01*
X021602Y010007D02*
X021604Y010009D01*
X022412Y010009D01*
X022413Y010008D01*
X023248Y010008D01*
X023386Y010539D02*
X023650Y010539D01*
X024122Y010067D01*
X024122Y009122D01*
X024515Y008729D01*
X024871Y008729D01*
X023386Y010539D02*
X023248Y010677D01*
X022413Y010677D02*
X021605Y010677D01*
X021604Y010678D01*
X020866Y010678D01*
X020865Y010677D01*
X020126Y010677D01*
X016118Y007878D02*
X015980Y008016D01*
X015252Y008016D01*
X015193Y007957D01*
X012870Y007957D01*
X012398Y008429D01*
X011925Y008429D01*
X011709Y008646D01*
X011709Y009069D01*
X011453Y009069D02*
X011453Y008665D01*
X011846Y008272D01*
X012319Y008272D01*
X012791Y007799D01*
X015272Y007799D01*
X015331Y007858D01*
X015685Y007858D01*
X015902Y007642D01*
X015902Y007593D01*
X015547Y007602D02*
X015508Y007642D01*
X012713Y007642D01*
X012240Y008114D01*
X011768Y008114D01*
X011197Y008685D01*
X011197Y009069D01*
X010941Y009069D02*
X010941Y008705D01*
X011689Y007957D01*
X012161Y007957D01*
X012634Y007484D01*
X015154Y007484D01*
X015252Y007386D01*
X014917Y007228D02*
X014819Y007327D01*
X012555Y007327D01*
X012083Y007799D01*
X011610Y007799D01*
X010685Y008724D01*
X010685Y009069D01*
X010429Y009069D02*
X009719Y009780D01*
X009800Y009861D01*
X010635Y009861D01*
X010854Y009642D01*
X010087Y010148D02*
X010087Y011012D01*
X010087Y010148D02*
X009800Y009861D01*
X009719Y009780D02*
X008740Y009780D01*
X013067Y007169D02*
X014474Y007169D01*
X014671Y006972D01*
X014307Y006913D02*
X014248Y006972D01*
X013106Y006972D01*
X010941Y004807D01*
X010941Y004404D01*
X011197Y004404D02*
X011197Y004827D01*
X013185Y006815D01*
X013992Y006815D01*
X014248Y006559D01*
X013874Y006559D02*
X013776Y006461D01*
X013067Y006461D01*
X011453Y004846D01*
X011453Y004404D01*
X011709Y004404D02*
X011709Y004866D01*
X013146Y006303D01*
X015055Y006303D01*
X015961Y007209D01*
X016020Y006539D02*
X018224Y006539D01*
X017043Y006224D02*
X015941Y006224D01*
X014996Y005280D01*
X014248Y005280D01*
X013776Y004807D01*
X013776Y004423D01*
X013500Y004404D02*
X013500Y004807D01*
X014248Y005555D01*
X014642Y005555D01*
X014287Y005831D02*
X015311Y005831D01*
X016020Y006539D01*
X016138Y005880D02*
X016138Y004965D01*
X016059Y004886D01*
X016059Y004404D01*
X016315Y004404D02*
X016315Y004866D01*
X016433Y004984D01*
X016433Y005654D01*
X016728Y005870D02*
X016728Y005240D01*
X016827Y005142D01*
X016827Y004404D01*
X017083Y004404D02*
X017083Y005201D01*
X017043Y005240D01*
X017043Y005673D01*
X015823Y005673D02*
X015823Y005083D01*
X015547Y004807D01*
X015547Y004404D01*
X014780Y004404D02*
X014780Y004787D01*
X015232Y005240D01*
X015449Y005240D01*
X014287Y005831D02*
X013244Y004787D01*
X013244Y004404D01*
X012713Y005240D02*
X012220Y004748D01*
X012220Y004404D01*
X011965Y004404D02*
X011965Y004807D01*
X012752Y005594D01*
X012929Y005594D01*
X013264Y005516D02*
X013264Y005713D01*
X013264Y005516D02*
X012988Y005240D01*
X012713Y005240D01*
X014268Y004404D02*
X014268Y003941D01*
X010618Y003941D01*
X010685Y004404D02*
X010685Y004787D01*
X013067Y007169D01*
X010429Y005594D02*
X010031Y005993D01*
X008792Y005993D01*
X008768Y005969D01*
X010429Y005594D02*
X010429Y004404D01*
X013244Y009069D02*
X013244Y009946D01*
X013155Y010035D01*
X013551Y009563D02*
X013551Y010555D01*
X013402Y010704D01*
X013155Y010704D01*
X013756Y010469D02*
X014098Y010811D01*
X013756Y010469D02*
X013756Y009069D01*
X013500Y009069D02*
X013500Y009512D01*
X013551Y009563D01*
X015618Y013689D02*
X015657Y013728D01*
X023453Y013728D01*
D19*
X001051Y000894D03*
X003177Y002232D03*
X003689Y002587D03*
X003374Y002862D03*
X003453Y003177D03*
X003965Y001839D03*
X004437Y001839D03*
X004870Y001878D03*
X005382Y001878D03*
X005854Y001878D03*
X006327Y001839D03*
X007705Y001878D03*
X008217Y001799D03*
X008650Y001720D03*
X009161Y001878D03*
X009398Y002154D03*
X009594Y001878D03*
X010106Y001878D03*
X011996Y002587D03*
X011917Y002862D03*
X011996Y003138D03*
X011327Y003413D03*
X011551Y003693D03*
X012429Y002547D03*
X012941Y002469D03*
X015043Y001686D03*
X015185Y003059D03*
X017390Y002705D03*
X017508Y002311D03*
X017902Y002154D03*
X018571Y003413D03*
X019043Y003531D03*
X019004Y004713D03*
X020697Y004791D03*
X021248Y005579D03*
X020303Y005736D03*
X020378Y006984D03*
X020224Y007665D03*
X019909Y009398D03*
X021602Y009476D03*
X017890Y009591D03*
X017535Y009571D03*
X017587Y010067D03*
X017193Y009949D03*
X015736Y010303D03*
X015657Y010815D03*
X013020Y011957D03*
X012469Y011799D03*
X014752Y013177D03*
X014319Y013492D03*
X014083Y013886D03*
X015382Y012783D03*
X019319Y011957D03*
X012390Y007114D03*
X012311Y006720D03*
X010618Y006799D03*
X010264Y006524D03*
X009988Y006720D03*
X009752Y006484D03*
X010453Y005957D03*
X010618Y005717D03*
X009870Y005382D03*
X007114Y006996D03*
X006209Y006524D03*
X005638Y006496D03*
X004378Y005374D03*
X004390Y004571D03*
X008768Y003413D03*
X009831Y003413D03*
X010224Y007390D03*
X009909Y007469D03*
X010539Y007508D03*
X010697Y007744D03*
X010343Y008138D03*
X006012Y008886D03*
X005539Y009358D03*
X009594Y012941D03*
X019870Y001878D03*
D20*
X015854Y001878D01*
X014949Y002783D01*
X014949Y003559D01*
X015098Y003709D01*
X015264Y003709D01*
X014984Y003988D01*
X015035Y004039D01*
X015035Y004404D01*
X014984Y003988D02*
X014937Y003941D01*
X014268Y003941D01*
X014375Y003762D02*
X014898Y003762D01*
X014875Y003738D01*
X014875Y003738D01*
X014783Y003647D01*
X014742Y003688D01*
X014185Y003688D01*
X014098Y003601D01*
X014098Y003229D01*
X013910Y003041D01*
X013853Y002984D01*
X013777Y003060D01*
X013220Y003060D01*
X013132Y002972D01*
X013132Y002892D01*
X013112Y002892D01*
X013007Y002788D01*
X012946Y002726D01*
X012890Y002726D01*
X012795Y002687D01*
X012722Y002615D01*
X012687Y002529D01*
X012687Y002599D01*
X012648Y002693D01*
X012575Y002766D01*
X012480Y002805D01*
X012378Y002805D01*
X012283Y002766D01*
X012225Y002708D01*
X012215Y002733D01*
X012164Y002783D01*
X012175Y002811D01*
X012175Y002913D01*
X012164Y002941D01*
X012215Y002992D01*
X012254Y003087D01*
X012254Y003189D01*
X012215Y003284D01*
X012142Y003356D01*
X012047Y003396D01*
X011945Y003396D01*
X011850Y003356D01*
X011811Y003317D01*
X010070Y003317D01*
X010089Y003362D01*
X010089Y003465D01*
X010049Y003559D01*
X009977Y003632D01*
X009882Y003671D01*
X009779Y003671D01*
X009685Y003632D01*
X009612Y003559D01*
X009573Y003465D01*
X009573Y003362D01*
X009592Y003317D01*
X003674Y003317D01*
X003671Y003323D01*
X003599Y003396D01*
X003504Y003435D01*
X003401Y003435D01*
X003307Y003396D01*
X003234Y003323D01*
X003195Y003228D01*
X003195Y003126D01*
X003218Y003071D01*
X003155Y003008D01*
X003116Y002913D01*
X003116Y002811D01*
X003155Y002716D01*
X003228Y002644D01*
X003323Y002604D01*
X003425Y002604D01*
X003431Y002607D01*
X003431Y002535D01*
X003434Y002529D01*
X003221Y002529D01*
X003182Y002490D01*
X003126Y002490D01*
X003053Y002460D01*
X003053Y004010D01*
X004039Y004996D01*
X004114Y005072D01*
X004155Y005171D01*
X004155Y005238D01*
X004159Y005228D01*
X004232Y005155D01*
X004327Y005116D01*
X004429Y005116D01*
X004524Y005155D01*
X004596Y005228D01*
X004636Y005323D01*
X004636Y005425D01*
X004596Y005520D01*
X004524Y005593D01*
X004429Y005632D01*
X004327Y005632D01*
X004232Y005593D01*
X004159Y005520D01*
X004155Y005510D01*
X004155Y006806D01*
X004629Y007279D01*
X004705Y007355D01*
X004746Y007454D01*
X004746Y007468D01*
X004803Y007526D01*
X004862Y007667D01*
X004862Y007821D01*
X004803Y007963D01*
X004695Y008071D01*
X004553Y008130D01*
X004400Y008130D01*
X004258Y008071D01*
X004149Y007963D01*
X004091Y007821D01*
X004091Y007667D01*
X004139Y007551D01*
X003657Y007070D01*
X003616Y006971D01*
X003616Y005336D01*
X002555Y004275D01*
X002514Y004176D01*
X002514Y002017D01*
X002423Y002108D01*
X002423Y005467D01*
X003409Y006453D01*
X003484Y006528D01*
X003525Y006627D01*
X003525Y007271D01*
X003583Y007329D01*
X003642Y007471D01*
X003642Y007624D01*
X003583Y007766D01*
X003474Y007874D01*
X003333Y007933D01*
X003179Y007933D01*
X003037Y007874D01*
X002929Y007766D01*
X002870Y007624D01*
X002870Y007471D01*
X002929Y007329D01*
X002986Y007271D01*
X002986Y006793D01*
X002001Y005807D01*
X001925Y005731D01*
X001884Y005632D01*
X001884Y002093D01*
X001852Y002106D01*
X001746Y002106D01*
X001648Y002065D01*
X001572Y001990D01*
X001532Y001892D01*
X001532Y001785D01*
X001546Y001750D01*
X000650Y001750D01*
X000650Y007437D01*
X000665Y007437D01*
X000976Y007550D01*
X001229Y007762D01*
X001229Y007762D01*
X001229Y007762D01*
X001394Y008049D01*
X001451Y008374D01*
X001394Y008699D01*
X001394Y008699D01*
X001229Y008986D01*
X000976Y009198D01*
X000976Y009198D01*
X000665Y009311D01*
X000650Y009311D01*
X000650Y014130D01*
X027000Y014130D01*
X027000Y009311D01*
X026949Y009311D01*
X026638Y009198D01*
X026385Y008986D01*
X026385Y008986D01*
X026385Y008986D01*
X026220Y008699D01*
X026163Y008374D01*
X026220Y008049D01*
X026220Y008049D01*
X026385Y007762D01*
X026638Y007550D01*
X026638Y007550D01*
X026949Y007437D01*
X026965Y007437D01*
X026965Y001750D01*
X026379Y001750D01*
X026379Y002347D01*
X025472Y003254D01*
X025472Y003321D01*
X025423Y003441D01*
X025331Y003533D01*
X025211Y003583D01*
X025081Y003583D01*
X024961Y003533D01*
X024869Y003441D01*
X024819Y003321D01*
X024819Y003191D01*
X024869Y003071D01*
X024961Y002979D01*
X025081Y002929D01*
X025148Y002929D01*
X025920Y002157D01*
X025920Y001750D01*
X020096Y001750D01*
X020128Y001827D01*
X020128Y001929D01*
X020089Y002024D01*
X020016Y002096D01*
X019921Y002136D01*
X019819Y002136D01*
X019724Y002096D01*
X019685Y002057D01*
X018141Y002057D01*
X018159Y002102D01*
X018159Y002205D01*
X018120Y002300D01*
X018048Y002372D01*
X017953Y002411D01*
X017850Y002411D01*
X017756Y002372D01*
X017683Y002300D01*
X017664Y002254D01*
X015968Y002254D01*
X015771Y002451D01*
X015825Y002451D01*
X015825Y002667D01*
X015884Y002667D01*
X015884Y002451D01*
X016057Y002451D01*
X016068Y002455D01*
X016076Y002464D01*
X016081Y002474D01*
X016081Y002667D01*
X015884Y002667D01*
X015884Y002726D01*
X016081Y002726D01*
X016081Y002919D01*
X016076Y002930D01*
X016068Y002938D01*
X016057Y002943D01*
X015884Y002943D01*
X015884Y002726D01*
X015825Y002726D01*
X015825Y002667D01*
X015628Y002667D01*
X015628Y002594D01*
X015364Y002858D01*
X015364Y002874D01*
X015404Y002913D01*
X015443Y003008D01*
X015443Y003110D01*
X015404Y003205D01*
X015331Y003278D01*
X015236Y003317D01*
X015134Y003317D01*
X015128Y003314D01*
X015128Y003485D01*
X015173Y003530D01*
X015190Y003530D01*
X015508Y003211D01*
X015508Y003088D01*
X015596Y003000D01*
X016113Y003000D01*
X016201Y003088D01*
X016201Y003645D01*
X016113Y003732D01*
X015596Y003732D01*
X015545Y003681D01*
X015443Y003783D01*
X015338Y003888D01*
X015247Y003978D01*
X015688Y003978D01*
X015776Y004066D01*
X015776Y004098D01*
X015793Y004098D01*
X015793Y004394D01*
X015813Y004394D01*
X015813Y004098D01*
X015831Y004098D01*
X015831Y004066D01*
X015918Y003978D01*
X016392Y003978D01*
X016392Y003792D01*
X016736Y003447D01*
X016736Y003076D01*
X016824Y002988D01*
X016935Y002988D01*
X016935Y002906D01*
X017040Y002801D01*
X017132Y002709D01*
X017132Y002653D01*
X017171Y002559D01*
X017244Y002486D01*
X017338Y002447D01*
X017441Y002447D01*
X017536Y002486D01*
X017608Y002559D01*
X017648Y002653D01*
X017648Y002756D01*
X017608Y002851D01*
X017536Y002923D01*
X017441Y002963D01*
X017385Y002963D01*
X017359Y002988D01*
X017381Y002988D01*
X017468Y003076D01*
X017468Y003593D01*
X017381Y003681D01*
X017009Y003681D01*
X016750Y003940D01*
X016750Y003978D01*
X017223Y003978D01*
X017311Y004066D01*
X017311Y004098D01*
X017329Y004098D01*
X017329Y004394D01*
X017348Y004394D01*
X017348Y004098D01*
X017366Y004098D01*
X017366Y004066D01*
X017454Y003978D01*
X017917Y003978D01*
X017917Y003953D01*
X018071Y003800D01*
X018182Y003689D01*
X018633Y003689D01*
X018786Y003536D01*
X018786Y003480D01*
X018825Y003385D01*
X018897Y003313D01*
X018992Y003274D01*
X019095Y003274D01*
X019189Y003313D01*
X019240Y003364D01*
X019322Y003282D01*
X019972Y002633D01*
X020346Y002633D01*
X020394Y002585D01*
X020514Y002536D01*
X020644Y002536D01*
X020764Y002585D01*
X020856Y002677D01*
X020905Y002797D01*
X020905Y002927D01*
X020856Y003047D01*
X020764Y003139D01*
X020644Y003189D01*
X020514Y003189D01*
X020394Y003139D01*
X020346Y003092D01*
X020162Y003092D01*
X019647Y003607D01*
X019647Y003890D01*
X019696Y003890D01*
X019783Y003977D01*
X019783Y004495D01*
X019696Y004583D01*
X019442Y004583D01*
X019596Y004736D01*
X019940Y004736D01*
X020027Y004824D01*
X020027Y005381D01*
X019940Y005468D01*
X019422Y005468D01*
X019335Y005381D01*
X019335Y005281D01*
X019145Y005281D01*
X019122Y005304D01*
X019122Y006579D01*
X019333Y006791D01*
X019335Y006791D01*
X019335Y006714D01*
X019422Y006626D01*
X019940Y006626D01*
X020027Y006714D01*
X020027Y006805D01*
X020192Y006805D01*
X020232Y006766D01*
X020327Y006726D01*
X020429Y006726D01*
X020524Y006766D01*
X020596Y006838D01*
X020636Y006933D01*
X020636Y007036D01*
X020596Y007130D01*
X020524Y007203D01*
X020429Y007242D01*
X020327Y007242D01*
X020232Y007203D01*
X020192Y007163D01*
X020027Y007163D01*
X020027Y007271D01*
X019940Y007358D01*
X019422Y007358D01*
X019335Y007271D01*
X019335Y007169D01*
X019249Y007166D01*
X019174Y007166D01*
X019171Y007163D01*
X019167Y007163D01*
X019116Y007108D01*
X018855Y006846D01*
X018744Y006736D01*
X018744Y005571D01*
X018730Y005585D01*
X018644Y005621D01*
X018644Y005714D01*
X018688Y005758D01*
X018728Y005856D01*
X018728Y005963D01*
X018688Y006061D01*
X018612Y006136D01*
X018514Y006177D01*
X018407Y006177D01*
X018309Y006136D01*
X018234Y006061D01*
X018200Y005980D01*
X018112Y005980D01*
X018014Y005939D01*
X017938Y005864D01*
X017898Y005766D01*
X017898Y005704D01*
X017519Y005325D01*
X017411Y005218D01*
X017411Y004786D01*
X017366Y004741D01*
X017366Y004709D01*
X017348Y004709D01*
X017348Y004413D01*
X017329Y004413D01*
X017329Y004709D01*
X017311Y004709D01*
X017311Y004741D01*
X017266Y004786D01*
X017266Y005277D01*
X017226Y005316D01*
X017226Y005478D01*
X017270Y005522D01*
X017311Y005620D01*
X017311Y005726D01*
X017270Y005825D01*
X017195Y005900D01*
X017097Y005941D01*
X016990Y005941D01*
X016989Y005940D01*
X016980Y005961D01*
X016990Y005957D01*
X017097Y005957D01*
X017195Y005998D01*
X017270Y006073D01*
X017311Y006171D01*
X017311Y006278D01*
X017278Y006356D01*
X018300Y006356D01*
X019284Y007341D01*
X019392Y007448D01*
X019392Y008038D01*
X019490Y008137D01*
X019490Y008234D01*
X019534Y008278D01*
X019575Y008376D01*
X019575Y008482D01*
X019534Y008581D01*
X019459Y008656D01*
X019414Y008675D01*
X019437Y008730D01*
X019437Y008837D01*
X019396Y008935D01*
X019321Y009010D01*
X019240Y009044D01*
X019240Y009045D01*
X019240Y009152D01*
X019199Y009250D01*
X019124Y009325D01*
X019026Y009366D01*
X018919Y009366D01*
X018821Y009325D01*
X018746Y009250D01*
X018726Y009204D01*
X018726Y009350D01*
X018722Y009361D01*
X018714Y009370D01*
X018703Y009374D01*
X018628Y009374D01*
X018628Y009079D01*
X018608Y009079D01*
X018608Y009374D01*
X018590Y009374D01*
X018590Y009406D01*
X018503Y009494D01*
X018222Y009494D01*
X018134Y009406D01*
X018134Y009374D01*
X018116Y009374D01*
X018116Y009079D01*
X018096Y009079D01*
X018096Y009374D01*
X018079Y009374D01*
X018079Y009406D01*
X018074Y009411D01*
X018108Y009445D01*
X018148Y009539D01*
X018148Y009590D01*
X018379Y009821D01*
X018475Y009917D01*
X018495Y009898D01*
X018600Y009854D01*
X018697Y009854D01*
X018697Y009777D01*
X018738Y009679D01*
X018813Y009604D01*
X018911Y009563D01*
X019018Y009563D01*
X019116Y009604D01*
X019191Y009679D01*
X019232Y009777D01*
X019232Y009884D01*
X019191Y009982D01*
X019116Y010058D01*
X019018Y010098D01*
X018945Y010098D01*
X018945Y010199D01*
X018901Y010304D01*
X018820Y010385D01*
X018804Y010392D01*
X017772Y011423D01*
X018289Y011423D01*
X018226Y011360D01*
X018185Y011262D01*
X018185Y011155D01*
X018226Y011057D01*
X018301Y010982D01*
X018400Y010941D01*
X018506Y010941D01*
X018604Y010982D01*
X018680Y011057D01*
X018720Y011155D01*
X018720Y011262D01*
X018680Y011360D01*
X018617Y011423D01*
X021364Y011423D01*
X021411Y011375D01*
X021510Y011335D01*
X021616Y011335D01*
X021715Y011375D01*
X021790Y011451D01*
X021831Y011549D01*
X021831Y011656D01*
X021790Y011754D01*
X021715Y011829D01*
X021616Y011870D01*
X021510Y011870D01*
X021411Y011829D01*
X021364Y011781D01*
X019508Y011781D01*
X019537Y011811D01*
X019577Y011905D01*
X019577Y012008D01*
X019537Y012103D01*
X019465Y012175D01*
X019370Y012214D01*
X019268Y012214D01*
X019173Y012175D01*
X019100Y012103D01*
X019061Y012008D01*
X019061Y011905D01*
X019100Y011811D01*
X019130Y011781D01*
X017392Y011781D01*
X017345Y011829D01*
X017246Y011870D01*
X017140Y011870D01*
X017041Y011829D01*
X016966Y011754D01*
X016925Y011656D01*
X016925Y011569D01*
X014995Y011569D01*
X015020Y011628D01*
X015020Y011734D01*
X014979Y011833D01*
X014931Y011881D01*
X014931Y012512D01*
X015132Y012713D01*
X015163Y012637D01*
X015236Y012565D01*
X015331Y012526D01*
X015433Y012526D01*
X015528Y012565D01*
X015600Y012637D01*
X015640Y012732D01*
X015640Y012835D01*
X015600Y012929D01*
X015528Y013002D01*
X015452Y013033D01*
X015653Y013234D01*
X022079Y013234D01*
X022516Y012798D01*
X022516Y012730D01*
X022557Y012632D01*
X022632Y012557D01*
X022730Y012516D01*
X022827Y012516D01*
X023241Y012102D01*
X023352Y011991D01*
X025710Y011991D01*
X025748Y011953D01*
X025847Y011912D01*
X025953Y011912D01*
X026052Y011953D01*
X026127Y012028D01*
X026168Y012127D01*
X026168Y012233D01*
X026127Y012332D01*
X026052Y012407D01*
X025953Y012448D01*
X025847Y012448D01*
X025748Y012407D01*
X025710Y012369D01*
X023508Y012369D01*
X023051Y012826D01*
X023051Y012837D01*
X023010Y012935D01*
X022935Y013010D01*
X022837Y013051D01*
X022769Y013051D01*
X022275Y013545D01*
X023383Y013545D01*
X023864Y013064D01*
X023864Y013022D01*
X023816Y012974D01*
X023776Y012876D01*
X023776Y012770D01*
X023816Y012671D01*
X023892Y012596D01*
X023990Y012555D01*
X024097Y012555D01*
X024195Y012596D01*
X024233Y012634D01*
X026089Y012634D01*
X026092Y012630D01*
X026092Y012577D01*
X026133Y012478D01*
X026208Y012403D01*
X026307Y012362D01*
X026413Y012362D01*
X026512Y012403D01*
X026587Y012478D01*
X026628Y012577D01*
X026628Y012683D01*
X026587Y012782D01*
X026512Y012857D01*
X026413Y012898D01*
X026360Y012898D01*
X026356Y012901D01*
X026245Y013012D01*
X024233Y013012D01*
X024222Y013022D01*
X024222Y013212D01*
X024117Y013317D01*
X023636Y013799D01*
X023636Y013804D01*
X023529Y013911D01*
X015582Y013911D01*
X015474Y013804D01*
X015435Y013765D01*
X015435Y013759D01*
X014979Y013303D01*
X014971Y013323D01*
X014898Y013396D01*
X014803Y013435D01*
X014701Y013435D01*
X014606Y013396D01*
X014533Y013323D01*
X014494Y013228D01*
X014494Y013126D01*
X014533Y013031D01*
X014606Y012959D01*
X014626Y012950D01*
X014215Y012539D01*
X014148Y012539D01*
X014049Y012499D01*
X013974Y012423D01*
X013933Y012325D01*
X013933Y012218D01*
X013974Y012120D01*
X014049Y012045D01*
X014148Y012004D01*
X014254Y012004D01*
X014352Y012045D01*
X014428Y012120D01*
X014468Y012218D01*
X014468Y012286D01*
X014573Y012391D01*
X014573Y011881D01*
X014525Y011833D01*
X014484Y011734D01*
X014484Y011628D01*
X014509Y011569D01*
X012586Y011569D01*
X012615Y011581D01*
X012687Y011653D01*
X012726Y011748D01*
X012726Y011850D01*
X012687Y011945D01*
X012615Y012018D01*
X012575Y012034D01*
X012588Y012047D01*
X012638Y012167D01*
X012638Y012297D01*
X012588Y012417D01*
X012496Y012509D01*
X012376Y012559D01*
X012246Y012559D01*
X012126Y012509D01*
X012034Y012417D01*
X011984Y012297D01*
X011984Y012167D01*
X012034Y012047D01*
X012126Y011955D01*
X012235Y011910D01*
X012211Y011850D01*
X012211Y011748D01*
X012250Y011653D01*
X012322Y011581D01*
X012392Y011552D01*
X012145Y011305D01*
X012037Y011198D01*
X012037Y009494D01*
X010544Y009494D01*
X010457Y009406D01*
X010457Y009374D01*
X010439Y009374D01*
X010439Y009079D01*
X010419Y009079D01*
X010419Y009374D01*
X010345Y009374D01*
X010334Y009370D01*
X010325Y009361D01*
X010321Y009350D01*
X010321Y009079D01*
X010419Y009079D01*
X010419Y009059D01*
X010321Y009059D01*
X010321Y008787D01*
X010325Y008777D01*
X010334Y008768D01*
X010345Y008764D01*
X010419Y008764D01*
X010419Y009059D01*
X010439Y009059D01*
X010439Y008764D01*
X010457Y008764D01*
X010457Y008731D01*
X010502Y008686D01*
X010502Y008649D01*
X011534Y007616D01*
X012007Y007616D01*
X012277Y007346D01*
X012244Y007333D01*
X012171Y007260D01*
X012132Y007165D01*
X012132Y007063D01*
X012171Y006968D01*
X012190Y006949D01*
X012165Y006939D01*
X012092Y006867D01*
X012053Y006772D01*
X012053Y006669D01*
X012092Y006574D01*
X012153Y006514D01*
X010612Y004973D01*
X010612Y005459D01*
X010669Y005459D01*
X010764Y005498D01*
X010837Y005571D01*
X010876Y005665D01*
X010876Y005768D01*
X010837Y005863D01*
X010764Y005935D01*
X010669Y005974D01*
X010567Y005974D01*
X010472Y005935D01*
X010410Y005873D01*
X010214Y006068D01*
X010107Y006176D01*
X009114Y006176D01*
X009114Y006247D01*
X009027Y006335D01*
X008989Y006335D01*
X009866Y007211D01*
X009961Y007211D01*
X010016Y007234D01*
X010078Y007171D01*
X010173Y007132D01*
X010276Y007132D01*
X010370Y007171D01*
X010443Y007244D01*
X010452Y007265D01*
X010488Y007250D01*
X010591Y007250D01*
X010685Y007289D01*
X010758Y007362D01*
X010797Y007457D01*
X010797Y007507D01*
X010843Y007526D01*
X010915Y007598D01*
X010955Y007693D01*
X010955Y007795D01*
X010915Y007890D01*
X010843Y007963D01*
X010748Y008002D01*
X010646Y008002D01*
X010551Y007963D01*
X010478Y007890D01*
X010439Y007795D01*
X010439Y007745D01*
X010393Y007726D01*
X010321Y007654D01*
X010312Y007633D01*
X010276Y007648D01*
X010173Y007648D01*
X010118Y007625D01*
X010055Y007687D01*
X009961Y007726D01*
X009858Y007726D01*
X009763Y007687D01*
X009691Y007615D01*
X009652Y007520D01*
X009652Y007503D01*
X008694Y006545D01*
X008589Y006440D01*
X008589Y006335D01*
X008509Y006335D01*
X008421Y006247D01*
X008421Y005690D01*
X008509Y005602D01*
X009027Y005602D01*
X009114Y005690D01*
X009114Y005810D01*
X009955Y005810D01*
X010246Y005519D01*
X010246Y004786D01*
X010201Y004741D01*
X010201Y004066D01*
X010288Y003978D01*
X010327Y003978D01*
X010435Y003871D01*
X010435Y003865D01*
X010542Y003758D01*
X011299Y003758D01*
X011293Y003744D01*
X011293Y003642D01*
X011333Y003547D01*
X011405Y003474D01*
X011500Y003435D01*
X011602Y003435D01*
X011697Y003474D01*
X011770Y003547D01*
X011809Y003642D01*
X011809Y003744D01*
X011803Y003758D01*
X014164Y003758D01*
X014189Y003732D01*
X014346Y003732D01*
X014375Y003762D01*
X014163Y003666D02*
X011809Y003666D01*
X011809Y003723D02*
X014860Y003723D01*
X014802Y003666D02*
X014765Y003666D01*
X015136Y003493D02*
X015226Y003493D01*
X015284Y003435D02*
X015128Y003435D01*
X015128Y003378D02*
X015341Y003378D01*
X015399Y003320D02*
X015128Y003320D01*
X015346Y003263D02*
X015457Y003263D01*
X015508Y003205D02*
X015404Y003205D01*
X015427Y003148D02*
X015508Y003148D01*
X015508Y003090D02*
X015443Y003090D01*
X015443Y003032D02*
X015563Y003032D01*
X015641Y002938D02*
X015632Y002930D01*
X015628Y002919D01*
X015628Y002726D01*
X015825Y002726D01*
X015825Y002943D01*
X015652Y002943D01*
X015641Y002938D01*
X015628Y002917D02*
X015405Y002917D01*
X015429Y002975D02*
X016935Y002975D01*
X016935Y002917D02*
X016081Y002917D01*
X016081Y002860D02*
X016981Y002860D01*
X017039Y002802D02*
X016081Y002802D01*
X016081Y002745D02*
X017097Y002745D01*
X017132Y002687D02*
X015884Y002687D01*
X015854Y002697D02*
X015854Y002594D01*
X016138Y002311D01*
X017508Y002311D01*
X018374Y003177D01*
X018492Y003177D01*
X018571Y003256D01*
X018571Y003413D01*
X018335Y003650D01*
X017862Y003650D01*
X017862Y003425D01*
X017772Y003335D01*
X017801Y003320D02*
X018890Y003320D01*
X018832Y003378D02*
X018018Y003378D01*
X018018Y003364D02*
X018018Y003537D01*
X018013Y003548D01*
X018005Y003557D01*
X017994Y003561D01*
X017801Y003561D01*
X017801Y003364D01*
X017742Y003364D01*
X017742Y003305D01*
X017526Y003305D01*
X017526Y003132D01*
X017530Y003121D01*
X017538Y003113D01*
X017549Y003108D01*
X017742Y003108D01*
X017742Y003305D01*
X017801Y003305D01*
X017801Y003108D01*
X017994Y003108D01*
X018005Y003113D01*
X018013Y003121D01*
X018018Y003132D01*
X018018Y003305D01*
X017801Y003305D01*
X017801Y003364D01*
X018018Y003364D01*
X018018Y003435D02*
X018804Y003435D01*
X018786Y003493D02*
X018018Y003493D01*
X018011Y003550D02*
X018771Y003550D01*
X018714Y003608D02*
X017454Y003608D01*
X017468Y003550D02*
X017532Y003550D01*
X017530Y003548D02*
X017526Y003537D01*
X017526Y003364D01*
X017742Y003364D01*
X017742Y003561D01*
X017549Y003561D01*
X017538Y003557D01*
X017530Y003548D01*
X017526Y003493D02*
X017468Y003493D01*
X017468Y003435D02*
X017526Y003435D01*
X017526Y003378D02*
X017468Y003378D01*
X017468Y003320D02*
X017742Y003320D01*
X017742Y003263D02*
X017801Y003263D01*
X017801Y003205D02*
X017742Y003205D01*
X017742Y003148D02*
X017801Y003148D01*
X018018Y003148D02*
X019457Y003148D01*
X019399Y003205D02*
X018018Y003205D01*
X018018Y003263D02*
X019342Y003263D01*
X019284Y003320D02*
X019197Y003320D01*
X019043Y003531D02*
X018697Y003878D01*
X018492Y003878D01*
X018656Y003666D02*
X017396Y003666D01*
X017742Y003550D02*
X017801Y003550D01*
X017801Y003493D02*
X017742Y003493D01*
X017742Y003435D02*
X017801Y003435D01*
X017801Y003378D02*
X017742Y003378D01*
X017526Y003263D02*
X017468Y003263D01*
X017468Y003205D02*
X017526Y003205D01*
X017526Y003148D02*
X017468Y003148D01*
X017468Y003090D02*
X019515Y003090D01*
X019572Y003032D02*
X017425Y003032D01*
X017373Y002975D02*
X019630Y002975D01*
X019687Y002917D02*
X017542Y002917D01*
X017599Y002860D02*
X019745Y002860D01*
X019802Y002802D02*
X017628Y002802D01*
X017648Y002745D02*
X019860Y002745D01*
X019917Y002687D02*
X017648Y002687D01*
X017638Y002630D02*
X020349Y002630D01*
X020426Y002572D02*
X017614Y002572D01*
X017564Y002514D02*
X025563Y002514D01*
X025620Y002457D02*
X017465Y002457D01*
X017314Y002457D02*
X016070Y002457D01*
X016081Y002514D02*
X017215Y002514D01*
X017166Y002572D02*
X016081Y002572D01*
X016081Y002630D02*
X017142Y002630D01*
X017040Y002801D02*
X017040Y002801D01*
X017114Y002980D02*
X017114Y003335D01*
X017102Y003335D01*
X016571Y003866D01*
X016571Y004404D01*
X016563Y004411D01*
X016563Y004870D01*
X015876Y004874D02*
X015873Y004874D01*
X015876Y004877D02*
X015876Y004786D01*
X015831Y004741D01*
X015831Y004709D01*
X015813Y004709D01*
X015813Y004413D01*
X015793Y004413D01*
X015793Y004709D01*
X015776Y004709D01*
X015776Y004741D01*
X015758Y004759D01*
X015849Y004759D01*
X015876Y004817D02*
X015816Y004817D01*
X015758Y004759D02*
X015876Y004877D01*
X015813Y004702D02*
X015793Y004702D01*
X015793Y004644D02*
X015813Y004644D01*
X015813Y004586D02*
X015793Y004586D01*
X015793Y004529D02*
X015813Y004529D01*
X015813Y004471D02*
X015793Y004471D01*
X015793Y004414D02*
X015813Y004414D01*
X015803Y004404D02*
X015803Y003976D01*
X015874Y003906D01*
X015992Y003906D01*
X016248Y003650D01*
X016248Y002882D01*
X016051Y002685D01*
X015764Y002685D01*
X015854Y002697D01*
X015825Y002687D02*
X015535Y002687D01*
X015592Y002630D02*
X015628Y002630D01*
X015628Y002745D02*
X015477Y002745D01*
X015420Y002802D02*
X015628Y002802D01*
X015628Y002860D02*
X015364Y002860D01*
X015185Y002783D02*
X015185Y003059D01*
X015185Y002783D02*
X015894Y002075D01*
X017823Y002075D01*
X017902Y002154D01*
X018078Y002342D02*
X025735Y002342D01*
X025678Y002399D02*
X017982Y002399D01*
X017821Y002399D02*
X015822Y002399D01*
X015825Y002457D02*
X015884Y002457D01*
X015884Y002514D02*
X015825Y002514D01*
X015825Y002572D02*
X015884Y002572D01*
X015884Y002630D02*
X015825Y002630D01*
X015825Y002745D02*
X015884Y002745D01*
X015884Y002802D02*
X015825Y002802D01*
X015825Y002860D02*
X015884Y002860D01*
X015884Y002917D02*
X015825Y002917D01*
X016145Y003032D02*
X016780Y003032D01*
X016736Y003090D02*
X016201Y003090D01*
X016201Y003148D02*
X016736Y003148D01*
X016736Y003205D02*
X016201Y003205D01*
X016201Y003263D02*
X016736Y003263D01*
X016736Y003320D02*
X016201Y003320D01*
X016201Y003378D02*
X016736Y003378D01*
X016736Y003435D02*
X016201Y003435D01*
X016201Y003493D02*
X016691Y003493D01*
X016633Y003550D02*
X016201Y003550D01*
X016201Y003608D02*
X016576Y003608D01*
X016518Y003666D02*
X016180Y003666D01*
X016122Y003723D02*
X016461Y003723D01*
X016403Y003781D02*
X015445Y003781D01*
X015387Y003838D02*
X016392Y003838D01*
X016392Y003896D02*
X015330Y003896D01*
X015272Y003953D02*
X016392Y003953D01*
X015886Y004011D02*
X015720Y004011D01*
X015776Y004068D02*
X015831Y004068D01*
X015813Y004126D02*
X015793Y004126D01*
X015793Y004184D02*
X015813Y004184D01*
X015813Y004241D02*
X015793Y004241D01*
X015793Y004299D02*
X015813Y004299D01*
X015813Y004356D02*
X015793Y004356D01*
X015586Y003723D02*
X015503Y003723D01*
X015264Y003709D02*
X015606Y003366D01*
X015854Y003366D01*
X016750Y003953D02*
X017917Y003953D01*
X017975Y003896D02*
X016794Y003896D01*
X016852Y003838D02*
X018032Y003838D01*
X018090Y003781D02*
X016910Y003781D01*
X016967Y003723D02*
X018148Y003723D01*
X017862Y003650D02*
X017764Y003650D01*
X017339Y004075D01*
X017339Y004404D01*
X017348Y004414D02*
X017329Y004414D01*
X017329Y004471D02*
X017348Y004471D01*
X017348Y004529D02*
X017329Y004529D01*
X017329Y004586D02*
X017348Y004586D01*
X017348Y004644D02*
X017329Y004644D01*
X017329Y004702D02*
X017348Y004702D01*
X017384Y004759D02*
X017293Y004759D01*
X017266Y004817D02*
X017411Y004817D01*
X017411Y004874D02*
X017266Y004874D01*
X017266Y004932D02*
X017411Y004932D01*
X017411Y004989D02*
X017266Y004989D01*
X017266Y005047D02*
X017411Y005047D01*
X017411Y005104D02*
X017266Y005104D01*
X017266Y005162D02*
X017411Y005162D01*
X017414Y005220D02*
X017266Y005220D01*
X017265Y005277D02*
X017471Y005277D01*
X017529Y005335D02*
X017226Y005335D01*
X017226Y005392D02*
X017586Y005392D01*
X017644Y005450D02*
X017226Y005450D01*
X017256Y005507D02*
X017701Y005507D01*
X017759Y005565D02*
X017288Y005565D01*
X017311Y005622D02*
X017816Y005622D01*
X017874Y005680D02*
X017311Y005680D01*
X017306Y005738D02*
X017898Y005738D01*
X017910Y005795D02*
X017283Y005795D01*
X017242Y005853D02*
X017934Y005853D01*
X017984Y005910D02*
X017171Y005910D01*
X017123Y005968D02*
X018082Y005968D01*
X018219Y006025D02*
X017223Y006025D01*
X017274Y006083D02*
X018256Y006083D01*
X018319Y006140D02*
X017298Y006140D01*
X017311Y006198D02*
X018744Y006198D01*
X018744Y006256D02*
X017311Y006256D01*
X017296Y006313D02*
X018744Y006313D01*
X018744Y006371D02*
X018314Y006371D01*
X018372Y006428D02*
X018744Y006428D01*
X018744Y006486D02*
X018430Y006486D01*
X018487Y006543D02*
X018744Y006543D01*
X018744Y006601D02*
X018545Y006601D01*
X018602Y006658D02*
X018744Y006658D01*
X018744Y006716D02*
X018660Y006716D01*
X018717Y006774D02*
X018782Y006774D01*
X018775Y006831D02*
X018840Y006831D01*
X018855Y006846D02*
X018855Y006846D01*
X018832Y006889D02*
X018897Y006889D01*
X018890Y006946D02*
X018955Y006946D01*
X018948Y007004D02*
X019012Y007004D01*
X019005Y007061D02*
X019070Y007061D01*
X019063Y007119D02*
X019127Y007119D01*
X019120Y007176D02*
X019335Y007176D01*
X019335Y007234D02*
X019178Y007234D01*
X019235Y007292D02*
X019356Y007292D01*
X019413Y007349D02*
X019293Y007349D01*
X019350Y007407D02*
X023912Y007407D01*
X023888Y007464D02*
X019907Y007464D01*
X019907Y007439D02*
X019907Y007632D01*
X019711Y007632D01*
X019711Y007691D01*
X019907Y007691D01*
X019907Y007884D01*
X019903Y007895D01*
X019895Y007903D01*
X019884Y007907D01*
X019711Y007907D01*
X019711Y007691D01*
X019652Y007691D01*
X019652Y007907D01*
X019478Y007907D01*
X019468Y007903D01*
X019459Y007895D01*
X019455Y007884D01*
X019455Y007691D01*
X019652Y007691D01*
X019652Y007632D01*
X019711Y007632D01*
X019711Y007415D01*
X019884Y007415D01*
X019895Y007420D01*
X019903Y007428D01*
X019907Y007439D01*
X019907Y007522D02*
X023874Y007522D01*
X023874Y007498D02*
X023942Y007335D01*
X024067Y007210D01*
X024230Y007142D01*
X024407Y007142D01*
X024571Y007210D01*
X024696Y007335D01*
X024764Y007498D01*
X024764Y007675D01*
X024696Y007839D01*
X024571Y007964D01*
X024407Y008031D01*
X024230Y008031D01*
X024067Y007964D01*
X023942Y007839D01*
X023874Y007675D01*
X023874Y007498D01*
X023874Y007579D02*
X019907Y007579D01*
X019907Y007694D02*
X023882Y007694D01*
X023874Y007637D02*
X019711Y007637D01*
X019685Y007665D02*
X020224Y007665D01*
X019907Y007752D02*
X023906Y007752D01*
X023930Y007810D02*
X019907Y007810D01*
X019907Y007867D02*
X023970Y007867D01*
X024028Y007925D02*
X019392Y007925D01*
X019392Y007982D02*
X024112Y007982D01*
X024526Y007982D02*
X025281Y007982D01*
X025281Y007925D02*
X024610Y007925D01*
X024667Y007867D02*
X025281Y007867D01*
X025281Y007810D02*
X024708Y007810D01*
X024732Y007752D02*
X025311Y007752D01*
X025281Y007782D02*
X025392Y007671D01*
X026302Y006760D01*
X026302Y006707D01*
X026343Y006608D01*
X026418Y006533D01*
X026517Y006492D01*
X026623Y006492D01*
X026722Y006533D01*
X026797Y006608D01*
X026838Y006707D01*
X026838Y006813D01*
X026797Y006912D01*
X026722Y006987D01*
X026623Y007028D01*
X026570Y007028D01*
X025659Y007938D01*
X025659Y009618D01*
X025548Y009729D01*
X025318Y009960D01*
X025318Y010013D01*
X025277Y010112D01*
X027000Y010112D01*
X027000Y010169D02*
X025219Y010169D01*
X025202Y010187D02*
X025103Y010228D01*
X024997Y010228D01*
X024898Y010187D01*
X024823Y010112D01*
X023594Y010112D01*
X023594Y010169D02*
X024881Y010169D01*
X024823Y010112D02*
X024782Y010013D01*
X024782Y009907D01*
X024823Y009808D01*
X024898Y009733D01*
X024997Y009692D01*
X025050Y009692D01*
X025281Y009462D01*
X025281Y007782D01*
X025368Y007694D02*
X024756Y007694D01*
X024764Y007637D02*
X025426Y007637D01*
X025484Y007579D02*
X024764Y007579D01*
X024764Y007522D02*
X025541Y007522D01*
X025599Y007464D02*
X024750Y007464D01*
X024726Y007407D02*
X025656Y007407D01*
X025714Y007349D02*
X024702Y007349D01*
X024653Y007292D02*
X025771Y007292D01*
X025829Y007234D02*
X024595Y007234D01*
X024491Y007176D02*
X025886Y007176D01*
X025944Y007119D02*
X020601Y007119D01*
X020625Y007061D02*
X026002Y007061D01*
X026059Y007004D02*
X020636Y007004D01*
X020636Y006946D02*
X026117Y006946D01*
X026174Y006889D02*
X020617Y006889D01*
X020589Y006831D02*
X022760Y006831D01*
X022746Y006825D02*
X022671Y006750D01*
X022630Y006652D01*
X022630Y006545D01*
X022671Y006447D01*
X022746Y006372D01*
X022844Y006331D01*
X022951Y006331D01*
X023049Y006372D01*
X023125Y006447D01*
X023165Y006545D01*
X023165Y006652D01*
X023125Y006750D01*
X023049Y006825D01*
X022951Y006866D01*
X022844Y006866D01*
X022746Y006825D01*
X022694Y006774D02*
X020532Y006774D01*
X020378Y006984D02*
X019689Y006984D01*
X019681Y006992D01*
X019335Y006774D02*
X019316Y006774D01*
X019335Y006716D02*
X019259Y006716D01*
X019201Y006658D02*
X019390Y006658D01*
X019144Y006601D02*
X022630Y006601D01*
X022633Y006658D02*
X019972Y006658D01*
X020027Y006716D02*
X022657Y006716D01*
X022631Y006543D02*
X019122Y006543D01*
X019122Y006486D02*
X022655Y006486D01*
X022689Y006428D02*
X019122Y006428D01*
X019122Y006371D02*
X022748Y006371D01*
X023047Y006371D02*
X026965Y006371D01*
X026965Y006428D02*
X023106Y006428D01*
X023141Y006486D02*
X026965Y006486D01*
X026965Y006543D02*
X026732Y006543D01*
X026789Y006601D02*
X026965Y006601D01*
X026965Y006658D02*
X026818Y006658D01*
X026838Y006716D02*
X026965Y006716D01*
X026965Y006774D02*
X026838Y006774D01*
X026830Y006831D02*
X026965Y006831D01*
X026965Y006889D02*
X026806Y006889D01*
X026762Y006946D02*
X026965Y006946D01*
X026965Y007004D02*
X026681Y007004D01*
X026536Y007061D02*
X026965Y007061D01*
X026965Y007119D02*
X026478Y007119D01*
X026421Y007176D02*
X026965Y007176D01*
X026965Y007234D02*
X026363Y007234D01*
X026306Y007292D02*
X026965Y007292D01*
X026965Y007349D02*
X026248Y007349D01*
X026190Y007407D02*
X026965Y007407D01*
X026874Y007464D02*
X026133Y007464D01*
X026075Y007522D02*
X026716Y007522D01*
X026604Y007579D02*
X026018Y007579D01*
X025960Y007637D02*
X026535Y007637D01*
X026466Y007694D02*
X025903Y007694D01*
X025845Y007752D02*
X026398Y007752D01*
X026385Y007762D02*
X026385Y007762D01*
X026358Y007810D02*
X025788Y007810D01*
X025730Y007867D02*
X026325Y007867D01*
X026292Y007925D02*
X025672Y007925D01*
X025659Y007982D02*
X026259Y007982D01*
X026225Y008040D02*
X025659Y008040D01*
X025659Y008097D02*
X026212Y008097D01*
X026201Y008155D02*
X025659Y008155D01*
X025659Y008212D02*
X026191Y008212D01*
X026181Y008270D02*
X025659Y008270D01*
X025659Y008328D02*
X026171Y008328D01*
X026163Y008374D02*
X026163Y008374D01*
X026165Y008385D02*
X025659Y008385D01*
X025659Y008443D02*
X026175Y008443D01*
X026185Y008500D02*
X025659Y008500D01*
X025659Y008558D02*
X026195Y008558D01*
X026205Y008615D02*
X025659Y008615D01*
X025659Y008673D02*
X026215Y008673D01*
X026220Y008699D02*
X026220Y008699D01*
X026238Y008730D02*
X025659Y008730D01*
X025659Y008788D02*
X026271Y008788D01*
X026305Y008846D02*
X025659Y008846D01*
X025659Y008903D02*
X026338Y008903D01*
X026371Y008961D02*
X025659Y008961D01*
X025659Y009018D02*
X026424Y009018D01*
X026493Y009076D02*
X025659Y009076D01*
X025659Y009133D02*
X026561Y009133D01*
X026630Y009191D02*
X025659Y009191D01*
X025659Y009248D02*
X026777Y009248D01*
X026638Y009198D02*
X026638Y009198D01*
X026935Y009306D02*
X025659Y009306D01*
X025659Y009364D02*
X027000Y009364D01*
X027000Y009421D02*
X025659Y009421D01*
X025659Y009479D02*
X027000Y009479D01*
X027000Y009536D02*
X025659Y009536D01*
X025659Y009594D02*
X027000Y009594D01*
X027000Y009651D02*
X025626Y009651D01*
X025568Y009709D02*
X027000Y009709D01*
X027000Y009766D02*
X025511Y009766D01*
X025548Y009729D02*
X025548Y009729D01*
X025453Y009824D02*
X027000Y009824D01*
X027000Y009882D02*
X025396Y009882D01*
X025338Y009939D02*
X027000Y009939D01*
X027000Y009997D02*
X025318Y009997D01*
X025301Y010054D02*
X027000Y010054D01*
X027000Y010227D02*
X025105Y010227D01*
X025202Y010187D02*
X025277Y010112D01*
X024995Y010227D02*
X023594Y010227D01*
X023594Y010284D02*
X027000Y010284D01*
X027000Y010342D02*
X023539Y010342D01*
X023507Y010374D02*
X022989Y010374D01*
X022902Y010286D01*
X022902Y010191D01*
X022760Y010191D01*
X022760Y010286D01*
X022704Y010343D01*
X022760Y010399D01*
X022760Y010956D01*
X022672Y011043D01*
X022155Y011043D01*
X022067Y010956D01*
X022067Y010860D01*
X021970Y010860D01*
X021970Y010937D01*
X021882Y011025D01*
X021325Y011025D01*
X021238Y010937D01*
X021238Y010861D01*
X021231Y010861D01*
X021231Y010936D01*
X021143Y011024D01*
X020586Y011024D01*
X020499Y010936D01*
X020499Y010860D01*
X020472Y010860D01*
X020472Y010956D01*
X020385Y011043D01*
X019867Y011043D01*
X019780Y010956D01*
X019780Y010805D01*
X019294Y010805D01*
X019246Y010853D01*
X019148Y010894D01*
X019041Y010894D01*
X018943Y010853D01*
X018868Y010778D01*
X018827Y010679D01*
X018827Y010573D01*
X018868Y010474D01*
X018943Y010399D01*
X019041Y010358D01*
X019148Y010358D01*
X019246Y010399D01*
X019294Y010447D01*
X019780Y010447D01*
X019780Y010399D01*
X019867Y010311D01*
X020385Y010311D01*
X020472Y010399D01*
X020472Y010494D01*
X020499Y010494D01*
X020499Y010418D01*
X020586Y010331D01*
X021143Y010331D01*
X021231Y010418D01*
X021231Y010495D01*
X021238Y010495D01*
X021238Y010420D01*
X021314Y010344D01*
X021238Y010268D01*
X021238Y009750D01*
X021325Y009663D01*
X021419Y009663D01*
X021419Y009658D01*
X021384Y009622D01*
X021345Y009528D01*
X021345Y009425D01*
X021384Y009330D01*
X021456Y009258D01*
X021551Y009219D01*
X021654Y009219D01*
X021748Y009258D01*
X021821Y009330D01*
X021860Y009425D01*
X021860Y009528D01*
X021821Y009622D01*
X021785Y009658D01*
X021785Y009663D01*
X021882Y009663D01*
X021970Y009750D01*
X021970Y009826D01*
X022067Y009826D01*
X022067Y009729D01*
X022155Y009642D01*
X022672Y009642D01*
X022760Y009729D01*
X022760Y009825D01*
X022902Y009825D01*
X022902Y009729D01*
X022989Y009642D01*
X023507Y009642D01*
X023594Y009729D01*
X023594Y010286D01*
X023507Y010374D01*
X023462Y010436D02*
X023470Y010444D01*
X023474Y010455D01*
X023474Y010648D01*
X023278Y010648D01*
X023278Y010707D01*
X023474Y010707D01*
X023474Y010900D01*
X023470Y010910D01*
X023462Y010919D01*
X023451Y010923D01*
X023278Y010923D01*
X023278Y010707D01*
X023219Y010707D01*
X023219Y010923D01*
X023045Y010923D01*
X023034Y010919D01*
X023026Y010910D01*
X023022Y010900D01*
X023022Y010707D01*
X023218Y010707D01*
X023218Y010648D01*
X023022Y010648D01*
X023022Y010455D01*
X023026Y010444D01*
X023034Y010436D01*
X023045Y010431D01*
X023219Y010431D01*
X023219Y010648D01*
X023278Y010648D01*
X023278Y010431D01*
X023451Y010431D01*
X023462Y010436D01*
X023474Y010457D02*
X027000Y010457D01*
X027000Y010400D02*
X022760Y010400D01*
X022760Y010457D02*
X023022Y010457D01*
X023022Y010515D02*
X022760Y010515D01*
X022760Y010572D02*
X023022Y010572D01*
X023022Y010630D02*
X022760Y010630D01*
X022760Y010687D02*
X023218Y010687D01*
X023219Y010630D02*
X023278Y010630D01*
X023278Y010687D02*
X027000Y010687D01*
X027000Y010630D02*
X023474Y010630D01*
X023474Y010572D02*
X027000Y010572D01*
X027000Y010515D02*
X023474Y010515D01*
X023650Y010539D02*
X023689Y010539D01*
X023728Y010579D01*
X023807Y010579D01*
X024476Y011248D01*
X023996Y011313D02*
X023955Y011215D01*
X023880Y011139D01*
X023782Y011099D01*
X023675Y011099D01*
X023577Y011139D01*
X023501Y011215D01*
X023461Y011313D01*
X023461Y011414D01*
X023443Y011372D01*
X023368Y011297D01*
X023270Y011256D01*
X023163Y011256D01*
X023065Y011297D01*
X022990Y011372D01*
X022949Y011470D01*
X022949Y011577D01*
X022990Y011675D01*
X023065Y011751D01*
X023163Y011791D01*
X023270Y011791D01*
X023368Y011751D01*
X023443Y011675D01*
X023484Y011577D01*
X023484Y011476D01*
X023501Y011518D01*
X023577Y011593D01*
X023675Y011634D01*
X023782Y011634D01*
X023880Y011593D01*
X023955Y011518D01*
X023996Y011419D01*
X023996Y011313D01*
X023996Y011320D02*
X025268Y011320D01*
X025230Y011336D02*
X025329Y011295D01*
X025435Y011295D01*
X025533Y011336D01*
X025609Y011411D01*
X025650Y011510D01*
X025650Y011616D01*
X025609Y011715D01*
X025533Y011790D01*
X025435Y011831D01*
X025329Y011831D01*
X025230Y011790D01*
X025155Y011715D01*
X025114Y011616D01*
X025114Y011510D01*
X025155Y011411D01*
X025230Y011336D01*
X025188Y011378D02*
X023996Y011378D01*
X023989Y011436D02*
X025145Y011436D01*
X025121Y011493D02*
X023965Y011493D01*
X023922Y011551D02*
X025114Y011551D01*
X025114Y011608D02*
X023843Y011608D01*
X023613Y011608D02*
X023471Y011608D01*
X023484Y011551D02*
X023534Y011551D01*
X023491Y011493D02*
X023484Y011493D01*
X023461Y011378D02*
X023446Y011378D01*
X023461Y011320D02*
X023392Y011320D01*
X023481Y011263D02*
X023286Y011263D01*
X023147Y011263D02*
X018720Y011263D01*
X018720Y011205D02*
X023511Y011205D01*
X023568Y011148D02*
X018717Y011148D01*
X018693Y011090D02*
X027000Y011090D01*
X027000Y011033D02*
X022683Y011033D01*
X022740Y010975D02*
X027000Y010975D01*
X027000Y010918D02*
X023463Y010918D01*
X023474Y010860D02*
X027000Y010860D01*
X027000Y010802D02*
X023474Y010802D01*
X023474Y010745D02*
X027000Y010745D01*
X027000Y011148D02*
X023888Y011148D01*
X023946Y011205D02*
X027000Y011205D01*
X027000Y011263D02*
X023975Y011263D01*
X023447Y011666D02*
X025135Y011666D01*
X025164Y011723D02*
X023395Y011723D01*
X023295Y011781D02*
X025221Y011781D01*
X025543Y011781D02*
X027000Y011781D01*
X027000Y011838D02*
X021692Y011838D01*
X021763Y011781D02*
X022172Y011781D01*
X022178Y011787D02*
X022103Y011712D01*
X022062Y011613D01*
X022062Y011507D01*
X022103Y011408D01*
X022178Y011333D01*
X022277Y011292D01*
X022383Y011292D01*
X022482Y011333D01*
X022557Y011408D01*
X022598Y011507D01*
X022598Y011613D01*
X022557Y011712D01*
X022482Y011787D01*
X022383Y011828D01*
X022277Y011828D01*
X022178Y011787D01*
X022115Y011723D02*
X021803Y011723D01*
X021826Y011666D02*
X022084Y011666D01*
X022062Y011608D02*
X021831Y011608D01*
X021831Y011551D02*
X022062Y011551D01*
X022068Y011493D02*
X021807Y011493D01*
X021775Y011436D02*
X022092Y011436D01*
X022134Y011378D02*
X021717Y011378D01*
X021409Y011378D02*
X018662Y011378D01*
X018696Y011320D02*
X022209Y011320D01*
X022451Y011320D02*
X023041Y011320D01*
X022987Y011378D02*
X022526Y011378D01*
X022568Y011436D02*
X022963Y011436D01*
X022949Y011493D02*
X022592Y011493D01*
X022598Y011551D02*
X022949Y011551D01*
X022962Y011608D02*
X022598Y011608D01*
X022576Y011666D02*
X022986Y011666D01*
X023038Y011723D02*
X022545Y011723D01*
X022488Y011781D02*
X023138Y011781D01*
X023332Y012011D02*
X019575Y012011D01*
X019577Y011954D02*
X025748Y011954D01*
X025600Y011723D02*
X027000Y011723D01*
X027000Y011666D02*
X025629Y011666D01*
X025650Y011608D02*
X027000Y011608D01*
X027000Y011551D02*
X025650Y011551D01*
X025643Y011493D02*
X027000Y011493D01*
X027000Y011436D02*
X025619Y011436D01*
X025575Y011378D02*
X027000Y011378D01*
X027000Y011320D02*
X025496Y011320D01*
X026052Y011954D02*
X027000Y011954D01*
X027000Y012011D02*
X026110Y012011D01*
X026144Y012069D02*
X027000Y012069D01*
X027000Y012126D02*
X026167Y012126D01*
X026168Y012184D02*
X027000Y012184D01*
X027000Y012241D02*
X026164Y012241D01*
X026140Y012299D02*
X027000Y012299D01*
X027000Y012356D02*
X026102Y012356D01*
X026035Y012414D02*
X026198Y012414D01*
X026140Y012472D02*
X023406Y012472D01*
X023348Y012529D02*
X026112Y012529D01*
X026092Y012587D02*
X024172Y012587D01*
X023914Y012587D02*
X023291Y012587D01*
X023233Y012644D02*
X023843Y012644D01*
X023804Y012702D02*
X023175Y012702D01*
X023118Y012759D02*
X023780Y012759D01*
X023776Y012817D02*
X023060Y012817D01*
X023035Y012874D02*
X023776Y012874D01*
X023799Y012932D02*
X023012Y012932D01*
X022956Y012990D02*
X023831Y012990D01*
X023864Y013047D02*
X022846Y013047D01*
X022716Y013105D02*
X023823Y013105D01*
X023766Y013162D02*
X022658Y013162D01*
X022600Y013220D02*
X023708Y013220D01*
X023651Y013277D02*
X022543Y013277D01*
X022485Y013335D02*
X023593Y013335D01*
X023535Y013392D02*
X022428Y013392D01*
X022370Y013450D02*
X023478Y013450D01*
X023420Y013508D02*
X022313Y013508D01*
X022154Y013413D02*
X022783Y012783D01*
X022602Y012587D02*
X021535Y012587D01*
X021557Y012596D02*
X021632Y012671D01*
X021673Y012770D01*
X021673Y012876D01*
X021632Y012974D01*
X021557Y013050D01*
X021459Y013090D01*
X021352Y013090D01*
X021254Y013050D01*
X021206Y013002D01*
X017747Y013002D01*
X017699Y013050D01*
X017600Y013090D01*
X017494Y013090D01*
X017396Y013050D01*
X017320Y012974D01*
X017280Y012876D01*
X017280Y012770D01*
X017320Y012671D01*
X017396Y012596D01*
X017494Y012555D01*
X017600Y012555D01*
X017699Y012596D01*
X017747Y012644D01*
X021206Y012644D01*
X021254Y012596D01*
X021352Y012555D01*
X021459Y012555D01*
X021557Y012596D01*
X021605Y012644D02*
X022551Y012644D01*
X022528Y012702D02*
X021645Y012702D01*
X021669Y012759D02*
X022516Y012759D01*
X022497Y012817D02*
X021673Y012817D01*
X021673Y012874D02*
X022439Y012874D01*
X022382Y012932D02*
X021650Y012932D01*
X021617Y012990D02*
X022324Y012990D01*
X022267Y013047D02*
X021560Y013047D01*
X021251Y013047D02*
X017702Y013047D01*
X017393Y013047D02*
X015466Y013047D01*
X015523Y013105D02*
X022209Y013105D01*
X022152Y013162D02*
X015581Y013162D01*
X015638Y013220D02*
X022094Y013220D01*
X022154Y013413D02*
X015579Y013413D01*
X014752Y012587D01*
X014752Y011681D01*
X015000Y011781D02*
X016993Y011781D01*
X016953Y011723D02*
X015020Y011723D01*
X015020Y011666D02*
X016929Y011666D01*
X016925Y011608D02*
X015011Y011608D01*
X014973Y011838D02*
X017063Y011838D01*
X017322Y011838D02*
X019089Y011838D01*
X019065Y011896D02*
X014931Y011896D01*
X014931Y011954D02*
X019061Y011954D01*
X019062Y012011D02*
X014931Y012011D01*
X014931Y012069D02*
X019086Y012069D01*
X019124Y012126D02*
X014931Y012126D01*
X014931Y012184D02*
X019193Y012184D01*
X019444Y012184D02*
X023159Y012184D01*
X023102Y012241D02*
X014931Y012241D01*
X014931Y012299D02*
X023044Y012299D01*
X022986Y012356D02*
X014931Y012356D01*
X014931Y012414D02*
X022929Y012414D01*
X022871Y012472D02*
X014931Y012472D01*
X014948Y012529D02*
X015322Y012529D01*
X015441Y012529D02*
X022698Y012529D01*
X023217Y012126D02*
X019514Y012126D01*
X019552Y012069D02*
X023274Y012069D01*
X023463Y012414D02*
X025765Y012414D01*
X026522Y012414D02*
X027000Y012414D01*
X027000Y012472D02*
X026580Y012472D01*
X026608Y012529D02*
X027000Y012529D01*
X027000Y012587D02*
X026628Y012587D01*
X026628Y012644D02*
X027000Y012644D01*
X027000Y012702D02*
X026620Y012702D01*
X026596Y012759D02*
X027000Y012759D01*
X027000Y012817D02*
X026552Y012817D01*
X026469Y012874D02*
X027000Y012874D01*
X027000Y012932D02*
X026325Y012932D01*
X026268Y012990D02*
X027000Y012990D01*
X027000Y013047D02*
X024222Y013047D01*
X024222Y013105D02*
X027000Y013105D01*
X027000Y013162D02*
X024222Y013162D01*
X024215Y013220D02*
X027000Y013220D01*
X027000Y013277D02*
X024157Y013277D01*
X024099Y013335D02*
X027000Y013335D01*
X027000Y013392D02*
X024042Y013392D01*
X023984Y013450D02*
X027000Y013450D01*
X027000Y013508D02*
X023927Y013508D01*
X023869Y013565D02*
X027000Y013565D01*
X027000Y013623D02*
X023812Y013623D01*
X023754Y013680D02*
X027000Y013680D01*
X027000Y013738D02*
X023697Y013738D01*
X023639Y013795D02*
X027000Y013795D01*
X027000Y013853D02*
X023587Y013853D01*
X023529Y013910D02*
X027000Y013910D01*
X027000Y013968D02*
X010333Y013968D01*
X010325Y013977D02*
X010183Y014035D01*
X010030Y014035D01*
X009888Y013977D01*
X009779Y013868D01*
X009721Y013726D01*
X009721Y013573D01*
X009779Y013431D01*
X009888Y013323D01*
X010030Y013264D01*
X010183Y013264D01*
X010325Y013323D01*
X010433Y013431D01*
X010492Y013573D01*
X010492Y013726D01*
X010433Y013868D01*
X010325Y013977D01*
X010391Y013910D02*
X015581Y013910D01*
X015523Y013853D02*
X010440Y013853D01*
X010463Y013795D02*
X015466Y013795D01*
X015414Y013738D02*
X014400Y013738D01*
X014370Y013750D02*
X014268Y013750D01*
X014173Y013711D01*
X014100Y013638D01*
X014061Y013543D01*
X014061Y013441D01*
X014100Y013346D01*
X014173Y013274D01*
X014268Y013234D01*
X014370Y013234D01*
X014465Y013274D01*
X014537Y013346D01*
X014577Y013441D01*
X014577Y013543D01*
X014537Y013638D01*
X014465Y013711D01*
X014370Y013750D01*
X014238Y013738D02*
X010487Y013738D01*
X010492Y013680D02*
X014142Y013680D01*
X014094Y013623D02*
X010492Y013623D01*
X010489Y013565D02*
X014070Y013565D01*
X014061Y013508D02*
X010465Y013508D01*
X010441Y013450D02*
X014061Y013450D01*
X014081Y013392D02*
X010395Y013392D01*
X010337Y013335D02*
X014112Y013335D01*
X014169Y013277D02*
X010215Y013277D01*
X009997Y013277D02*
X000650Y013277D01*
X000650Y013220D02*
X014494Y013220D01*
X014494Y013162D02*
X000650Y013162D01*
X000650Y013105D02*
X014503Y013105D01*
X014527Y013047D02*
X000650Y013047D01*
X000650Y012990D02*
X014575Y012990D01*
X014608Y012932D02*
X000650Y012932D01*
X000650Y012874D02*
X014550Y012874D01*
X014493Y012817D02*
X004657Y012817D01*
X004705Y012797D02*
X004585Y012847D01*
X004455Y012847D01*
X004335Y012797D01*
X004243Y012705D01*
X004193Y012585D01*
X004193Y012455D01*
X004243Y012335D01*
X004335Y012243D01*
X004455Y012193D01*
X004585Y012193D01*
X004705Y012243D01*
X004797Y012335D01*
X004847Y012455D01*
X004847Y012585D01*
X004797Y012705D01*
X004705Y012797D01*
X004743Y012759D02*
X014435Y012759D01*
X014378Y012702D02*
X008075Y012702D01*
X008108Y012688D02*
X007944Y012756D01*
X007767Y012756D01*
X007604Y012688D01*
X007479Y012563D01*
X007411Y012400D01*
X007411Y012223D01*
X007479Y012059D01*
X007604Y011934D01*
X007767Y011866D01*
X007944Y011866D01*
X008108Y011934D01*
X008233Y012059D01*
X008301Y012223D01*
X008301Y012400D01*
X008233Y012563D01*
X008108Y012688D01*
X008152Y012644D02*
X014320Y012644D01*
X014263Y012587D02*
X008209Y012587D01*
X008247Y012529D02*
X012174Y012529D01*
X012088Y012472D02*
X008271Y012472D01*
X008295Y012414D02*
X012033Y012414D01*
X012009Y012356D02*
X008301Y012356D01*
X008301Y012299D02*
X011985Y012299D01*
X011984Y012241D02*
X008301Y012241D01*
X008285Y012184D02*
X011984Y012184D01*
X012001Y012126D02*
X008261Y012126D01*
X008237Y012069D02*
X012025Y012069D01*
X012070Y012011D02*
X008185Y012011D01*
X008127Y011954D02*
X012130Y011954D01*
X012230Y011896D02*
X008016Y011896D01*
X007696Y011896D02*
X000650Y011896D01*
X000650Y011954D02*
X007584Y011954D01*
X007527Y012011D02*
X000650Y012011D01*
X000650Y012069D02*
X007475Y012069D01*
X007451Y012126D02*
X000650Y012126D01*
X000650Y012184D02*
X007427Y012184D01*
X007411Y012241D02*
X004701Y012241D01*
X004761Y012299D02*
X007411Y012299D01*
X007411Y012356D02*
X004806Y012356D01*
X004830Y012414D02*
X007417Y012414D01*
X007441Y012472D02*
X004847Y012472D01*
X004847Y012529D02*
X007465Y012529D01*
X007502Y012587D02*
X004846Y012587D01*
X004822Y012644D02*
X007560Y012644D01*
X007637Y012702D02*
X004798Y012702D01*
X004383Y012817D02*
X000650Y012817D01*
X000650Y012759D02*
X004297Y012759D01*
X004242Y012702D02*
X000650Y012702D01*
X000650Y012644D02*
X004218Y012644D01*
X004194Y012587D02*
X000650Y012587D01*
X000650Y012529D02*
X004193Y012529D01*
X004193Y012472D02*
X000650Y012472D01*
X000650Y012414D02*
X004210Y012414D01*
X004234Y012356D02*
X000650Y012356D01*
X000650Y012299D02*
X004279Y012299D01*
X004339Y012241D02*
X000650Y012241D01*
X000650Y011838D02*
X012211Y011838D01*
X012211Y011781D02*
X000650Y011781D01*
X000650Y011723D02*
X012221Y011723D01*
X012245Y011666D02*
X000650Y011666D01*
X000650Y011608D02*
X012295Y011608D01*
X012390Y011551D02*
X000650Y011551D01*
X000650Y011493D02*
X012333Y011493D01*
X012275Y011436D02*
X000650Y011436D01*
X000650Y011378D02*
X012218Y011378D01*
X012160Y011320D02*
X000650Y011320D01*
X000650Y011263D02*
X012102Y011263D01*
X012045Y011205D02*
X000650Y011205D01*
X000650Y011148D02*
X012037Y011148D01*
X012037Y011090D02*
X000650Y011090D01*
X000650Y011033D02*
X012037Y011033D01*
X012037Y010975D02*
X000650Y010975D01*
X000650Y010918D02*
X012037Y010918D01*
X012037Y010860D02*
X000650Y010860D01*
X000650Y010802D02*
X012037Y010802D01*
X012037Y010745D02*
X000650Y010745D01*
X000650Y010687D02*
X012037Y010687D01*
X012037Y010630D02*
X000650Y010630D01*
X000650Y010572D02*
X012037Y010572D01*
X012037Y010515D02*
X000650Y010515D01*
X000650Y010457D02*
X012037Y010457D01*
X012037Y010400D02*
X000650Y010400D01*
X000650Y010342D02*
X012037Y010342D01*
X012037Y010284D02*
X000650Y010284D01*
X000650Y010227D02*
X012037Y010227D01*
X012037Y010169D02*
X000650Y010169D01*
X000650Y010112D02*
X012037Y010112D01*
X012037Y010054D02*
X000650Y010054D01*
X000650Y009997D02*
X012037Y009997D01*
X012037Y009939D02*
X000650Y009939D01*
X000650Y009882D02*
X012037Y009882D01*
X012037Y009824D02*
X000650Y009824D01*
X000650Y009766D02*
X012037Y009766D01*
X012037Y009709D02*
X000650Y009709D01*
X000650Y009651D02*
X012037Y009651D01*
X012037Y009594D02*
X005645Y009594D01*
X005685Y009577D02*
X005591Y009616D01*
X005488Y009616D01*
X005393Y009577D01*
X005321Y009504D01*
X005282Y009410D01*
X005282Y009307D01*
X005321Y009212D01*
X005393Y009140D01*
X005488Y009100D01*
X005591Y009100D01*
X005685Y009140D01*
X005758Y009212D01*
X005797Y009307D01*
X005797Y009410D01*
X005758Y009504D01*
X005685Y009577D01*
X005726Y009536D02*
X012037Y009536D01*
X010529Y009479D02*
X005769Y009479D01*
X005792Y009421D02*
X010471Y009421D01*
X010439Y009364D02*
X010419Y009364D01*
X010419Y009306D02*
X010439Y009306D01*
X010439Y009248D02*
X010419Y009248D01*
X010419Y009191D02*
X010439Y009191D01*
X010439Y009133D02*
X010419Y009133D01*
X010419Y009076D02*
X006186Y009076D01*
X006158Y009104D02*
X006063Y009144D01*
X005961Y009144D01*
X005866Y009104D01*
X005793Y009032D01*
X005754Y008937D01*
X005754Y008835D01*
X005793Y008740D01*
X005866Y008667D01*
X005961Y008628D01*
X006063Y008628D01*
X006158Y008667D01*
X006230Y008740D01*
X006270Y008835D01*
X006270Y008937D01*
X006230Y009032D01*
X006158Y009104D01*
X006088Y009133D02*
X010321Y009133D01*
X010321Y009191D02*
X005737Y009191D01*
X005773Y009248D02*
X010321Y009248D01*
X010321Y009306D02*
X005797Y009306D01*
X005797Y009364D02*
X010328Y009364D01*
X010429Y009069D02*
X010429Y008224D01*
X010343Y008138D01*
X010598Y007982D02*
X004784Y007982D01*
X004819Y007925D02*
X010513Y007925D01*
X010469Y007867D02*
X004843Y007867D01*
X004862Y007810D02*
X010445Y007810D01*
X010439Y007752D02*
X004862Y007752D01*
X004862Y007694D02*
X009781Y007694D01*
X009713Y007637D02*
X004849Y007637D01*
X004826Y007579D02*
X009676Y007579D01*
X009652Y007522D02*
X004800Y007522D01*
X004746Y007464D02*
X009613Y007464D01*
X009555Y007407D02*
X004726Y007407D01*
X004699Y007349D02*
X009497Y007349D01*
X009440Y007292D02*
X004641Y007292D01*
X004584Y007234D02*
X007015Y007234D01*
X006968Y007215D02*
X006896Y007142D01*
X006856Y007047D01*
X006856Y006945D01*
X006896Y006850D01*
X006968Y006778D01*
X007063Y006738D01*
X007165Y006738D01*
X007260Y006778D01*
X007333Y006850D01*
X007372Y006945D01*
X007372Y007047D01*
X007333Y007142D01*
X007260Y007215D01*
X007165Y007254D01*
X007063Y007254D01*
X006968Y007215D01*
X006930Y007176D02*
X004526Y007176D01*
X004469Y007119D02*
X006886Y007119D01*
X006862Y007061D02*
X004411Y007061D01*
X004353Y007004D02*
X006856Y007004D01*
X006856Y006946D02*
X004296Y006946D01*
X004238Y006889D02*
X006880Y006889D01*
X006915Y006831D02*
X004181Y006831D01*
X004155Y006774D02*
X006138Y006774D01*
X006157Y006781D02*
X006063Y006742D01*
X005990Y006670D01*
X005951Y006575D01*
X005951Y006472D01*
X005990Y006378D01*
X006063Y006305D01*
X006157Y006266D01*
X006260Y006266D01*
X006355Y006305D01*
X006427Y006378D01*
X006466Y006472D01*
X006466Y006575D01*
X006427Y006670D01*
X006355Y006742D01*
X006260Y006781D01*
X006157Y006781D01*
X006279Y006774D02*
X006978Y006774D01*
X007251Y006774D02*
X008922Y006774D01*
X008979Y006831D02*
X007314Y006831D01*
X007349Y006889D02*
X009037Y006889D01*
X009095Y006946D02*
X007372Y006946D01*
X007372Y007004D02*
X009152Y007004D01*
X009075Y007008D02*
X008307Y007008D01*
X008138Y006839D01*
X008138Y005929D01*
X008768Y005299D01*
X008768Y003413D01*
X009043Y003689D01*
X011051Y003689D01*
X011327Y003413D01*
X013498Y003413D01*
X013498Y003383D01*
X013469Y003378D02*
X012090Y003378D01*
X012178Y003320D02*
X013252Y003320D01*
X013252Y003353D02*
X013252Y003180D01*
X013257Y003169D01*
X013265Y003161D01*
X013276Y003156D01*
X013469Y003156D01*
X013469Y003353D01*
X013528Y003353D01*
X013528Y003156D01*
X013721Y003156D01*
X013732Y003161D01*
X013740Y003169D01*
X013744Y003180D01*
X013744Y003353D01*
X013528Y003353D01*
X013528Y003412D01*
X013744Y003412D01*
X013744Y003585D01*
X013740Y003596D01*
X013732Y003605D01*
X013721Y003609D01*
X013528Y003609D01*
X013528Y003412D01*
X013469Y003412D01*
X013469Y003353D01*
X013252Y003353D01*
X013252Y003412D02*
X013252Y003585D01*
X013257Y003596D01*
X013265Y003605D01*
X013276Y003609D01*
X013469Y003609D01*
X013469Y003412D01*
X013252Y003412D01*
X013252Y003435D02*
X011603Y003435D01*
X011499Y003435D02*
X010089Y003435D01*
X010089Y003378D02*
X011902Y003378D01*
X011814Y003320D02*
X010071Y003320D01*
X010077Y003493D02*
X011387Y003493D01*
X011331Y003550D02*
X010053Y003550D01*
X010001Y003608D02*
X011307Y003608D01*
X011293Y003666D02*
X009896Y003666D01*
X009766Y003666D02*
X003053Y003666D01*
X003053Y003723D02*
X011293Y003723D01*
X011716Y003493D02*
X013252Y003493D01*
X013252Y003550D02*
X011771Y003550D01*
X011795Y003608D02*
X013273Y003608D01*
X013469Y003608D02*
X013528Y003608D01*
X013528Y003550D02*
X013469Y003550D01*
X013469Y003493D02*
X013528Y003493D01*
X013528Y003435D02*
X013469Y003435D01*
X013528Y003378D02*
X014098Y003378D01*
X014098Y003435D02*
X013744Y003435D01*
X013744Y003493D02*
X014098Y003493D01*
X014098Y003550D02*
X013744Y003550D01*
X013723Y003608D02*
X014105Y003608D01*
X014098Y003320D02*
X013744Y003320D01*
X013744Y003263D02*
X014098Y003263D01*
X014074Y003205D02*
X013744Y003205D01*
X013804Y003032D02*
X013901Y003032D01*
X013959Y003090D02*
X012254Y003090D01*
X012254Y003148D02*
X014016Y003148D01*
X013984Y002862D02*
X014464Y003342D01*
X013984Y002862D02*
X013984Y002291D01*
X013413Y001720D01*
X010815Y001720D01*
X010382Y002154D01*
X009398Y002154D01*
X009590Y003320D02*
X003673Y003320D01*
X003617Y003378D02*
X009573Y003378D01*
X009573Y003435D02*
X003053Y003435D01*
X003053Y003378D02*
X003289Y003378D01*
X003233Y003320D02*
X003053Y003320D01*
X003053Y003263D02*
X003209Y003263D01*
X003195Y003205D02*
X003053Y003205D01*
X003053Y003148D02*
X003195Y003148D01*
X003210Y003090D02*
X003053Y003090D01*
X003053Y003032D02*
X003180Y003032D01*
X003142Y002975D02*
X003053Y002975D01*
X003053Y002917D02*
X003118Y002917D01*
X003116Y002860D02*
X003053Y002860D01*
X003053Y002802D02*
X003120Y002802D01*
X003144Y002745D02*
X003053Y002745D01*
X003053Y002687D02*
X003185Y002687D01*
X003262Y002630D02*
X003053Y002630D01*
X003053Y002572D02*
X003431Y002572D01*
X003206Y002514D02*
X003053Y002514D01*
X003295Y002350D02*
X012232Y002350D01*
X012429Y002547D01*
X012674Y002630D02*
X012737Y002630D01*
X012705Y002572D02*
X012687Y002572D01*
X012650Y002687D02*
X012795Y002687D01*
X012964Y002745D02*
X012596Y002745D01*
X012487Y002802D02*
X013021Y002802D01*
X013079Y002860D02*
X012175Y002860D01*
X012174Y002917D02*
X013132Y002917D01*
X013135Y002975D02*
X012198Y002975D01*
X012231Y003032D02*
X013193Y003032D01*
X013252Y003205D02*
X012247Y003205D01*
X012223Y003263D02*
X013252Y003263D01*
X013469Y003263D02*
X013528Y003263D01*
X013528Y003320D02*
X013469Y003320D01*
X013469Y003205D02*
X013528Y003205D01*
X013498Y002713D02*
X013186Y002713D01*
X012941Y002469D01*
X012371Y002802D02*
X012172Y002802D01*
X012203Y002745D02*
X012262Y002745D01*
X011996Y002587D02*
X011917Y002508D01*
X003768Y002508D01*
X003689Y002587D01*
X003295Y002350D02*
X003177Y002232D01*
X003416Y002136D02*
X003431Y002171D01*
X006713Y002171D01*
X006644Y002132D01*
X006551Y001971D01*
X006551Y001750D01*
X006080Y001750D01*
X006112Y001827D01*
X006112Y001929D01*
X006073Y002024D01*
X006000Y002096D01*
X005906Y002136D01*
X005803Y002136D01*
X005708Y002096D01*
X005636Y002024D01*
X005618Y001981D01*
X005600Y002024D01*
X005528Y002096D01*
X005433Y002136D01*
X005331Y002136D01*
X005236Y002096D01*
X005163Y002024D01*
X005126Y001934D01*
X005089Y002024D01*
X005016Y002096D01*
X004921Y002136D01*
X004819Y002136D01*
X004724Y002096D01*
X004652Y002024D01*
X004641Y001999D01*
X004583Y002057D01*
X004488Y002096D01*
X004386Y002096D01*
X004291Y002057D01*
X004218Y001985D01*
X004201Y001942D01*
X004183Y001985D01*
X004111Y002057D01*
X004016Y002096D01*
X003913Y002096D01*
X003819Y002057D01*
X003746Y001985D01*
X003742Y001974D01*
X003719Y002030D01*
X003644Y002105D01*
X003545Y002146D01*
X003439Y002146D01*
X003416Y002136D01*
X003430Y002169D02*
X006709Y002169D01*
X006644Y002132D02*
X006644Y002132D01*
X006633Y002112D02*
X005964Y002112D01*
X006043Y002054D02*
X006599Y002054D01*
X006566Y001996D02*
X006084Y001996D01*
X006108Y001939D02*
X006551Y001939D01*
X006551Y001881D02*
X006112Y001881D01*
X006111Y001824D02*
X006551Y001824D01*
X006551Y001766D02*
X006087Y001766D01*
X005745Y002112D02*
X005492Y002112D01*
X005570Y002054D02*
X005666Y002054D01*
X005624Y001996D02*
X005612Y001996D01*
X005272Y002112D02*
X004980Y002112D01*
X005059Y002054D02*
X005193Y002054D01*
X005152Y001996D02*
X005100Y001996D01*
X005124Y001939D02*
X005128Y001939D01*
X004760Y002112D02*
X003628Y002112D01*
X003695Y002054D02*
X003815Y002054D01*
X003758Y001996D02*
X003733Y001996D01*
X004114Y002054D02*
X004288Y002054D01*
X004230Y001996D02*
X004171Y001996D01*
X004586Y002054D02*
X004682Y002054D01*
X003374Y002862D02*
X011917Y002862D01*
X011996Y003138D02*
X003492Y003138D01*
X003453Y003177D01*
X003053Y003493D02*
X009585Y003493D01*
X009608Y003550D02*
X003053Y003550D01*
X003053Y003608D02*
X009661Y003608D01*
X010256Y004011D02*
X003053Y004011D01*
X003053Y003953D02*
X010353Y003953D01*
X010410Y003896D02*
X003053Y003896D01*
X003053Y003838D02*
X010462Y003838D01*
X010520Y003781D02*
X003053Y003781D01*
X003111Y004068D02*
X010201Y004068D01*
X010201Y004126D02*
X003169Y004126D01*
X003226Y004184D02*
X010201Y004184D01*
X010201Y004241D02*
X003284Y004241D01*
X003341Y004299D02*
X010201Y004299D01*
X010201Y004356D02*
X004540Y004356D01*
X004536Y004352D02*
X004608Y004425D01*
X004648Y004520D01*
X004648Y004622D01*
X004608Y004717D01*
X004536Y004789D01*
X004441Y004829D01*
X004338Y004829D01*
X004244Y004789D01*
X004171Y004717D01*
X004132Y004622D01*
X004132Y004520D01*
X004171Y004425D01*
X004244Y004352D01*
X004338Y004313D01*
X004441Y004313D01*
X004536Y004352D01*
X004597Y004414D02*
X010201Y004414D01*
X010201Y004471D02*
X004628Y004471D01*
X004648Y004529D02*
X010201Y004529D01*
X010201Y004586D02*
X004648Y004586D01*
X004639Y004644D02*
X010201Y004644D01*
X010201Y004702D02*
X004615Y004702D01*
X004566Y004759D02*
X010219Y004759D01*
X010246Y004817D02*
X004470Y004817D01*
X004309Y004817D02*
X003859Y004817D01*
X003917Y004874D02*
X010246Y004874D01*
X010246Y004932D02*
X003974Y004932D01*
X004032Y004989D02*
X010246Y004989D01*
X010246Y005047D02*
X004089Y005047D01*
X004128Y005104D02*
X008541Y005104D01*
X008541Y005077D02*
X008546Y005066D01*
X008554Y005058D01*
X008565Y005053D01*
X008738Y005053D01*
X008738Y005270D01*
X008541Y005270D01*
X008541Y005077D01*
X008541Y005162D02*
X004530Y005162D01*
X004588Y005220D02*
X008541Y005220D01*
X008541Y005329D02*
X008541Y005522D01*
X008546Y005532D01*
X008554Y005541D01*
X008565Y005545D01*
X008738Y005545D01*
X008738Y005329D01*
X008797Y005329D01*
X008797Y005545D01*
X008970Y005545D01*
X008981Y005541D01*
X008990Y005532D01*
X008994Y005522D01*
X008994Y005329D01*
X008797Y005329D01*
X008797Y005270D01*
X008994Y005270D01*
X008994Y005077D01*
X008990Y005066D01*
X008981Y005058D01*
X008970Y005053D01*
X008797Y005053D01*
X008797Y005270D01*
X008738Y005270D01*
X008738Y005329D01*
X008541Y005329D01*
X008541Y005335D02*
X004636Y005335D01*
X004636Y005392D02*
X008541Y005392D01*
X008541Y005450D02*
X004626Y005450D01*
X004602Y005507D02*
X008541Y005507D01*
X008489Y005622D02*
X004452Y005622D01*
X004552Y005565D02*
X009688Y005565D01*
X009724Y005600D02*
X009652Y005528D01*
X009612Y005433D01*
X009612Y005331D01*
X009652Y005236D01*
X009724Y005163D01*
X009819Y005124D01*
X009921Y005124D01*
X010016Y005163D01*
X010089Y005236D01*
X010128Y005331D01*
X010128Y005433D01*
X010089Y005528D01*
X010016Y005600D01*
X009921Y005640D01*
X009819Y005640D01*
X009724Y005600D01*
X009777Y005622D02*
X009046Y005622D01*
X009104Y005680D02*
X010085Y005680D01*
X010142Y005622D02*
X009963Y005622D01*
X010052Y005565D02*
X010200Y005565D01*
X010246Y005507D02*
X010097Y005507D01*
X010121Y005450D02*
X010246Y005450D01*
X010246Y005392D02*
X010128Y005392D01*
X010128Y005335D02*
X010246Y005335D01*
X010246Y005277D02*
X010106Y005277D01*
X010072Y005220D02*
X010246Y005220D01*
X010246Y005162D02*
X010013Y005162D01*
X010246Y005104D02*
X008994Y005104D01*
X008994Y005162D02*
X009727Y005162D01*
X009668Y005220D02*
X008994Y005220D01*
X008994Y005335D02*
X009612Y005335D01*
X009612Y005392D02*
X008994Y005392D01*
X008994Y005450D02*
X009619Y005450D01*
X009643Y005507D02*
X008994Y005507D01*
X008797Y005507D02*
X008738Y005507D01*
X008738Y005450D02*
X008797Y005450D01*
X008797Y005392D02*
X008738Y005392D01*
X008738Y005335D02*
X008797Y005335D01*
X008797Y005277D02*
X009634Y005277D01*
X010027Y005738D02*
X009114Y005738D01*
X009114Y005795D02*
X009970Y005795D01*
X010315Y005968D02*
X010551Y005968D01*
X010447Y005910D02*
X010372Y005910D01*
X010257Y006025D02*
X011664Y006025D01*
X011607Y005968D02*
X010685Y005968D01*
X010789Y005910D02*
X011549Y005910D01*
X011491Y005853D02*
X010841Y005853D01*
X010865Y005795D02*
X011434Y005795D01*
X011376Y005738D02*
X010876Y005738D01*
X010876Y005680D02*
X011319Y005680D01*
X011261Y005622D02*
X010858Y005622D01*
X010831Y005565D02*
X011204Y005565D01*
X011146Y005507D02*
X010773Y005507D01*
X010612Y005450D02*
X011089Y005450D01*
X011031Y005392D02*
X010612Y005392D01*
X010612Y005335D02*
X010974Y005335D01*
X010916Y005277D02*
X010612Y005277D01*
X010612Y005220D02*
X010858Y005220D01*
X010801Y005162D02*
X010612Y005162D01*
X010612Y005104D02*
X010743Y005104D01*
X010686Y005047D02*
X010612Y005047D01*
X010612Y004989D02*
X010628Y004989D01*
X010429Y004404D02*
X010429Y004130D01*
X010618Y003941D01*
X008797Y005104D02*
X008738Y005104D01*
X008738Y005162D02*
X008797Y005162D01*
X008797Y005220D02*
X008738Y005220D01*
X008738Y005277D02*
X004617Y005277D01*
X004225Y005162D02*
X004152Y005162D01*
X004155Y005220D02*
X004168Y005220D01*
X004155Y005565D02*
X004204Y005565D01*
X004155Y005622D02*
X004304Y005622D01*
X004155Y005680D02*
X008431Y005680D01*
X008421Y005738D02*
X004155Y005738D01*
X004155Y005795D02*
X008421Y005795D01*
X008421Y005853D02*
X004155Y005853D01*
X004155Y005910D02*
X008421Y005910D01*
X008421Y005968D02*
X004155Y005968D01*
X004155Y006025D02*
X008421Y006025D01*
X008421Y006083D02*
X004155Y006083D01*
X004155Y006140D02*
X008421Y006140D01*
X008421Y006198D02*
X004155Y006198D01*
X004155Y006256D02*
X008430Y006256D01*
X008487Y006313D02*
X006363Y006313D01*
X006420Y006371D02*
X008589Y006371D01*
X008589Y006428D02*
X006448Y006428D01*
X006466Y006486D02*
X008634Y006486D01*
X008692Y006543D02*
X006466Y006543D01*
X006456Y006601D02*
X008749Y006601D01*
X008807Y006658D02*
X006432Y006658D01*
X006381Y006716D02*
X008864Y006716D01*
X009198Y006543D02*
X009497Y006543D01*
X009494Y006536D02*
X009494Y006433D01*
X009533Y006338D01*
X009606Y006266D01*
X009701Y006226D01*
X009803Y006226D01*
X009898Y006266D01*
X009971Y006338D01*
X010010Y006433D01*
X010010Y006463D01*
X010045Y006378D01*
X010118Y006305D01*
X010213Y006266D01*
X010315Y006266D01*
X010410Y006305D01*
X010482Y006378D01*
X010522Y006472D01*
X010522Y006560D01*
X010567Y006541D01*
X010669Y006541D01*
X010764Y006581D01*
X010837Y006653D01*
X010876Y006748D01*
X010876Y006850D01*
X010837Y006945D01*
X010764Y007018D01*
X010669Y007057D01*
X010567Y007057D01*
X010472Y007018D01*
X010400Y006945D01*
X010360Y006850D01*
X010360Y006763D01*
X010315Y006781D01*
X010213Y006781D01*
X010118Y006742D01*
X010045Y006670D01*
X010006Y006575D01*
X010006Y006545D01*
X009971Y006630D01*
X009898Y006703D01*
X009803Y006742D01*
X009701Y006742D01*
X009606Y006703D01*
X009533Y006630D01*
X009494Y006536D01*
X009494Y006486D02*
X009141Y006486D01*
X009083Y006428D02*
X009496Y006428D01*
X009520Y006371D02*
X009025Y006371D01*
X009048Y006313D02*
X009559Y006313D01*
X009630Y006256D02*
X009106Y006256D01*
X009114Y006198D02*
X011837Y006198D01*
X011894Y006256D02*
X009873Y006256D01*
X009945Y006313D02*
X010110Y006313D01*
X010052Y006371D02*
X009984Y006371D01*
X010008Y006428D02*
X010024Y006428D01*
X010017Y006601D02*
X009983Y006601D01*
X009942Y006658D02*
X010041Y006658D01*
X010092Y006716D02*
X009866Y006716D01*
X009638Y006716D02*
X009371Y006716D01*
X009428Y006774D02*
X010193Y006774D01*
X010334Y006774D02*
X010360Y006774D01*
X010360Y006831D02*
X009486Y006831D01*
X009543Y006889D02*
X010376Y006889D01*
X010401Y006946D02*
X009601Y006946D01*
X009659Y007004D02*
X010458Y007004D01*
X010376Y007176D02*
X012137Y007176D01*
X012132Y007119D02*
X009774Y007119D01*
X009831Y007176D02*
X010073Y007176D01*
X009909Y007469D02*
X009870Y007469D01*
X008768Y006366D01*
X008768Y005969D01*
X009256Y006601D02*
X009521Y006601D01*
X009562Y006658D02*
X009313Y006658D01*
X009210Y007061D02*
X007366Y007061D01*
X007342Y007119D02*
X009267Y007119D01*
X009325Y007176D02*
X007298Y007176D01*
X007213Y007234D02*
X009382Y007234D01*
X009716Y007061D02*
X012133Y007061D01*
X012156Y007004D02*
X010778Y007004D01*
X010836Y006946D02*
X012182Y006946D01*
X012115Y006889D02*
X010860Y006889D01*
X010876Y006831D02*
X012078Y006831D01*
X012054Y006774D02*
X010876Y006774D01*
X010863Y006716D02*
X012053Y006716D01*
X012058Y006658D02*
X010839Y006658D01*
X010784Y006601D02*
X012082Y006601D01*
X012124Y006543D02*
X010674Y006543D01*
X010562Y006543D02*
X010522Y006543D01*
X010522Y006486D02*
X012125Y006486D01*
X012067Y006428D02*
X010503Y006428D01*
X010475Y006371D02*
X012009Y006371D01*
X011952Y006313D02*
X010418Y006313D01*
X010200Y006083D02*
X011722Y006083D01*
X011779Y006140D02*
X010142Y006140D01*
X010214Y006068D02*
X010214Y006068D01*
X010433Y007234D02*
X012160Y007234D01*
X012203Y007292D02*
X010688Y007292D01*
X010745Y007349D02*
X012274Y007349D01*
X012216Y007407D02*
X010776Y007407D01*
X010797Y007464D02*
X012159Y007464D01*
X012101Y007522D02*
X010834Y007522D01*
X010897Y007579D02*
X012044Y007579D01*
X011514Y007637D02*
X010931Y007637D01*
X010955Y007694D02*
X011456Y007694D01*
X011399Y007752D02*
X010955Y007752D01*
X010949Y007810D02*
X011341Y007810D01*
X011284Y007867D02*
X010925Y007867D01*
X010881Y007925D02*
X011226Y007925D01*
X011168Y007982D02*
X010796Y007982D01*
X010996Y008155D02*
X001413Y008155D01*
X001423Y008212D02*
X010938Y008212D01*
X010881Y008270D02*
X001433Y008270D01*
X001443Y008328D02*
X010823Y008328D01*
X010766Y008385D02*
X001449Y008385D01*
X001451Y008374D02*
X001451Y008374D01*
X001439Y008443D02*
X010708Y008443D01*
X010650Y008500D02*
X001429Y008500D01*
X001419Y008558D02*
X010593Y008558D01*
X010535Y008615D02*
X001409Y008615D01*
X001399Y008673D02*
X005860Y008673D01*
X005803Y008730D02*
X001376Y008730D01*
X001343Y008788D02*
X005773Y008788D01*
X005754Y008846D02*
X001310Y008846D01*
X001276Y008903D02*
X005754Y008903D01*
X005764Y008961D02*
X001243Y008961D01*
X001229Y008986D02*
X001229Y008986D01*
X001190Y009018D02*
X005788Y009018D01*
X005837Y009076D02*
X001121Y009076D01*
X001053Y009133D02*
X005409Y009133D01*
X005342Y009191D02*
X000984Y009191D01*
X000837Y009248D02*
X005306Y009248D01*
X005282Y009306D02*
X000679Y009306D01*
X000650Y009364D02*
X005282Y009364D01*
X005286Y009421D02*
X000650Y009421D01*
X000650Y009479D02*
X005310Y009479D01*
X005353Y009536D02*
X000650Y009536D01*
X000650Y009594D02*
X005434Y009594D01*
X005670Y009133D02*
X005936Y009133D01*
X006236Y009018D02*
X010321Y009018D01*
X010321Y008961D02*
X006260Y008961D01*
X006270Y008903D02*
X010321Y008903D01*
X010321Y008846D02*
X006270Y008846D01*
X006250Y008788D02*
X010321Y008788D01*
X010419Y008788D02*
X010439Y008788D01*
X010439Y008846D02*
X010419Y008846D01*
X010419Y008903D02*
X010439Y008903D01*
X010439Y008961D02*
X010419Y008961D01*
X010419Y009018D02*
X010439Y009018D01*
X010421Y009061D02*
X010429Y009069D01*
X010458Y008730D02*
X006221Y008730D01*
X006163Y008673D02*
X010502Y008673D01*
X011053Y008097D02*
X004632Y008097D01*
X004726Y008040D02*
X011111Y008040D01*
X010361Y007694D02*
X010038Y007694D01*
X010106Y007637D02*
X010147Y007637D01*
X010301Y007637D02*
X010314Y007637D01*
X013939Y009452D02*
X013939Y010393D01*
X014281Y010735D01*
X014281Y010741D01*
X014452Y010911D01*
X017268Y010911D01*
X017439Y010741D01*
X017439Y010735D01*
X017648Y010527D01*
X017648Y010321D01*
X017638Y010325D01*
X017543Y010325D01*
X017426Y010441D01*
X017445Y010486D01*
X017445Y010593D01*
X017404Y010691D01*
X017329Y010766D01*
X017230Y010807D01*
X017124Y010807D01*
X017026Y010766D01*
X016982Y010722D01*
X015023Y010722D01*
X014915Y010615D01*
X014085Y009784D01*
X014085Y009452D01*
X014039Y009406D01*
X014039Y009374D01*
X014022Y009374D01*
X014022Y009079D01*
X014002Y009079D01*
X014002Y009374D01*
X013984Y009374D01*
X013984Y009406D01*
X013939Y009452D01*
X013939Y009479D02*
X014085Y009479D01*
X014085Y009536D02*
X013939Y009536D01*
X013939Y009594D02*
X014085Y009594D01*
X014085Y009651D02*
X013939Y009651D01*
X013939Y009709D02*
X014085Y009709D01*
X014085Y009766D02*
X013939Y009766D01*
X013939Y009824D02*
X014124Y009824D01*
X014182Y009882D02*
X013939Y009882D01*
X013939Y009939D02*
X014239Y009939D01*
X014297Y009997D02*
X013939Y009997D01*
X013939Y010054D02*
X014354Y010054D01*
X014412Y010112D02*
X013939Y010112D01*
X013939Y010169D02*
X014470Y010169D01*
X014527Y010227D02*
X013939Y010227D01*
X013939Y010284D02*
X014585Y010284D01*
X014642Y010342D02*
X013939Y010342D01*
X013946Y010400D02*
X014700Y010400D01*
X014757Y010457D02*
X014003Y010457D01*
X014061Y010515D02*
X014815Y010515D01*
X014872Y010572D02*
X014118Y010572D01*
X014176Y010630D02*
X014930Y010630D01*
X014988Y010687D02*
X014233Y010687D01*
X014285Y010745D02*
X017004Y010745D01*
X017113Y010802D02*
X014343Y010802D01*
X014401Y010860D02*
X017320Y010860D01*
X017377Y010802D02*
X017241Y010802D01*
X017350Y010745D02*
X017435Y010745D01*
X017406Y010687D02*
X017487Y010687D01*
X017429Y010630D02*
X017545Y010630D01*
X017602Y010572D02*
X017445Y010572D01*
X017445Y010515D02*
X017648Y010515D01*
X017648Y010457D02*
X017433Y010457D01*
X017468Y010400D02*
X017648Y010400D01*
X017648Y010342D02*
X017525Y010342D01*
X017311Y010303D02*
X017547Y010067D01*
X017587Y010067D01*
X017587Y009909D01*
X017311Y009634D01*
X017311Y009096D01*
X017339Y009069D01*
X017132Y009494D02*
X016686Y009494D01*
X016599Y009406D01*
X016599Y009374D01*
X016581Y009374D01*
X016581Y009079D01*
X016561Y009079D01*
X016561Y009374D01*
X016543Y009374D01*
X016543Y009406D01*
X016456Y009494D01*
X016115Y009494D01*
X016169Y009548D01*
X016169Y009920D01*
X016373Y010124D01*
X017237Y010124D01*
X017329Y010032D01*
X017329Y010016D01*
X017361Y009937D01*
X017237Y009813D01*
X017132Y009708D01*
X017132Y009494D01*
X017132Y009536D02*
X016157Y009536D01*
X016169Y009594D02*
X017132Y009594D01*
X017132Y009651D02*
X016169Y009651D01*
X016169Y009709D02*
X017133Y009709D01*
X017190Y009766D02*
X016169Y009766D01*
X016169Y009824D02*
X017248Y009824D01*
X017305Y009882D02*
X016169Y009882D01*
X016188Y009939D02*
X017361Y009939D01*
X017337Y009997D02*
X016246Y009997D01*
X016303Y010054D02*
X017307Y010054D01*
X017249Y010112D02*
X016361Y010112D01*
X016299Y010303D02*
X017311Y010303D01*
X017193Y009949D02*
X016996Y009949D01*
X016563Y009516D01*
X016563Y009077D01*
X016571Y009069D01*
X016561Y009133D02*
X016581Y009133D01*
X016581Y009191D02*
X016561Y009191D01*
X016561Y009248D02*
X016581Y009248D01*
X016581Y009306D02*
X016561Y009306D01*
X016561Y009364D02*
X016581Y009364D01*
X016613Y009421D02*
X016529Y009421D01*
X016471Y009479D02*
X016671Y009479D01*
X016299Y010303D02*
X015803Y009807D01*
X015803Y009069D01*
X015364Y008644D02*
X015151Y008644D01*
X015063Y008731D01*
X015063Y008764D01*
X015045Y008764D01*
X015045Y009059D01*
X015026Y009059D01*
X015026Y008764D01*
X015008Y008764D01*
X015008Y008731D01*
X014963Y008686D01*
X014963Y008609D01*
X014855Y008502D01*
X014698Y008345D01*
X014424Y008345D01*
X014380Y008301D01*
X014371Y008297D01*
X015038Y008297D01*
X015097Y008356D01*
X015558Y008356D01*
X015364Y008550D01*
X015364Y008644D01*
X015364Y008615D02*
X014963Y008615D01*
X014963Y008673D02*
X015122Y008673D01*
X015064Y008730D02*
X015007Y008730D01*
X015026Y008788D02*
X015045Y008788D01*
X015045Y008846D02*
X015026Y008846D01*
X015026Y008903D02*
X015045Y008903D01*
X015045Y008961D02*
X015026Y008961D01*
X015026Y009018D02*
X015045Y009018D01*
X015028Y009061D02*
X015028Y008531D01*
X014911Y008558D02*
X015364Y008558D01*
X015414Y008500D02*
X014853Y008500D01*
X014796Y008443D02*
X015472Y008443D01*
X015529Y008385D02*
X014738Y008385D01*
X014407Y008328D02*
X015069Y008328D01*
X015028Y009061D02*
X015035Y009069D01*
X015026Y009079D02*
X015026Y009374D01*
X015008Y009374D01*
X015008Y009406D01*
X014920Y009494D01*
X014451Y009494D01*
X014451Y009633D01*
X015174Y010356D01*
X016099Y010356D01*
X015896Y010153D01*
X015525Y010153D01*
X015437Y010066D01*
X015437Y009548D01*
X015491Y009494D01*
X015151Y009494D01*
X015063Y009406D01*
X015063Y009374D01*
X015045Y009374D01*
X015045Y009079D01*
X015026Y009079D01*
X015026Y009133D02*
X015045Y009133D01*
X015045Y009191D02*
X015026Y009191D01*
X015026Y009248D02*
X015045Y009248D01*
X015045Y009306D02*
X015026Y009306D01*
X015026Y009364D02*
X015045Y009364D01*
X015078Y009421D02*
X014993Y009421D01*
X014936Y009479D02*
X015135Y009479D01*
X015163Y009581D02*
X015356Y009581D01*
X015367Y009585D01*
X015375Y009594D01*
X015376Y009594D02*
X015437Y009594D01*
X015437Y009651D02*
X015380Y009651D01*
X015380Y009604D02*
X015380Y009778D01*
X015163Y009778D01*
X015163Y009837D01*
X015104Y009837D01*
X015104Y010033D01*
X014911Y010033D01*
X014901Y010029D01*
X014892Y010021D01*
X014888Y010010D01*
X014888Y009837D01*
X015104Y009837D01*
X015104Y009778D01*
X014888Y009778D01*
X014888Y009604D01*
X014892Y009594D01*
X014451Y009594D01*
X014451Y009536D02*
X015449Y009536D01*
X015375Y009594D02*
X015380Y009604D01*
X015380Y009709D02*
X015437Y009709D01*
X015437Y009766D02*
X015380Y009766D01*
X015380Y009837D02*
X015380Y010010D01*
X015375Y010021D01*
X015367Y010029D01*
X015356Y010033D01*
X015163Y010033D01*
X015163Y009837D01*
X015380Y009837D01*
X015380Y009882D02*
X015437Y009882D01*
X015437Y009939D02*
X015380Y009939D01*
X015380Y009997D02*
X015437Y009997D01*
X015437Y010054D02*
X014872Y010054D01*
X014888Y009997D02*
X014814Y009997D01*
X014757Y009939D02*
X014888Y009939D01*
X014888Y009882D02*
X014699Y009882D01*
X014642Y009824D02*
X015104Y009824D01*
X015104Y009778D02*
X015163Y009778D01*
X015163Y009581D01*
X015163Y009594D02*
X015104Y009594D01*
X015104Y009581D02*
X015104Y009778D01*
X015104Y009766D02*
X015163Y009766D01*
X015163Y009709D02*
X015104Y009709D01*
X015104Y009651D02*
X015163Y009651D01*
X015104Y009581D02*
X014911Y009581D01*
X014901Y009585D01*
X014892Y009594D01*
X014888Y009651D02*
X014469Y009651D01*
X014527Y009709D02*
X014888Y009709D01*
X014888Y009766D02*
X014584Y009766D01*
X014930Y010112D02*
X015483Y010112D01*
X015343Y010303D02*
X015736Y010303D01*
X016051Y010303D01*
X016027Y010284D02*
X015102Y010284D01*
X015045Y010227D02*
X015970Y010227D01*
X015912Y010169D02*
X014987Y010169D01*
X015146Y010106D02*
X015146Y009948D01*
X015203Y009891D01*
X015163Y009882D02*
X015104Y009882D01*
X015104Y009939D02*
X015163Y009939D01*
X015163Y009997D02*
X015104Y009997D01*
X015146Y010106D02*
X015343Y010303D01*
X015160Y010342D02*
X016085Y010342D01*
X015657Y010815D02*
X015067Y010815D01*
X014043Y009791D01*
X014043Y009100D01*
X014012Y009069D01*
X014004Y009077D01*
X014002Y009133D02*
X014022Y009133D01*
X014022Y009191D02*
X014002Y009191D01*
X014002Y009248D02*
X014022Y009248D01*
X014022Y009306D02*
X014002Y009306D01*
X014002Y009364D02*
X014022Y009364D01*
X014054Y009421D02*
X013970Y009421D01*
X015163Y009824D02*
X015437Y009824D01*
X014378Y011091D02*
X014098Y010811D01*
X014378Y011091D02*
X017343Y011091D01*
X017622Y010811D01*
X017990Y011205D02*
X018185Y011205D01*
X018188Y011148D02*
X018048Y011148D01*
X018106Y011090D02*
X018212Y011090D01*
X018250Y011033D02*
X018163Y011033D01*
X018221Y010975D02*
X018317Y010975D01*
X018278Y010918D02*
X019780Y010918D01*
X019780Y010860D02*
X019229Y010860D01*
X018960Y010860D02*
X018336Y010860D01*
X018393Y010802D02*
X018892Y010802D01*
X018854Y010745D02*
X018451Y010745D01*
X018508Y010687D02*
X018830Y010687D01*
X018827Y010630D02*
X018566Y010630D01*
X018624Y010572D02*
X018827Y010572D01*
X018851Y010515D02*
X018681Y010515D01*
X018739Y010457D02*
X018885Y010457D01*
X018942Y010400D02*
X018796Y010400D01*
X018864Y010342D02*
X019836Y010342D01*
X019780Y010400D02*
X019247Y010400D01*
X018909Y010284D02*
X021254Y010284D01*
X021238Y010227D02*
X021101Y010227D01*
X021098Y010230D02*
X021087Y010234D01*
X020894Y010234D01*
X020894Y010037D01*
X020835Y010037D01*
X020835Y009978D01*
X020619Y009978D01*
X020619Y009805D01*
X020623Y009794D01*
X020632Y009786D01*
X020643Y009781D01*
X020835Y009781D01*
X020835Y009978D01*
X020894Y009978D01*
X020894Y009781D01*
X021087Y009781D01*
X021098Y009786D01*
X021107Y009794D01*
X021111Y009805D01*
X021111Y009978D01*
X020894Y009978D01*
X020894Y010037D01*
X021111Y010037D01*
X021111Y010211D01*
X021107Y010221D01*
X021098Y010230D01*
X021111Y010169D02*
X021238Y010169D01*
X021238Y010112D02*
X021111Y010112D01*
X021111Y010054D02*
X021238Y010054D01*
X021238Y009997D02*
X020894Y009997D01*
X020894Y010054D02*
X020835Y010054D01*
X020835Y010037D02*
X020835Y010234D01*
X020643Y010234D01*
X020632Y010230D01*
X020623Y010221D01*
X020619Y010211D01*
X020619Y010037D01*
X020835Y010037D01*
X020835Y009997D02*
X020156Y009997D01*
X020156Y009978D02*
X020156Y010037D01*
X020352Y010037D01*
X020352Y010230D01*
X020348Y010241D01*
X020340Y010249D01*
X020329Y010254D01*
X020156Y010254D01*
X020156Y010037D01*
X020096Y010037D01*
X020096Y009978D01*
X019900Y009978D01*
X019900Y009785D01*
X019904Y009775D01*
X019912Y009766D01*
X019923Y009762D01*
X020096Y009762D01*
X020096Y009978D01*
X020156Y009978D01*
X020352Y009978D01*
X020352Y009785D01*
X020348Y009775D01*
X020340Y009766D01*
X021238Y009766D01*
X021238Y009824D02*
X021111Y009824D01*
X021111Y009882D02*
X021238Y009882D01*
X021238Y009939D02*
X021111Y009939D01*
X020894Y009939D02*
X020835Y009939D01*
X020835Y009882D02*
X020894Y009882D01*
X020894Y009824D02*
X020835Y009824D01*
X020619Y009824D02*
X020352Y009824D01*
X020352Y009882D02*
X020619Y009882D01*
X020619Y009939D02*
X020352Y009939D01*
X020352Y010054D02*
X020619Y010054D01*
X020619Y010112D02*
X020352Y010112D01*
X020352Y010169D02*
X020619Y010169D01*
X020629Y010227D02*
X020352Y010227D01*
X020416Y010342D02*
X020575Y010342D01*
X020518Y010400D02*
X020472Y010400D01*
X020472Y010457D02*
X020499Y010457D01*
X020126Y010677D02*
X020075Y010626D01*
X019094Y010626D01*
X018655Y011033D02*
X019857Y011033D01*
X019799Y010975D02*
X018588Y010975D01*
X018186Y011263D02*
X017933Y011263D01*
X017875Y011320D02*
X018209Y011320D01*
X018244Y011378D02*
X017818Y011378D01*
X017193Y011602D02*
X021563Y011602D01*
X021433Y011838D02*
X019549Y011838D01*
X019573Y011896D02*
X027000Y011896D01*
X024043Y012823D02*
X024043Y013138D01*
X023453Y013728D01*
X021406Y012823D02*
X017547Y012823D01*
X017303Y012932D02*
X015598Y012932D01*
X015623Y012874D02*
X017280Y012874D01*
X017280Y012817D02*
X015640Y012817D01*
X015640Y012759D02*
X017284Y012759D01*
X017308Y012702D02*
X015627Y012702D01*
X015603Y012644D02*
X017347Y012644D01*
X017418Y012587D02*
X015550Y012587D01*
X015214Y012587D02*
X015005Y012587D01*
X015063Y012644D02*
X015161Y012644D01*
X015137Y012702D02*
X015120Y012702D01*
X015540Y012990D02*
X017335Y012990D01*
X017676Y012587D02*
X021276Y012587D01*
X021276Y010975D02*
X021192Y010975D01*
X021231Y010918D02*
X021238Y010918D01*
X020538Y010975D02*
X020453Y010975D01*
X020472Y010918D02*
X020499Y010918D01*
X020395Y011033D02*
X022144Y011033D01*
X022086Y010975D02*
X021932Y010975D01*
X021970Y010918D02*
X022067Y010918D01*
X022760Y010918D02*
X023033Y010918D01*
X023022Y010860D02*
X022760Y010860D01*
X022760Y010802D02*
X023022Y010802D01*
X023022Y010745D02*
X022760Y010745D01*
X023219Y010745D02*
X023278Y010745D01*
X023278Y010802D02*
X023219Y010802D01*
X023219Y010860D02*
X023278Y010860D01*
X023278Y010918D02*
X023219Y010918D01*
X023219Y010572D02*
X023278Y010572D01*
X023278Y010515D02*
X023219Y010515D01*
X023219Y010457D02*
X023278Y010457D01*
X022957Y010342D02*
X022704Y010342D01*
X022760Y010284D02*
X022902Y010284D01*
X022902Y010227D02*
X022760Y010227D01*
X022760Y009824D02*
X022902Y009824D01*
X022902Y009766D02*
X022760Y009766D01*
X022739Y009709D02*
X022922Y009709D01*
X022980Y009651D02*
X022682Y009651D01*
X022145Y009651D02*
X021792Y009651D01*
X021833Y009594D02*
X023517Y009594D01*
X023533Y009632D02*
X023492Y009533D01*
X023492Y009427D01*
X023533Y009328D01*
X023608Y009253D01*
X023707Y009212D01*
X023813Y009212D01*
X023912Y009253D01*
X023987Y009328D01*
X024028Y009427D01*
X024028Y009533D01*
X023987Y009632D01*
X023912Y009707D01*
X023813Y009748D01*
X023707Y009748D01*
X023608Y009707D01*
X023533Y009632D01*
X023516Y009651D02*
X023553Y009651D01*
X023574Y009709D02*
X023613Y009709D01*
X023594Y009766D02*
X024865Y009766D01*
X024817Y009824D02*
X023594Y009824D01*
X023594Y009882D02*
X024793Y009882D01*
X024782Y009939D02*
X023594Y009939D01*
X023594Y009997D02*
X024782Y009997D01*
X024799Y010054D02*
X023594Y010054D01*
X023907Y009709D02*
X024957Y009709D01*
X025092Y009651D02*
X023967Y009651D01*
X024003Y009594D02*
X025149Y009594D01*
X025207Y009536D02*
X024026Y009536D01*
X024028Y009479D02*
X025264Y009479D01*
X025281Y009421D02*
X024025Y009421D01*
X024001Y009364D02*
X025281Y009364D01*
X025281Y009306D02*
X023964Y009306D01*
X023900Y009248D02*
X025281Y009248D01*
X025281Y009191D02*
X019224Y009191D01*
X019240Y009133D02*
X025281Y009133D01*
X025281Y009076D02*
X019240Y009076D01*
X019302Y009018D02*
X025281Y009018D01*
X025281Y008961D02*
X019371Y008961D01*
X019409Y008903D02*
X025281Y008903D01*
X025281Y008846D02*
X019433Y008846D01*
X019437Y008788D02*
X025281Y008788D01*
X025281Y008730D02*
X019437Y008730D01*
X019418Y008673D02*
X025281Y008673D01*
X025281Y008615D02*
X019499Y008615D01*
X019544Y008558D02*
X025281Y008558D01*
X025281Y008500D02*
X019567Y008500D01*
X019575Y008443D02*
X025281Y008443D01*
X025281Y008385D02*
X019575Y008385D01*
X019555Y008328D02*
X025281Y008328D01*
X025281Y008270D02*
X019526Y008270D01*
X019490Y008212D02*
X025281Y008212D01*
X025281Y008155D02*
X019490Y008155D01*
X019451Y008097D02*
X025281Y008097D01*
X025281Y008040D02*
X019393Y008040D01*
X019392Y007867D02*
X019455Y007867D01*
X019455Y007810D02*
X019392Y007810D01*
X019392Y007752D02*
X019455Y007752D01*
X019455Y007694D02*
X019392Y007694D01*
X019392Y007637D02*
X019652Y007637D01*
X019652Y007632D02*
X019455Y007632D01*
X019455Y007439D01*
X019459Y007428D01*
X019468Y007420D01*
X019478Y007415D01*
X019652Y007415D01*
X019652Y007632D01*
X019681Y007661D02*
X019681Y007697D01*
X019673Y007705D01*
X019673Y009398D01*
X019909Y009398D01*
X019673Y009398D02*
X019516Y009555D01*
X018728Y009555D01*
X018256Y009555D01*
X018098Y009398D01*
X018098Y009077D01*
X018106Y009069D01*
X018096Y009133D02*
X018116Y009133D01*
X018116Y009191D02*
X018096Y009191D01*
X018096Y009248D02*
X018116Y009248D01*
X018116Y009306D02*
X018096Y009306D01*
X018096Y009364D02*
X018116Y009364D01*
X018085Y009421D02*
X018149Y009421D01*
X018122Y009479D02*
X018206Y009479D01*
X018146Y009536D02*
X021348Y009536D01*
X021345Y009479D02*
X018518Y009479D01*
X018576Y009421D02*
X021346Y009421D01*
X021370Y009364D02*
X019032Y009364D01*
X018913Y009364D02*
X018720Y009364D01*
X018726Y009306D02*
X018801Y009306D01*
X018745Y009248D02*
X018726Y009248D01*
X018628Y009248D02*
X018608Y009248D01*
X018608Y009191D02*
X018628Y009191D01*
X018628Y009133D02*
X018608Y009133D01*
X018618Y009069D02*
X018618Y009445D01*
X018728Y009555D01*
X018765Y009651D02*
X018209Y009651D01*
X018152Y009594D02*
X018837Y009594D01*
X018725Y009709D02*
X018267Y009709D01*
X018324Y009766D02*
X018702Y009766D01*
X018697Y009824D02*
X018382Y009824D01*
X018440Y009882D02*
X018535Y009882D01*
X018945Y010112D02*
X019900Y010112D01*
X019900Y010169D02*
X018945Y010169D01*
X018933Y010227D02*
X019900Y010227D01*
X019900Y010230D02*
X019900Y010037D01*
X020096Y010037D01*
X020096Y010254D01*
X019923Y010254D01*
X019912Y010249D01*
X019904Y010241D01*
X019900Y010230D01*
X019900Y010054D02*
X019120Y010054D01*
X019177Y009997D02*
X020096Y009997D01*
X020096Y010054D02*
X020156Y010054D01*
X020156Y010112D02*
X020096Y010112D01*
X020096Y010169D02*
X020156Y010169D01*
X020156Y010227D02*
X020096Y010227D01*
X020156Y009978D02*
X020156Y009762D01*
X020329Y009762D01*
X020340Y009766D01*
X020156Y009766D02*
X020096Y009766D01*
X020096Y009824D02*
X020156Y009824D01*
X020156Y009882D02*
X020096Y009882D01*
X020096Y009939D02*
X020156Y009939D01*
X019900Y009939D02*
X019209Y009939D01*
X019232Y009882D02*
X019900Y009882D01*
X019900Y009824D02*
X019232Y009824D01*
X019228Y009766D02*
X019912Y009766D01*
X019204Y009709D02*
X021279Y009709D01*
X021413Y009651D02*
X019164Y009651D01*
X019092Y009594D02*
X021372Y009594D01*
X021408Y009306D02*
X019143Y009306D01*
X019200Y009248D02*
X021479Y009248D01*
X021726Y009248D02*
X023620Y009248D01*
X023556Y009306D02*
X021797Y009306D01*
X021835Y009364D02*
X023519Y009364D01*
X023495Y009421D02*
X021858Y009421D01*
X021860Y009479D02*
X023492Y009479D01*
X023494Y009536D02*
X021857Y009536D01*
X021929Y009709D02*
X022088Y009709D01*
X022067Y009766D02*
X021970Y009766D01*
X021970Y009824D02*
X022067Y009824D01*
X021312Y010342D02*
X021155Y010342D01*
X021212Y010400D02*
X021258Y010400D01*
X021238Y010457D02*
X021231Y010457D01*
X020894Y010227D02*
X020835Y010227D01*
X020835Y010169D02*
X020894Y010169D01*
X020894Y010112D02*
X020835Y010112D01*
X018628Y009364D02*
X018608Y009364D01*
X018608Y009306D02*
X018628Y009306D01*
X019652Y007867D02*
X019711Y007867D01*
X019711Y007810D02*
X019652Y007810D01*
X019652Y007752D02*
X019711Y007752D01*
X019711Y007694D02*
X019652Y007694D01*
X019681Y007661D02*
X019685Y007665D01*
X019711Y007579D02*
X019652Y007579D01*
X019652Y007522D02*
X019711Y007522D01*
X019711Y007464D02*
X019652Y007464D01*
X019455Y007464D02*
X019392Y007464D01*
X019392Y007522D02*
X019455Y007522D01*
X019455Y007579D02*
X019392Y007579D01*
X019949Y007349D02*
X023936Y007349D01*
X023985Y007292D02*
X020007Y007292D01*
X020027Y007234D02*
X020307Y007234D01*
X020206Y007176D02*
X020027Y007176D01*
X020449Y007234D02*
X024042Y007234D01*
X024147Y007176D02*
X020550Y007176D01*
X020224Y006774D02*
X020027Y006774D01*
X019122Y006313D02*
X026965Y006313D01*
X026965Y006256D02*
X019122Y006256D01*
X019122Y006198D02*
X026965Y006198D01*
X026965Y006140D02*
X019122Y006140D01*
X019122Y006083D02*
X025834Y006083D01*
X025838Y006087D02*
X025763Y006012D01*
X025722Y005913D01*
X025722Y005807D01*
X025763Y005708D01*
X025838Y005633D01*
X025937Y005592D01*
X026043Y005592D01*
X026142Y005633D01*
X026217Y005708D01*
X026258Y005807D01*
X026258Y005913D01*
X026217Y006012D01*
X026142Y006087D01*
X026043Y006128D01*
X025937Y006128D01*
X025838Y006087D01*
X025777Y006025D02*
X019122Y006025D01*
X019122Y005968D02*
X019455Y005968D01*
X019455Y005994D02*
X019455Y005801D01*
X019652Y005801D01*
X019652Y006018D01*
X019478Y006018D01*
X019468Y006013D01*
X019459Y006005D01*
X019455Y005994D01*
X019455Y005910D02*
X019122Y005910D01*
X019122Y005853D02*
X019455Y005853D01*
X019455Y005742D02*
X019455Y005549D01*
X019459Y005538D01*
X019468Y005530D01*
X019478Y005526D01*
X019652Y005526D01*
X019652Y005742D01*
X019711Y005742D01*
X019711Y005801D01*
X019907Y005801D01*
X019907Y005994D01*
X019903Y006005D01*
X019895Y006013D01*
X019884Y006018D01*
X019711Y006018D01*
X019711Y005801D01*
X019652Y005801D01*
X019652Y005742D01*
X019455Y005742D01*
X019455Y005738D02*
X019122Y005738D01*
X019122Y005795D02*
X019652Y005795D01*
X019681Y005772D02*
X019717Y005736D01*
X020303Y005736D01*
X019907Y005738D02*
X021042Y005738D01*
X021029Y005725D02*
X020990Y005630D01*
X020990Y005527D01*
X021029Y005433D01*
X021102Y005360D01*
X021197Y005321D01*
X021299Y005321D01*
X021394Y005360D01*
X021467Y005433D01*
X021506Y005527D01*
X021506Y005630D01*
X021467Y005725D01*
X021394Y005797D01*
X021299Y005837D01*
X021197Y005837D01*
X021102Y005797D01*
X021029Y005725D01*
X021011Y005680D02*
X019907Y005680D01*
X019907Y005622D02*
X020990Y005622D01*
X020990Y005565D02*
X019907Y005565D01*
X019907Y005549D02*
X019907Y005742D01*
X019711Y005742D01*
X019711Y005526D01*
X019884Y005526D01*
X019895Y005530D01*
X019903Y005538D01*
X019907Y005549D01*
X019959Y005450D02*
X021022Y005450D01*
X020999Y005507D02*
X019122Y005507D01*
X019122Y005450D02*
X019404Y005450D01*
X019346Y005392D02*
X019122Y005392D01*
X019122Y005335D02*
X019335Y005335D01*
X019071Y005102D02*
X019681Y005102D01*
X019681Y005075D01*
X019319Y004713D01*
X019004Y004713D01*
X018618Y004404D02*
X018785Y004236D01*
X019417Y004236D01*
X019446Y004586D02*
X023899Y004586D01*
X023875Y004529D02*
X019750Y004529D01*
X019783Y004471D02*
X023874Y004471D01*
X023874Y004525D02*
X023942Y004689D01*
X024067Y004814D01*
X024230Y004882D01*
X024407Y004882D01*
X024571Y004814D01*
X024696Y004689D01*
X024764Y004525D01*
X024764Y004349D01*
X024696Y004185D01*
X024571Y004060D01*
X024407Y003992D01*
X024230Y003992D01*
X024067Y004060D01*
X023942Y004185D01*
X023874Y004349D01*
X023874Y004525D01*
X023874Y004414D02*
X020333Y004414D01*
X020333Y004439D02*
X020328Y004450D01*
X020320Y004458D01*
X020309Y004463D01*
X020116Y004463D01*
X020116Y004266D01*
X020057Y004266D01*
X020057Y004463D01*
X019864Y004463D01*
X019853Y004458D01*
X019845Y004450D01*
X019841Y004439D01*
X019841Y004266D01*
X020057Y004266D01*
X020057Y004207D01*
X019841Y004207D01*
X019841Y004033D01*
X019845Y004023D01*
X019853Y004014D01*
X019864Y004010D01*
X020057Y004010D01*
X020057Y004207D01*
X020116Y004207D01*
X020116Y004266D01*
X020333Y004266D01*
X020333Y004439D01*
X020333Y004356D02*
X023874Y004356D01*
X023895Y004299D02*
X020333Y004299D01*
X020333Y004207D02*
X020116Y004207D01*
X020116Y004010D01*
X020309Y004010D01*
X020320Y004014D01*
X020328Y004023D01*
X020333Y004033D01*
X020333Y004207D01*
X020333Y004184D02*
X023943Y004184D01*
X023919Y004241D02*
X020116Y004241D01*
X020087Y004236D02*
X020642Y004791D01*
X020697Y004791D01*
X020027Y004874D02*
X024212Y004874D01*
X024073Y004817D02*
X020020Y004817D01*
X019963Y004759D02*
X024012Y004759D01*
X023954Y004702D02*
X019561Y004702D01*
X019504Y004644D02*
X023923Y004644D01*
X024426Y004874D02*
X026965Y004874D01*
X026965Y004817D02*
X024565Y004817D01*
X024626Y004759D02*
X026965Y004759D01*
X026965Y004702D02*
X024683Y004702D01*
X024715Y004644D02*
X026965Y004644D01*
X026965Y004586D02*
X024738Y004586D01*
X024762Y004529D02*
X026965Y004529D01*
X026965Y004471D02*
X024764Y004471D01*
X024764Y004414D02*
X026965Y004414D01*
X026965Y004356D02*
X024764Y004356D01*
X024743Y004299D02*
X026965Y004299D01*
X026965Y004241D02*
X024719Y004241D01*
X024694Y004184D02*
X026965Y004184D01*
X026965Y004126D02*
X024637Y004126D01*
X024579Y004068D02*
X026965Y004068D01*
X026965Y004011D02*
X024452Y004011D01*
X024185Y004011D02*
X020312Y004011D01*
X020333Y004068D02*
X024058Y004068D01*
X024001Y004126D02*
X020333Y004126D01*
X020116Y004126D02*
X020057Y004126D01*
X020057Y004184D02*
X020116Y004184D01*
X020057Y004241D02*
X019783Y004241D01*
X019783Y004184D02*
X019841Y004184D01*
X019841Y004126D02*
X019783Y004126D01*
X019783Y004068D02*
X019841Y004068D01*
X019862Y004011D02*
X019783Y004011D01*
X019759Y003953D02*
X026965Y003953D01*
X026965Y003896D02*
X019702Y003896D01*
X019647Y003838D02*
X026965Y003838D01*
X026965Y003781D02*
X019647Y003781D01*
X019647Y003723D02*
X026965Y003723D01*
X026965Y003666D02*
X019647Y003666D01*
X019647Y003608D02*
X026965Y003608D01*
X026965Y003550D02*
X025288Y003550D01*
X025371Y003493D02*
X026965Y003493D01*
X026965Y003435D02*
X025425Y003435D01*
X025449Y003378D02*
X026965Y003378D01*
X026965Y003320D02*
X025472Y003320D01*
X025472Y003263D02*
X026965Y003263D01*
X026965Y003205D02*
X025521Y003205D01*
X025579Y003148D02*
X026965Y003148D01*
X026965Y003090D02*
X025636Y003090D01*
X025694Y003032D02*
X026364Y003032D01*
X026378Y003047D02*
X026303Y002972D01*
X026262Y002873D01*
X026262Y002767D01*
X026303Y002668D01*
X026378Y002593D01*
X026477Y002552D01*
X026583Y002552D01*
X026682Y002593D01*
X026757Y002668D01*
X026798Y002767D01*
X026798Y002873D01*
X026757Y002972D01*
X026682Y003047D01*
X026583Y003088D01*
X026477Y003088D01*
X026378Y003047D01*
X026306Y002975D02*
X025751Y002975D01*
X025809Y002917D02*
X026281Y002917D01*
X026262Y002860D02*
X025866Y002860D01*
X025924Y002802D02*
X026262Y002802D01*
X026272Y002745D02*
X025982Y002745D01*
X026039Y002687D02*
X026295Y002687D01*
X026342Y002630D02*
X026097Y002630D01*
X026154Y002572D02*
X026429Y002572D01*
X026269Y002457D02*
X026965Y002457D01*
X026965Y002514D02*
X026212Y002514D01*
X026327Y002399D02*
X026965Y002399D01*
X026965Y002342D02*
X026379Y002342D01*
X026379Y002284D02*
X026965Y002284D01*
X026965Y002227D02*
X026379Y002227D01*
X026379Y002169D02*
X026965Y002169D01*
X026965Y002112D02*
X026379Y002112D01*
X026379Y002054D02*
X026965Y002054D01*
X026965Y001996D02*
X026379Y001996D01*
X026379Y001939D02*
X026965Y001939D01*
X026965Y001881D02*
X026379Y001881D01*
X026379Y001824D02*
X026965Y001824D01*
X026965Y001766D02*
X026379Y001766D01*
X025920Y001766D02*
X020103Y001766D01*
X020127Y001824D02*
X025920Y001824D01*
X025920Y001881D02*
X020128Y001881D01*
X020124Y001939D02*
X025920Y001939D01*
X025920Y001996D02*
X020100Y001996D01*
X020059Y002054D02*
X025920Y002054D01*
X025920Y002112D02*
X019980Y002112D01*
X019760Y002112D02*
X018159Y002112D01*
X018159Y002169D02*
X025908Y002169D01*
X025850Y002227D02*
X018150Y002227D01*
X018126Y002284D02*
X025793Y002284D01*
X025505Y002572D02*
X020732Y002572D01*
X020808Y002630D02*
X025447Y002630D01*
X025390Y002687D02*
X020860Y002687D01*
X020884Y002745D02*
X025332Y002745D01*
X025275Y002802D02*
X020905Y002802D01*
X020905Y002860D02*
X025217Y002860D01*
X025160Y002917D02*
X020905Y002917D01*
X020886Y002975D02*
X024970Y002975D01*
X024907Y003032D02*
X020862Y003032D01*
X020813Y003090D02*
X024861Y003090D01*
X024837Y003148D02*
X020744Y003148D01*
X020414Y003148D02*
X020106Y003148D01*
X020049Y003205D02*
X024819Y003205D01*
X024819Y003263D02*
X019991Y003263D01*
X019934Y003320D02*
X024819Y003320D01*
X024843Y003378D02*
X019876Y003378D01*
X019818Y003435D02*
X024866Y003435D01*
X024921Y003493D02*
X019761Y003493D01*
X019703Y003550D02*
X025003Y003550D01*
X026696Y003032D02*
X026965Y003032D01*
X026965Y002975D02*
X026754Y002975D01*
X026779Y002917D02*
X026965Y002917D01*
X026965Y002860D02*
X026798Y002860D01*
X026798Y002802D02*
X026965Y002802D01*
X026965Y002745D02*
X026788Y002745D01*
X026765Y002687D02*
X026965Y002687D01*
X026965Y002630D02*
X026718Y002630D01*
X026631Y002572D02*
X026965Y002572D01*
X026965Y004932D02*
X020027Y004932D01*
X020027Y004989D02*
X026965Y004989D01*
X026965Y005047D02*
X020027Y005047D01*
X020027Y005104D02*
X026965Y005104D01*
X026965Y005162D02*
X020027Y005162D01*
X020027Y005220D02*
X026965Y005220D01*
X026965Y005277D02*
X020027Y005277D01*
X020027Y005335D02*
X021164Y005335D01*
X021070Y005392D02*
X020016Y005392D01*
X019711Y005565D02*
X019652Y005565D01*
X019652Y005622D02*
X019711Y005622D01*
X019711Y005680D02*
X019652Y005680D01*
X019652Y005738D02*
X019711Y005738D01*
X019711Y005795D02*
X021100Y005795D01*
X021396Y005795D02*
X025727Y005795D01*
X025722Y005853D02*
X019907Y005853D01*
X019907Y005910D02*
X025722Y005910D01*
X025745Y005968D02*
X019907Y005968D01*
X019711Y005968D02*
X019652Y005968D01*
X019652Y005910D02*
X019711Y005910D01*
X019711Y005853D02*
X019652Y005853D01*
X019455Y005680D02*
X019122Y005680D01*
X019122Y005622D02*
X019455Y005622D01*
X019455Y005565D02*
X019122Y005565D01*
X018744Y005622D02*
X018644Y005622D01*
X018644Y005680D02*
X018744Y005680D01*
X018744Y005738D02*
X018667Y005738D01*
X018703Y005795D02*
X018744Y005795D01*
X018744Y005853D02*
X018727Y005853D01*
X018728Y005910D02*
X018744Y005910D01*
X018744Y005968D02*
X018726Y005968D01*
X018744Y006025D02*
X018702Y006025D01*
X018666Y006083D02*
X018744Y006083D01*
X018744Y006140D02*
X018602Y006140D01*
X018933Y005240D02*
X019071Y005102D01*
X019783Y004414D02*
X019841Y004414D01*
X019841Y004356D02*
X019783Y004356D01*
X019783Y004299D02*
X019841Y004299D01*
X020057Y004299D02*
X020116Y004299D01*
X020116Y004356D02*
X020057Y004356D01*
X020057Y004414D02*
X020116Y004414D01*
X020116Y004068D02*
X020057Y004068D01*
X020057Y004011D02*
X020116Y004011D01*
X021332Y005335D02*
X026965Y005335D01*
X026965Y005392D02*
X021426Y005392D01*
X021474Y005450D02*
X026965Y005450D01*
X026965Y005507D02*
X021497Y005507D01*
X021506Y005565D02*
X026965Y005565D01*
X026965Y005622D02*
X026116Y005622D01*
X026188Y005680D02*
X026965Y005680D01*
X026965Y005738D02*
X026229Y005738D01*
X026253Y005795D02*
X026965Y005795D01*
X026965Y005853D02*
X026258Y005853D01*
X026258Y005910D02*
X026965Y005910D01*
X026965Y005968D02*
X026235Y005968D01*
X026203Y006025D02*
X026965Y006025D01*
X026965Y006083D02*
X026146Y006083D01*
X025751Y005738D02*
X021454Y005738D01*
X021485Y005680D02*
X025792Y005680D01*
X025864Y005622D02*
X021506Y005622D01*
X023164Y006543D02*
X026408Y006543D01*
X026351Y006601D02*
X023165Y006601D01*
X023162Y006658D02*
X026322Y006658D01*
X026302Y006716D02*
X023139Y006716D01*
X023101Y006774D02*
X026289Y006774D01*
X026232Y006831D02*
X023035Y006831D01*
X017348Y004356D02*
X017329Y004356D01*
X017329Y004299D02*
X017348Y004299D01*
X017348Y004241D02*
X017329Y004241D01*
X017329Y004184D02*
X017348Y004184D01*
X017348Y004126D02*
X017329Y004126D01*
X017311Y004068D02*
X017366Y004068D01*
X017421Y004011D02*
X017256Y004011D01*
X017114Y002980D02*
X017390Y002705D01*
X017725Y002342D02*
X015880Y002342D01*
X015938Y002284D02*
X017677Y002284D01*
X015043Y001902D02*
X015043Y001686D01*
X015043Y001902D02*
X014464Y002481D01*
X014464Y002672D01*
X006055Y006313D02*
X004155Y006313D01*
X004155Y006371D02*
X005997Y006371D01*
X005969Y006428D02*
X004155Y006428D01*
X004155Y006486D02*
X005951Y006486D01*
X005951Y006543D02*
X004155Y006543D01*
X004155Y006601D02*
X005962Y006601D01*
X005985Y006658D02*
X004155Y006658D01*
X004155Y006716D02*
X006036Y006716D01*
X004109Y007522D02*
X003642Y007522D01*
X003642Y007579D02*
X004127Y007579D01*
X004103Y007637D02*
X003636Y007637D01*
X003612Y007694D02*
X004091Y007694D01*
X004091Y007752D02*
X003589Y007752D01*
X003539Y007810D02*
X004091Y007810D01*
X004110Y007867D02*
X003482Y007867D01*
X003353Y007925D02*
X004134Y007925D01*
X004169Y007982D02*
X001356Y007982D01*
X001389Y008040D02*
X004227Y008040D01*
X004321Y008097D02*
X001403Y008097D01*
X001394Y008049D02*
X001394Y008049D01*
X001322Y007925D02*
X003159Y007925D01*
X003030Y007867D02*
X001289Y007867D01*
X001256Y007810D02*
X002973Y007810D01*
X002923Y007752D02*
X001216Y007752D01*
X001148Y007694D02*
X002899Y007694D01*
X002875Y007637D02*
X001492Y007637D01*
X001443Y007657D02*
X001585Y007599D01*
X001693Y007490D01*
X001752Y007348D01*
X001752Y007195D01*
X001693Y007053D01*
X001585Y006945D01*
X001443Y006886D01*
X001289Y006886D01*
X001148Y006945D01*
X001039Y007053D01*
X000980Y007195D01*
X000980Y007348D01*
X001039Y007490D01*
X001148Y007599D01*
X001289Y007657D01*
X001443Y007657D01*
X001604Y007579D02*
X002870Y007579D01*
X002870Y007522D02*
X001662Y007522D01*
X001704Y007464D02*
X002873Y007464D01*
X002897Y007407D02*
X001728Y007407D01*
X001752Y007349D02*
X002920Y007349D01*
X002966Y007292D02*
X001752Y007292D01*
X001752Y007234D02*
X002029Y007234D01*
X002002Y007223D02*
X001927Y007148D01*
X001886Y007049D01*
X001886Y006943D01*
X001927Y006844D01*
X002002Y006769D01*
X002100Y006728D01*
X002207Y006728D01*
X002305Y006769D01*
X002380Y006844D01*
X002421Y006943D01*
X002421Y007049D01*
X002380Y007148D01*
X002305Y007223D01*
X002207Y007264D01*
X002100Y007264D01*
X002002Y007223D01*
X001955Y007176D02*
X001744Y007176D01*
X001720Y007119D02*
X001915Y007119D01*
X001891Y007061D02*
X001697Y007061D01*
X001644Y007004D02*
X001886Y007004D01*
X001886Y006946D02*
X001586Y006946D01*
X001449Y006889D02*
X001908Y006889D01*
X001940Y006831D02*
X000650Y006831D01*
X000650Y006774D02*
X001998Y006774D01*
X002310Y006774D02*
X002967Y006774D01*
X002986Y006831D02*
X002367Y006831D01*
X002399Y006889D02*
X002986Y006889D01*
X002986Y006946D02*
X002421Y006946D01*
X002421Y007004D02*
X002986Y007004D01*
X002986Y007061D02*
X002416Y007061D01*
X002392Y007119D02*
X002986Y007119D01*
X002986Y007176D02*
X002352Y007176D01*
X002279Y007234D02*
X002986Y007234D01*
X003525Y007234D02*
X003821Y007234D01*
X003764Y007176D02*
X003525Y007176D01*
X003525Y007119D02*
X003706Y007119D01*
X003654Y007061D02*
X003525Y007061D01*
X003525Y007004D02*
X003630Y007004D01*
X003616Y006946D02*
X003525Y006946D01*
X003525Y006889D02*
X003616Y006889D01*
X003616Y006831D02*
X003525Y006831D01*
X003525Y006774D02*
X003616Y006774D01*
X003616Y006716D02*
X003525Y006716D01*
X003525Y006658D02*
X003616Y006658D01*
X003616Y006601D02*
X003514Y006601D01*
X003491Y006543D02*
X003616Y006543D01*
X003616Y006486D02*
X003442Y006486D01*
X003384Y006428D02*
X003616Y006428D01*
X003616Y006371D02*
X003327Y006371D01*
X003269Y006313D02*
X003616Y006313D01*
X003616Y006256D02*
X003212Y006256D01*
X003154Y006198D02*
X003616Y006198D01*
X003616Y006140D02*
X003096Y006140D01*
X003039Y006083D02*
X003616Y006083D01*
X003616Y006025D02*
X002981Y006025D01*
X002924Y005968D02*
X003616Y005968D01*
X003616Y005910D02*
X002866Y005910D01*
X002809Y005853D02*
X003616Y005853D01*
X003616Y005795D02*
X002751Y005795D01*
X002694Y005738D02*
X003616Y005738D01*
X003616Y005680D02*
X002636Y005680D01*
X002578Y005622D02*
X003616Y005622D01*
X003616Y005565D02*
X002521Y005565D01*
X002463Y005507D02*
X003616Y005507D01*
X003616Y005450D02*
X002423Y005450D01*
X002423Y005392D02*
X003616Y005392D01*
X003615Y005335D02*
X002423Y005335D01*
X002423Y005277D02*
X003557Y005277D01*
X003500Y005220D02*
X002423Y005220D01*
X002423Y005162D02*
X003442Y005162D01*
X003385Y005104D02*
X002423Y005104D01*
X002423Y005047D02*
X003327Y005047D01*
X003270Y004989D02*
X002423Y004989D01*
X002423Y004932D02*
X003212Y004932D01*
X003154Y004874D02*
X002423Y004874D01*
X002423Y004817D02*
X003097Y004817D01*
X003039Y004759D02*
X002423Y004759D01*
X002423Y004702D02*
X002982Y004702D01*
X002924Y004644D02*
X002423Y004644D01*
X002423Y004586D02*
X002867Y004586D01*
X002809Y004529D02*
X002423Y004529D01*
X002423Y004471D02*
X002752Y004471D01*
X002694Y004414D02*
X002423Y004414D01*
X002423Y004356D02*
X002636Y004356D01*
X002579Y004299D02*
X002423Y004299D01*
X002423Y004241D02*
X002541Y004241D01*
X002517Y004184D02*
X002423Y004184D01*
X002423Y004126D02*
X002514Y004126D01*
X002514Y004068D02*
X002423Y004068D01*
X002423Y004011D02*
X002514Y004011D01*
X002514Y003953D02*
X002423Y003953D01*
X002423Y003896D02*
X002514Y003896D01*
X002514Y003838D02*
X002423Y003838D01*
X002423Y003781D02*
X002514Y003781D01*
X002514Y003723D02*
X002423Y003723D01*
X002423Y003666D02*
X002514Y003666D01*
X002514Y003608D02*
X002423Y003608D01*
X002423Y003550D02*
X002514Y003550D01*
X002514Y003493D02*
X002423Y003493D01*
X002423Y003435D02*
X002514Y003435D01*
X002514Y003378D02*
X002423Y003378D01*
X002423Y003320D02*
X002514Y003320D01*
X002514Y003263D02*
X002423Y003263D01*
X002423Y003205D02*
X002514Y003205D01*
X002514Y003148D02*
X002423Y003148D01*
X002423Y003090D02*
X002514Y003090D01*
X002514Y003032D02*
X002423Y003032D01*
X002423Y002975D02*
X002514Y002975D01*
X002514Y002917D02*
X002423Y002917D01*
X002423Y002860D02*
X002514Y002860D01*
X002514Y002802D02*
X002423Y002802D01*
X002423Y002745D02*
X002514Y002745D01*
X002514Y002687D02*
X002423Y002687D01*
X002423Y002630D02*
X002514Y002630D01*
X002514Y002572D02*
X002423Y002572D01*
X002423Y002514D02*
X002514Y002514D01*
X002514Y002457D02*
X002423Y002457D01*
X002423Y002399D02*
X002514Y002399D01*
X002514Y002342D02*
X002423Y002342D01*
X002423Y002284D02*
X002514Y002284D01*
X002514Y002227D02*
X002423Y002227D01*
X002423Y002169D02*
X002514Y002169D01*
X002514Y002112D02*
X002423Y002112D01*
X002477Y002054D02*
X002514Y002054D01*
X001884Y002112D02*
X000650Y002112D01*
X000650Y002169D02*
X001884Y002169D01*
X001884Y002227D02*
X000650Y002227D01*
X000650Y002284D02*
X001884Y002284D01*
X001884Y002342D02*
X000650Y002342D01*
X000650Y002399D02*
X001884Y002399D01*
X001884Y002457D02*
X000650Y002457D01*
X000650Y002514D02*
X001884Y002514D01*
X001884Y002572D02*
X000650Y002572D01*
X000650Y002630D02*
X001884Y002630D01*
X001884Y002687D02*
X000650Y002687D01*
X000650Y002745D02*
X001884Y002745D01*
X001884Y002802D02*
X000650Y002802D01*
X000650Y002860D02*
X001884Y002860D01*
X001884Y002917D02*
X000650Y002917D01*
X000650Y002975D02*
X001884Y002975D01*
X001884Y003032D02*
X000650Y003032D01*
X000650Y003090D02*
X001884Y003090D01*
X001884Y003148D02*
X000650Y003148D01*
X000650Y003205D02*
X001884Y003205D01*
X001884Y003263D02*
X000650Y003263D01*
X000650Y003320D02*
X001884Y003320D01*
X001884Y003378D02*
X000650Y003378D01*
X000650Y003435D02*
X001884Y003435D01*
X001884Y003493D02*
X000650Y003493D01*
X000650Y003550D02*
X001884Y003550D01*
X001884Y003608D02*
X000650Y003608D01*
X000650Y003666D02*
X001884Y003666D01*
X001884Y003723D02*
X000650Y003723D01*
X000650Y003781D02*
X001884Y003781D01*
X001884Y003838D02*
X000650Y003838D01*
X000650Y003896D02*
X001884Y003896D01*
X001884Y003953D02*
X000650Y003953D01*
X000650Y004011D02*
X001884Y004011D01*
X001884Y004068D02*
X000650Y004068D01*
X000650Y004126D02*
X001884Y004126D01*
X001884Y004184D02*
X000650Y004184D01*
X000650Y004241D02*
X001884Y004241D01*
X001884Y004299D02*
X001486Y004299D01*
X001459Y004287D02*
X001557Y004328D01*
X001632Y004404D01*
X001673Y004502D01*
X001673Y004608D01*
X001632Y004707D01*
X001557Y004782D01*
X001459Y004823D01*
X001352Y004823D01*
X001254Y004782D01*
X001179Y004707D01*
X001138Y004608D01*
X001138Y004502D01*
X001179Y004404D01*
X001254Y004328D01*
X001352Y004287D01*
X001459Y004287D01*
X001325Y004299D02*
X000650Y004299D01*
X000650Y004356D02*
X001226Y004356D01*
X001174Y004414D02*
X000650Y004414D01*
X000650Y004471D02*
X001151Y004471D01*
X001138Y004529D02*
X000650Y004529D01*
X000650Y004586D02*
X001138Y004586D01*
X001153Y004644D02*
X000650Y004644D01*
X000650Y004702D02*
X001176Y004702D01*
X001231Y004759D02*
X000650Y004759D01*
X000650Y004817D02*
X001338Y004817D01*
X001473Y004817D02*
X001884Y004817D01*
X001884Y004874D02*
X000650Y004874D01*
X000650Y004932D02*
X001884Y004932D01*
X001884Y004989D02*
X000650Y004989D01*
X000650Y005047D02*
X001884Y005047D01*
X001884Y005104D02*
X000650Y005104D01*
X000650Y005162D02*
X001884Y005162D01*
X001884Y005220D02*
X000650Y005220D01*
X000650Y005277D02*
X001884Y005277D01*
X001884Y005335D02*
X000650Y005335D01*
X000650Y005392D02*
X001884Y005392D01*
X001884Y005450D02*
X000650Y005450D01*
X000650Y005507D02*
X001884Y005507D01*
X001884Y005565D02*
X000650Y005565D01*
X000650Y005622D02*
X001884Y005622D01*
X001904Y005680D02*
X000650Y005680D01*
X000650Y005738D02*
X001931Y005738D01*
X001989Y005795D02*
X000650Y005795D01*
X000650Y005853D02*
X002046Y005853D01*
X002104Y005910D02*
X000650Y005910D01*
X000650Y005968D02*
X002161Y005968D01*
X002219Y006025D02*
X000650Y006025D01*
X000650Y006083D02*
X002277Y006083D01*
X002334Y006140D02*
X000650Y006140D01*
X000650Y006198D02*
X002392Y006198D01*
X002449Y006256D02*
X000650Y006256D01*
X000650Y006313D02*
X002507Y006313D01*
X002564Y006371D02*
X000650Y006371D01*
X000650Y006428D02*
X002622Y006428D01*
X002679Y006486D02*
X000650Y006486D01*
X000650Y006543D02*
X002737Y006543D01*
X002795Y006601D02*
X000650Y006601D01*
X000650Y006658D02*
X002852Y006658D01*
X002910Y006716D02*
X000650Y006716D01*
X000650Y006889D02*
X001283Y006889D01*
X001146Y006946D02*
X000650Y006946D01*
X000650Y007004D02*
X001089Y007004D01*
X001036Y007061D02*
X000650Y007061D01*
X000650Y007119D02*
X001012Y007119D01*
X000988Y007176D02*
X000650Y007176D01*
X000650Y007234D02*
X000980Y007234D01*
X000980Y007292D02*
X000650Y007292D01*
X000650Y007349D02*
X000981Y007349D01*
X001005Y007407D02*
X000650Y007407D01*
X000740Y007464D02*
X001028Y007464D01*
X001071Y007522D02*
X000898Y007522D01*
X000976Y007550D02*
X000976Y007550D01*
X001011Y007579D02*
X001128Y007579D01*
X001079Y007637D02*
X001240Y007637D01*
X003546Y007292D02*
X003879Y007292D01*
X003936Y007349D02*
X003591Y007349D01*
X003615Y007407D02*
X003994Y007407D01*
X004052Y007464D02*
X003639Y007464D01*
X003802Y004759D02*
X004213Y004759D01*
X004165Y004702D02*
X003744Y004702D01*
X003687Y004644D02*
X004141Y004644D01*
X004132Y004586D02*
X003629Y004586D01*
X003571Y004529D02*
X004132Y004529D01*
X004152Y004471D02*
X003514Y004471D01*
X003456Y004414D02*
X004182Y004414D01*
X004240Y004356D02*
X003399Y004356D01*
X001884Y004356D02*
X001585Y004356D01*
X001637Y004414D02*
X001884Y004414D01*
X001884Y004471D02*
X001660Y004471D01*
X001673Y004529D02*
X001884Y004529D01*
X001884Y004586D02*
X001673Y004586D01*
X001658Y004644D02*
X001884Y004644D01*
X001884Y004702D02*
X001635Y004702D01*
X001580Y004759D02*
X001884Y004759D01*
X001636Y002054D02*
X000650Y002054D01*
X000650Y001996D02*
X001579Y001996D01*
X001551Y001939D02*
X000650Y001939D01*
X000650Y001881D02*
X001532Y001881D01*
X001532Y001824D02*
X000650Y001824D01*
X000650Y001766D02*
X001539Y001766D01*
X003236Y001051D02*
X003472Y001051D01*
X003709Y001051D01*
X012642Y011608D02*
X014492Y011608D01*
X014484Y011666D02*
X012692Y011666D01*
X012716Y011723D02*
X012910Y011723D01*
X012874Y011738D02*
X012968Y011699D01*
X013071Y011699D01*
X013166Y011738D01*
X013238Y011811D01*
X013277Y011905D01*
X013277Y012008D01*
X013238Y012103D01*
X013166Y012175D01*
X013071Y012214D01*
X012968Y012214D01*
X012874Y012175D01*
X012801Y012103D01*
X012762Y012008D01*
X012762Y011905D01*
X012801Y011811D01*
X012874Y011738D01*
X012831Y011781D02*
X012726Y011781D01*
X012726Y011838D02*
X012790Y011838D01*
X012766Y011896D02*
X012707Y011896D01*
X012679Y011954D02*
X012762Y011954D01*
X012763Y012011D02*
X012621Y012011D01*
X012597Y012069D02*
X012787Y012069D01*
X012825Y012126D02*
X012621Y012126D01*
X012638Y012184D02*
X012894Y012184D01*
X013145Y012184D02*
X013948Y012184D01*
X013933Y012241D02*
X012638Y012241D01*
X012637Y012299D02*
X013933Y012299D01*
X013946Y012356D02*
X012613Y012356D01*
X012589Y012414D02*
X013970Y012414D01*
X014022Y012472D02*
X012534Y012472D01*
X012448Y012529D02*
X014123Y012529D01*
X014201Y012272D02*
X015618Y013689D01*
X015356Y013680D02*
X014495Y013680D01*
X014544Y013623D02*
X015299Y013623D01*
X015241Y013565D02*
X014568Y013565D01*
X014577Y013508D02*
X015183Y013508D01*
X015126Y013450D02*
X014577Y013450D01*
X014557Y013392D02*
X014603Y013392D01*
X014545Y013335D02*
X014526Y013335D01*
X014514Y013277D02*
X014469Y013277D01*
X014901Y013392D02*
X015068Y013392D01*
X015011Y013335D02*
X014959Y013335D01*
X014573Y012356D02*
X014539Y012356D01*
X014573Y012299D02*
X014481Y012299D01*
X014468Y012241D02*
X014573Y012241D01*
X014573Y012184D02*
X014454Y012184D01*
X014430Y012126D02*
X014573Y012126D01*
X014573Y012069D02*
X014376Y012069D01*
X014271Y012011D02*
X014573Y012011D01*
X014573Y011954D02*
X013277Y011954D01*
X013276Y012011D02*
X014131Y012011D01*
X014025Y012069D02*
X013252Y012069D01*
X013215Y012126D02*
X013971Y012126D01*
X014531Y011838D02*
X013250Y011838D01*
X013274Y011896D02*
X014573Y011896D01*
X014504Y011781D02*
X013208Y011781D01*
X013130Y011723D02*
X014484Y011723D01*
X010207Y014026D02*
X027000Y014026D01*
X027000Y014083D02*
X000650Y014083D01*
X000650Y014026D02*
X010006Y014026D01*
X009879Y013968D02*
X000650Y013968D01*
X000650Y013910D02*
X009822Y013910D01*
X009773Y013853D02*
X000650Y013853D01*
X000650Y013795D02*
X009749Y013795D01*
X009725Y013738D02*
X000650Y013738D01*
X000650Y013680D02*
X009721Y013680D01*
X009721Y013623D02*
X000650Y013623D01*
X000650Y013565D02*
X009724Y013565D01*
X009748Y013508D02*
X000650Y013508D01*
X000650Y013450D02*
X009771Y013450D01*
X009818Y013392D02*
X000650Y013392D01*
X000650Y013335D02*
X009876Y013335D01*
D21*
X020854Y009997D02*
X020854Y009122D01*
X020854Y009997D02*
X020865Y010008D01*
X020303Y005736D02*
X020303Y004453D01*
X020087Y004236D01*
D22*
X019417Y004236D02*
X019417Y003512D01*
X020067Y002862D01*
X020579Y002862D01*
X023335Y002469D02*
X024398Y002469D01*
X025067Y001799D01*
X025067Y001150D01*
X024969Y001051D01*
X025205Y001051D01*
X025441Y001051D01*
X025677Y001051D02*
X025913Y001051D01*
X026150Y001051D01*
X026150Y002252D01*
X025146Y003256D01*
X003472Y001450D02*
X003472Y001051D01*
X003472Y001450D02*
X003167Y001755D01*
X003005Y001755D01*
X002783Y001976D01*
X002469Y001346D02*
X002469Y001110D01*
X002528Y001051D01*
D23*
X020579Y002862D03*
X023335Y002469D03*
X025146Y003256D03*
X012311Y012232D03*
X004520Y012520D03*
D24*
X010106Y013650D03*
X004476Y007744D03*
X003256Y007547D03*
X001366Y007272D03*
D25*
X002291Y001051D02*
X002528Y001051D01*
X002764Y001051D01*
D26*
X002469Y001346D02*
X002469Y001681D01*
X002154Y001996D01*
X002154Y005579D01*
X003256Y006681D01*
X003256Y007547D01*
X003886Y006917D02*
X004476Y007508D01*
X004476Y007744D01*
X003886Y006917D02*
X003886Y005224D01*
X002783Y004122D01*
X002783Y001976D01*
D27*
X013756Y004404D02*
X013776Y004423D01*
X014268Y003941D02*
X014268Y003921D01*
X018106Y004031D02*
X018260Y003878D01*
X018492Y003878D01*
X019122Y003878D01*
X019417Y004173D01*
X019417Y004236D01*
X018618Y004404D02*
X018618Y004925D01*
X018933Y005240D01*
X018933Y006657D01*
X019252Y006977D01*
X019681Y006992D01*
X016315Y008724D02*
X016315Y009069D01*
X013500Y009069D02*
X013500Y008587D01*
X013244Y008665D02*
X013126Y008547D01*
X013244Y008665D02*
X013244Y009069D01*
X018106Y004404D02*
X018106Y004031D01*
X025470Y007860D02*
X025470Y009540D01*
X025050Y009960D01*
X025470Y007860D02*
X026570Y006760D01*
X025900Y012180D02*
X023430Y012180D01*
X022827Y012783D01*
X022783Y012783D01*
X024043Y012823D02*
X026167Y012823D01*
X026360Y012630D01*
D28*
X018657Y010142D03*
M02*
